<?xml version="1.0" standalone="no"?>
<!DOCTYPE svg PUBLIC "-//W3C//DTD SVG 20010904//EN"
 "http://www.w3.org/TR/2001/REC-SVG-20010904/DTD/svg10.dtd">
<svg version="1.0" xmlns="http://www.w3.org/2000/svg"
 width="1026.000000pt" height="899.000000pt" viewBox="0 0 1026.000000 899.000000"
 preserveAspectRatio="xMidYMid meet">

<g transform="translate(0.000000,899.000000) scale(0.100000,-0.100000)"
fill="#000000" stroke="none">
<path d="M7754 8979 c-207 -35 -354 -208 -354 -418 0 -43 6 -97 14 -119 8 -22
83 -188 166 -369 158 -342 183 -383 238 -383 68 0 78 15 244 376 86 187 161
357 167 379 17 64 13 176 -9 246 -59 190 -271 321 -466 288z m-110 -112 c-31
-17 -75 -57 -106 -95 -16 -19 -28 -30 -28 -25 2 25 119 133 144 133 6 -1 2 -6
-10 -13z m266 -88 c59 -27 86 -53 118 -114 69 -135 0 -297 -146 -342 -202 -62
-378 159 -277 346 62 113 194 161 305 110z m-441 -100 c-7 -19 -16 -38 -21
-44 -9 -10 -6 4 14 58 15 39 20 27 7 -14z m612 -328 c-13 -23 -90 -86 -97 -78
-3 2 10 14 29 26 19 12 42 33 51 46 19 29 31 34 17 6z"/>
<path d="M333 7830 c-154 -31 -288 -167 -322 -328 -16 -74 -16 -2549 0 -2624
26 -122 114 -235 229 -291 l65 -32 777 -3 778 -2 0 -181 c0 -233 12 -267 115
-315 l50 -24 1691 0 1690 0 53 26 c34 17 62 41 79 67 l27 41 0 236 0 237 -28
40 c-15 22 -46 50 -70 64 -38 22 -55 24 -185 27 -142 4 -144 4 -137 25 36 113
35 88 35 1397 0 1408 3 1338 -63 1449 -42 69 -106 126 -187 165 l-65 31 -2245
1 c-1235 1 -2264 -2 -2287 -6z m157 -300 c0 -30 -20 -47 -77 -64 -20 -6 -23
-4 -23 18 0 20 10 31 48 50 26 14 48 25 50 26 1 0 2 -13 2 -30z m471 -50 c25
-14 25 -56 -1 -70 -43 -23 -83 27 -50 60 23 23 25 23 51 10z m2971 -21 c15 -8
27 -8 44 2 39 20 51 -2 21 -37 -24 -28 -26 -28 -63 -15 -28 10 -39 11 -42 2
-6 -17 -42 -13 -42 4 0 17 35 55 51 55 6 0 20 -5 31 -11z m-3242 -154 l0 -155
-40 0 -40 0 0 155 0 155 40 0 40 0 0 -155z m-300 39 c3 -54 9 -105 13 -111 10
-16 59 -17 75 -1 8 8 12 47 12 110 l0 98 40 0 40 0 0 -95 c0 -109 -13 -152
-56 -180 -34 -22 -101 -25 -138 -5 -46 24 -56 57 -56 179 l0 109 33 -2 32 -2
5 -100z m430 66 c0 -25 4 -30 25 -30 21 0 25 -5 25 -30 0 -25 -4 -30 -26 -30
-24 0 -25 -2 -22 -52 3 -46 6 -53 26 -56 17 -3 22 -10 22 -33 0 -27 -3 -29
-39 -29 -62 0 -82 24 -88 103 -3 37 -10 67 -14 67 -5 0 -9 14 -9 30 0 17 5 30
10 30 6 0 10 14 10 30 0 28 2 30 40 30 38 0 40 -2 40 -30z m1460 0 c0 -28 -2
-30 -40 -30 l-40 0 0 -115 0 -115 -35 0 -35 0 0 115 0 115 -40 0 c-38 0 -40 2
-40 30 l0 30 115 0 115 0 0 -30z m-1065 -38 c29 -18 31 -18 63 1 29 17 38 18
73 8 54 -16 69 -49 69 -151 l0 -80 -40 0 -40 0 0 80 c0 77 -1 80 -25 86 -43
11 -55 -10 -55 -92 l0 -74 -40 0 -40 0 0 80 c0 77 -1 80 -25 86 -43 11 -55
-10 -55 -92 l0 -74 -40 0 -40 0 0 115 0 115 40 0 c22 0 40 -4 40 -9 0 -6 12
-3 28 5 35 18 51 18 87 -4z m383 2 c12 -8 22 -10 22 -5 0 6 18 11 40 11 l40 0
0 -115 0 -115 -40 0 c-23 0 -40 5 -40 11 0 8 -4 8 -12 2 -65 -51 -158 10 -158
102 0 90 85 153 148 109z m281 5 c30 -11 67 -60 54 -73 -13 -12 -64 -6 -69 9
-7 17 -40 20 -49 5 -3 -5 7 -15 22 -21 81 -32 93 -40 99 -64 14 -56 -59 -104
-128 -85 -39 12 -68 38 -68 62 0 14 8 18 34 18 22 0 36 -6 40 -16 3 -9 15 -14
28 -12 42 6 29 26 -26 42 -77 23 -100 71 -53 113 37 34 65 40 116 22z m581
-27 c0 -34 -3 -39 -32 -47 -33 -10 -33 -10 -36 -82 l-3 -73 -39 0 -40 0 0 115
0 115 40 0 c22 0 40 -5 40 -10 0 -6 12 -4 28 4 39 22 42 20 42 -22z m163 24
c15 -8 27 -11 27 -5 0 5 18 9 40 9 l40 0 0 -115 0 -115 -40 0 c-22 0 -40 5
-40 10 0 7 -6 7 -19 0 -25 -13 -77 -13 -102 0 -50 27 -66 136 -28 184 35 45
76 55 122 32z m326 3 c46 -16 61 -54 61 -149 l0 -80 -40 0 -39 0 -3 83 -3 82
-29 3 c-39 5 -46 -10 -46 -95 l0 -73 -40 0 -40 0 0 115 0 115 40 0 c22 0 40
-4 40 -9 0 -6 12 -3 28 5 33 17 31 17 71 3z m267 -20 c34 -32 32 -59 -5 -59
-16 0 -34 7 -41 15 -16 19 -50 20 -50 1 0 -7 20 -19 45 -26 115 -32 102 -140
-17 -140 -41 0 -54 5 -79 29 -16 16 -29 34 -29 40 0 17 66 13 80 -4 17 -21 52
-20 48 1 -2 10 -22 22 -51 31 -53 15 -74 44 -63 88 14 54 114 69 162 24z m204
16 c17 -9 30 -11 30 -5 0 5 16 10 35 10 l35 0 0 -115 0 -115 -34 0 c-19 0 -36
6 -39 13 -4 10 -7 10 -18 0 -23 -22 -93 -16 -117 10 -60 64 -49 171 23 203 39
17 50 17 85 -1z m333 -26 c15 -16 27 -34 27 -39 0 -14 -67 -12 -90 2 -28 18
-54 -1 -58 -41 -5 -53 38 -82 68 -46 15 19 80 20 80 2 0 -23 -32 -59 -64 -72
l-31 -13 26 -10 c24 -10 39 -30 39 -52 0 -23 -34 -40 -81 -40 -42 0 -49 3 -49
20 0 16 7 20 35 20 19 0 35 5 35 10 0 6 -9 10 -20 10 -15 0 -20 7 -20 25 0 16
-6 25 -16 25 -26 0 -72 54 -79 93 -22 114 120 190 198 106z m220 27 c45 -19
68 -48 74 -94 10 -75 -40 -132 -115 -132 -81 0 -121 38 -122 113 0 59 27 103
73 116 45 13 54 13 90 -3z m287 -15 c25 -18 55 -85 44 -102 -3 -5 -39 -9 -80
-9 -66 0 -75 -2 -72 -17 4 -21 45 -30 61 -14 14 14 87 14 87 0 0 -6 -13 -24
-29 -40 -60 -59 -179 -28 -196 52 -15 66 24 141 78 152 35 8 80 -2 107 -22z
m215 15 c29 -12 55 -41 55 -60 0 -11 -60 -6 -79 6 -20 12 -56 4 -46 -12 3 -5
24 -14 46 -20 75 -20 100 -71 57 -117 -31 -34 -114 -33 -152 2 -36 33 -34 55
5 55 17 0 37 -7 46 -15 17 -18 44 -16 50 2 3 7 -15 18 -43 26 -89 26 -107 99
-32 132 42 18 51 18 93 1z m-3495 -111 l0 -115 -40 0 -40 0 0 115 0 115 40 0
40 0 0 -115z m-324 -532 c101 -34 185 -110 231 -208 24 -52 28 -72 28 -155 0
-82 -4 -103 -27 -153 -32 -69 -115 -154 -180 -186 -96 -46 -240 -46 -335 1
-66 32 -144 112 -178 183 -26 53 -29 71 -30 155 0 83 4 102 28 155 29 63 101
145 152 173 94 53 218 67 311 35z m824 -183 c0 -28 2 -30 20 -20 45 24 101
-37 86 -95 -11 -43 -31 -54 -101 -54 l-65 0 0 100 0 99 30 0 c27 0 30 -3 30
-30z m-320 -55 l0 -75 30 0 c23 0 30 -4 30 -20 0 -18 -7 -20 -55 -20 l-55 0 0
95 c0 95 0 95 25 95 24 0 25 -2 25 -75z m682 33 l38 2 0 -74 0 -74 -65 -1
c-55 0 -67 3 -80 22 -21 29 -19 90 3 109 21 19 44 27 56 20 5 -3 26 -4 48 -4z
m-550 -50 c3 -45 6 -53 23 -53 17 0 20 8 23 53 3 48 5 52 28 52 23 0 24 -2 24
-74 l0 -75 -57 0 c-78 0 -93 15 -93 91 0 55 1 58 24 58 23 0 25 -4 28 -52z
m418 27 c0 -17 -7 -25 -22 -27 -20 -3 -23 -10 -26 -50 -3 -43 -5 -48 -28 -48
-23 0 -24 2 -24 74 l0 75 50 -1 c46 0 50 -2 50 -23z m254 9 c6 -16 8 -16 24 0
10 9 28 16 41 16 l22 0 -23 -39 -23 -40 23 -30 c28 -38 28 -41 -2 -41 -14 0
-31 9 -40 21 l-14 21 -11 -21 c-7 -13 -22 -21 -37 -21 l-26 0 23 37 23 36 -22
39 -23 38 30 0 c17 0 31 -6 35 -16z m2311 -69 c19 -8 19 -9 -2 -12 -29 -5 -30
-38 -3 -53 27 -15 25 -42 -5 -68 -14 -12 -25 -17 -25 -12 0 6 -9 10 -19 10
-11 0 -23 5 -26 10 -4 6 5 10 19 10 32 0 36 34 6 50 -11 6 -20 21 -20 35 0 15
7 26 20 30 11 3 20 12 20 18 0 8 3 9 8 1 4 -6 16 -14 27 -19z m-121 -1 c20
-20 20 -38 0 -58 -14 -15 -14 -19 5 -51 28 -47 4 -46 -27 1 -27 42 -46 40 -50
-4 -6 -64 -22 -30 -22 48 l0 80 39 0 c23 0 46 -7 55 -16z m314 4 c21 -21 13
-46 -24 -88 l-36 -40 36 0 c20 0 36 -4 36 -10 0 -5 -22 -10 -50 -10 -27 0 -50
3 -50 6 0 3 18 26 40 51 43 50 48 64 26 82 -11 9 -20 9 -35 2 -12 -7 -22 -7
-25 -2 -13 20 63 28 82 9z m162 -6 c-43 -21 -54 -52 -15 -45 32 7 55 -12 55
-46 0 -34 -17 -51 -52 -51 -33 0 -48 24 -48 77 0 53 23 83 63 83 l32 0 -35
-18z m160 9 c0 -6 -15 -11 -32 -13 -41 -4 -54 -38 -14 -38 46 0 75 -57 44 -88
-15 -15 -88 -16 -88 -1 0 7 9 9 23 5 30 -7 60 14 56 40 -3 14 -14 20 -42 22
-40 3 -40 4 -31 51 6 28 10 31 45 31 22 0 39 -4 39 -9z m128 -19 c2 -13 -1
-29 -7 -36 -8 -10 -7 -17 4 -26 35 -29 10 -70 -42 -70 -43 0 -61 31 -39 65 10
15 12 26 6 30 -14 9 -12 39 2 53 7 7 26 12 43 10 23 -2 31 -9 33 -26z m-888
-72 c0 -5 -11 -10 -25 -10 -14 0 -25 5 -25 10 0 6 11 10 25 10 14 0 25 -4 25
-10z m510 -51 c0 -5 -7 -9 -15 -9 -15 0 -20 12 -9 23 8 8 24 -1 24 -14z
m-2460 -84 c-7 -8 -17 -15 -22 -15 -6 0 -5 7 2 15 7 8 17 15 22 15 6 0 5 -7
-2 -15z m-920 -60 c0 -37 -4 -65 -10 -65 -5 0 -10 23 -10 50 0 41 -3 50 -17
50 -16 1 -16 2 1 15 32 24 36 18 36 -50z m125 55 c-3 -5 -17 -10 -31 -10 -35
0 -30 -26 7 -34 27 -5 30 -9 27 -38 -3 -30 -6 -33 -40 -36 -23 -2 -38 1 -38 8
0 6 10 8 23 5 15 -4 28 -1 36 9 17 20 6 36 -24 36 -30 0 -35 8 -28 43 5 23 10
27 40 27 20 0 32 -4 28 -10z m167 -7 c22 -20 23 -70 1 -95 -9 -10 -30 -18 -50
-18 l-33 0 0 65 0 65 32 0 c17 0 40 -7 50 -17z m68 13 c0 -3 -4 -8 -10 -11 -5
-3 -10 -1 -10 4 0 6 5 11 10 11 6 0 10 -2 10 -4z m313 -8 c40 -101 45 -118 36
-118 -6 0 -13 9 -16 20 -4 14 -14 20 -33 20 -19 0 -29 -6 -33 -20 -3 -11 -10
-20 -16 -20 -9 0 -4 17 36 118 3 6 9 12 13 12 4 0 10 -6 13 -12z m95 -18 c15
-1 15 -2 0 -14 -10 -7 -18 -25 -18 -39 0 -14 8 -31 18 -37 15 -9 14 -10 -8 -8
-21 3 -26 9 -31 48 -4 27 -2 50 4 59 8 9 12 10 15 2 2 -6 11 -11 20 -11z
m-421 -77 c-2 -16 -4 -3 -4 27 0 30 2 43 4 28 2 -16 2 -40 0 -55z m103 58 c5
-11 10 -33 10 -49 0 -27 -3 -29 -39 -30 -26 -1 -41 3 -45 13 -7 18 19 45 45
45 10 0 19 5 19 10 0 6 -11 10 -25 10 -14 0 -25 5 -25 10 0 18 49 11 60 -9z
m90 9 c0 -5 -9 -10 -20 -10 -28 0 -25 -15 6 -29 36 -16 28 -45 -14 -49 -17 -2
-32 1 -32 6 0 5 11 7 25 4 18 -3 25 0 25 12 0 9 -6 16 -14 16 -20 0 -39 27
-32 45 6 17 56 21 56 5z m310 -1 c0 -5 -7 -9 -15 -9 -8 0 -17 -10 -19 -22 -3
-13 -7 -32 -9 -43 -3 -11 -5 3 -6 30 -1 47 1 50 24 51 14 1 25 -2 25 -7z m88
-39 l3 -46 -36 -2 c-24 -2 -37 2 -41 13 -9 21 14 45 43 45 14 0 21 4 18 10 -3
6 -17 10 -31 10 -15 0 -23 4 -19 11 4 5 19 9 33 7 24 -3 27 -8 30 -48z m92 40
c0 -5 -12 -10 -27 -10 -25 -1 -26 -2 -11 -13 9 -7 24 -16 33 -22 25 -16 8 -45
-26 -45 -16 0 -29 4 -29 9 0 5 8 7 19 4 30 -8 35 16 7 29 -25 11 -34 37 -19
51 10 11 53 8 53 -3z m-1505 -521 c75 -28 158 -106 197 -187 30 -61 33 -75 33
-162 0 -82 -4 -103 -27 -153 -35 -75 -115 -158 -186 -193 -52 -26 -67 -29
-162 -29 -98 0 -109 2 -165 31 -162 85 -244 263 -201 434 58 225 288 341 511
259z m548 -137 c29 -26 20 -35 -28 -29 -51 7 -61 -7 -17 -25 62 -27 79 -63 45
-100 -20 -23 -80 -24 -105 -1 -26 23 -23 43 7 43 14 0 25 -4 25 -10 0 -5 9
-10 21 -10 31 0 18 22 -27 45 -79 41 -46 125 41 106 11 -2 28 -11 38 -19z m97
0 c0 -26 2 -28 37 -24 48 6 63 -15 63 -90 0 -55 -1 -58 -24 -58 -23 0 -25 4
-28 53 -3 44 -6 52 -23 52 -17 0 -20 -8 -23 -52 -3 -49 -5 -53 -28 -53 -24 0
-24 1 -24 100 l0 100 25 0 c21 0 25 -5 25 -28z m350 -72 l0 -100 -25 0 -25 0
0 100 0 100 25 0 25 0 0 -100z m80 0 l0 -100 -25 0 -25 0 0 100 0 100 25 0 25
0 0 -100z m2515 65 c19 -8 19 -9 -2 -12 -29 -5 -30 -38 -3 -53 27 -14 25 -38
-5 -66 -14 -13 -25 -19 -25 -14 0 6 -9 10 -19 10 -11 0 -23 5 -26 10 -4 6 5
10 19 10 32 0 36 34 6 50 -11 6 -20 21 -20 35 0 15 7 26 20 30 11 3 20 12 20
18 0 8 3 9 8 1 4 -6 16 -14 27 -19z m-121 -1 c20 -20 20 -38 -1 -59 -15 -16
-15 -19 1 -47 10 -16 15 -32 11 -36 -3 -4 -10 0 -15 9 -36 64 -70 73 -70 18 0
-16 -4 -29 -10 -29 -6 0 -10 33 -10 80 l0 80 39 0 c23 0 46 -7 55 -16z m316
-39 c0 -37 4 -55 13 -56 10 0 10 -2 0 -6 -7 -2 -13 -13 -13 -24 0 -10 -4 -19
-10 -19 -5 0 -10 9 -10 20 0 17 -7 20 -40 20 -22 0 -40 3 -40 6 0 14 76 113
88 114 8 0 12 -17 12 -55z m189 37 c7 -14 6 -25 -4 -39 -13 -18 -13 -22 0 -27
18 -7 20 -47 3 -64 -15 -15 -85 -16 -94 0 -5 8 2 9 23 5 37 -7 69 13 60 37 -4
9 -17 16 -32 16 -14 0 -25 5 -25 10 0 6 9 10 20 10 10 0 24 9 29 19 14 26 -8
44 -45 35 -19 -5 -25 -4 -20 5 12 19 74 13 85 -7z m135 -4 c8 -13 6 -21 -7
-36 -16 -17 -16 -21 -2 -32 45 -37 -9 -87 -69 -64 -22 8 -21 60 2 73 9 6 12
11 5 11 -18 0 -26 39 -12 56 16 19 69 14 83 -8z m116 -28 c0 -37 4 -52 16 -57
15 -5 15 -7 0 -15 -9 -5 -16 -16 -16 -23 0 -8 -4 -15 -10 -15 -5 0 -10 9 -10
20 0 16 -7 20 -35 20 -19 0 -35 3 -35 8 0 14 70 112 80 112 6 0 10 -23 10 -50z
m-3334 12 c18 -12 36 -52 30 -68 -4 -9 -21 -14 -51 -14 -25 0 -45 -5 -45 -11
0 -7 16 -8 45 -3 48 7 54 1 28 -28 -23 -25 -84 -24 -108 2 -11 12 -19 36 -19
55 0 47 28 75 73 75 20 0 41 -4 47 -8z m2454 -62 c0 -5 -11 -10 -25 -10 -14 0
-25 5 -25 10 0 6 11 10 25 10 14 0 25 -4 25 -10z m510 -51 c0 -5 -7 -9 -15 -9
-15 0 -20 12 -9 23 8 8 24 -1 24 -14z m-2562 -181 c-2 -6 -10 -14 -16 -16 -7
-2 -10 2 -6 12 7 18 28 22 22 4z m-798 -43 c0 -29 4 -45 13 -46 10 0 10 -2 0
-6 -7 -2 -13 -11 -13 -19 0 -8 -4 -14 -10 -14 -5 0 -10 7 -10 15 0 10 -10 15
-30 15 -16 0 -30 4 -30 8 0 15 59 92 70 92 6 0 10 -20 10 -45z m170 25 c43
-43 10 -110 -55 -110 l-35 0 0 65 0 65 35 0 c22 0 43 -8 55 -20z m60 10 c0 -5
-2 -10 -4 -10 -3 0 -8 5 -11 10 -3 6 -1 10 4 10 6 0 11 -4 11 -10z m339 -51
c23 -59 24 -91 1 -50 -14 27 -56 28 -65 1 -3 -11 -11 -20 -16 -20 -12 0 -12 1
7 46 9 22 20 49 25 62 13 34 22 27 48 -39z m73 13 c-19 -6 -15 -70 6 -76 10
-3 6 -4 -8 -3 -22 2 -26 8 -31 47 -8 54 5 77 29 53 12 -12 13 -18 4 -21z
m-412 -32 c0 -27 -4 -50 -10 -50 -11 0 -14 83 -3 93 12 12 13 8 13 -43z m98
-1 l3 -46 -38 1 c-31 1 -38 5 -38 21 0 14 10 23 33 31 33 10 33 24 0 24 -10 0
-18 5 -18 11 0 6 12 9 28 7 25 -3 27 -7 30 -49z m92 42 c0 -5 -12 -11 -27 -13
l-28 -4 28 -14 c37 -18 34 -54 -5 -58 -16 -2 -28 1 -28 6 0 6 8 8 19 5 32 -8
33 15 1 32 -33 17 -36 25 -18 43 14 14 58 16 58 3z m310 0 c0 -5 -9 -11 -20
-14 -15 -4 -20 -14 -20 -41 0 -20 -4 -36 -10 -36 -5 0 -10 21 -10 48 0 45 1
47 30 49 17 1 30 -2 30 -6z m78 -3 c7 -7 12 -28 12 -48 0 -34 -2 -36 -35 -38
-24 -2 -37 2 -41 13 -8 20 13 45 37 45 11 0 19 5 19 10 0 6 -12 10 -26 10 -14
0 -23 4 -19 10 8 14 38 13 53 -2z m98 1 c4 -7 -2 -9 -16 -7 -33 4 -35 -16 -5
-30 37 -17 29 -46 -13 -50 -17 -2 -32 1 -32 6 0 5 11 7 25 4 17 -3 25 0 25 10
0 8 -11 20 -25 26 -27 12 -33 37 -12 45 21 9 46 7 53 -4z m3385 -454 c73 -52
83 -84 87 -281 6 -253 -15 -321 -113 -365 -38 -18 -112 -19 -1733 -19 -1661 0
-1694 0 -1731 20 -45 22 -88 70 -99 108 -9 35 -9 409 0 444 12 40 57 89 103
109 38 18 108 19 1742 16 l1701 -2 43 -30z"/>
<path d="M1542 7308 c-21 -21 -15 -76 9 -89 35 -18 69 3 69 44 0 38 -15 57
-45 57 -12 0 -26 -5 -33 -12z"/>
<path d="M2566 7298 c-21 -29 -20 -41 2 -68 40 -49 101 6 73 66 -14 31 -54 32
-75 2z"/>
<path d="M3362 7308 c-17 -17 -15 -64 4 -83 23 -22 56 -15 73 16 13 24 13 29
-2 53 -19 28 -54 35 -75 14z"/>
<path d="M3889 7296 c-25 -53 25 -110 66 -76 18 15 20 71 3 88 -21 21 -57 14
-69 -12z"/>
<path d="M4162 7318 c-21 -21 -13 -28 28 -28 43 0 52 13 21 30 -25 13 -34 13
-49 -2z"/>
<path d="M240 6323 c0 -120 1 -128 26 -160 14 -19 44 -48 67 -64 l40 -29 167
0 167 0 40 29 c23 16 53 45 67 64 25 32 26 40 26 160 l0 127 -34 0 c-34 0 -34
-1 -23 -29 9 -24 7 -34 -8 -57 -15 -22 -19 -43 -16 -81 l3 -53 -36 0 c-35 0
-36 1 -36 40 0 38 -2 40 -30 40 -25 0 -31 -5 -41 -40 -11 -36 -15 -40 -46 -40
-18 0 -33 3 -33 8 0 4 14 52 30 107 16 55 30 101 30 103 0 1 -17 2 -38 2 -38
0 -38 0 -34 -35 3 -24 -1 -42 -13 -54 -11 -13 -13 -21 -6 -26 19 -11 12 -63
-11 -85 -19 -17 -35 -20 -119 -20 l-97 0 29 98 c16 53 29 103 29 110 0 8 -17
12 -50 12 l-50 0 0 -127z"/>
<path d="M400 6389 c0 -17 5 -20 32 -17 22 2 34 9 36 21 3 14 -4 17 -32 17
-30 0 -36 -4 -36 -21z"/>
<path d="M657 6404 c-20 -20 -6 -35 31 -32 47 4 52 32 7 36 -17 2 -34 0 -38
-4z"/>
<path d="M376 6304 c-9 -25 -8 -25 31 -22 27 2 39 8 41 21 3 13 -4 17 -31 17
-23 0 -37 -6 -41 -16z"/>
<path d="M1487 6483 c-13 -12 -7 -54 9 -60 23 -8 47 20 39 46 -6 20 -34 28
-48 14z"/>
<path d="M1777 6484 c-13 -13 -7 -55 8 -60 21 -9 47 15 43 40 -3 21 -37 34
-51 20z"/>
<path d="M4220 6415 c0 -8 5 -15 10 -15 6 0 10 7 10 15 0 8 -4 15 -10 15 -5 0
-10 -7 -10 -15z"/>
<path d="M4250 6351 c0 -12 5 -21 10 -21 6 0 10 6 10 14 0 8 -4 18 -10 21 -5
3 -10 -3 -10 -14z"/>
<path d="M4082 6413 c4 -32 29 -41 51 -18 23 22 10 45 -25 45 -26 0 -29 -3
-26 -27z"/>
<path d="M4597 6373 c-13 -12 -7 -42 11 -51 26 -14 42 -3 42 29 0 24 -4 29
-23 29 -13 0 -27 -3 -30 -7z"/>
<path d="M4854 6436 c-8 -21 13 -46 32 -39 20 8 13 47 -9 51 -9 2 -20 -4 -23
-12z"/>
<path d="M4850 6355 c-11 -13 -11 -19 4 -33 20 -20 51 -6 51 24 0 24 -37 30
-55 9z"/>
<path d="M1380 6166 c0 -52 8 -60 45 -46 23 9 26 15 23 47 -3 35 -6 38 -35 41
-33 3 -33 3 -33 -42z"/>
<path d="M1806 6175 c-4 -10 1 -15 14 -15 13 0 18 5 14 15 -4 8 -10 15 -14 15
-4 0 -10 -7 -14 -15z"/>
<path d="M1565 6136 c-14 -10 -15 -15 -6 -21 8 -4 19 -1 28 8 20 19 1 30 -22
13z"/>
<path d="M2058 6142 c-20 -4 -23 -17 -7 -28 12 -7 33 10 28 23 -2 5 -12 7 -21
5z"/>
<path d="M460 5571 c-119 -39 -199 -146 -200 -268 l0 -62 45 -32 c40 -28 45
-38 51 -80 5 -37 12 -50 27 -55 26 -8 288 -8 315 0 15 5 22 19 27 55 6 43 12
53 49 80 50 35 61 69 46 138 -20 88 -78 166 -155 205 -43 23 -161 34 -205 19z
m70 -113 c0 -40 5 -80 10 -88 7 -10 10 12 10 73 l0 87 28 0 c49 0 51 -7 31
-109 -11 -52 -18 -96 -16 -98 2 -1 15 36 28 84 13 47 29 88 35 90 6 2 22 -5
34 -15 l24 -19 -42 -87 c-22 -47 -39 -86 -37 -86 2 0 23 34 47 76 43 75 43 75
60 54 27 -33 23 -47 -29 -109 l-47 -56 46 44 c50 47 68 47 68 0 0 -23 -9 -35
-42 -60 -46 -33 -56 -49 -57 -91 -1 -25 -4 -27 -63 -32 -35 -3 -70 -5 -78 -5
-8 0 -43 2 -77 5 l-63 6 0 34 c0 25 -8 42 -26 59 -15 14 -31 25 -35 25 -20 0
-41 50 -34 81 l7 31 56 -53 55 -54 -52 63 c-28 35 -51 69 -51 76 0 8 8 24 18
36 17 21 17 21 60 -54 24 -42 45 -76 47 -76 2 0 -14 39 -37 87 l-40 87 22 18
c12 10 27 18 34 18 6 0 22 -41 35 -90 13 -50 26 -89 28 -86 2 2 -3 43 -13 90
-9 47 -14 92 -11 100 4 10 19 16 37 16 l30 0 0 -72z"/>
<path d="M4220 5495 c0 -8 5 -15 10 -15 6 0 10 7 10 15 0 8 -4 15 -10 15 -5 0
-10 -7 -10 -15z"/>
<path d="M4250 5431 c0 -12 5 -21 10 -21 6 0 10 6 10 14 0 8 -4 18 -10 21 -5
3 -10 -3 -10 -14z"/>
<path d="M4082 5493 c4 -32 29 -41 51 -18 23 22 10 45 -25 45 -26 0 -29 -3
-26 -27z"/>
<path d="M4421 5476 c-27 -43 -26 -46 4 -46 23 0 25 4 25 40 0 22 -2 40 -4 40
-2 0 -14 -15 -25 -34z"/>
<path d="M4733 5523 c-18 -7 -16 -28 3 -43 12 -11 18 -10 31 3 13 13 14 19 3
31 -13 17 -17 18 -37 9z"/>
<path d="M4727 5444 c-12 -13 -8 -42 8 -48 25 -9 46 5 43 28 -3 21 -37 34 -51
20z"/>
<path d="M4866 5476 c-32 -42 -32 -46 -2 -46 21 0 24 6 28 40 2 22 3 40 2 40
-1 0 -13 -15 -28 -34z"/>
<path d="M1505 5460 c-4 -6 7 -10 25 -10 18 0 29 4 25 10 -3 6 -15 10 -25 10
-10 0 -22 -4 -25 -10z"/>
<path d="M1136 5155 c-21 -31 -20 -35 4 -35 16 0 20 7 20 30 0 36 -3 37 -24 5z"/>
<path d="M1286 5192 c-3 -3 -6 -28 -6 -55 0 -49 0 -49 27 -42 15 3 31 12 35
18 10 15 10 49 0 63 -8 13 -48 24 -56 16z"/>
<path d="M1707 5160 c-3 -13 0 -20 9 -20 15 0 19 26 5 34 -5 3 -11 -3 -14 -14z"/>
<path d="M1460 5120 c-11 -7 -12 -12 -3 -21 13 -13 33 -4 33 17 0 16 -9 18
-30 4z"/>
<path d="M1953 5123 c-7 -2 -13 -11 -13 -20 0 -20 34 -12 38 10 3 17 -3 20
-25 10z"/>
<path d="M3250 4476 c0 -9 7 -16 16 -16 9 0 14 5 12 12 -6 18 -28 21 -28 4z"/>
<path d="M4520 4475 c0 -8 7 -15 15 -15 8 0 15 7 15 15 0 8 -7 15 -15 15 -8 0
-15 -7 -15 -15z"/>
<path d="M2480 4411 l0 -69 40 0 c61 -1 88 39 57 83 -10 12 -22 16 -40 13 -23
-4 -27 -2 -27 18 0 15 -6 24 -15 24 -12 0 -15 -14 -15 -69z m74 -7 c7 -19 -1
-34 -19 -34 -18 0 -28 17 -21 35 7 20 32 19 40 -1z"/>
<path d="M5123 4460 c-4 -14 -14 -20 -33 -20 -29 0 -40 -15 -40 -55 0 -31 18
-43 63 -43 l37 0 0 69 c0 43 -4 69 -11 69 -6 0 -13 -9 -16 -20z m-5 -68 c3
-17 -2 -22 -17 -22 -14 0 -21 6 -21 18 0 38 33 41 38 4z"/>
<path d="M2341 4415 c-25 -66 -26 -75 -6 -75 8 0 15 5 15 10 0 6 14 10 30 10
17 0 30 -4 30 -10 0 -5 7 -10 16 -10 9 0 14 6 12 13 -3 6 -13 36 -22 65 -24
72 -47 71 -75 -3z m49 -11 c0 -8 -6 -14 -14 -14 -9 0 -12 7 -9 20 6 22 23 18
23 -6z"/>
<path d="M2891 4451 c-16 -30 9 -105 37 -109 22 -3 30 12 12 23 -14 9 -13 52
2 57 7 3 5 12 -8 26 -23 27 -30 27 -43 3z"/>
<path d="M3819 4453 c-4 -43 4 -99 15 -105 18 -12 36 -9 36 7 0 8 -4 15 -10
15 -14 0 -12 47 3 54 10 5 10 7 0 12 -7 3 -13 12 -13 20 0 20 -30 17 -31 -3z"/>
<path d="M4100 4406 c0 -52 3 -66 15 -66 10 0 15 10 15 28 l1 27 22 -27 c28
-34 53 -39 36 -7 -8 17 -8 27 2 46 19 36 1 57 -50 61 l-41 3 0 -65z m65 23 c0
-7 -8 -15 -17 -17 -18 -3 -25 18 -11 32 10 10 28 1 28 -15z"/>
<path d="M4719 4453 c-4 -43 4 -99 15 -105 18 -12 36 -9 36 7 0 8 -4 15 -10
15 -14 0 -12 47 3 54 10 5 10 7 0 12 -7 3 -13 12 -13 20 0 20 -30 17 -31 -3z"/>
<path d="M5340 4446 c0 -13 3 -31 6 -40 11 -29 24 -16 24 24 0 29 -4 40 -15
40 -9 0 -15 -9 -15 -24z"/>
<path d="M2632 4428 c-16 -16 -15 -63 1 -76 6 -5 31 -10 55 -9 l42 0 0 47 0
47 -43 1 c-24 1 -49 -4 -55 -10z m58 -23 c13 -16 6 -35 -15 -35 -18 0 -28 17
-21 35 7 19 20 19 36 0z"/>
<path d="M2777 4433 c-16 -15 -6 -43 18 -49 37 -9 30 -25 -7 -17 -30 6 -32 5
-19 -10 23 -28 81 -19 81 13 0 11 -12 22 -30 29 -39 13 -39 25 0 16 25 -5 29
-4 24 9 -6 16 -54 22 -67 9z"/>
<path d="M2992 4428 c-19 -19 -15 -66 7 -78 27 -14 44 -13 67 5 18 15 17 15
-15 13 -20 -2 -36 2 -38 10 -3 8 7 12 31 12 23 0 36 5 36 13 0 21 -22 37 -50
37 -14 0 -31 -5 -38 -12z m53 -18 c3 -5 -3 -10 -15 -10 -12 0 -18 5 -15 10 3
6 10 10 15 10 5 0 12 -4 15 -10z"/>
<path d="M3120 4419 c-26 -47 25 -100 68 -72 30 18 25 33 -10 31 -27 -3 -33 0
-33 17 0 17 6 19 34 17 31 -3 33 -2 22 12 -20 23 -68 20 -81 -5z"/>
<path d="M3250 4390 c0 -38 4 -50 15 -50 11 0 15 12 15 50 0 38 -4 50 -15 50
-11 0 -15 -12 -15 -50z"/>
<path d="M3320 4390 c0 -37 4 -50 14 -50 10 0 16 13 18 38 2 25 8 37 18 37 10
0 16 -12 18 -37 4 -43 32 -55 32 -14 0 34 10 56 25 56 15 0 25 -22 25 -56 0
-15 6 -24 15 -24 17 0 21 51 5 79 -8 15 -23 19 -90 19 l-80 1 0 -49z"/>
<path d="M3540 4421 c-14 -27 -13 -47 6 -65 20 -21 58 -20 75 0 11 14 10 16
-11 14 -40 -3 -52 -1 -45 10 3 6 19 10 36 10 17 0 29 5 29 13 0 38 -71 52 -90
18z m60 -11 c0 -5 -9 -10 -21 -10 -11 0 -17 5 -14 10 3 6 13 10 21 10 8 0 14
-4 14 -10z"/>
<path d="M3670 4389 c0 -36 4 -49 14 -49 10 0 16 13 18 38 2 25 8 37 18 37 10
0 16 -12 18 -37 2 -26 8 -38 18 -38 12 0 14 11 12 48 l-3 47 -47 2 -48 2 0
-50z"/>
<path d="M3910 4421 c-14 -27 -13 -47 6 -65 40 -41 109 7 86 59 -15 32 -76 36
-92 6z m64 -17 c7 -19 -1 -34 -19 -34 -18 0 -28 17 -21 35 7 20 32 19 40 -1z"/>
<path d="M4251 4426 c-16 -19 -10 -66 10 -79 19 -12 69 -1 69 14 0 6 -12 9
-27 7 -15 -2 -28 2 -30 10 -3 8 7 12 31 12 39 0 41 2 26 31 -13 23 -62 26 -79
5z m54 -16 c3 -5 -3 -10 -14 -10 -12 0 -21 5 -21 10 0 6 6 10 14 10 8 0 18 -4
21 -10z"/>
<path d="M4382 4428 c-17 -17 -15 -63 3 -78 9 -7 25 -10 41 -6 19 5 25 3 21
-6 -2 -8 -18 -12 -41 -11 -20 1 -36 1 -36 -2 0 -13 35 -35 55 -35 35 0 55 36
55 96 l0 51 -43 1 c-24 1 -49 -4 -55 -10z m58 -23 c13 -16 6 -35 -15 -35 -18
0 -28 17 -21 35 7 19 20 19 36 0z"/>
<path d="M4520 4390 c0 -38 4 -50 15 -50 11 0 15 12 15 50 0 38 -4 50 -15 50
-11 0 -15 -12 -15 -50z"/>
<path d="M4597 4434 c-14 -15 -6 -35 18 -46 14 -6 25 -15 25 -20 0 -5 -11 -6
-25 -2 -15 4 -25 2 -25 -5 0 -13 44 -25 65 -17 24 9 18 45 -10 56 -33 13 -32
22 1 14 20 -5 25 -3 22 7 -5 15 -59 25 -71 13z"/>
<path d="M4810 4389 c0 -37 4 -49 15 -49 10 0 15 10 15 30 0 18 6 33 15 36 26
10 16 31 -15 32 -29 1 -30 0 -30 -49z"/>
<path d="M4910 4420 c-25 -46 1 -79 60 -78 l40 0 0 48 0 47 -45 1 c-34 1 -47
-3 -55 -18z m68 -23 c4 -20 -25 -34 -40 -19 -15 15 -1 44 19 40 10 -2 19 -11
21 -21z"/>
<path d="M5200 4421 c-14 -27 -13 -47 6 -65 40 -41 109 7 86 59 -15 32 -76 36
-92 6z m64 -17 c7 -19 -1 -34 -19 -34 -18 0 -28 17 -21 35 7 20 32 19 40 -1z"/>
<path d="M5342 4358 c5 -15 28 -18 29 -3 0 6 -7 12 -17 13 -10 3 -15 -1 -12
-10z"/>
<path d="M6413 7372 l-243 -2 0 -279 0 -279 44 -58 c56 -77 179 -201 193 -197
6 2 22 -9 35 -26 14 -16 36 -30 49 -32 28 -3 81 20 73 32 -3 5 2 9 11 9 9 0
27 7 40 16 20 13 25 14 25 3 0 -11 2 -11 10 1 14 22 13 12 -16 -97 -37 -142
-107 -349 -165 -487 -61 -145 -135 -293 -148 -298 -6 -1 -47 -79 -92 -173 -44
-93 -105 -204 -135 -245 -30 -41 -83 -115 -119 -165 -36 -49 -68 -100 -71
-112 -15 -59 -24 -8 -27 160 -2 176 -3 174 -5 -58 -1 -132 -5 -251 -9 -264 -4
-17 -3 -22 5 -17 17 10 16 7 -22 -77 -101 -222 -190 -517 -222 -742 -22 -147
-25 -453 -6 -605 31 -251 102 -536 193 -775 49 -129 50 -131 55 -270 2 -77 2
-157 -2 -178 l-6 -37 -206 0 c-114 0 -213 -4 -220 -8 -7 -5 -10 -16 -7 -25 4
-10 -1 -21 -14 -29 -20 -12 -21 -21 -21 -239 0 -209 1 -227 19 -246 11 -12 37
-24 58 -27 44 -6 713 -14 1843 -21 443 -3 1006 -8 1251 -11 313 -5 482 -3 565
5 66 7 337 23 604 36 433 21 486 26 497 41 10 13 13 77 13 249 0 194 -3 234
-16 253 -15 22 -18 23 -237 22 -122 0 -228 -1 -235 0 -7 0 -10 5 -7 11 5 7
-27 8 -103 3 -94 -6 -113 -4 -127 9 -12 13 -38 16 -127 16 -61 0 -115 4 -120
9 -5 5 -10 1040 -11 2455 -2 1941 -5 2449 -14 2459 -25 24 -14 37 35 41 26 2
13 3 -28 3 -70 -1 -75 -2 -81 -26 -4 -14 -7 -1139 -8 -2501 l-1 -2476 -46 -7
c-26 -3 -111 -6 -189 -6 l-142 0 -1 232 c-1 128 -4 256 -7 283 -6 51 -25 105
-36 105 -7 0 -19 40 -16 52 1 4 -8 15 -20 23 -13 9 -20 22 -17 30 4 9 0 15
-10 15 -9 0 -16 8 -16 20 0 11 -4 20 -9 20 -9 0 -41 77 -41 100 0 7 -9 32 -20
54 -16 33 -21 76 -29 221 -12 232 -14 1551 -3 1590 l9 30 14 -30 c7 -16 18
-37 25 -45 7 -8 44 -76 82 -150 39 -74 74 -133 78 -130 5 3 9 52 8 110 -1 100
-3 108 -37 177 -21 40 -37 79 -37 86 0 8 -9 22 -20 32 -11 10 -20 24 -20 30 0
7 -8 23 -18 36 -47 60 -71 120 -80 196 -5 43 -10 542 -11 1118 l-1 1040 -291
7 c-324 8 -1471 14 -1846 10z m932 -93 c369 -2 775 -5 903 -7 l232 -3 0 -210
0 -209 -352 0 c-194 0 -580 -2 -858 -4 -278 -2 -426 0 -330 3 124 5 52 7 -247
6 l-422 0 -1 208 c0 136 3 207 10 207 5 0 10 6 10 13 0 9 42 11 192 6 106 -4
495 -8 863 -10z m1890 -219 c3 -5 3 -15 -1 -21 -6 -11 -23 6 -24 24 0 10 18 9
25 -3z m-1377 -290 l402 0 0 -62 c0 -66 13 -225 54 -673 27 -285 46 -581 46
-697 l0 -69 -632 6 c-635 6 -742 10 -703 26 29 11 -116 11 -455 -2 -201 -8
-304 -16 -323 -24 l-27 -14 31 57 c180 328 321 637 409 900 57 169 120 398
120 434 0 10 10 23 23 29 12 7 26 18 30 25 4 8 15 14 22 14 8 0 15 5 15 10 0
6 8 10 19 10 10 0 24 7 31 15 15 18 110 24 350 19 102 -2 366 -4 588 -4z m675
-130 c0 -69 -1 -405 -2 -747 l-1 -623 -35 0 c-20 0 -37 6 -39 13 -2 6 -9 120
-15 252 -6 132 -26 410 -46 617 -19 207 -37 431 -41 498 l-7 121 93 -3 94 -3
-1 -125z m-2323 -3210 c-12 -104 -56 -299 -71 -314 -6 -6 -9 -6 -9 2 0 7 -7
12 -15 12 -8 0 -15 -4 -15 -9 0 -5 -6 -16 -13 -23 -33 -33 -160 -315 -184
-406 -1 -7 -7 -10 -13 -7 -7 4 -10 280 -10 807 0 441 -2 799 -5 796 -3 -3 -5
-353 -5 -778 0 -463 -4 -770 -9 -764 -13 13 -55 156 -90 304 -117 496 -106
891 36 1335 54 169 57 170 64 30 l5 -120 1 136 c1 132 2 137 38 225 32 79 212
438 276 551 l24 42 3 -862 c2 -585 -1 -893 -8 -957z m684 1605 l37 -45 -255 0
c-141 0 -256 3 -256 6 0 3 14 24 31 45 l31 39 188 0 188 0 36 -45z m1305 28
c-20 -5 -42 -70 -25 -77 6 -2 -67 -5 -162 -5 -188 -1 -181 -4 -133 56 l26 33
155 -1 c85 -1 148 -3 139 -6z m-1889 -178 l-7 -90 -1 86 c-1 47 1 89 5 92 10
11 10 8 3 -88z m1399 5 l-6 -75 0 83 c0 46 3 80 6 75 4 -4 4 -42 0 -83z m-698
44 c6 -3 9 -46 8 -100 -1 -79 -4 -94 -16 -90 -8 3 -161 6 -339 6 l-324 0 0
102 0 101 331 -6 c181 -4 335 -9 340 -13z m1227 -4 l122 0 0 -79 c0 -44 -3
-86 -6 -95 -5 -14 -42 -16 -310 -16 l-304 0 0 102 0 101 188 -6 c103 -4 242
-7 310 -7z m-1337 -490 c44 -24 49 -55 49 -310 l0 -242 -30 -29 -30 -30 -229
3 c-227 3 -230 3 -255 27 l-26 24 0 259 0 259 25 24 24 25 226 0 c136 0 234
-4 246 -10z m1428 -9 c12 -8 11 -43 -4 -237 -9 -126 -20 -260 -23 -299 l-7
-70 -217 0 c-213 0 -218 0 -240 23 -23 22 -23 27 -26 278 l-3 255 30 29 29 30
224 0 c123 0 229 -4 237 -9z m-1864 -867 c-9 -15 -15 -45 -14 -81 0 -49 2 -55
11 -35 6 12 23 25 37 28 14 3 36 10 49 15 32 13 96 11 127 -3 42 -19 48 -67
42 -313 -6 -213 -15 -286 -39 -301 -7 -5 -29 12 -54 39 -39 43 -43 45 -57 29
-9 -9 -41 -73 -71 -141 -31 -68 -58 -127 -61 -130 -3 -3 -17 8 -31 24 -14 17
-23 25 -20 20 2 -6 -4 -31 -15 -55 -11 -25 -18 -55 -16 -68 4 -21 3 -22 -14
-6 -12 11 -15 21 -9 33 16 29 38 109 32 115 -3 3 -20 6 -38 6 -18 0 -35 4 -38
8 -2 4 15 86 40 182 26 105 44 198 44 233 0 42 10 83 35 148 31 80 35 102 35
183 0 97 3 108 26 99 13 -5 13 -9 -1 -29z m317 -376 c-1 -222 -4 -414 -6 -428
-2 -14 -4 167 -5 403 0 235 2 427 7 427 4 0 6 -181 4 -402z m1103 392 c4 -6 2
-17 -4 -23 -5 -7 -12 -53 -14 -103 -3 -89 -3 -89 -5 24 -2 103 5 132 23 102z
m324 -152 c-1 -84 -5 -164 -9 -178 -5 -15 -8 48 -9 153 -1 112 3 177 9 177 6
0 10 -57 9 -152z m-1732 60 c-3 -7 -5 -2 -5 12 0 14 2 19 5 13 2 -7 2 -19 0
-25z m275 -10 c-6 -6 -7 0 -4 19 5 21 7 23 10 9 2 -10 0 -22 -6 -28z m1415 0
c-3 -7 -5 -2 -5 12 0 14 2 19 5 13 2 -7 2 -19 0 -25z m-203 -303 c-4 -8 -10
-15 -15 -15 -4 0 -6 7 -3 15 4 8 10 15 15 15 4 0 6 -7 3 -15z m-3 -116 c-9
-23 -10 -22 -10 11 -1 23 2 31 9 24 7 -7 7 -19 1 -35z m244 -273 c0 -57 -3
-99 -7 -92 -14 20 -8 196 6 196 0 0 1 -47 1 -104z m-1460 -56 c-3 -5 -12 -10
-18 -10 -7 0 -6 4 3 10 19 12 23 12 15 0z m1058 -42 c-4 -19 -3 -20 6 -8 10
13 11 13 10 0 0 -8 -7 -31 -15 -50 l-14 -35 5 35 c4 27 3 30 -4 15 -15 -31
-13 -68 2 -59 9 5 9 4 0 -6 -10 -11 -15 -11 -28 0 -9 8 -12 17 -7 24 5 6 15
32 22 59 12 46 33 68 23 25z m-1536 -115 c-3 -10 -5 -4 -5 12 0 17 2 24 5 18
2 -7 2 -21 0 -30z m-56 -170 c-12 -20 -14 -14 -5 12 4 9 9 14 11 11 3 -2 0
-13 -6 -23z m2414 -214 c4 -5 18 -15 32 -20 18 -7 24 -15 20 -29 -4 -14 1 -20
22 -23 14 -2 -12 -5 -58 -6 l-83 -1 6 32 c10 50 44 76 61 47z m-2432 -39 c5
-19 0 -20 -66 -19 l-72 1 53 12 c29 8 55 16 59 20 11 11 21 6 26 -14z"/>
<path d="M6623 7230 c-83 -50 -85 -193 -3 -235 61 -31 135 -11 162 46 14 29
16 30 22 11 4 -11 16 -32 27 -46 18 -23 26 -25 99 -25 l80 0 0 104 0 104 -72
-1 c-87 0 -102 -7 -127 -56 -12 -22 -20 -30 -21 -19 0 14 -10 17 -59 17 -44 0
-60 -4 -65 -16 -11 -29 -6 -34 29 -34 41 0 46 -16 10 -32 -19 -9 -29 -8 -50 6
-33 22 -35 83 -4 112 20 18 22 18 51 1 35 -20 88 -23 88 -4 0 23 -32 59 -66
73 -44 19 -63 18 -101 -6z m312 -144 c0 -38 -28 -57 -51 -34 -11 11 -15 25
-10 43 5 21 12 26 34 23 22 -2 27 -8 27 -32z"/>
<path d="M7282 7108 l3 -133 30 0 c28 0 30 3 33 43 3 34 7 42 23 42 28 0 75
26 83 45 14 37 6 86 -19 110 -21 22 -33 25 -90 25 l-66 0 3 -132z m103 42 c0
-16 -6 -26 -17 -28 -14 -3 -18 3 -18 28 0 25 4 31 18 28 11 -2 17 -12 17 -28z"/>
<path d="M7050 7170 c-11 -11 -20 -33 -20 -50 0 -19 7 -34 20 -42 11 -7 20
-16 20 -20 0 -5 -9 -8 -20 -8 -42 0 -15 -54 36 -70 43 -14 92 2 104 34 10 29
-6 71 -33 84 -21 10 -21 11 6 11 34 1 35 23 2 56 -31 32 -86 34 -115 5z m75
-50 c3 -5 -1 -10 -9 -10 -8 0 -18 5 -21 10 -3 6 1 10 9 10 8 0 18 -4 21 -10z
m-5 -70 c8 -5 11 -12 8 -16 -10 -9 -38 3 -38 16 0 12 10 13 30 0z"/>
<path d="M7479 7168 c0 -7 0 -44 1 -83 1 -95 19 -112 119 -113 l71 -1 0 105 0
104 -35 0 -35 0 0 -70 c0 -56 -3 -72 -16 -77 -27 -10 -44 25 -44 89 0 58 0 58
-30 58 -17 0 -30 -5 -31 -12z"/>
<path d="M7700 7075 l0 -105 35 0 34 0 3 73 c3 64 5 72 23 72 18 0 20 -8 23
-72 l3 -73 34 0 35 0 0 64 c0 44 5 67 15 76 28 23 45 -5 45 -76 l0 -64 35 0
35 0 0 68 c0 44 -6 79 -18 102 -16 33 -20 35 -62 33 -59 -3 -62 -3 -157 3
l-83 4 0 -105z"/>
<path d="M8040 7024 l0 -154 35 0 35 0 0 54 0 55 28 -8 c61 -18 102 25 102
107 0 42 -5 58 -24 76 -20 21 -33 24 -100 24 l-76 1 0 -155z m130 50 c0 -38
-21 -54 -45 -34 -20 17 -19 57 2 68 27 16 43 3 43 -34z"/>
<path d="M6463 4253 c15 -2 39 -2 55 0 15 2 2 4 -28 4 -30 0 -43 -2 -27 -4z"/>
<path d="M6613 4253 c15 -2 39 -2 55 0 15 2 2 4 -28 4 -30 0 -43 -2 -27 -4z"/>
<path d="M6465 4089 c-24 -5 -20 -7 23 -8 28 0 52 1 52 3 0 8 -47 11 -75 5z"/>
<path d="M6613 4083 c15 -2 39 -2 55 0 15 2 2 4 -28 4 -30 0 -43 -2 -27 -4z"/>
<path d="M6758 4083 c7 -3 16 -2 19 1 4 3 -2 6 -13 5 -11 0 -14 -3 -6 -6z"/>
<path d="M6798 4083 c6 -2 18 -2 25 0 6 3 1 5 -13 5 -14 0 -19 -2 -12 -5z"/>
<path d="M6741 3938 c-1 -21 28 -38 66 -38 22 0 25 2 13 10 -8 5 -27 10 -42
10 -17 0 -28 6 -31 18 -4 16 -5 16 -6 0z"/>
<path d="M6463 3913 c15 -2 39 -2 55 0 15 2 2 4 -28 4 -30 0 -43 -2 -27 -4z"/>
<path d="M6613 3913 c15 -2 39 -2 55 0 15 2 2 4 -28 4 -30 0 -43 -2 -27 -4z"/>
<path d="M8095 4351 c-3 -5 -1 -12 4 -15 5 -4 9 -21 8 -39 -2 -27 -6 -32 -27
-32 -23 0 -25 4 -25 43 0 27 -4 42 -12 42 -9 0 -13 -17 -13 -54 0 -54 0 -54
35 -60 62 -12 70 -4 67 64 -3 42 -8 60 -17 60 -8 0 -16 -4 -20 -9z"/>
<path d="M8187 4353 c-4 -3 -7 -30 -7 -59 0 -38 4 -53 16 -58 25 -10 84 -7 84
4 0 9 -20 14 -47 11 -6 -1 -15 4 -19 11 -12 20 -15 66 -4 73 6 4 8 11 5 16 -7
11 -19 12 -28 2z"/>
<path d="M7893 4249 c-11 -5 2 -8 35 -8 28 -1 52 1 52 3 0 8 -69 12 -87 5z"/>
<path d="M8037 4184 c-4 -4 -7 -31 -7 -60 l0 -52 41 -7 c23 -4 45 -3 51 3 5 5
8 33 6 63 l-3 54 -40 3 c-23 2 -44 0 -48 -4z m70 -51 c-2 -28 -7 -39 -21 -41
-27 -6 -39 12 -31 47 5 24 12 31 30 31 20 0 23 -5 22 -37z"/>
<path d="M8187 4183 c-4 -3 -7 -30 -7 -59 0 -57 7 -64 66 -64 21 0 33 4 29 10
-3 6 -20 10 -36 10 -17 0 -28 4 -24 9 3 5 1 12 -5 16 -5 3 -10 1 -10 -6 0 -7
-3 -9 -6 -6 -4 4 -2 12 3 19 15 20 23 59 10 51 -6 -4 -8 0 -4 10 6 17 -4 23
-16 10z"/>
<path d="M7960 4115 c0 -8 1 -18 3 -22 1 -5 -18 -11 -43 -14 l-45 -6 53 -1
c40 -2 51 1 45 11 -4 6 -6 20 -5 30 2 9 1 17 -2 17 -3 0 -6 -7 -6 -15z"/>
<path d="M8030 3955 c0 -54 0 -54 34 -60 61 -12 71 -3 68 60 -3 47 -7 55 -24
55 -15 0 -18 -3 -11 -12 5 -7 9 -26 8 -43 -1 -25 -7 -31 -28 -33 -31 -4 -33 4
-12 36 14 20 14 21 0 16 -18 -7 -20 7 -3 24 9 9 7 12 -10 12 -20 0 -22 -5 -22
-55z"/>
<path d="M8182 3959 c-2 -63 4 -70 61 -68 20 1 24 3 12 6 -11 2 -30 6 -42 8
-19 4 -23 13 -26 58 l-3 52 -2 -56z"/>
<path d="M7959 3979 c0 -22 -1 -23 -10 -4 -8 18 -9 18 -8 -5 2 -45 -1 -49 -33
-59 -31 -9 -31 -9 18 -10 l52 -1 -6 48 c-5 53 -12 68 -13 31z"/>
<path d="M5872 7260 c0 -14 2 -19 5 -12 2 6 2 18 0 25 -3 6 -5 1 -5 -13z"/>
<path d="M5873 7080 c0 -30 2 -43 4 -27 2 15 2 39 0 55 -2 15 -4 2 -4 -28z"/>
<path d="M5874 6890 c0 -58 1 -81 3 -52 2 28 2 76 0 105 -2 28 -3 5 -3 -53z"/>
<path d="M5873 6695 c0 -44 2 -61 4 -37 2 23 2 59 0 80 -2 20 -4 1 -4 -43z"/>
<path d="M5874 6525 c0 -49 1 -71 3 -48 2 23 2 64 0 90 -2 26 -3 8 -3 -42z"/>
<path d="M5871 6374 c0 -11 3 -14 6 -6 3 7 2 16 -1 19 -3 4 -6 -2 -5 -13z"/>
<path d="M5872 6330 c0 -14 2 -19 5 -12 2 6 2 18 0 25 -3 6 -5 1 -5 -13z"/>
<path d="M5873 6220 c0 -36 2 -50 4 -32 2 17 2 47 0 65 -2 17 -4 3 -4 -33z"/>
<path d="M5872 6100 c0 -19 2 -27 5 -17 2 9 2 25 0 35 -3 9 -5 1 -5 -18z"/>
<path d="M5873 5935 c0 -44 2 -61 4 -37 2 23 2 59 0 80 -2 20 -4 1 -4 -43z"/>
<path d="M5873 5765 c0 -38 2 -53 4 -32 2 20 2 52 0 70 -2 17 -4 1 -4 -38z"/>
<path d="M5874 5510 c0 -63 1 -89 3 -57 2 31 2 83 0 115 -2 31 -3 5 -3 -58z"/>
<path d="M5871 5344 c0 -11 3 -14 6 -6 3 7 2 16 -1 19 -3 4 -6 -2 -5 -13z"/>
</g>
</svg>
