<?xml version="1.0" standalone="no"?>
<!DOCTYPE svg PUBLIC "-//W3C//DTD SVG 20010904//EN"
 "http://www.w3.org/TR/2001/REC-SVG-20010904/DTD/svg10.dtd">
<svg version="1.0" xmlns="http://www.w3.org/2000/svg"
 width="1026.000000pt" height="899.000000pt" viewBox="0 0 1026.000000 899.000000"
 preserveAspectRatio="xMidYMid meet">

<g transform="translate(0.000000,899.000000) scale(0.100000,-0.100000)"
fill="#000000" stroke="none">
<path d="M366 7481 c-17 -19 -18 -125 -22 -1943 -2 -1058 -7 -2077 -10 -2265
l-6 -343 -49 0 c-27 0 -49 -4 -49 -9 0 -17 234 -23 705 -17 264 3 892 8 1395
11 843 5 2933 21 3699 28 292 3 325 5 336 21 10 13 12 402 9 1914 -3 1043 -7
1943 -10 1999 -3 56 -11 108 -17 117 -9 11 -59 19 -207 31 -107 8 -271 22
-365 30 -180 16 -625 53 -1015 85 -129 11 -1152 96 -2274 190 -1121 93 -2053
170 -2071 170 -19 0 -39 -8 -49 -19z m485 -200 c129 -11 304 -24 389 -31 85
-6 200 -15 255 -21 55 -5 249 -21 430 -34 329 -25 550 -43 1140 -90 171 -14
396 -32 500 -40 299 -23 568 -44 715 -55 74 -6 185 -15 245 -20 97 -9 419 -34
1075 -85 107 -8 247 -19 310 -24 63 -6 153 -13 200 -16 47 -3 95 -8 108 -11
l22 -4 0 -1870 0 -1870 -512 -1 c-282 -1 -1262 -4 -2178 -8 -916 -4 -1667 -5
-1669 -3 -3 1 4 17 15 35 18 31 19 58 22 617 3 619 2 636 -43 696 -46 61 -47
61 -557 74 -507 12 -494 13 -545 -42 -54 -57 -53 -50 -53 -701 0 -583 1 -604
20 -642 11 -22 20 -41 20 -42 0 -2 -47 -3 -104 -3 -99 0 -105 1 -113 23 -12
33 -4 4070 8 4135 12 62 -18 59 300 33z m753 -3047 c14 -5 16 -41 18 -283 l3
-276 2 233 3 233 23 -3 22 -3 0 -435 0 -435 -52 -2 -53 -3 0 483 c0 266 3 487
7 490 8 8 8 8 27 1z m-176 -576 l2 -398 -25 0 -25 0 0 401 0 400 23 -3 22 -3
3 -397z m-193 -63 l0 -330 -27 -3 -28 -3 0 336 0 336 28 -3 27 -3 0 -330z
m245 -25 c0 -303 0 -310 -20 -310 -20 0 -20 7 -20 310 0 303 0 310 20 310 20
0 20 -7 20 -310z m-190 -90 c0 -213 -1 -220 -20 -220 -19 0 -20 7 -20 220 0
213 1 220 20 220 19 0 20 -7 20 -220z m-252 -43 l2 -177 -25 0 -25 0 0 173 c0
96 3 177 7 181 4 4 14 5 23 4 13 -3 15 -30 18 -181z m60 1 c-3 -171 -3 -173
-25 -176 l-23 -3 0 175 0 176 25 0 25 0 -2 -172z m-198 -68 l0 -110 -25 0 -25
0 0 103 c0 57 3 107 7 110 3 4 15 7 25 7 16 0 18 -10 18 -110z"/>
<path d="M818 7180 c-20 -11 -47 -34 -60 -52 -22 -32 -23 -40 -26 -270 -3
-205 -1 -241 14 -270 21 -42 52 -76 84 -93 31 -15 -147 -3 1795 -125 535 -34
1183 -75 1980 -125 303 -19 696 -44 875 -55 179 -11 363 -23 410 -26 78 -6 87
-4 113 16 58 46 62 65 62 295 -1 230 -3 241 -64 299 -34 32 -10 30 -746 85
-148 12 -648 50 -1110 86 -462 36 -955 74 -1095 85 -1186 90 -2094 160 -2140
165 -43 4 -63 0 -92 -15z m330 -226 c95 -6 137 -16 121 -28 -3 -2 -178 10
-341 23 -5 1 -8 6 -8 12 0 8 18 10 58 6 31 -4 108 -10 170 -13z m0 -123 c103
-7 133 -14 121 -26 -10 -10 -342 20 -346 32 -3 8 13 10 54 7 32 -3 109 -8 171
-13z m40 -128 c45 -3 82 -10 82 -16 0 -9 -62 -7 -272 9 -43 4 -78 11 -78 17 0
9 20 9 268 -10z m4694 -15 c51 -39 82 -109 86 -198 3 -66 0 -81 -25 -130 -38
-75 -81 -103 -148 -98 -67 6 -108 37 -145 112 -25 49 -30 71 -30 130 0 86 21
138 75 185 36 31 42 33 96 29 41 -3 66 -11 91 -30z"/>
<path d="M795 6199 c-68 -60 -65 -26 -72 -711 -3 -343 -3 -644 1 -669 9 -61
50 -122 99 -149 38 -22 55 -23 496 -36 438 -13 457 -12 497 6 27 12 53 33 71
61 l28 43 0 657 0 657 -30 43 c-57 80 -48 79 -498 105 -221 13 -437 24 -479
24 -73 0 -79 -2 -113 -31z m164 -275 c29 -36 27 -79 -4 -110 -27 -27 -55 -26
-85 2 -23 22 -20 102 4 120 30 21 62 17 85 -12z m571 -23 c234 -10 240 -12
240 -72 0 -54 -12 -55 -291 -40 -159 8 -258 17 -266 25 -6 6 -15 23 -18 38
-10 41 21 67 76 62 24 -2 141 -8 259 -13z m-567 -263 c41 -55 -2 -130 -66
-115 -43 11 -61 83 -31 125 22 31 70 26 97 -10z m602 6 c154 -5 172 -8 188
-26 23 -27 22 -61 -3 -83 -19 -17 -31 -17 -202 -7 -101 7 -213 12 -249 12 -81
0 -103 14 -103 65 0 21 6 41 15 46 8 6 50 8 99 5 47 -3 162 -9 255 -12z m-605
-281 c16 -21 20 -37 16 -61 -7 -46 -23 -62 -61 -62 -40 0 -55 17 -62 68 -10
74 63 110 107 55z m777 -14 c28 -10 39 -52 24 -86 l-12 -25 -196 7 c-308 12
-334 15 -352 47 -12 21 -13 31 -3 53 l12 27 253 -8 c138 -3 262 -10 274 -15z
m-783 -255 c56 -55 8 -152 -64 -129 -38 12 -52 83 -24 123 18 26 65 30 88 6z
m684 -20 c94 -5 104 -8 119 -30 18 -28 11 -70 -15 -82 -9 -4 -78 -5 -152 -1
-74 4 -186 7 -249 8 -126 1 -151 11 -151 59 0 53 14 57 187 54 87 -1 204 -5
261 -8z"/>
<path d="M2144 6146 c-39 -17 -79 -69 -93 -121 -15 -56 -15 -645 0 -696 14
-45 60 -104 98 -124 38 -19 534 -41 577 -25 39 15 62 38 85 82 18 34 19 63 19
383 0 372 0 375 -54 433 -39 44 -66 50 -257 61 -101 6 -220 13 -264 16 -56 3
-89 1 -111 -9z m204 -505 l3 -103 -120 4 c-66 2 -122 6 -124 9 -2 2 -1 38 2
79 l6 75 51 3 c36 2 57 9 70 23 14 15 28 19 63 17 l46 -3 3 -104z m235 62
c-13 -2 -33 -2 -45 0 -13 2 -3 4 22 4 25 0 35 -2 23 -4z m140 -10 c-13 -2 -35
-2 -50 0 -16 2 -5 4 22 4 28 0 40 -2 28 -4z m-260 -30 c-7 -2 -19 -2 -25 0 -7
3 -2 5 12 5 14 0 19 -2 13 -5z"/>
<path d="M3119 6083 c-15 -9 -39 -35 -53 -57 l-27 -41 3 -361 3 -361 29 -37
c51 -67 69 -73 249 -80 346 -14 358 -14 395 12 18 13 41 41 52 62 19 37 20 60
20 375 0 353 -3 378 -48 428 -39 43 -71 50 -292 63 -279 17 -300 17 -331 -3z
m150 -360 c30 -37 31 -40 31 -141 l0 -103 -87 3 -88 3 -3 124 c-1 69 0 131 2
138 4 8 24 13 60 13 51 0 57 -3 85 -37z m159 -80 c-10 -2 -26 -2 -35 0 -10 3
-2 5 17 5 19 0 27 -2 18 -5z m160 -10 c-21 -2 -55 -2 -75 0 -21 2 -4 4 37 4
41 0 58 -2 38 -4z m-90 -40 c-21 -2 -55 -2 -75 0 -21 2 -4 4 37 4 41 0 58 -2
38 -4z"/>
<path d="M4075 6036 c-37 -16 -82 -67 -93 -104 -4 -15 -7 -175 -7 -357 l0
-330 28 -47 c41 -71 67 -80 242 -89 83 -4 198 -8 257 -8 101 -1 108 0 138 25
64 54 65 58 68 392 4 328 -2 384 -44 439 -42 55 -64 61 -275 72 -107 6 -214
13 -239 15 -25 3 -59 -1 -75 -8z m147 -335 c11 -11 38 -161 38 -212 l0 -49
-72 0 c-40 0 -90 3 -110 6 -37 6 -38 8 -38 48 0 36 24 183 34 212 4 11 136 7
148 -5z m161 -58 c-13 -2 -33 -2 -45 0 -13 2 -3 4 22 4 25 0 35 -2 23 -4z
m120 -10 c-7 -2 -21 -2 -30 0 -10 3 -4 5 12 5 17 0 24 -2 18 -5z m-60 -40 c-7
-2 -19 -2 -25 0 -7 3 -2 5 12 5 14 0 19 -2 13 -5z"/>
<path d="M4908 5979 c-23 -11 -48 -38 -65 -67 l-28 -47 0 -685 0 -685 29 -53
c52 -93 46 -92 428 -102 183 -5 412 -10 509 -11 169 -3 177 -2 208 20 17 12
41 41 54 64 l22 42 3 640 c2 429 -1 656 -8 691 -12 56 -49 113 -91 138 -22 13
-115 21 -460 41 -239 13 -463 26 -499 29 -52 4 -73 1 -102 -15z m687 -557 c94
-44 199 -151 248 -252 44 -89 77 -213 77 -287 l0 -53 -59 0 c-104 0 -119 6
-126 54 -25 164 -118 292 -233 321 -160 42 -318 -93 -339 -287 l-6 -58 -95 0
-95 0 6 83 c3 45 15 111 26 147 38 123 140 259 236 315 107 63 246 70 360 17z
m-295 -822 c296 -12 367 -17 354 -29 -12 -10 -677 18 -688 30 -13 11 -1 11
334 -1z m20 -114 c-7 -12 -342 -7 -355 5 -6 6 57 8 175 7 103 -2 183 -7 180
-12z"/>
<path d="M2140 4933 c-19 -10 -48 -38 -65 -61 l-30 -44 -3 -771 c-2 -532 0
-784 8 -809 6 -20 22 -51 36 -68 54 -64 -9 -60 1032 -60 522 0 1072 3 1222 7
270 6 273 6 302 31 67 56 63 8 63 837 0 689 -1 753 -17 781 -21 38 -71 82
-101 89 -24 5 -259 13 -1397 50 -415 13 -813 27 -885 30 -113 5 -134 4 -165
-12z m685 -188 c292 -9 577 -19 635 -23 l105 -7 0 -705 0 -705 -215 -3 c-118
-2 -428 0 -687 3 l-473 7 0 724 0 724 53 0 c28 0 291 -7 582 -15z m1508 -44
c119 -5 219 -10 221 -12 4 -3 10 -1342 7 -1377 -1 -10 -102 -12 -488 -10
l-488 3 -3 709 -2 708 267 -7 c148 -4 366 -10 486 -14z"/>
<path d="M2750 4675 c-10 -12 -10 -19 -3 -23 6 -4 13 -20 15 -35 5 -45 23 -31
23 20 0 49 -14 64 -35 38z"/>
<path d="M2235 4590 c-4 -6 0 -12 7 -14 29 -9 498 -15 498 -7 0 12 -85 19
-312 25 -115 3 -190 1 -193 -4z"/>
<path d="M2615 3870 c47 -12 565 -12 565 0 0 6 -105 10 -297 9 -164 -1 -284
-5 -268 -9z"/>
<path d="M3630 4548 c0 -4 31 -8 68 -8 38 0 145 -3 238 -6 114 -5 166 -3 159
4 -12 12 -465 23 -465 10z"/>
<path d="M3800 3859 c0 -5 119 -9 282 -9 155 0 279 2 277 4 -10 8 -559 14
-559 5z"/>
<path d="M1621 3644 c0 -11 3 -14 6 -6 3 7 2 16 -1 19 -3 4 -6 -2 -5 -13z"/>
<path d="M3064 2806 c11 -9 27 -16 35 -16 21 0 2 16 -29 24 -24 7 -24 6 -6 -8z"/>
<path d="M2411 2734 c0 -11 3 -14 6 -6 3 7 2 16 -1 19 -3 4 -6 -2 -5 -13z"/>
<path d="M2401 2664 c0 -11 3 -14 6 -6 3 7 2 16 -1 19 -3 4 -6 -2 -5 -13z"/>
<path d="M2391 2604 c0 -11 3 -14 6 -6 3 7 2 16 -1 19 -3 4 -6 -2 -5 -13z"/>
<path d="M2374 2521 c4 -5 1 -12 -4 -14 -6 -3 -5 -4 2 -3 15 3 23 26 8 26 -6
0 -9 -4 -6 -9z"/>
<path d="M2366 2468 c-3 -13 -2 -26 2 -30 4 -4 9 6 10 22 3 35 -3 39 -12 8z"/>
<path d="M2361 2403 c0 -12 -5 -25 -11 -28 -5 -3 -10 -16 -9 -28 0 -12 -3 -35
-6 -52 -4 -16 -8 -42 -10 -57 -1 -14 -8 -57 -14 -95 -6 -37 -17 -122 -26 -188
-9 -66 -22 -157 -29 -202 -7 -45 -11 -85 -8 -88 22 -22 31 7 51 163 12 92 33
251 47 353 14 103 24 200 21 215 -3 21 -4 23 -6 7z"/>
<path d="M2120 1601 c0 -36 3 -40 33 -49 17 -6 70 -13 117 -16 47 -3 274 -19
505 -37 340 -25 452 -29 590 -24 748 26 1219 46 1223 50 9 9 -180 5 -568 -10
-777 -30 -792 -30 -1165 0 -521 40 -623 51 -651 69 -13 9 -24 23 -24 30 0 12
-28 25 -52 26 -5 0 -8 -18 -8 -39z"/>
</g>
</svg>
