<?xml version="1.0" standalone="no"?>
<!DOCTYPE svg PUBLIC "-//W3C//DTD SVG 20010904//EN"
 "http://www.w3.org/TR/2001/REC-SVG-20010904/DTD/svg10.dtd">
<svg version="1.0" xmlns="http://www.w3.org/2000/svg"
 width="1026.000000pt" height="899.000000pt" viewBox="0 0 1026.000000 899.000000"
 preserveAspectRatio="xMidYMid meet">

<g transform="translate(0.000000,899.000000) scale(0.100000,-0.100000)"
fill="#000000" stroke="none">
<path d="M5938 6033 c7 -3 16 -2 19 1 4 3 -2 6 -13 5 -11 0 -14 -3 -6 -6z"/>
<path d="M5988 6023 c6 -2 18 -2 25 0 6 3 1 5 -13 5 -14 0 -19 -2 -12 -5z"/>
<path d="M6048 6013 c7 -3 16 -2 19 1 4 3 -2 6 -13 5 -11 0 -14 -3 -6 -6z"/>
<path d="M6098 6003 c6 -2 18 -2 25 0 6 3 1 5 -13 5 -14 0 -19 -2 -12 -5z"/>
<path d="M6158 5993 c7 -3 16 -2 19 1 4 3 -2 6 -13 5 -11 0 -14 -3 -6 -6z"/>
<path d="M6218 5983 c7 -3 16 -2 19 1 4 3 -2 6 -13 5 -11 0 -14 -3 -6 -6z"/>
<path d="M6268 5973 c6 -2 18 -2 25 0 6 3 1 5 -13 5 -14 0 -19 -2 -12 -5z"/>
<path d="M6328 5963 c6 -2 18 -2 25 0 6 3 1 5 -13 5 -14 0 -19 -2 -12 -5z"/>
<path d="M6388 5953 c7 -3 16 -2 19 1 4 3 -2 6 -13 5 -11 0 -14 -3 -6 -6z"/>
<path d="M6448 5943 c7 -3 16 -2 19 1 4 3 -2 6 -13 5 -11 0 -14 -3 -6 -6z"/>
<path d="M6508 5933 c7 -3 16 -2 19 1 4 3 -2 6 -13 5 -11 0 -14 -3 -6 -6z"/>
<path d="M6558 5923 c6 -2 18 -2 25 0 6 3 1 5 -13 5 -14 0 -19 -2 -12 -5z"/>
<path d="M6618 5913 c7 -3 16 -2 19 1 4 3 -2 6 -13 5 -11 0 -14 -3 -6 -6z"/>
<path d="M6678 5903 c7 -3 16 -2 19 1 4 3 -2 6 -13 5 -11 0 -14 -3 -6 -6z"/>
<path d="M6728 5893 c6 -2 18 -2 25 0 6 3 1 5 -13 5 -14 0 -19 -2 -12 -5z"/>
<path d="M6788 5883 c6 -2 18 -2 25 0 6 3 1 5 -13 5 -14 0 -19 -2 -12 -5z"/>
<path d="M6838 5873 c6 -2 18 -2 25 0 6 3 1 5 -13 5 -14 0 -19 -2 -12 -5z"/>
<path d="M6898 5863 c6 -2 18 -2 25 0 6 3 1 5 -13 5 -14 0 -19 -2 -12 -5z"/>
<path d="M6958 5853 c6 -2 18 -2 25 0 6 3 1 5 -13 5 -14 0 -19 -2 -12 -5z"/>
<path d="M7018 5843 c7 -3 16 -2 19 1 4 3 -2 6 -13 5 -11 0 -14 -3 -6 -6z"/>
<path d="M7078 5833 c7 -3 16 -2 19 1 4 3 -2 6 -13 5 -11 0 -14 -3 -6 -6z"/>
<path d="M7327 5826 c-4 -9 -23 -16 -49 -19 l-43 -4 48 -1 c35 -2 49 2 54 13
3 9 3 18 0 21 -2 3 -7 -2 -10 -10z"/>
<path d="M7128 5823 c6 -2 18 -2 25 0 6 3 1 5 -13 5 -14 0 -19 -2 -12 -5z"/>
<path d="M7193 5813 c9 -2 23 -2 30 0 6 3 -1 5 -18 5 -16 0 -22 -2 -12 -5z"/>
<path d="M6222 5760 c-19 -12 -41 -38 -52 -62 -20 -45 -19 -58 2 -40 11 8 13
2 10 -29 -6 -56 22 -121 68 -163 86 -78 216 -52 272 55 17 34 17 36 -2 89 -25
69 -65 118 -120 147 -56 30 -132 31 -178 3z"/>
<path d="M7680 5531 c-54 -11 -78 -28 -100 -71 -24 -48 -26 -68 -5 -50 13 11
15 6 15 -39 0 -89 42 -152 124 -186 50 -21 103 -12 156 26 56 40 75 83 61 135
-33 124 -146 207 -251 185z"/>
<path d="M4758 4389 c4 -24 -2 -37 -29 -65 -44 -45 -87 -47 -123 -3 -22 26
-26 27 -26 11 0 -25 45 -70 78 -79 78 -19 146 49 122 122 -15 45 -28 53 -22
14z"/>
<path d="M5301 4307 c8 -29 6 -41 -12 -71 -11 -19 -29 -38 -40 -41 -32 -10
-77 5 -99 32 -13 17 -20 21 -20 11 0 -26 39 -66 75 -78 81 -27 150 40 126 120
-6 21 -18 43 -25 50 -13 10 -13 6 -5 -23z"/>
<path d="M5830 4238 c11 -18 20 -44 20 -58 0 -33 -38 -77 -72 -86 -23 -5 -34
0 -63 29 -22 22 -35 30 -35 20 0 -8 15 -30 34 -49 29 -29 41 -34 79 -34 38 0
49 5 71 31 42 50 29 125 -28 163 l-26 16 20 -32z"/>
<path d="M6954 3202 c-80 -28 -137 -82 -174 -164 -17 -37 -20 -66 -20 -220 l0
-177 -71 -41 c-84 -50 -197 -154 -249 -230 -128 -188 -182 -407 -129 -517 60
-125 272 -220 636 -284 112 -20 162 -23 398 -24 283 0 354 7 465 48 172 63
213 160 155 362 -86 295 -287 541 -543 664 l-70 34 -4 176 c-3 173 -3 177 -32
229 -74 133 -225 193 -362 144z"/>
<path d="M8827 2973 c-15 -14 -5 -34 26 -53 57 -35 77 -18 36 34 -19 25 -48
34 -62 19z"/>
<path d="M8833 2706 c-152 -142 -348 -280 -483 -338 -36 -15 -58 -28 -49 -28
28 0 182 81 278 147 109 75 225 170 291 237 65 68 41 56 -37 -18z"/>
<path d="M6213 2648 c-13 -6 -23 -15 -23 -19 0 -10 58 10 66 22 7 12 -16 10
-43 -3z"/>
<path d="M8248 2333 c6 -2 18 -2 25 0 6 3 1 5 -13 5 -14 0 -19 -2 -12 -5z"/>
</g>
</svg>
