<?xml version="1.0" standalone="no"?>
<!DOCTYPE svg PUBLIC "-//W3C//DTD SVG 20010904//EN"
 "http://www.w3.org/TR/2001/REC-SVG-20010904/DTD/svg10.dtd">
<svg version="1.0" xmlns="http://www.w3.org/2000/svg"
 width="1026.000000pt" height="899.000000pt" viewBox="0 0 1026.000000 899.000000"
 preserveAspectRatio="xMidYMid meet">

<g transform="translate(0.000000,899.000000) scale(0.100000,-0.100000)"
fill="#000000" stroke="none">
<path d="M3510 7396 c-300 -117 -656 -256 -791 -309 -136 -53 -309 -121 -385
-151 -77 -30 -179 -70 -229 -89 -131 -51 -715 -279 -820 -320 -215 -85 -846
-331 -906 -353 -85 -33 -131 -71 -165 -140 l-27 -55 7 -287 c4 -158 15 -613
26 -1012 11 -399 24 -916 30 -1150 6 -234 16 -440 22 -458 5 -18 21 -38 36
-46 25 -13 29 -13 52 9 29 28 323 166 360 169 14 2 62 19 108 40 46 21 96 39
113 41 16 2 42 11 57 19 15 8 56 28 92 44 36 16 121 55 190 87 69 32 154 71
190 87 36 16 83 38 105 48 270 125 328 149 338 144 7 -4 9 -4 5 1 -4 4 16 19
45 33 29 13 64 31 80 39 15 8 32 11 39 7 7 -4 8 -3 4 4 -7 11 7 16 41 15 7 -1
11 3 8 7 -7 11 24 22 38 13 7 -3 9 -3 5 2 -4 4 9 16 30 26 45 24 55 24 43 1
-6 -12 -6 -23 1 -33 8 -12 9 -11 5 3 -7 20 11 44 40 53 18 5 22 3 17 -9 -3 -9
-10 -16 -16 -16 -5 0 -6 -5 -3 -11 5 -7 14 -3 27 11 15 16 23 19 31 11 8 -8 5
-15 -9 -26 -18 -14 -17 -15 7 -4 25 10 37 40 15 36 -6 -1 -12 11 -14 27 l-4
28 23 -21 c23 -21 39 -20 39 4 0 15 54 18 81 4 8 -4 22 -3 30 3 12 8 11 9 -3
5 -9 -3 -24 1 -35 8 -15 11 -16 16 -5 27 11 11 12 10 7 -4 -6 -14 -2 -18 19
-18 19 0 26 5 26 19 0 11 4 22 8 25 5 3 8 -7 7 -22 -2 -15 0 -19 2 -10 3 14 8
16 23 8 20 -11 73 6 64 21 -2 4 4 7 14 6 22 -1 162 63 162 75 0 5 4 7 9 4 9
-6 52 13 289 125 57 27 105 49 107 49 1 0 49 22 106 48 57 27 190 89 294 137
211 99 237 113 229 126 -3 5 2 9 10 9 9 0 16 5 16 11 0 6 23 34 50 60 28 27
48 54 45 59 -3 6 -2 10 4 10 17 0 59 83 65 130 4 25 13 178 21 340 37 728 67
1315 85 1675 11 215 23 462 27 550 5 154 5 161 -16 188 -17 21 -31 27 -59 27
-24 -1 -236 -79 -582 -214z m580 60 c0 -28 -4 -132 -10 -231 -5 -99 -17 -319
-25 -490 -8 -170 -24 -485 -35 -700 -11 -214 -27 -541 -35 -725 -9 -184 -20
-345 -25 -356 -5 -12 -24 -33 -42 -47 -18 -14 -236 -118 -483 -230 -248 -113
-1006 -458 -1685 -767 -818 -372 -1247 -562 -1270 -563 -55 -2 -99 21 -119 62
-17 32 -20 86 -30 521 -7 267 -16 656 -22 865 -5 209 -12 556 -15 770 -6 365
-5 393 12 438 18 45 24 50 79 72 123 49 394 155 505 198 63 25 201 79 305 120
199 78 569 223 739 288 85 33 123 42 105 25 -4 -3 -259 -105 -709 -281 -716
-281 -803 -316 -829 -334 -50 -36 -71 -97 -70 -202 2 -192 17 -239 76 -239 13
0 221 79 461 176 743 299 1148 463 1367 551 116 47 428 173 695 280 856 345
923 373 943 391 42 38 54 82 62 229 6 135 6 142 -14 162 -12 12 -29 21 -39 21
-10 0 -121 -41 -247 -91 -127 -49 -286 -112 -355 -139 -110 -43 -470 -184
-768 -302 -57 -22 -106 -38 -109 -34 -8 7 27 22 477 198 962 378 1086 425
1098 421 7 -3 12 -25 12 -57z m-160 -106 c21 -11 40 -60 40 -101 0 -82 -72
-189 -139 -209 -73 -21 -105 19 -99 121 3 56 9 76 34 111 51 73 115 104 164
78z m-3141 -1294 c-12 -12 -229 -93 -229 -86 0 9 222 99 229 93 2 -1 2 -5 0
-7z m0 -79 c-13 -11 -221 -89 -225 -84 -3 2 46 25 108 50 62 25 115 43 117 41
2 -2 2 -6 0 -7z m0 -80 c-13 -11 -221 -89 -225 -84 -3 2 46 25 108 50 62 25
115 43 117 41 2 -2 2 -6 0 -7z m2906 -1347 c-3 -5 -11 -10 -16 -10 -6 0 -7 5
-4 10 3 6 11 10 16 10 6 0 7 -4 4 -10z m-1061 -505 c-4 -8 -11 -12 -16 -9 -6
4 -5 10 3 15 19 12 19 11 13 -6z m-69 -25 c-3 -5 -12 -10 -18 -10 -7 0 -6 4 3
10 19 12 23 12 15 0z m-156 -73 c-9 -7 -15 -20 -13 -30 2 -15 0 -16 -12 -6
-19 16 -18 24 9 37 29 14 36 14 16 -1z m-89 -42 c-14 -8 -29 -14 -35 -14 -5 0
1 6 15 14 14 8 30 14 35 14 6 0 -1 -6 -15 -14z"/>
<path d="M3725 6795 c-110 -45 -330 -135 -490 -200 -159 -65 -414 -168 -565
-230 -151 -62 -356 -145 -455 -185 -99 -40 -243 -99 -320 -130 -77 -31 -221
-90 -320 -130 -99 -40 -191 -82 -203 -94 -13 -11 -33 -38 -43 -58 -18 -36 -19
-71 -19 -877 0 -525 4 -849 10 -866 5 -14 21 -30 36 -35 28 -11 -7 -26 819
345 979 440 1352 607 1505 676 202 91 232 116 249 200 6 30 17 218 26 419 9
201 20 442 25 535 31 575 33 663 16 690 -11 17 -25 25 -44 24 -15 0 -117 -38
-227 -84z m135 -16 c0 -11 6 -11 80 6 14 3 5 -2 -19 -12 -23 -10 -43 -21 -42
-25 1 -5 1 -15 1 -24 0 -14 5 -13 35 5 19 11 35 17 35 13 0 -5 -18 -19 -41
-31 -46 -26 -45 -40 1 -21 17 7 33 10 37 7 3 -4 -3 -9 -13 -12 -10 -3 -31 -12
-45 -19 l-27 -14 1 49 c0 27 -5 55 -11 61 -15 15 -16 28 -2 28 6 0 10 -5 10
-11z m102 -320 c-4 -80 -7 -84 -83 -117 -98 -44 -109 -43 -109 11 0 68 17 88
100 124 41 17 80 30 85 29 6 -2 9 -23 7 -47z m-250 -125 c-9 -16 -142 -77
-150 -69 -9 8 8 35 22 35 8 0 38 11 68 25 62 29 72 31 60 9z m-266 -88 c9 -24
-19 -71 -44 -74 -12 -2 -22 1 -22 7 0 13 11 17 -342 -131 -211 -88 -288 -125
-291 -139 -6 -24 -35 -35 -56 -22 -12 7 -90 -21 -321 -117 -243 -101 -311
-133 -336 -160 -38 -39 -64 -36 -64 9 0 38 41 71 64 52 21 -18 626 236 666
279 24 26 32 29 47 20 26 -17 627 233 642 267 12 26 49 31 57 9z m504 -134 c0
-27 -6 -56 -12 -65 -14 -17 -140 -77 -164 -77 -10 0 -14 14 -14 53 0 28 4 57
8 64 11 17 132 72 160 73 20 0 22 -5 22 -48z m-1194 13 c8 -19 -2 -54 -21 -79
-12 -16 -17 -17 -30 -6 -23 19 -19 66 7 84 28 20 37 20 44 1z m682 -75 c1 -8
-7 -30 -19 -49 l-20 -34 -21 20 c-19 19 -19 22 -3 52 12 24 22 31 38 29 12 -2
23 -10 25 -18z m-1261 -59 c2 -42 -15 -65 -43 -59 -19 3 -16 23 3 23 6 0 15 4
19 8 4 4 -2 7 -14 7 -24 0 -30 28 -10 48 25 25 44 14 45 -27z m-77 -30 c0 -45
-2 -50 -30 -61 -37 -15 -60 -7 -60 20 0 41 29 70 88 89 1 1 2 -21 2 -48z
m1591 25 c-7 -8 -28 -20 -48 -27 -19 -6 -47 -17 -61 -25 -16 -8 -30 -10 -35
-5 -12 12 0 31 19 31 8 0 31 8 52 17 72 33 95 36 73 9z m-1688 -41 c-3 -8 -9
-15 -14 -15 -5 0 -9 -15 -9 -34 0 -21 -6 -36 -15 -40 -12 -4 -15 4 -15 45 0
42 3 51 23 58 27 10 38 5 30 -14z m-65 -43 c4 -27 -22 -72 -43 -72 -7 0 -15
-12 -17 -27 -2 -14 -9 -28 -15 -31 -10 -3 -13 15 -13 66 0 62 2 70 23 80 34
17 62 10 65 -16z m1490 -28 c4 -40 -30 -74 -58 -57 -27 17 -594 -225 -628
-268 -23 -29 -49 -37 -68 -20 -5 4 -139 -48 -316 -124 -231 -98 -312 -138
-329 -159 -14 -17 -29 -26 -43 -24 -30 4 -32 40 -2 74 21 25 27 27 45 17 17
-11 61 5 329 118 239 102 313 137 323 155 14 28 45 40 63 25 9 -7 92 23 307
115 235 99 299 130 318 155 30 37 55 34 59 -7z m-1598 -28 c0 -53 -17 -71 -22
-24 -4 44 -22 38 -28 -8 -6 -47 -30 -58 -30 -15 0 46 -28 41 -32 -6 -5 -55
-28 -55 -28 0 0 41 3 47 31 61 17 9 35 14 39 11 4 -3 13 2 20 10 7 8 21 15 31
15 16 0 19 -8 19 -44z m-155 -45 c8 -27 -11 -70 -37 -80 -44 -17 -64 31 -32
77 19 27 60 29 69 3z m2255 -34 c0 -63 -8 -72 -98 -110 -87 -37 -92 -36 -92
17 0 24 3 52 7 61 6 18 135 83 166 84 14 1 17 -8 17 -52z m-2361 30 c13 -17 5
-27 -24 -27 -26 0 -45 -18 -45 -41 0 -28 20 -33 44 -10 31 29 39 26 21 -9 -20
-38 -62 -51 -82 -25 -17 24 -16 39 2 75 23 45 62 62 84 37z m2111 -142 c0 -9
-15 -22 -32 -29 -18 -8 -50 -22 -71 -31 -42 -18 -53 -15 -42 12 5 14 9 15 12
4 3 -8 8 -9 12 -3 4 8 105 60 119 62 1 0 2 -7 2 -15z m-2018 -102 c23 -21 24
-83 2 -129 -46 -96 -165 -99 -164 -4 1 43 37 108 72 130 40 24 66 25 90 3z
m1758 -2 c0 -46 -38 -83 -64 -62 -9 8 -41 -2 -117 -35 -57 -26 -192 -84 -299
-131 -133 -57 -201 -92 -216 -110 -16 -20 -26 -25 -45 -20 -36 10 -625 -246
-660 -287 -29 -34 -59 -31 -59 7 0 33 33 61 64 53 38 -9 622 246 658 288 22
26 29 29 45 20 15 -9 70 11 317 118 206 88 305 136 318 153 24 30 58 33 58 6z
m494 -104 c0 -9 -1 -35 -2 -57 l-2 -41 -82 -38 c-46 -21 -87 -35 -91 -31 -5 4
-7 31 -5 61 l3 54 75 37 c80 40 106 43 104 15z m-249 -148 c-3 -8 -29 -24 -58
-36 -88 -38 -89 -38 -85 -17 2 10 8 19 13 19 21 1 85 29 85 38 0 4 4 6 8 3 4
-2 14 -1 22 4 18 11 22 7 15 -11z m-1994 -110 c29 -56 -16 -162 -81 -189 -92
-38 -122 83 -43 171 29 32 42 39 74 39 29 0 41 -5 50 -21z m1733 5 c3 -9 0
-28 -7 -42 -10 -22 -19 -27 -52 -28 -56 -1 -601 -244 -631 -281 -16 -20 -26
-25 -45 -20 -34 9 -631 -255 -654 -289 -22 -35 -55 -32 -55 4 0 38 34 70 58
56 25 -16 618 248 655 291 21 25 29 28 44 19 15 -9 70 12 315 120 219 97 302
138 318 159 24 30 45 35 54 11z m-1367 -100 c6 -17 -24 -84 -38 -84 -19 0 -39
33 -33 54 14 46 58 64 71 30z m693 -74 c0 -24 -27 -80 -38 -80 -13 0 -32 23
-32 40 0 25 29 60 51 60 12 0 19 -7 19 -20z m-1066 -182 c21 -30 20 -76 -3
-118 -20 -38 -73 -80 -102 -80 -28 0 -59 36 -59 68 1 99 120 194 164 130z m10
-381 c13 -35 -7 -99 -43 -139 -37 -42 -98 -46 -119 -7 -30 52 14 146 82 174
38 16 68 5 80 -28z"/>
<path d="M3407 6233 c-4 -3 -7 -15 -7 -26 0 -16 3 -17 15 -7 8 7 15 19 15 26
0 15 -12 19 -23 7z"/>
<path d="M2723 6103 c-16 -6 -17 -33 -3 -33 11 0 26 28 19 34 -2 2 -10 1 -16
-1z"/>
<path d="M3397 6033 c-10 -9 -9 -23 2 -23 5 0 11 7 15 15 5 15 -5 20 -17 8z"/>
<path d="M2145 6000 c-3 -5 -1 -10 4 -10 6 0 11 5 11 10 0 6 -2 10 -4 10 -3 0
-8 -4 -11 -10z"/>
<path d="M2040 5939 c0 -24 23 -21 28 4 2 10 -3 17 -12 17 -10 0 -16 -9 -16
-21z"/>
<path d="M1887 5893 c-4 -3 -7 -15 -7 -25 0 -26 24 -17 28 10 3 21 -8 29 -21
15z"/>
<path d="M1623 5775 c-3 -9 -3 -18 0 -21 9 -9 27 6 27 22 0 19 -19 18 -27 -1z"/>
<path d="M1591 5494 c-32 -17 -41 -32 -41 -76 0 -44 10 -47 57 -18 29 17 31
22 26 57 -7 48 -12 53 -42 37z"/>
<path d="M3373 5535 c-3 -9 -3 -18 0 -21 9 -9 27 6 27 22 0 19 -19 18 -27 -1z"/>
<path d="M2690 5229 c0 -24 23 -21 28 4 2 10 -3 17 -12 17 -10 0 -16 -9 -16
-21z"/>
<path d="M1590 5137 c-34 -15 -40 -26 -40 -69 0 -42 10 -46 55 -26 21 9 25 18
25 54 0 50 -6 56 -40 41z"/>
<path d="M3360 5160 c0 -24 15 -27 24 -4 9 22 8 24 -9 24 -8 0 -15 -9 -15 -20z"/>
<path d="M1993 5072 c-7 -5 -9 -13 -4 -21 7 -11 11 -9 20 8 12 21 6 27 -16 13z"/>
<path d="M2687 5003 c-13 -13 -7 -32 8 -27 8 4 15 12 15 20 0 15 -12 19 -23 7z"/>
<path d="M1582 4778 c-28 -17 -32 -25 -32 -64 0 -24 2 -44 5 -44 2 0 20 8 40
17 32 15 35 20 35 59 0 24 -4 45 -8 48 -4 2 -22 -5 -40 -16z"/>
<path d="M1586 4415 c-9 -9 -16 -13 -16 -8 0 4 -5 1 -10 -7 -13 -20 -13 -90 0
-90 6 0 25 7 41 16 27 14 30 19 27 56 -3 46 -18 57 -42 33z"/>
<path d="M1090 5724 c-19 -9 -152 -63 -295 -121 -351 -142 -348 -139 -346
-358 2 -283 22 -1314 27 -1453 6 -128 8 -145 27 -163 11 -10 29 -19 39 -19 11
0 150 59 311 131 293 132 343 161 367 218 7 18 10 284 8 882 -3 827 -4 858
-22 878 -23 25 -66 27 -116 5z m87 -212 c22 -14 32 -58 22 -97 -20 -70 -46
-86 -356 -214 -161 -67 -304 -121 -317 -121 -14 0 -31 9 -40 22 -30 43 -15
108 36 155 25 24 591 262 623 262 11 1 25 -3 32 -7z m-119 -484 c-6 -18 -532
-239 -537 -225 -2 6 0 13 5 14 5 2 124 53 264 113 140 59 259 109 263 109 5 1
7 -5 5 -11z m-210 -200 c-5 -14 -319 -151 -327 -143 -10 11 18 25 164 89 163
70 169 72 163 54z m212 -27 c0 -9 -509 -231 -531 -231 -34 0 29 31 263 132
139 59 256 108 261 108 4 0 7 -4 7 -9z m0 -109 c0 -8 -509 -232 -525 -232 -4
0 -5 5 -3 11 4 11 491 227 516 228 6 1 12 -3 12 -7z m-212 -204 c-6 -18 -312
-149 -317 -135 -2 6 0 12 5 14 5 2 74 32 154 67 158 70 164 72 158 54z m1
-132 c-6 -5 -309 -136 -315 -136 -3 0 -4 5 -2 11 5 16 312 148 317 137 1 -5 1
-11 0 -12z"/>
<path d="M990 5446 c-69 -28 -195 -80 -280 -115 -179 -73 -220 -104 -220 -169
0 -44 14 -62 48 -62 14 0 151 52 306 116 290 120 328 142 342 200 4 15 3 39
-2 53 -15 41 -54 36 -194 -23z m-370 -252 c0 -18 -9 -28 -32 -37 -30 -13 -34
-12 -40 5 -5 12 -2 28 6 40 10 14 15 16 19 6 4 -8 8 -5 13 10 5 18 9 20 20 11
8 -6 14 -22 14 -35z"/>
<path d="M3923 4530 c-46 -21 -83 -44 -83 -49 0 -6 38 -30 84 -53 l84 -42 88
41 c49 23 90 46 92 51 3 11 -149 92 -170 91 -7 0 -50 -18 -95 -39z"/>
<path d="M3703 4430 c-51 -24 -83 -45 -83 -55 0 -8 -5 -15 -11 -15 -5 0 -8 4
-4 9 9 16 -42 -3 -143 -51 -51 -24 -89 -48 -85 -53 4 -4 2 -5 -5 -1 -7 4 -34
-2 -60 -14 -26 -13 -65 -31 -87 -41 -22 -10 -47 -23 -55 -28 -8 -5 -60 -28
-115 -52 -55 -24 -106 -51 -113 -61 -7 -9 -18 -15 -26 -12 -19 7 -206 -82
-206 -99 0 -8 10 -22 23 -30 12 -9 17 -16 10 -16 -7 -1 -20 10 -30 23 -17 22
-20 23 -53 11 -19 -7 -63 -27 -98 -44 -34 -17 -67 -31 -72 -31 -6 0 -10 -9
-10 -19 0 -20 104 -86 157 -100 24 -6 23 -7 -13 -24 -32 -16 -36 -16 -24 -2 7
8 11 17 9 18 -43 29 -93 60 -125 78 l-42 23 -98 -45 c-55 -25 -99 -51 -99 -59
0 -7 34 -33 75 -57 58 -35 81 -43 105 -39 l30 5 -35 -19 c-42 -23 -50 -24 -50
-7 0 8 -10 19 -22 25 -13 7 -41 23 -63 37 -78 49 -78 49 -182 3 -52 -23 -97
-48 -100 -56 -8 -20 100 -88 160 -101 28 -6 28 -6 -20 -29 -26 -12 -40 -16
-30 -9 9 8 17 18 17 23 0 5 -39 31 -86 57 l-85 49 -100 -48 c-54 -26 -99 -52
-99 -58 0 -10 51 -46 129 -89 32 -18 37 -18 68 -3 57 27 51 17 -7 -14 -62 -33
-71 -35 -64 -17 4 11 -65 67 -84 67 -4 0 -18 9 -32 20 -14 11 -36 20 -49 20
-33 0 -201 -80 -201 -96 0 -18 119 -92 170 -107 9 -2 -7 -14 -37 -27 -78 -33
-81 -43 -30 -76 24 -16 64 -40 89 -53 l46 -25 101 49 c55 27 101 51 101 55 0
11 -31 34 -100 74 -55 32 -69 37 -90 28 -55 -22 -63 -22 -25 -1 60 33 113 54
98 38 -7 -7 -13 -16 -13 -20 0 -11 154 -99 173 -99 8 0 59 21 112 46 112 53
112 50 -1 119 -48 28 -80 42 -91 38 -32 -11 -8 6 29 21 33 14 36 14 31 -2 -3
-13 14 -28 69 -61 73 -44 96 -50 133 -37 11 4 -15 -11 -57 -34 -43 -22 -78
-44 -78 -49 0 -14 148 -101 171 -101 10 0 63 20 115 45 112 52 112 50 3 115
-52 31 -79 41 -100 38 -16 -3 -29 -3 -29 -2 0 1 32 17 70 35 39 17 70 35 70
40 0 10 -42 39 -120 82 l-64 36 28 11 c16 6 34 13 40 17 6 3 5 0 -1 -8 -19
-19 -16 -34 10 -48 12 -6 45 -25 72 -41 53 -31 84 -36 116 -20 10 6 19 8 19 6
0 -3 -34 -21 -75 -40 -42 -19 -75 -41 -75 -49 0 -13 52 -49 131 -91 l36 -19
102 48 c56 27 100 53 98 59 -2 6 -39 32 -83 58 -56 34 -86 46 -104 43 -14 -3
6 11 43 31 54 28 66 38 57 48 -16 20 -150 96 -169 96 -11 1 -8 5 9 15 34 20
42 18 35 -5 -4 -12 -2 -20 5 -20 6 0 42 -18 80 -40 38 -22 75 -40 84 -40 25 0
196 84 196 96 0 16 -15 27 -101 72 l-76 40 36 17 c36 17 36 17 18 -3 -18 -19
-17 -20 10 -34 15 -8 53 -29 85 -46 31 -18 61 -32 66 -32 6 0 54 20 108 45
l97 45 -23 25 c-13 14 -28 25 -33 25 -5 0 -32 14 -59 30 -26 17 -56 30 -66 30
-10 1 -4 8 18 20 36 20 69 28 38 9 -10 -5 -18 -16 -18 -23 0 -8 8 -16 18 -19
9 -4 46 -22 82 -42 45 -25 73 -34 90 -31 14 3 -3 -9 -37 -26 -88 -45 -86 -50
33 -113 l71 -38 97 46 c60 29 96 52 94 59 -6 17 -148 98 -173 98 -12 1 3 13
38 31 71 36 69 40 -44 102 l-79 43 38 18 c36 18 37 18 19 -1 -19 -22 -22 -33
-8 -33 6 0 36 -15 68 -34 90 -53 96 -53 202 -1 102 50 105 56 33 92 -20 10
-49 27 -65 37 -15 10 -39 19 -54 19 -23 0 -18 4 30 28 31 16 57 33 57 38 0 5
-10 16 -22 25 -22 16 -21 16 9 1 18 -8 40 -15 50 -15 10 0 -4 -13 -31 -28 -27
-15 -51 -32 -53 -38 -4 -11 145 -94 169 -94 24 0 188 84 185 94 -2 6 -37 30
-78 54 -55 32 -82 41 -104 37 -21 -3 -11 5 33 26 35 17 61 36 59 42 -2 7 -18
22 -37 35 -41 27 -27 29 18 2 45 -28 68 -25 155 15 81 37 99 54 76 67 -8 5
-40 24 -73 43 -32 19 -68 35 -80 35 -11 0 -58 -18 -103 -40z m86 -31 c-17 -11
-39 -12 -39 -1 0 4 12 8 27 9 19 1 22 -1 12 -8z m-449 -203 c0 -2 -7 -6 -15
-10 -8 -3 -15 -1 -15 4 0 6 7 10 15 10 8 0 15 -2 15 -4z m-245 -116 c-3 -5
-12 -10 -18 -10 -7 0 -6 4 3 10 19 12 23 12 15 0z m225 -20 c0 -4 -6 -10 -12
-13 -8 -3 -13 4 -13 18 0 18 3 21 13 13 6 -6 12 -14 12 -18z m-130 -70 c-8 -5
-19 -10 -25 -10 -5 0 -3 5 5 10 8 5 20 10 25 10 6 0 3 -5 -5 -10z m-300 -7
c-8 -3 -20 -10 -27 -15 -7 -6 -14 -5 -19 3 -4 8 -3 9 4 5 7 -4 12 -2 12 3 0 6
10 11 23 10 14 0 17 -2 7 -6z m202 -14 c17 -9 18 -13 7 -20 -21 -13 -26 -11
-32 11 -6 23 -3 24 25 9z m-272 -96 c0 -8 -38 17 -51 33 -9 11 -2 9 19 -6 17
-13 32 -25 32 -27z m424 15 c-5 -8 -1 -9 12 -4 14 5 16 4 7 -5 -13 -13 -37 -3
-28 12 4 5 8 9 11 9 3 0 2 -5 -2 -12z m-574 -15 c0 -3 -7 -3 -15 1 -8 3 -15 0
-15 -6 0 -6 -3 -9 -6 -5 -11 10 6 26 21 20 8 -3 15 -7 15 -10z m210 -14 c25
-1 25 -1 -5 -14 -26 -12 -31 -11 -37 3 -11 27 -9 37 4 24 7 -7 23 -12 38 -13z
m60 17 c0 -2 -7 -7 -16 -10 -8 -3 -12 -2 -9 4 6 10 25 14 25 6z m85 -96 c9
-15 -11 -20 -29 -7 -16 12 -16 13 3 14 11 1 23 -2 26 -7z m-595 -22 c0 -11
-48 -10 -54 1 -3 4 8 8 24 7 17 -1 30 -4 30 -8z m290 -54 c0 -2 -7 -4 -15 -4
-8 0 -15 4 -15 10 0 5 7 7 15 4 8 -4 15 -8 15 -10z m60 -39 c14 -19 14 -19 -2
-6 -10 7 -18 18 -18 24 0 6 1 8 3 6 1 -2 9 -13 17 -24z m-600 -20 c0 -13 -4
-14 -20 -5 -11 6 -20 13 -20 15 0 3 9 5 20 5 11 0 20 -7 20 -15z m356 -90 c3
-19 -10 -19 -26 0 -11 13 -10 14 5 9 14 -6 16 -4 10 7 -5 8 -4 11 0 6 5 -4 10
-14 11 -22z m-296 -10 c-14 -8 -29 -14 -35 -14 -5 0 1 6 15 14 14 8 30 14 35
14 6 0 -1 -6 -15 -14z m-235 -45 c3 -5 1 -10 -4 -10 -6 0 -11 5 -11 10 0 6 2
10 4 10 3 0 8 -4 11 -10z m-315 -81 c0 -5 -7 -9 -15 -9 -15 0 -20 12 -9 23 8
8 24 -1 24 -14z m904 -28 c-2 -3 -12 3 -22 13 -16 17 -16 18 5 5 12 -7 20 -15
17 -18z m-604 -21 c8 -5 11 -10 5 -10 -5 0 -17 5 -25 10 -8 5 -10 10 -5 10 6
0 17 -5 25 -10z m80 -40 c12 -8 11 -10 -7 -10 -12 0 -25 5 -28 10 -8 13 15 13
35 0z m261 -47 c13 -15 12 -15 -8 -4 -24 12 -29 21 -14 21 5 0 15 -7 22 -17z
m-581 -27 c0 -11 -19 -15 -25 -6 -3 5 1 10 9 10 9 0 16 -2 16 -4z"/>
<path d="M4108 4416 c-159 -73 -171 -80 -175 -91 -2 -6 34 -30 80 -54 l84 -44
134 63 c125 59 169 85 158 93 -9 7 -135 74 -151 79 -9 4 -64 -15 -130 -46z
m172 -55 c-30 -16 -59 -27 -64 -24 -9 6 16 23 37 27 7 1 21 7 32 14 11 6 27
11 35 11 8 0 -10 -13 -40 -28z"/>
<path d="M4325 4317 l-89 -43 30 -21 c42 -29 131 -73 149 -73 21 0 175 78 175
89 0 9 -151 91 -167 91 -5 0 -49 -19 -98 -43z"/>
<path d="M3790 4272 c-44 -22 -75 -43 -75 -52 0 -16 129 -89 159 -90 23 0 186
76 186 87 0 14 -148 93 -173 92 -12 0 -56 -17 -97 -37z m140 -62 c0 -5 -5 -10
-11 -10 -5 0 -7 5 -4 10 3 6 8 10 11 10 2 0 4 -4 4 -10z"/>
<path d="M4121 4220 c-46 -21 -87 -42 -93 -48 -12 -12 1 -21 91 -67 l73 -38
89 44 c49 24 88 48 86 54 -2 5 -39 29 -83 52 l-80 42 -83 -39z"/>
<path d="M4443 4170 c-90 -43 -163 -82 -163 -87 0 -10 152 -93 171 -93 19 0
349 162 349 171 0 11 -156 89 -177 89 -10 -1 -91 -36 -180 -80z m294 4 c-3 -3
-12 -4 -19 -1 -8 3 -5 6 6 6 11 1 17 -2 13 -5z m-38 -24 c-8 -4 -27 -10 -44
-14 -30 -6 -30 -6 5 12 19 10 39 16 44 14 5 -3 2 -8 -5 -12z"/>
<path d="M3883 4110 c-46 -21 -83 -45 -83 -52 0 -7 37 -33 83 -57 l83 -43 92
46 c51 25 92 50 92 54 0 9 -154 92 -171 92 -8 0 -51 -18 -96 -40z"/>
<path d="M4754 4111 c-43 -20 -148 -71 -232 -111 -84 -41 -151 -78 -150 -82 2
-5 42 -30 89 -54 l85 -45 225 109 c125 60 229 114 233 120 3 6 -33 30 -83 56
l-88 45 -79 -38z m186 -45 c0 -12 -74 -46 -82 -38 -6 6 0 15 19 25 27 14 63
22 63 13z"/>
<path d="M4147 4028 c-48 -23 -87 -47 -87 -54 0 -7 38 -31 83 -55 l84 -43 92
44 c50 24 90 48 88 54 -3 9 -153 95 -167 96 -3 0 -45 -19 -93 -42z"/>
<path d="M3660 4006 c-47 -23 -85 -48 -85 -56 0 -8 37 -34 82 -57 l81 -43 98
45 c84 39 96 47 83 60 -17 17 -155 95 -166 94 -4 0 -46 -19 -93 -43z m90 -50
c-7 -7 -13 -7 -20 0 -6 6 -3 10 10 10 13 0 16 -4 10 -10z"/>
<path d="M5038 3944 l-93 -46 24 -19 c44 -36 68 -35 153 7 44 21 84 44 88 50
6 7 -6 18 -35 32 l-43 21 -94 -45z m52 -24 c0 -5 -2 -10 -4 -10 -3 0 -8 5 -11
10 -3 6 -1 10 4 10 6 0 11 -4 11 -10z"/>
<path d="M3913 3919 c-46 -22 -83 -46 -83 -53 0 -7 38 -32 84 -57 l84 -44 92
45 c51 25 94 48 96 52 5 9 -158 98 -177 97 -8 0 -51 -19 -96 -40z"/>
<path d="M3428 3898 c-49 -22 -88 -47 -88 -54 0 -7 38 -34 84 -59 l85 -46 96
45 c61 29 95 50 93 58 -5 15 -146 97 -168 97 -8 0 -54 -19 -102 -41z"/>
<path d="M4721 3885 c-51 -25 -90 -49 -87 -54 10 -16 156 -91 177 -91 25 0
179 77 179 89 0 8 -159 101 -172 101 -3 0 -46 -20 -97 -45z m156 -71 c-3 -3
-12 -4 -19 -1 -8 3 -5 6 6 6 11 1 17 -2 13 -5z"/>
<path d="M2439 3893 c-13 -15 -12 -15 11 -3 34 17 36 20 18 20 -9 0 -22 -7
-29 -17z"/>
<path d="M4228 3859 c-43 -21 -78 -43 -78 -48 0 -12 16 -23 98 -67 l72 -38 97
47 c54 28 92 52 87 57 -23 22 -156 90 -176 90 -13 -1 -58 -19 -100 -41z m143
-66 c13 -16 12 -17 -3 -4 -17 13 -22 21 -14 21 2 0 10 -8 17 -17z"/>
<path d="M3692 3814 c-54 -25 -92 -49 -90 -55 2 -7 41 -32 86 -57 l83 -44 96
46 c111 54 111 50 -7 114 l-75 40 -93 -44z"/>
<path d="M4002 3750 c-52 -25 -82 -44 -80 -52 5 -14 146 -97 166 -98 23 0 193
90 187 100 -11 17 -149 90 -170 89 -11 0 -58 -18 -103 -39z"/>
<path d="M4592 3725 c-51 -24 -92 -47 -92 -50 0 -11 66 -45 88 -45 27 0 182
76 182 90 0 8 -70 50 -83 50 -2 0 -45 -20 -95 -45z"/>
<path d="M3463 3705 c-92 -43 -114 -68 -75 -82 9 -4 43 -22 74 -40 31 -18 66
-33 77 -33 29 0 192 82 188 95 -3 9 -156 104 -167 104 -3 0 -47 -20 -97 -44z
m92 -55 c-3 -5 -13 -6 -21 -3 -12 4 -13 8 -3 14 15 9 32 2 24 -11z"/>
<path d="M2961 3677 c-47 -23 -87 -47 -88 -54 -4 -11 132 -92 172 -103 15 -4
-1 -15 -62 -44 -83 -39 -106 -62 -75 -73 9 -4 44 -24 77 -45 33 -21 68 -38 78
-38 10 0 61 20 114 45 80 38 93 48 83 60 -19 23 -150 95 -173 96 -13 0 13 18
66 45 48 24 87 48 87 53 0 13 -154 101 -176 100 -10 0 -57 -19 -103 -42z m114
-57 c-3 -5 -12 -10 -18 -10 -7 0 -6 4 3 10 19 12 23 12 15 0z m30 -190 c3 -6
-1 -7 -9 -4 -9 3 -16 1 -16 -5 0 -6 -7 -8 -17 -4 -15 6 -15 7 3 14 27 11 32
10 39 -1z"/>
<path d="M4268 3664 c-49 -24 -88 -48 -88 -52 0 -4 39 -29 87 -55 l87 -49 60
29 c34 15 78 38 100 50 l39 21 -39 25 c-49 31 -141 77 -151 76 -4 0 -47 -20
-95 -45z m7 -34 c3 -5 1 -10 -4 -10 -6 0 -11 5 -11 10 0 6 2 10 4 10 3 0 8 -4
11 -10z m40 -10 c-3 -5 -12 -10 -18 -10 -7 0 -6 4 3 10 19 12 23 12 15 0z
m145 -4 c0 -10 -77 -51 -100 -53 -24 -3 -24 -2 5 14 17 9 32 16 35 16 3 0 14
6 25 13 19 14 35 18 35 10z"/>
<path d="M3773 3640 c-46 -21 -83 -45 -83 -52 0 -14 148 -98 174 -98 23 0 186
83 186 95 0 14 -148 95 -174 94 -11 0 -58 -18 -103 -39z"/>
<path d="M3230 3592 c-52 -26 -95 -53 -95 -60 0 -13 6 -17 107 -70 l63 -34 98
47 c53 26 97 51 97 55 0 8 -84 62 -145 93 -30 15 -34 14 -125 -31z"/>
<path d="M2730 3569 c-114 -54 -117 -59 -47 -98 20 -12 52 -30 71 -40 18 -11
44 -21 57 -23 19 -2 4 -13 -63 -45 -51 -24 -88 -48 -88 -57 0 -13 145 -106
166 -106 21 0 204 95 201 104 -4 13 -157 105 -177 106 -8 1 25 22 75 47 l89
45 -22 18 c-34 28 -149 90 -164 89 -7 0 -51 -18 -98 -40z"/>
<path d="M4013 3540 c-68 -33 -123 -64 -123 -69 0 -12 156 -101 176 -101 19 0
254 118 254 128 -1 8 -165 102 -177 101 -5 0 -63 -27 -130 -59z m224 -35 c0
-8 -4 -15 -9 -15 -10 0 -11 14 -1 23 9 10 10 9 10 -8z m-237 -19 c0 -8 -4 -18
-10 -21 -5 -3 -10 3 -10 14 0 12 5 21 10 21 6 0 10 -6 10 -14z m204 -5 c-5 -5
-18 -11 -29 -13 -11 -1 -22 -5 -25 -8 -15 -15 -68 -39 -74 -33 -4 4 24 22 61
39 63 30 89 36 67 15z"/>
<path d="M3544 3530 c-45 -21 -84 -43 -88 -48 -7 -12 26 -37 110 -81 l61 -32
97 46 c53 25 96 50 96 55 0 14 -152 100 -175 99 -11 0 -57 -18 -101 -39z m106
-45 c0 -22 -15 -26 -36 -9 -18 14 -18 14 4 4 22 -11 23 -10 17 10 -5 15 -4 20
4 16 6 -4 11 -13 11 -21z"/>
<path d="M3310 3417 c-49 -24 -85 -48 -85 -57 0 -18 132 -98 163 -99 12 -1 64
20 114 45 l92 46 -22 18 c-34 28 -148 90 -164 89 -7 0 -51 -19 -98 -42z m106
-59 c-10 -6 -22 -5 -33 2 -16 9 -15 10 5 5 13 -4 22 -2 22 5 0 6 5 8 11 4 8
-5 6 -10 -5 -16z"/>
<path d="M3765 3419 c-44 -22 -237 -116 -430 -210 -192 -94 -414 -202 -492
-240 -85 -42 -143 -76 -143 -84 0 -16 145 -105 171 -105 14 0 1145 553 1158
566 9 8 -24 32 -99 73 -41 22 -77 41 -80 40 -3 0 -41 -18 -85 -40z"/>
<path d="M1362 3344 c-59 -27 -92 -48 -90 -56 5 -14 59 -53 122 -88 l41 -22
103 47 c56 27 102 54 102 60 0 15 -149 105 -171 104 -8 0 -56 -20 -107 -45z
m78 -34 c0 -5 -4 -10 -10 -10 -5 0 -10 5 -10 10 0 6 5 10 10 10 6 0 10 -4 10
-10z"/>
<path d="M3073 3302 c-51 -26 -93 -51 -93 -57 0 -12 154 -105 173 -105 24 0
197 90 197 102 -1 12 -158 109 -176 107 -5 0 -51 -21 -101 -47z m93 -47 c-3
-8 -1 -15 3 -15 5 0 12 6 14 13 4 9 6 9 6 0 1 -15 -16 -26 -29 -18 -9 5 -3 35
7 35 3 0 3 -7 -1 -15z"/>
<path d="M2512 3250 c-56 -27 -102 -53 -102 -59 0 -15 151 -101 178 -101 24 0
202 86 202 98 0 7 -52 41 -135 87 l-40 23 -103 -48z m73 -40 c-3 -5 -1 -10 6
-10 7 0 10 -3 6 -6 -9 -9 -28 6 -22 17 4 5 8 9 11 9 3 0 2 -4 -1 -10z"/>
<path d="M1111 3227 c-47 -23 -86 -48 -89 -54 -5 -16 134 -105 164 -105 13 0
24 -2 24 -4 0 -1 -27 -15 -60 -30 -42 -18 -60 -32 -58 -43 2 -8 38 -38 81 -65
l78 -49 92 43 c100 47 123 63 113 78 -4 6 -41 32 -83 57 l-77 47 -34 -16 c-19
-9 -36 -15 -39 -13 -2 2 35 22 82 43 57 25 85 43 83 53 -4 21 -138 101 -168
100 -14 0 -63 -19 -109 -42z m76 -33 c-3 -3 -12 -4 -19 -1 -8 3 -5 6 6 6 11 1
17 -2 13 -5z m127 -213 c4 -5 -3 -7 -14 -4 -23 6 -26 13 -6 13 8 0 17 -4 20
-9z"/>
<path d="M2003 3223 c-51 -25 -93 -51 -93 -58 0 -14 145 -105 167 -105 26 0
203 89 203 102 -1 15 -150 108 -171 107 -8 0 -56 -21 -106 -46z m94 -60 c0 -8
-6 -9 -19 -2 -10 5 -18 11 -18 12 0 2 8 3 18 3 10 0 19 -6 19 -13z"/>
<path d="M2828 3184 c-49 -24 -88 -50 -88 -57 0 -11 109 -82 154 -100 16 -6
46 4 119 39 53 27 97 53 97 59 0 14 -154 105 -177 104 -10 0 -57 -20 -105 -45z
m110 -59 c-3 -3 -9 2 -12 12 -6 14 -5 15 5 6 7 -7 10 -15 7 -18z"/>
<path d="M1442 3170 c-56 -27 -102 -54 -102 -60 0 -9 55 -48 135 -94 30 -17
31 -17 133 30 56 27 102 53 102 60 0 11 -78 67 -136 97 -30 15 -33 15 -132
-33z m68 -29 c0 -5 -6 -11 -12 -14 -18 -6 -39 3 -32 14 7 12 44 12 44 0z m57
-53 c-3 -8 -6 -5 -6 6 -1 11 2 17 5 13 3 -3 4 -12 1 -19z"/>
<path d="M2270 3132 c-52 -26 -96 -52 -98 -58 -4 -16 143 -104 171 -103 33 0
192 83 192 99 0 13 -139 108 -160 109 -5 1 -53 -20 -105 -47z m101 -49 c13
-16 12 -17 -3 -4 -10 7 -25 11 -33 7 -9 -3 -13 -2 -10 4 10 15 31 12 46 -7z"/>
<path d="M803 3083 c-90 -41 -163 -81 -163 -88 0 -15 140 -105 163 -105 33 0
337 147 337 162 0 14 -144 108 -163 108 -7 0 -85 -35 -174 -77z m46 -127 c-2
-2 -18 -7 -34 -11 l-30 -6 30 14 c27 13 45 14 34 3z"/>
<path d="M1753 3105 c-51 -25 -93 -50 -93 -57 1 -12 114 -89 154 -104 21 -8
228 84 223 99 -5 17 -150 106 -172 106 -11 0 -62 -20 -112 -44z m117 -40 c10
-12 10 -15 -2 -15 -8 0 -15 7 -15 15 0 8 1 15 2 15 2 0 8 -7 15 -15z m-30 -15
c6 -11 8 -20 6 -20 -3 0 -10 9 -16 20 -6 11 -8 20 -6 20 3 0 10 -9 16 -20z"/>
<path d="M2592 3070 c-56 -27 -102 -53 -102 -58 0 -9 73 -62 85 -62 3 0 19
-10 35 -21 15 -12 39 -21 52 -21 30 0 208 82 208 96 0 10 -24 26 -141 95 l-36
21 -101 -50z"/>
<path d="M2017 3013 c-53 -26 -97 -51 -97 -57 0 -17 143 -105 172 -106 22 0
208 89 208 100 0 10 -159 110 -175 110 -6 0 -55 -21 -108 -47z m83 -37 c0 -3
-4 -8 -10 -11 -5 -3 -10 -1 -10 4 0 6 5 11 10 11 6 0 10 -2 10 -4z m40 -20 c0
-2 -7 -7 -16 -10 -8 -3 -12 -2 -9 4 6 10 25 14 25 6z"/>
<path d="M1512 2990 c-56 -27 -102 -55 -102 -62 0 -14 145 -108 166 -108 15 0
174 75 198 93 18 13 17 15 -25 44 -24 16 -64 41 -89 55 l-45 26 -103 -48z m65
-55 c0 -8 -4 -12 -9 -9 -5 3 -6 10 -3 15 9 13 12 11 12 -6z m43 -6 c0 -5 -4
-9 -8 -9 -5 0 -9 7 -9 15 0 8 4 12 9 9 4 -3 8 -9 8 -15z"/>
<path d="M2354 2955 c-51 -24 -95 -49 -100 -56 -9 -15 18 -38 103 -86 l64 -35
106 51 c88 43 103 54 93 66 -11 13 -162 106 -171 104 -2 0 -45 -20 -95 -44z
m89 -68 c-7 -11 -23 2 -23 19 0 12 2 12 14 2 8 -7 12 -16 9 -21z"/>
<path d="M945 2937 c-104 -49 -115 -55 -115 -66 0 -9 152 -111 165 -111 17 0
215 100 215 109 0 5 -17 19 -37 32 -100 62 -128 79 -133 79 -3 0 -45 -19 -95
-43z"/>
<path d="M1767 2893 c-53 -26 -97 -52 -97 -59 0 -17 141 -104 169 -104 27 0
211 86 211 99 0 11 -158 111 -175 111 -6 0 -55 -21 -108 -47z m83 -55 c0 -9 4
-8 10 2 6 9 10 10 10 3 0 -19 -17 -24 -30 -8 -9 10 -9 15 -1 15 6 0 11 -6 11
-12z"/>
<path d="M1205 2844 c-88 -41 -166 -81 -174 -89 -12 -12 -2 -21 64 -64 43 -28
87 -51 98 -51 22 0 314 135 336 155 11 11 -1 23 -73 69 -48 31 -88 56 -89 56
-1 0 -74 -34 -162 -76z m25 -139 c-7 -8 -17 -12 -22 -9 -6 4 -5 10 3 15 22 14
33 10 19 -6z"/>
<path d="M2106 2835 c-105 -51 -114 -59 -97 -79 16 -20 146 -96 163 -96 20 1
201 94 205 105 3 10 -159 116 -175 114 -4 0 -47 -20 -96 -44z m87 -55 c13 -15
14 -20 3 -20 -7 0 -16 9 -19 20 -3 11 -4 20 -3 20 1 0 9 -9 19 -20z"/>
<path d="M2513 2808 c-68 -34 -123 -67 -123 -74 0 -17 145 -104 174 -104 32 0
266 116 266 132 0 16 -152 108 -177 107 -10 0 -73 -28 -140 -61z m155 14 c-10
-2 -18 -8 -18 -13 0 -5 -9 -4 -20 3 -18 12 -18 13 -3 19 10 3 27 3 38 0 17 -4
18 -6 3 -9z m83 -55 c-13 -13 -26 -3 -16 12 3 6 11 8 17 5 6 -4 6 -10 -1 -17z
m-31 -7 c0 -5 -9 -14 -20 -20 -24 -13 -26 -7 -4 14 18 18 24 20 24 6z m-62
-34 c-7 -8 -15 -12 -17 -11 -5 6 10 25 20 25 5 0 4 -6 -3 -14z m-54 -31 c-32
-27 -40 -30 -49 -15 -4 6 1 7 11 3 13 -5 15 -3 9 7 -5 8 -4 11 2 7 6 -4 16 0
23 8 7 8 17 15 23 15 5 0 -3 -11 -19 -25z"/>
<path d="M471 2847 c29 -23 99 -65 99 -59 0 8 -83 62 -95 62 -5 0 -6 -1 -4 -3z"/>
<path d="M1413 2725 c-106 -52 -193 -98 -193 -104 0 -13 150 -111 171 -111 25
0 411 189 407 200 -5 15 -160 110 -178 109 -8 0 -102 -43 -207 -94z m167 -75
c0 -5 -2 -10 -4 -10 -3 0 -8 5 -11 10 -3 6 -1 10 4 10 6 0 11 -4 11 -10z m-35
-19 c-3 -6 -11 -8 -17 -5 -6 4 -5 9 3 15 16 10 23 4 14 -10z m-65 -28 c-8 -4
-21 -12 -28 -20 -7 -7 -20 -13 -28 -13 -12 0 -12 2 -2 14 7 8 16 12 20 10 4
-2 9 0 13 6 3 5 14 10 23 9 14 0 14 -2 2 -6z"/>
<path d="M1683 2630 c-145 -71 -263 -133 -263 -138 0 -16 159 -114 179 -110
34 6 531 252 531 263 0 10 -163 116 -178 114 -4 0 -125 -58 -269 -129z m-22
-153 c-6 -8 -9 -16 -6 -19 3 -2 -2 -5 -10 -5 -19 0 -19 2 1 21 19 19 31 21 15
3z m-43 -29 c-2 -6 -10 -13 -16 -14 -7 -1 -8 0 -2 3 5 2 8 9 4 14 -3 5 0 9 6
9 7 0 10 -5 8 -12z"/>
<path d="M698 2690 c19 -17 36 -29 39 -26 9 9 -7 26 -40 42 l-32 15 33 -31z"/>
<path d="M2239 2673 c-53 -27 -94 -54 -94 -62 0 -14 150 -111 170 -110 20 1
199 94 202 106 4 11 -151 113 -173 113 -6 0 -54 -21 -105 -47z m86 7 c-3 -5
-12 -10 -18 -10 -7 0 -6 4 3 10 19 12 23 12 15 0z m113 -61 c-2 -6 -8 -11 -13
-11 -6 0 -16 -4 -22 -10 -8 -6 -13 -7 -13 -1 0 6 10 15 23 21 29 14 29 14 25
1z m-67 -31 c-8 -22 -41 -35 -41 -16 0 6 6 8 14 5 8 -3 16 2 19 14 3 10 8 19
11 19 3 0 2 -10 -3 -22z"/>
<path d="M855 2585 c39 -32 58 -32 22 0 -15 14 -33 25 -40 25 -7 -1 2 -12 18
-25z"/>
<path d="M1988 2550 c-53 -27 -99 -54 -103 -59 -3 -6 14 -22 37 -37 24 -14 59
-37 79 -50 19 -13 45 -24 57 -24 28 0 212 91 212 105 0 11 -161 115 -176 114
-5 0 -53 -22 -106 -49z m112 6 c0 -2 -9 -6 -20 -9 -11 -3 -20 -1 -20 4 0 5 9
9 20 9 11 0 20 -2 20 -4z m110 -61 c0 -2 -7 -5 -15 -9 -9 -3 -15 0 -15 9 0 9
6 12 15 9 8 -4 15 -7 15 -9z m-70 -30 c-7 -9 -15 -13 -18 -10 -3 3 -11 0 -19
-6 -8 -7 -13 -8 -13 -1 0 10 29 26 43 24 4 -1 7 3 7 10 0 6 3 8 6 5 4 -4 1
-13 -6 -22z m-68 -37 c-9 -9 -15 -9 -24 1 -11 10 -10 11 5 6 10 -5 17 -2 17 6
0 7 3 9 7 6 4 -4 1 -13 -5 -19z"/>
<path d="M1723 2422 c-51 -26 -93 -52 -93 -60 0 -17 149 -112 175 -111 32 1
200 92 200 109 0 17 -142 109 -170 109 -11 0 -62 -21 -112 -47z m113 -5 c4 -3
-4 -4 -16 -2 -30 6 -40 16 -12 12 12 -2 24 -6 28 -10z m4 -91 c0 -19 -28 -28
-51 -15 -26 14 -15 29 22 29 18 0 29 -5 29 -14z"/>
<path d="M2941 1564 c-287 -150 -316 -151 -525 -19 -137 86 -150 88 -282 55
-96 -25 -112 -37 -86 -68 44 -50 360 -129 557 -139 141 -7 263 5 542 52 462
79 678 146 585 184 -59 24 -136 32 -357 37 l-230 5 -204 -107z"/>
</g>
</svg>
