<?xml version="1.0" encoding="UTF-8"?>
<!DOCTYPE svg PUBLIC "-//W3C//DTD SVG 1.1//EN" "http://www.w3.org/Graphics/SVG/1.1/DTD/svg11.dtd">
<svg xmlns="http://www.w3.org/2000/svg" version="1.1" width="1026px" height="899px" style="shape-rendering:geometricPrecision; text-rendering:geometricPrecision; image-rendering:optimizeQuality; fill-rule:evenodd; clip-rule:evenodd" xmlns:xlink="http://www.w3.org/1999/xlink">
<g><path style="opacity:1" fill="#353535" d="M 787.5,209.5 C 782.786,211.571 778.119,213.738 773.5,216C 772.748,216.671 772.414,217.504 772.5,218.5C 766.3,186.315 760.134,153.982 754,121.5C 751.749,117.291 748.249,115.625 743.5,116.5C 737.399,116.987 731.399,117.987 725.5,119.5C 555.95,150.678 386.616,182.345 217.5,214.5C 212.412,214.751 207.412,215.584 202.5,217C 198.922,218.567 196.922,221.233 196.5,225C 211.091,304.528 225.758,384.028 240.5,463.5C 239.849,462.909 239.182,462.243 238.5,461.5C 233.885,463.046 229.218,464.379 224.5,465.5C 220.501,445.837 216.501,426.171 212.5,406.5C 201.991,347.452 191.157,288.452 180,229.5C 178.237,216.191 183.403,206.691 195.5,201C 234.325,193.534 272.992,186.034 311.5,178.5C 330.642,175.921 349.642,172.587 368.5,168.5C 370.099,168.768 371.432,168.434 372.5,167.5C 423.248,158.598 473.915,149.264 524.5,139.5C 526.099,139.768 527.432,139.434 528.5,138.5C 573.929,130.595 619.262,122.262 664.5,113.5C 665.791,113.737 666.791,113.404 667.5,112.5C 692.255,108.583 716.922,104.083 741.5,99C 754.998,97.6636 764.498,103.164 770,115.5C 776.674,146.701 782.507,178.035 787.5,209.5 Z"/></g>
<g><path style="opacity:0.329" fill="#4d4d4e" d="M 777.5,138.5 C 775.168,131.106 773.335,123.44 772,115.5C 768.74,106.573 762.573,100.739 753.5,98C 746.118,97.253 738.785,97.5863 731.5,99C 709.41,102.904 687.41,107.237 665.5,112C 666.094,112.464 666.761,112.631 667.5,112.5C 666.791,113.404 665.791,113.737 664.5,113.5C 663.378,112.844 662.045,112.511 660.5,112.5C 644.118,115.221 627.785,118.221 611.5,121.5C 610.274,121.48 609.274,121.147 608.5,120.5C 610.044,120.297 611.378,119.63 612.5,118.5C 614.496,119.61 616.329,119.276 618,117.5C 620.456,117.377 622.956,117.377 625.5,117.5C 626.935,115.599 628.602,115.266 630.5,116.5C 633.56,115.294 636.56,114.294 639.5,113.5C 641.496,114.61 643.329,114.276 645,112.5C 647.456,112.377 649.956,112.377 652.5,112.5C 653.935,110.599 655.602,110.266 657.5,111.5C 658.748,110.96 659.915,110.293 661,109.5C 663.456,109.377 665.956,109.377 668.5,109.5C 669.935,107.599 671.602,107.266 673.5,108.5C 676.56,107.294 679.56,106.294 682.5,105.5C 684.398,106.734 686.065,106.401 687.5,104.5C 690.167,104.5 692.833,104.5 695.5,104.5C 696.935,102.599 698.602,102.266 700.5,103.5C 702.169,102.11 703.836,101.777 705.5,102.5C 708.56,101.294 711.56,100.294 714.5,99.5C 716.496,100.61 718.329,100.276 720,98.5C 720.414,98.9574 720.914,99.2907 721.5,99.5C 724.56,98.2936 727.56,97.2936 730.5,96.5C 732.598,97.4845 734.598,97.1511 736.5,95.5C 737.167,95.8333 737.833,96.1667 738.5,96.5C 741.126,95.7077 743.792,95.0411 746.5,94.5C 748.029,94.5288 749.196,95.1955 750,96.5C 752.272,95.7598 754.272,95.7598 756,96.5C 767.286,100.52 773.619,108.853 775,121.5C 776.16,127.129 776.993,132.796 777.5,138.5 Z"/></g>
<g><path style="opacity:1" fill="#b0b0b0" d="M 772.5,218.5 C 791.085,320.18 809.752,421.847 828.5,523.5C 828.352,526.63 827.018,529.13 824.5,531C 820.969,532.406 817.302,533.24 813.5,533.5C 813.167,533.5 812.833,533.5 812.5,533.5C 793.324,428.11 773.824,322.777 754,217.5C 753.617,216.944 753.117,216.611 752.5,216.5C 751.641,213.548 749.641,211.715 746.5,211C 741.81,210.668 737.143,211.002 732.5,212C 607.498,235.239 482.498,258.572 357.5,282C 351.139,284.89 348.639,289.723 350,296.5C 369.503,400.853 389.003,505.187 408.5,609.5C 404.985,610.239 401.652,610.239 398.5,609.5C 389.413,560.456 380.246,511.456 371,462.5C 368.458,458.431 364.791,456.431 360,456.5C 330.791,461.714 301.624,467.214 272.5,473C 268.301,475.225 265.968,478.725 265.5,483.5C 274.889,532.442 283.889,581.442 292.5,630.5C 288.004,631.433 283.504,632.433 279,633.5C 275.196,633.031 272.529,631.031 271,627.5C 261.138,572.729 250.971,518.063 240.5,463.5C 225.758,384.028 211.091,304.528 196.5,225C 196.922,221.233 198.922,218.567 202.5,217C 207.412,215.584 212.412,214.751 217.5,214.5C 218.492,214.328 219.158,214.662 219.5,215.5C 215.877,217.577 214.21,220.744 214.5,225C 216.408,237.206 218.574,249.372 221,261.5C 224.04,267.603 228.874,269.769 235.5,268C 402.469,236.54 569.469,205.206 736.5,174C 742.865,170.754 745.032,165.587 743,158.5C 741.214,147.782 739.214,137.115 737,126.5C 735.143,123.8 732.643,122.134 729.5,121.5C 728.167,120.833 726.833,120.167 725.5,119.5C 731.399,117.987 737.399,116.987 743.5,116.5C 748.249,115.625 751.749,117.291 754,121.5C 760.134,153.982 766.3,186.315 772.5,218.5 Z"/></g>
<g><path style="opacity:1" fill="#282627" d="M 729.5,121.5 C 732.643,122.134 735.143,123.8 737,126.5C 739.214,137.115 741.214,147.782 743,158.5C 745.032,165.587 742.865,170.754 736.5,174C 569.469,205.206 402.469,236.54 235.5,268C 228.874,269.769 224.04,267.603 221,261.5C 218.574,249.372 216.408,237.206 214.5,225C 214.21,220.744 215.877,217.577 219.5,215.5C 378.443,185.612 537.443,155.779 696.5,126C 707.396,123.653 718.396,122.153 729.5,121.5 Z"/></g>
<g><path style="opacity:0.437" fill="#4d4d4e" d="M 608.5,120.5 C 607.17,121.832 605.503,122.665 603.5,123C 580.815,127.059 558.148,131.225 535.5,135.5C 534.075,135.377 532.742,135.043 531.5,134.5C 533.438,134.777 535.438,134.11 537.5,132.5C 539.398,133.734 541.065,133.401 542.5,131.5C 544.598,132.484 546.598,132.151 548.5,130.5C 550.398,131.734 552.065,131.401 553.5,129.5C 555.398,130.734 557.065,130.401 558.5,128.5C 561.167,128.5 563.833,128.5 566.5,128.5C 567.935,126.599 569.602,126.266 571.5,127.5C 573.169,126.11 574.836,125.777 576.5,126.5C 578.402,124.849 580.402,124.516 582.5,125.5C 583.5,124.833 584.5,124.167 585.5,123.5C 588.167,123.5 590.833,123.5 593.5,123.5C 594.935,121.599 596.602,121.266 598.5,122.5C 599.5,121.833 600.5,121.167 601.5,120.5C 603.983,120.684 606.316,120.684 608.5,120.5 Z"/></g>
<g><path style="opacity:1" fill="#b0b0b0" d="M 727.5,162.5 C 726.874,157.044 723.707,154.044 718,153.5C 714.725,156.355 711.058,157.022 707,155.5C 701.53,157.137 699.03,160.804 699.5,166.5C 692.393,161.358 689.893,154.358 692,145.5C 696.97,133.205 705.804,129.039 718.5,133C 731.223,140.086 734.223,149.919 727.5,162.5 Z"/></g>
<g><path style="opacity:0.996" fill="#7c7c7d" d="M 664.5,113.5 C 619.262,122.262 573.929,130.595 528.5,138.5C 527.448,138.649 526.448,138.483 525.5,138C 526.942,137.623 527.942,136.79 528.5,135.5C 529.391,134.89 530.391,134.557 531.5,134.5C 532.742,135.043 534.075,135.377 535.5,135.5C 558.148,131.225 580.815,127.059 603.5,123C 605.503,122.665 607.17,121.832 608.5,120.5C 609.274,121.147 610.274,121.48 611.5,121.5C 627.785,118.221 644.118,115.221 660.5,112.5C 662.045,112.511 663.378,112.844 664.5,113.5 Z"/></g>
<g><path style="opacity:1" fill="#787777" d="M 725.5,119.5 C 726.833,120.167 728.167,120.833 729.5,121.5C 718.396,122.153 707.396,123.653 696.5,126C 537.443,155.779 378.443,185.612 219.5,215.5C 219.158,214.662 218.492,214.328 217.5,214.5C 386.616,182.345 555.95,150.678 725.5,119.5 Z"/></g>
<g><path style="opacity:1" fill="#eeeeee" d="M 707.5,137.5 C 714.224,137.057 717.557,140.223 717.5,147C 716.35,153.841 712.683,155.841 706.5,153C 702.178,147.248 702.512,142.081 707.5,137.5 Z"/></g>
<g><path style="opacity:0.573" fill="#525254" d="M 528.5,135.5 C 527.942,136.79 526.942,137.623 525.5,138C 526.448,138.483 527.448,138.649 528.5,138.5C 527.432,139.434 526.099,139.768 524.5,139.5C 523.726,138.853 522.726,138.52 521.5,138.5C 491.24,143.719 461.073,149.386 431,155.5C 429.989,154.944 429.156,154.278 428.5,153.5C 430.902,153.963 433.235,153.296 435.5,151.5C 437.398,152.734 439.065,152.401 440.5,150.5C 442.598,151.484 444.598,151.151 446.5,149.5C 448.398,150.734 450.065,150.401 451.5,148.5C 453.398,149.734 455.065,149.401 456.5,147.5C 459.167,147.5 461.833,147.5 464.5,147.5C 465.935,145.599 467.602,145.266 469.5,146.5C 470.5,145.833 471.5,145.167 472.5,144.5C 475.167,144.5 477.833,144.5 480.5,144.5C 481.5,143.833 482.5,143.167 483.5,142.5C 486.044,142.623 488.544,142.623 491,142.5C 492.671,140.724 494.504,140.39 496.5,141.5C 497.5,140.833 498.5,140.167 499.5,139.5C 502.167,139.5 504.833,139.5 507.5,139.5C 508.935,137.599 510.602,137.266 512.5,138.5C 515.44,137.706 518.44,136.706 521.5,135.5C 523.398,136.734 525.065,136.401 526.5,134.5C 527.183,134.863 527.85,135.196 528.5,135.5 Z"/></g>
<g><path style="opacity:1" fill="#868687" d="M 524.5,139.5 C 473.915,149.264 423.248,158.598 372.5,167.5C 368.551,167.307 368.551,166.807 372.5,166C 390.229,162.99 407.896,159.656 425.5,156C 426.056,155.617 426.389,155.117 426.5,154.5C 427.167,154.167 427.833,153.833 428.5,153.5C 429.156,154.278 429.989,154.944 431,155.5C 461.073,149.386 491.24,143.719 521.5,138.5C 522.726,138.52 523.726,138.853 524.5,139.5 Z"/></g>
<g><path style="opacity:0.646" fill="#505051" d="M 777.5,138.5 C 784.58,172.24 790.913,206.24 796.5,240.5C 795.837,238.958 795.17,237.291 794.5,235.5C 793.893,235.624 793.56,235.957 793.5,236.5C 792.662,236.158 792.328,235.492 792.5,234.5C 793.147,233.726 793.48,232.726 793.5,231.5C 788.847,203.435 783.68,175.435 778,147.5C 777.502,144.518 777.335,141.518 777.5,138.5 Z"/></g>
<g><path style="opacity:1" fill="#eeeeee" d="M 727.5,162.5 C 725.06,166.77 721.393,169.27 716.5,170C 712.167,170.667 707.833,170.667 703.5,170C 701.907,169.051 700.574,167.885 699.5,166.5C 699.03,160.804 701.53,157.137 707,155.5C 711.058,157.022 714.725,156.355 718,153.5C 723.707,154.044 726.874,157.044 727.5,162.5 Z"/></g>
<g><path style="opacity:0.4" fill="#5b5b5e" d="M 426.5,154.5 C 426.389,155.117 426.056,155.617 425.5,156C 407.896,159.656 390.229,162.99 372.5,166C 368.551,166.807 368.551,167.307 372.5,167.5C 371.432,168.434 370.099,168.768 368.5,168.5C 367.726,167.853 366.726,167.52 365.5,167.5C 356.585,168.939 347.752,170.606 339,172.5C 338.329,171.748 337.496,171.414 336.5,171.5C 336.811,170.522 337.478,169.855 338.5,169.5C 341.167,169.5 343.833,169.5 346.5,169.5C 349.167,168.5 351.833,167.5 354.5,166.5C 355.167,166.833 355.833,167.167 356.5,167.5C 359.56,166.294 362.56,165.294 365.5,164.5C 367.398,165.734 369.065,165.401 370.5,163.5C 373.167,163.5 375.833,163.5 378.5,163.5C 379.935,161.599 381.602,161.266 383.5,162.5C 386.56,161.294 389.56,160.294 392.5,159.5C 394.398,160.734 396.065,160.401 397.5,158.5C 400.167,158.5 402.833,158.5 405.5,158.5C 406.935,156.599 408.602,156.266 410.5,157.5C 411.5,156.833 412.5,156.167 413.5,155.5C 416.167,155.5 418.833,155.5 421.5,155.5C 422.965,153.576 424.632,153.243 426.5,154.5 Z"/></g>
<g><path style="opacity:1" fill="#7e7e7f" d="M 777.5,138.5 C 777.335,141.518 777.502,144.518 778,147.5C 783.68,175.435 788.847,203.435 793.5,231.5C 793.48,232.726 793.147,233.726 792.5,234.5C 791.355,225.94 789.688,217.606 787.5,209.5C 782.507,178.035 776.674,146.701 770,115.5C 764.498,103.164 754.998,97.6636 741.5,99C 716.922,104.083 692.255,108.583 667.5,112.5C 666.761,112.631 666.094,112.464 665.5,112C 687.41,107.237 709.41,102.904 731.5,99C 738.785,97.5863 746.118,97.253 753.5,98C 762.573,100.739 768.74,106.573 772,115.5C 773.335,123.44 775.168,131.106 777.5,138.5 Z"/></g>
<g><path style="opacity:0.996" fill="#818182" d="M 368.5,168.5 C 349.642,172.587 330.642,175.921 311.5,178.5C 318.286,175.948 325.953,174.115 334.5,173C 335.056,172.617 335.389,172.117 335.5,171.5C 335.833,171.5 336.167,171.5 336.5,171.5C 337.496,171.414 338.329,171.748 339,172.5C 347.752,170.606 356.585,168.939 365.5,167.5C 366.726,167.52 367.726,167.853 368.5,168.5 Z"/></g>
<g><path style="opacity:0.608" fill="#737375" d="M 335.5,171.5 C 335.389,172.117 335.056,172.617 334.5,173C 325.953,174.115 318.286,175.948 311.5,178.5C 272.992,186.034 234.325,193.534 195.5,201C 183.403,206.691 178.237,216.191 180,229.5C 191.157,288.452 201.991,347.452 212.5,406.5C 212.672,407.492 212.338,408.158 211.5,408.5C 199.862,347.077 188.529,285.577 177.5,224C 178.725,213.025 184.059,204.859 193.5,199.5C 193.5,198.833 193.167,198.5 192.5,198.5C 194.933,197.587 197.433,196.587 200,195.5C 201.68,196.603 203.18,196.27 204.5,194.5C 206.398,195.734 208.065,195.401 209.5,193.5C 210.167,193.833 210.833,194.167 211.5,194.5C 220.487,191.057 229.82,189.224 239.5,189C 247.447,186.277 255.614,184.443 264,183.5C 264.414,183.957 264.914,184.291 265.5,184.5C 268.44,183.706 271.44,182.706 274.5,181.5C 276.398,182.734 278.065,182.401 279.5,180.5C 281.513,181.596 283.346,181.263 285,179.5C 285.772,179.645 286.439,179.978 287,180.5C 291.734,178.962 296.567,177.629 301.5,176.5C 303.398,177.734 305.065,177.401 306.5,175.5C 307.167,175.833 307.833,176.167 308.5,176.5C 311.44,175.706 314.44,174.706 317.5,173.5C 318.167,173.833 318.833,174.167 319.5,174.5C 322.167,173.5 324.833,172.5 327.5,171.5C 330.193,171.473 332.86,171.473 335.5,171.5 Z"/></g>
<g><path style="opacity:1" fill="#282627" d="M 752.5,216.5 C 771.445,321.224 790.778,425.891 810.5,530.5C 810.64,532.03 811.307,533.03 812.5,533.5C 812.833,533.5 813.167,533.5 813.5,533.5C 678.569,558.713 543.569,584.046 408.5,609.5C 389.003,505.187 369.503,400.853 350,296.5C 348.639,289.723 351.139,284.89 357.5,282C 482.498,258.572 607.498,235.239 732.5,212C 737.143,211.002 741.81,210.668 746.5,211C 749.641,211.715 751.641,213.548 752.5,216.5 Z"/></g>
<g><path style="opacity:1" fill="#09090a" d="M 787.5,209.5 C 789.688,217.606 791.355,225.94 792.5,234.5C 792.328,235.492 792.662,236.158 793.5,236.5C 810.962,331.144 828.296,425.811 845.5,520.5C 845.5,524.5 845.5,528.5 845.5,532.5C 842.41,542.423 835.744,548.256 825.5,550C 680.083,576.984 534.75,604.151 389.5,631.5C 387.901,631.232 386.568,631.566 385.5,632.5C 349.821,638.702 314.154,645.036 278.5,651.5C 265.916,650.416 258.082,643.749 255,631.5C 244.381,576.239 234.214,520.905 224.5,465.5C 229.218,464.379 233.885,463.046 238.5,461.5C 239.182,462.243 239.849,462.909 240.5,463.5C 250.971,518.063 261.138,572.729 271,627.5C 272.529,631.031 275.196,633.031 279,633.5C 283.504,632.433 288.004,631.433 292.5,630.5C 301.834,628.833 311.168,627.166 320.5,625.5C 321.167,625.5 321.833,625.5 322.5,625.5C 324.435,624.85 326.435,624.517 328.5,624.5C 328.5,623.5 328.5,622.5 328.5,621.5C 328.833,621.5 329.167,621.5 329.5,621.5C 329.62,622.586 330.287,623.253 331.5,623.5C 332.416,623.457 333.083,623.124 333.5,622.5C 336.059,622.802 338.393,622.468 340.5,621.5C 341.167,620.833 341.833,620.167 342.5,619.5C 343.053,621.552 344.053,621.885 345.5,620.5C 346.833,620.5 348.167,620.5 349.5,620.5C 350.708,619.766 352.041,619.433 353.5,619.5C 354.167,619.167 354.833,618.833 355.5,618.5C 356.5,618.5 357.5,618.5 358.5,618.5C 359.959,618.567 361.292,618.234 362.5,617.5C 364.099,617.768 365.432,617.434 366.5,616.5C 366.833,616.5 367.167,616.5 367.5,616.5C 369.099,616.768 370.432,616.434 371.5,615.5C 372.833,615.5 374.167,615.5 375.5,615.5C 376.959,615.567 378.292,615.234 379.5,614.5C 386.181,613.704 392.514,612.038 398.5,609.5C 401.652,610.239 404.985,610.239 408.5,609.5C 543.569,584.046 678.569,558.713 813.5,533.5C 817.302,533.24 820.969,532.406 824.5,531C 827.018,529.13 828.352,526.63 828.5,523.5C 809.752,421.847 791.085,320.18 772.5,218.5C 772.414,217.504 772.748,216.671 773.5,216C 778.119,213.738 782.786,211.571 787.5,209.5 Z"/></g>
<g><path style="opacity:1" fill="#313031" d="M 752.5,216.5 C 753.117,216.611 753.617,216.944 754,217.5C 773.824,322.777 793.324,428.11 812.5,533.5C 811.307,533.03 810.64,532.03 810.5,530.5C 790.778,425.891 771.445,321.224 752.5,216.5 Z"/></g>
<g><path style="opacity:1" fill="#b4b3b3" d="M 259.5,224.5 C 260.873,224.343 262.207,224.51 263.5,225C 253.312,228.071 242.979,230.071 232.5,231C 241.46,228.4 250.46,226.233 259.5,224.5 Z"/></g>
<g><path style="opacity:1" fill="#eeedee" d="M 741.5,257.5 C 739.833,257.5 738.167,257.5 736.5,257.5C 735.039,248.86 733.706,240.193 732.5,231.5C 735.054,230.612 737.721,230.279 740.5,230.5C 742.159,239.454 743.492,248.454 744.5,257.5C 743.5,257.5 742.5,257.5 741.5,257.5 Z"/></g>
<g><path style="opacity:1" fill="#b2b1b2" d="M 261.5,233.5 C 266.797,234.032 266.797,234.866 261.5,236C 252.922,237.124 244.422,238.624 236,240.5C 235.167,240.167 234.333,239.833 233.5,239.5C 242.911,237.271 252.244,235.271 261.5,233.5 Z"/></g>
<g><path style="opacity:1" fill="#fafafa" d="M 733.5,251.5 C 734.219,253.764 734.552,256.097 734.5,258.5C 732.139,258.674 729.806,259.007 727.5,259.5C 726.833,253.167 726.167,246.833 725.5,240.5C 727.144,240.286 728.644,240.62 730,241.5C 730.481,245.531 731.147,249.531 732,253.5C 732.278,252.584 732.778,251.918 733.5,251.5 Z"/></g>
<g><path style="opacity:1" fill="#b0b0b0" d="M 258.5,243.5 C 261.187,243.336 263.854,243.503 266.5,244C 266.167,244.333 265.833,244.667 265.5,245C 255.838,246.735 246.172,248.069 236.5,249C 243.869,246.837 251.202,245.003 258.5,243.5 Z"/></g>
<g><path style="opacity:1" fill="#d6d6d6" d="M 729.5,238.5 C 730.75,238.577 731.583,239.244 732,240.5C 732.548,244.17 733.048,247.837 733.5,251.5C 732.778,251.918 732.278,252.584 732,253.5C 731.147,249.531 730.481,245.531 730,241.5C 728.644,240.62 727.144,240.286 725.5,240.5C 726.167,246.833 726.833,253.167 727.5,259.5C 727.167,259.5 726.833,259.5 726.5,259.5C 725.664,253.82 724.664,248.153 723.5,242.5C 723.57,241.228 723.903,240.062 724.5,239C 726.134,238.506 727.801,238.34 729.5,238.5 Z"/></g>
<g><path style="opacity:1" fill="#efefef" d="M 715.5,247.5 C 718.167,247.5 720.833,247.5 723.5,247.5C 724.08,251.81 724.414,256.143 724.5,260.5C 721.833,260.833 719.167,261.167 716.5,261.5C 716.167,256.833 715.833,252.167 715.5,247.5 Z"/></g>
<g><path style="opacity:1" fill="#4b494a" d="M 732.5,231.5 C 733.706,240.193 735.039,248.86 736.5,257.5C 738.167,257.5 739.833,257.5 741.5,257.5C 737.575,258.969 733.409,259.969 729,260.5C 727.93,260.472 727.097,260.139 726.5,259.5C 726.833,259.5 727.167,259.5 727.5,259.5C 729.806,259.007 732.139,258.674 734.5,258.5C 734.552,256.097 734.219,253.764 733.5,251.5C 733.048,247.837 732.548,244.17 732,240.5C 731.583,239.244 730.75,238.577 729.5,238.5C 730.659,236.145 731.659,233.812 732.5,231.5 Z"/></g>
<g><path style="opacity:1" fill="#dbdada" d="M 448.5,283.5 C 451.694,283.176 452.694,284.342 451.5,287C 450.207,287.49 448.873,287.657 447.5,287.5C 447.433,286.041 447.766,284.708 448.5,283.5 Z"/></g>
<g><path style="opacity:1" fill="#e7e7e7" d="M 476.5,283.5 C 477.978,283.238 479.311,283.571 480.5,284.5C 481.681,288.072 482.348,291.738 482.5,295.5C 478.265,296.424 474.099,296.424 470,295.5C 466.375,288.101 468.541,284.101 476.5,283.5 Z"/></g>
<g><path style="opacity:1" fill="#e5e4e4" d="M 458.5,286.5 C 461.908,285.828 464.575,286.828 466.5,289.5C 464.257,290.474 461.924,290.808 459.5,290.5C 459.261,292.467 459.594,294.301 460.5,296C 462.73,295.22 465.063,294.387 467.5,293.5C 466.707,298.776 463.707,300.609 458.5,299C 454.535,294.761 454.535,290.595 458.5,286.5 Z"/></g>
<g><path style="opacity:1" fill="#e1e1e1" d="M 449.5,288.5 C 450.5,288.5 451.5,288.5 452.5,288.5C 453.327,292.807 453.993,297.14 454.5,301.5C 453.167,301.5 451.833,301.5 450.5,301.5C 449.8,297.202 449.467,292.869 449.5,288.5 Z"/></g>
<g><path style="opacity:1" fill="#343233" d="M 473.5,287.5 C 477.35,287.701 478.35,289.534 476.5,293C 472.537,293.118 471.537,291.284 473.5,287.5 Z"/></g>
<g><path style="opacity:1" fill="#e5e4e4" d="M 439.5,290.5 C 442.652,289.959 445.152,290.959 447,293.5C 447.502,296.513 448.002,299.513 448.5,302.5C 447.167,302.5 445.833,302.5 444.5,302.5C 444.579,299.729 444.079,297.063 443,294.5C 441.989,293.663 440.822,293.33 439.5,293.5C 439.5,296.833 439.5,300.167 439.5,303.5C 438.167,303.5 436.833,303.5 435.5,303.5C 435.354,299.481 435.021,295.481 434.5,291.5C 436.415,291.784 438.081,291.451 439.5,290.5 Z"/></g>
<g><path style="opacity:1" fill="#e4e4e4" d="M 423.5,288.5 C 425.117,289.038 426.784,289.371 428.5,289.5C 428.5,290.5 428.5,291.5 428.5,292.5C 429.833,292.5 431.167,292.5 432.5,292.5C 432.395,296.548 432.728,300.548 433.5,304.5C 430.568,304.284 427.902,304.951 425.5,306.5C 418.886,303.639 417.886,299.473 422.5,294C 424.256,293.798 425.922,293.298 427.5,292.5C 425.865,291.319 424.198,291.319 422.5,292.5C 422.167,292.167 421.833,291.833 421.5,291.5C 422.193,290.482 422.859,289.482 423.5,288.5 Z"/></g>
<g><path style="opacity:1" fill="#e1e1e1" d="M 410.5,295.5 C 413.961,294.889 416.628,296.056 418.5,299C 415.947,300.656 413.281,300.823 410.5,299.5C 410.108,305.019 412.108,306.353 416.5,303.5C 417.167,303.833 417.833,304.167 418.5,304.5C 415.682,308.886 412.182,309.553 408,306.5C 405.428,301.889 406.261,298.222 410.5,295.5 Z"/></g>
<g><path style="opacity:1" fill="#353334" d="M 424.5,296.5 C 428.068,296.759 429.401,298.759 428.5,302.5C 423.74,302.799 422.406,300.799 424.5,296.5 Z"/></g>
<g><path style="opacity:1" fill="#e8e7e7" d="M 405.5,304.5 C 394.833,306.49 394.833,307.157 405.5,306.5C 403.162,311.626 399.662,312.626 395,309.5C 391.549,301.544 394.049,298.044 402.5,299C 404.607,300.264 405.607,302.097 405.5,304.5 Z"/></g>
<g><path style="opacity:1" fill="#e8e8e8" d="M 385.5,297.5 C 387.167,297.5 388.833,297.5 390.5,297.5C 390.98,302.53 391.647,307.53 392.5,312.5C 391.167,312.5 389.833,312.5 388.5,312.5C 387.28,304.767 386.28,305.1 385.5,313.5C 384.022,313.762 382.689,313.429 381.5,312.5C 380.586,310.336 379.419,308.336 378,306.5C 378.152,309.447 378.319,312.447 378.5,315.5C 377.178,315.67 376.011,315.337 375,314.5C 374.263,309.464 373.429,304.464 372.5,299.5C 374.199,299.34 375.866,299.506 377.5,300C 378.96,303.089 380.793,305.922 383,308.5C 383.995,304.855 384.828,301.188 385.5,297.5 Z"/></g>
<g><path style="opacity:1" fill="#4d4b4c" d="M 397.5,301.5 C 398.978,301.238 400.311,301.571 401.5,302.5C 400.833,302.833 400.167,303.167 399.5,303.5C 398.287,303.253 397.62,302.586 397.5,301.5 Z"/></g>
<g><path style="opacity:1" fill="#5b595a" d="M 405.5,304.5 C 405.5,305.167 405.5,305.833 405.5,306.5C 394.833,307.157 394.833,306.49 405.5,304.5 Z"/></g>
<g><path style="opacity:1" fill="#2a6584" d="M 752.5,319.5 C 749.926,323.644 747.593,327.977 745.5,332.5C 741.566,332.2 737.566,332.2 733.5,332.5C 731.358,337.595 729.025,342.595 726.5,347.5C 723.643,348.963 720.643,349.963 717.5,350.5C 716.286,348.192 716.286,345.859 717.5,343.5C 724.811,338.21 729.645,331.21 732,322.5C 735.595,321.711 739.095,320.544 742.5,319C 744.435,314.296 746.769,309.796 749.5,305.5C 751.012,310.059 752.012,314.726 752.5,319.5 Z"/></g>
<g><path style="opacity:1" fill="#292728" d="M 324.5,287.5 C 331.265,286.469 336.432,288.802 340,294.5C 348.331,338.808 356.664,383.141 365,427.5C 366.081,432.47 366.414,437.47 366,442.5C 364.5,445.333 362.333,447.5 359.5,449C 329.224,454.99 298.89,460.323 268.5,465C 263.386,462.971 260.553,459.137 260,453.5C 251.667,408.833 243.333,364.167 235,319.5C 233.126,312.989 234.959,307.822 240.5,304C 268.657,298.535 296.657,293.035 324.5,287.5 Z"/></g>
<g><path style="opacity:1" fill="#cdcdcd" d="M 322.5,304.5 C 335.322,302.496 341.156,307.829 340,320.5C 338.542,322.96 336.709,325.127 334.5,327C 307.264,332.677 279.931,337.843 252.5,342.5C 243.542,340.934 239.709,335.6 241,326.5C 242.105,323.063 244.272,320.563 247.5,319C 272.67,314.332 297.67,309.498 322.5,304.5 Z"/></g>
<g><path style="opacity:1" fill="#2a2829" d="M 322.5,306.5 C 336.368,305.175 340.868,310.842 336,323.5C 334.581,324.46 333.081,325.293 331.5,326C 305.488,330.769 279.488,335.602 253.5,340.5C 245.235,339.402 241.735,334.735 243,326.5C 244.563,323.272 247.063,321.105 250.5,320C 274.711,315.904 298.711,311.404 322.5,306.5 Z"/></g>
<g><path style="opacity:1" fill="#378296" d="M 752.5,319.5 C 753.885,325.091 754.885,330.757 755.5,336.5C 748.588,337.896 741.588,338.896 734.5,339.5C 732.42,341.993 730.586,344.659 729,347.5C 725.6,350.414 722.1,353.08 718.5,355.5C 717.549,354.081 717.216,352.415 717.5,350.5C 720.643,349.963 723.643,348.963 726.5,347.5C 729.025,342.595 731.358,337.595 733.5,332.5C 737.566,332.2 741.566,332.2 745.5,332.5C 747.593,327.977 749.926,323.644 752.5,319.5 Z"/></g>
<g><path style="opacity:1" fill="#40b5d2" d="M 651.5,331.5 C 650.414,331.62 649.747,332.287 649.5,333.5C 647.536,338.422 645.869,343.422 644.5,348.5C 621.067,344.407 608.567,354.407 607,378.5C 601.559,379.657 596.059,380.657 590.5,381.5C 587.803,355.012 599.136,337.512 624.5,329C 631.167,328.333 637.833,328.333 644.5,329C 647.104,329.39 649.438,330.224 651.5,331.5 Z"/></g>
<g><path style="opacity:0.998" fill="#6c6c6d" d="M 796.5,240.5 C 800.904,259.908 804.57,279.575 807.5,299.5C 810.059,315.135 812.559,330.801 815,346.5C 815.95,350.686 817.116,354.686 818.5,358.5C 820.287,374.269 822.787,389.936 826,405.5C 827.428,415.105 829.595,424.439 832.5,433.5C 833.004,440.201 833.838,446.868 835,453.5C 838.79,471.954 842.623,490.287 846.5,508.5C 847.43,516.148 847.597,523.815 847,531.5C 846.823,527.644 846.323,523.977 845.5,520.5C 828.296,425.811 810.962,331.144 793.5,236.5C 793.56,235.957 793.893,235.624 794.5,235.5C 795.17,237.291 795.837,238.958 796.5,240.5 Z"/></g>
<g><path style="opacity:1" fill="#c3c3c3" d="M 256.5,324.5 C 257.67,326.279 259.336,327.279 261.5,327.5C 261.136,333.704 257.802,336.037 251.5,334.5C 250.986,332.488 250.82,330.488 251,328.5C 251.915,327.672 252.581,326.672 253,325.5C 254.814,329.363 255.98,329.03 256.5,324.5 Z"/></g>
<g><path style="opacity:0.557" fill="#4d4d4e" d="M 807.5,299.5 C 811.904,318.908 815.57,338.575 818.5,358.5C 817.116,354.686 815.95,350.686 815,346.5C 812.559,330.801 810.059,315.135 807.5,299.5 Z"/></g>
<g><path style="opacity:1" fill="#6ae0e3" d="M 651.5,331.5 C 667.053,337.719 676.387,349.053 679.5,365.5C 673.455,366.242 667.455,367.242 661.5,368.5C 659.456,358.787 653.789,352.12 644.5,348.5C 645.869,343.422 647.536,338.422 649.5,333.5C 649.747,332.287 650.414,331.62 651.5,331.5 Z"/></g>
<g><path style="opacity:1" fill="#52a0a3" d="M 755.5,336.5 C 756.803,340.382 757.47,344.382 757.5,348.5C 744.518,350.926 731.518,353.259 718.5,355.5C 722.1,353.08 725.6,350.414 729,347.5C 730.586,344.659 732.42,341.993 734.5,339.5C 741.588,338.896 748.588,337.896 755.5,336.5 Z"/></g>
<g><path style="opacity:1" fill="#f7f7f7" d="M 489.5,366.5 C 491.167,366.5 492.833,366.5 494.5,366.5C 494.263,367.791 494.596,368.791 495.5,369.5C 496.832,377.489 498.166,385.489 499.5,393.5C 517.409,390.87 535.409,390.036 553.5,391C 558.606,397.044 562.272,403.877 564.5,411.5C 560.833,412.167 557.167,412.833 553.5,413.5C 540.583,416.583 532.416,424.583 529,437.5C 528.201,444.283 528.701,450.95 530.5,457.5C 527.06,457.663 525.06,455.996 524.5,452.5C 520.507,451.387 516.507,451.387 512.5,452.5C 512.575,455.206 512.908,457.873 513.5,460.5C 503.843,461.713 494.343,463.713 485,466.5C 480.063,462.737 478.23,457.737 479.5,451.5C 476.266,431.913 464.933,419.746 445.5,415C 427.796,412.523 414.13,418.69 404.5,433.5C 401.998,434.61 399.998,433.777 398.5,431C 402.878,422.29 409.545,415.956 418.5,412C 419.097,410.938 419.43,409.772 419.5,408.5C 417.763,396.222 416.596,383.889 416,371.5C 414.926,370.382 413.76,369.382 412.5,368.5C 433.483,361.105 455.15,357.438 477.5,357.5C 482.903,369.709 486.903,382.376 489.5,395.5C 490.5,395.5 491.5,395.5 492.5,395.5C 491.494,386.963 490.161,378.463 488.5,370C 488.514,368.615 488.848,367.449 489.5,366.5 Z"/></g>
<g><path style="opacity:1" fill="#2c2a2b" d="M 467.5,362.5 C 470.448,362.223 473.281,362.556 476,363.5C 479.81,374.077 483.31,384.743 486.5,395.5C 485.998,396.521 485.332,396.688 484.5,396C 482.072,394.039 479.572,392.206 477,390.5C 474.342,391.992 472.176,393.992 470.5,396.5C 465.531,394.072 465.198,391.072 469.5,387.5C 469.167,387.167 468.833,386.833 468.5,386.5C 464.101,390.568 460.435,395.235 457.5,400.5C 460.087,400.817 461.92,399.483 463,396.5C 472.223,406.726 481.89,416.726 492,426.5C 492.483,427.448 492.649,428.448 492.5,429.5C 490.085,429.627 487.751,429.793 485.5,430C 478.45,419.14 468.783,411.64 456.5,407.5C 453.321,393.936 450.654,380.269 448.5,366.5C 454.953,365.144 461.287,363.811 467.5,362.5 Z"/></g>
<g><path style="opacity:1" fill="#cbcbcb" d="M 495.5,369.5 C 494.596,368.791 494.263,367.791 494.5,366.5C 492.833,366.5 491.167,366.5 489.5,366.5C 489.167,363.167 488.833,359.833 488.5,356.5C 489.5,356.5 490.5,356.5 491.5,356.5C 491.337,358.857 491.503,361.19 492,363.5C 492.71,364.973 493.876,365.64 495.5,365.5C 495.5,366.833 495.5,368.167 495.5,369.5 Z"/></g>
<g><path style="opacity:1" fill="#2d2b2c" d="M 420.5,382.5 C 420.244,378.731 420.577,375.064 421.5,371.5C 428.487,370.168 435.487,368.835 442.5,367.5C 443.5,367.833 444.5,368.167 445.5,368.5C 448.471,381.051 450.805,393.718 452.5,406.5C 450.473,406.662 448.473,406.495 446.5,406C 447.563,404.812 448.897,404.312 450.5,404.5C 450.703,402.61 450.037,401.11 448.5,400C 444.787,399.595 441.121,399.595 437.5,400C 434.872,395.245 432.372,390.412 430,385.5C 428.186,384.24 426.353,384.24 424.5,385.5C 427.948,391.513 430.615,397.847 432.5,404.5C 432.392,405.442 432.059,406.275 431.5,407C 428.832,407.567 426.166,408.067 423.5,408.5C 421.842,399.921 420.842,391.254 420.5,382.5 Z"/></g>
<g><path style="opacity:1" fill="#cecece" d="M 325.5,357.5 C 327.288,357.215 328.955,357.548 330.5,358.5C 322.499,360.267 314.499,362.101 306.5,364C 287.496,367.334 268.496,370.334 249.5,373C 274.898,367.875 300.231,362.708 325.5,357.5 Z"/></g>
<g><path style="opacity:1" fill="#8c8b8c" d="M 421.5,371.5 C 420.577,375.064 420.244,378.731 420.5,382.5C 419.839,380.866 419.506,379.033 419.5,377C 419.547,374.705 420.213,372.871 421.5,371.5 Z"/></g>
<g><path style="opacity:0.646" fill="#424343" d="M 192.5,198.5 C 193.167,198.5 193.5,198.833 193.5,199.5C 184.059,204.859 178.725,213.025 177.5,224C 188.529,285.577 199.862,347.077 211.5,408.5C 225.262,483.144 239.095,557.81 253,632.5C 256.5,642.667 263.333,649.5 273.5,653C 272.584,653.278 271.918,653.778 271.5,654.5C 262.131,651.868 255.464,645.701 251.5,636C 226.725,500.113 201.392,364.113 175.5,228C 174.757,217.958 178.257,209.124 186,201.5C 186.414,201.957 186.914,202.291 187.5,202.5C 189.987,201.236 191.654,199.903 192.5,198.5 Z"/></g>
<g><path style="opacity:1" fill="#68dadd" d="M 736.5,382.5 C 738.048,382.821 738.715,383.821 738.5,385.5C 734.106,385.844 729.772,386.51 725.5,387.5C 725.36,385.876 726.027,384.71 727.5,384C 730.432,383.047 733.432,382.547 736.5,382.5 Z"/></g>
<g><path style="opacity:1" fill="#d3d2d2" d="M 295.5,378.5 C 297.288,378.215 298.955,378.548 300.5,379.5C 285.376,382.691 270.209,385.691 255,388.5C 254.167,388.167 253.333,387.833 252.5,387.5C 266.935,384.377 281.268,381.377 295.5,378.5 Z"/></g>
<g><path style="opacity:1" fill="#41a7be" d="M 736.5,382.5 C 737.209,381.596 738.209,381.263 739.5,381.5C 739.5,382.833 739.5,384.167 739.5,385.5C 741.5,385.167 743.5,384.833 745.5,384.5C 745.5,385.833 745.5,387.167 745.5,388.5C 742.167,388.833 738.833,389.167 735.5,389.5C 732.5,390.167 729.5,390.833 726.5,391.5C 725.566,390.432 725.232,389.099 725.5,387.5C 729.772,386.51 734.106,385.844 738.5,385.5C 738.715,383.821 738.048,382.821 736.5,382.5 Z"/></g>
<g><path style="opacity:1" fill="#2e7ea5" d="M 735.5,389.5 C 735.5,391.167 735.5,392.833 735.5,394.5C 732.455,394.508 729.455,394.841 726.5,395.5C 726.5,394.167 726.5,392.833 726.5,391.5C 729.5,390.833 732.5,390.167 735.5,389.5 Z"/></g>
<g><path style="opacity:1" fill="#d2d1d1" d="M 328.5,388.5 C 330.857,388.337 333.19,388.503 335.5,389C 309.425,394.541 283.258,399.707 257,404.5C 256.5,404.167 256,403.833 255.5,403.5C 279.912,398.351 304.246,393.351 328.5,388.5 Z"/></g>
<g><path style="opacity:1" fill="#918f90" d="M 551.5,395.5 C 546.706,394.903 542.373,395.57 538.5,397.5C 537.596,396.791 537.263,395.791 537.5,394.5C 542.363,394.181 547.03,394.514 551.5,395.5 Z"/></g>
<g><path style="opacity:1" fill="#2b292a" d="M 551.5,395.5 C 554.558,398.948 556.558,402.948 557.5,407.5C 552.167,407.5 546.833,407.5 541.5,407.5C 540.901,404.037 539.901,400.704 538.5,397.5C 542.373,395.57 546.706,394.903 551.5,395.5 Z"/></g>
<g><path style="opacity:1" fill="#353334" d="M 526.5,395.5 C 528.144,395.286 529.644,395.62 531,396.5C 532.325,400.139 533.492,403.806 534.5,407.5C 532.856,407.714 531.356,407.38 530,406.5C 528.726,402.846 527.56,399.18 526.5,395.5 Z"/></g>
<g><path style="opacity:1" fill="#66d5d8" d="M 747.5,397.5 C 740.835,398.5 734.168,399.5 727.5,400.5C 727.5,399.167 727.5,397.833 727.5,396.5C 734.466,395.374 741.466,394.374 748.5,393.5C 748.768,395.099 748.434,396.432 747.5,397.5 Z"/></g>
<g><path style="opacity:1" fill="#343233" d="M 514.5,396.5 C 516.167,396.5 517.833,396.5 519.5,396.5C 520.905,400.385 521.905,404.385 522.5,408.5C 521.167,408.5 519.833,408.5 518.5,408.5C 517.368,404.438 516.035,400.438 514.5,396.5 Z"/></g>
<g><path style="opacity:1" fill="#41aac3" d="M 747.5,397.5 C 748.234,398.708 748.567,400.041 748.5,401.5C 747.5,401.5 746.5,401.5 745.5,401.5C 739.864,402.627 734.198,403.627 728.5,404.5C 728.567,403.041 728.234,401.708 727.5,400.5C 734.168,399.5 740.835,398.5 747.5,397.5 Z"/></g>
<g><path style="opacity:1" fill="#2d7ea6" d="M 745.5,401.5 C 744.699,403.042 744.366,404.708 744.5,406.5C 739.114,406.777 733.781,407.444 728.5,408.5C 728.5,407.167 728.5,405.833 728.5,404.5C 734.198,403.627 739.864,402.627 745.5,401.5 Z"/></g>
<g><path style="opacity:0.812" fill="#4c4c4d" d="M 818.5,358.5 C 823.904,383.241 828.57,408.241 832.5,433.5C 829.595,424.439 827.428,415.105 826,405.5C 822.787,389.936 820.287,374.269 818.5,358.5 Z"/></g>
<g><path style="opacity:1" fill="#66d6d9" d="M 753.5,409.5 C 745.733,410.32 738.066,411.654 730.5,413.5C 729.209,412.458 729.209,411.292 730.5,410C 741.433,407.713 752.433,405.88 763.5,404.5C 763.5,405.833 763.5,407.167 763.5,408.5C 760.098,408.342 756.764,408.676 753.5,409.5 Z"/></g>
<g><path style="opacity:1" fill="#42aec7" d="M 753.5,409.5 C 753.5,411.167 753.5,412.833 753.5,414.5C 750.763,414.401 748.096,414.735 745.5,415.5C 740.833,416.167 736.167,416.833 731.5,417.5C 730.566,416.432 730.232,415.099 730.5,413.5C 738.066,411.654 745.733,410.32 753.5,409.5 Z"/></g>
<g><path style="opacity:1" fill="#9d9c9c" d="M 564.5,411.5 C 565.043,411.56 565.376,411.893 565.5,412.5C 561.555,413.491 557.555,413.824 553.5,413.5C 557.167,412.833 560.833,412.167 564.5,411.5 Z"/></g>
<g><path style="opacity:1" fill="#3a3839" d="M 479.5,451.5 C 478.833,452.5 478.167,453.5 477.5,454.5C 477.737,450.727 477.237,447.06 476,443.5C 475.29,442.027 474.124,441.36 472.5,441.5C 472.291,432.63 467.958,426.964 459.5,424.5C 458.738,423.372 458.071,422.205 457.5,421C 455.051,420.275 452.717,419.275 450.5,418C 447.901,417.231 445.401,417.398 443,418.5C 437.533,415.872 432.033,415.872 426.5,418.5C 425.614,419.325 425.281,420.325 425.5,421.5C 418.902,421.382 413.736,424.049 410,429.5C 410.541,431.875 409.708,433.875 407.5,435.5C 406.71,434.599 405.71,433.932 404.5,433.5C 414.13,418.69 427.796,412.523 445.5,415C 464.933,419.746 476.266,431.913 479.5,451.5 Z"/></g>
<g><path style="opacity:1" fill="#f7f7f7" d="M 557.5,415.5 C 561.605,415.234 565.605,415.734 569.5,417C 571.5,417.667 572.833,419 573.5,421C 575.676,421.163 577.509,421.996 579,423.5C 580.56,427.411 582.56,431.078 585,434.5C 584.64,440.887 584.474,447.22 584.5,453.5C 583.325,453.281 582.325,453.614 581.5,454.5C 581.047,460.956 577.38,464.622 570.5,465.5C 569.614,466.325 569.281,467.325 569.5,468.5C 563.41,468.111 557.41,468.611 551.5,470C 550.464,466.712 548.464,465.879 545.5,467.5C 542.039,466.376 540.039,464.042 539.5,460.5C 534.036,458.225 532.369,454.225 534.5,448.5C 533.5,448.5 532.5,448.5 531.5,448.5C 531.108,445.052 531.775,441.886 533.5,439C 533.241,437.739 532.574,436.739 531.5,436C 533.352,431.556 535.519,427.39 538,423.5C 540.588,420.747 543.755,419.081 547.5,418.5C 548.287,417.758 548.953,416.925 549.5,416C 552.146,415.503 554.813,415.336 557.5,415.5 Z"/></g>
<g><path style="opacity:1" fill="#66d7da" d="M 674.5,391.5 C 679.494,391.329 681.328,393.662 680,398.5C 677.717,399.719 675.384,399.719 673,398.5C 660.578,401.588 652.745,409.422 649.5,422C 644.012,420.823 638.346,420.49 632.5,421C 630.715,422.163 628.715,422.83 626.5,423C 624.792,425.043 622.792,426.71 620.5,428C 619.072,429.916 618.072,432.083 617.5,434.5C 612.544,436.374 610.378,434.707 611,429.5C 618.425,427.075 623.592,422.241 626.5,415C 628.956,414.054 630.956,414.554 632.5,416.5C 636.167,417.833 639.833,417.833 643.5,416.5C 647.728,414.11 651.228,410.777 654,406.5C 655.847,403.594 657.014,400.427 657.5,397C 659.713,396.374 661.88,396.541 664,397.5C 668.64,397.253 672.14,395.253 674.5,391.5 Z"/></g>
<g><path style="opacity:1" fill="#f7f7f7" d="M 477.5,454.5 C 476.776,456.218 476.109,458.052 475.5,460C 476.428,460.388 477.095,461.055 477.5,462C 476.744,464.856 475.911,467.689 475,470.5C 470.44,471.957 468.773,474.957 470,479.5C 467.833,481.667 465.667,483.833 463.5,486C 458.969,484.988 455.969,486.821 454.5,491.5C 452.217,492.321 449.884,492.988 447.5,493.5C 444.765,491.875 441.765,491.208 438.5,491.5C 438.5,492.5 438.5,493.5 438.5,494.5C 435.119,494.54 431.786,494.207 428.5,493.5C 428.649,492.448 428.483,491.448 428,490.5C 426.488,489.743 425.154,488.743 424,487.5C 423.261,488.574 422.261,489.241 421,489.5C 416.172,487.84 413.338,484.507 412.5,479.5C 408.967,478.802 406.467,476.802 405,473.5C 405.202,470.772 405.036,468.105 404.5,465.5C 403.675,464.614 402.675,464.281 401.5,464.5C 401.493,461.962 401.159,459.462 400.5,457C 402.189,454.451 403.522,451.618 404.5,448.5C 403.263,447.719 402.263,446.719 401.5,445.5C 402.223,441.242 404.223,437.909 407.5,435.5C 409.708,433.875 410.541,431.875 410,429.5C 413.736,424.049 418.902,421.382 425.5,421.5C 425.281,420.325 425.614,419.325 426.5,418.5C 432.033,415.872 437.533,415.872 443,418.5C 445.401,417.398 447.901,417.231 450.5,418C 452.717,419.275 455.051,420.275 457.5,421C 458.071,422.205 458.738,423.372 459.5,424.5C 467.958,426.964 472.291,432.63 472.5,441.5C 474.124,441.36 475.29,442.027 476,443.5C 477.237,447.06 477.737,450.727 477.5,454.5 Z"/></g>
<g><path style="opacity:1" fill="#2d80a8" d="M 745.5,415.5 C 745.5,416.833 745.5,418.167 745.5,419.5C 740.853,420.296 736.186,420.963 731.5,421.5C 731.5,420.167 731.5,418.833 731.5,417.5C 736.167,416.833 740.833,416.167 745.5,415.5 Z"/></g>
<g><path style="opacity:1" fill="#68dbde" d="M 760.5,421.5 C 751.168,423.166 741.834,424.833 732.5,426.5C 732.36,424.876 733.027,423.71 734.5,423C 746.785,420.51 759.118,418.343 771.5,416.5C 771.5,417.5 771.5,418.5 771.5,419.5C 767.864,420.326 764.197,420.992 760.5,421.5 Z"/></g>
<g><path style="opacity:1" fill="#3fb4d0" d="M 760.5,422.5 C 761.776,423.386 761.776,424.386 760.5,425.5C 757.179,426.26 753.846,426.926 750.5,427.5C 744.809,428.372 739.142,429.372 733.5,430.5C 733.5,430.167 733.5,429.833 733.5,429.5C 733.62,428.414 734.287,427.747 735.5,427.5C 743.873,425.938 752.206,424.272 760.5,422.5 Z"/></g>
<g><path style="opacity:1" fill="#408c9a" d="M 760.5,421.5 C 760.5,421.833 760.5,422.167 760.5,422.5C 752.206,424.272 743.873,425.938 735.5,427.5C 734.287,427.747 733.62,428.414 733.5,429.5C 732.596,428.791 732.263,427.791 732.5,426.5C 741.834,424.833 751.168,423.166 760.5,421.5 Z"/></g>
<g><path style="opacity:1" fill="#373536" d="M 552.5,426.5 C 569.717,425.872 576.55,433.872 573,450.5C 567.664,459.356 560.164,461.856 550.5,458C 537.967,446.743 538.633,436.243 552.5,426.5 Z"/></g>
<g><path style="opacity:1" fill="#e5e5e5" d="M 553.5,429.5 C 561.326,428.663 567.16,431.663 571,438.5C 572.5,451.667 566.667,457.5 553.5,456C 541.656,447.207 541.656,438.374 553.5,429.5 Z"/></g>
<g><path style="opacity:1" fill="#2d85b0" d="M 750.5,427.5 C 750.5,429.167 750.5,430.833 750.5,432.5C 744.855,433.328 739.188,433.994 733.5,434.5C 733.5,433.167 733.5,431.833 733.5,430.5C 739.142,429.372 744.809,428.372 750.5,427.5 Z"/></g>
<g><path style="opacity:1" fill="#2c2a2b" d="M 553.5,433.5 C 564.041,432.539 568.541,437.205 567,447.5C 560.583,455.754 554.583,455.421 549,446.5C 547.675,441.157 549.175,436.824 553.5,433.5 Z"/></g>
<g><path style="opacity:1" fill="#323031" d="M 431.5,433.5 C 455.953,432.454 465.12,443.788 459,467.5C 452.09,477.915 442.59,481.415 430.5,478C 417.542,470.925 413.375,460.425 418,446.5C 421.101,440.563 425.601,436.23 431.5,433.5 Z"/></g>
<g><path style="opacity:1" fill="#eeeeee" d="M 432.5,437.5 C 451.495,436.321 459.328,444.988 456,463.5C 451.061,473.157 443.228,476.657 432.5,474C 421.756,468.111 418.256,459.278 422,447.5C 424.738,443.26 428.238,439.926 432.5,437.5 Z"/></g>
<g><path style="opacity:1" fill="#2a2829" d="M 433.5,442.5 C 447.121,441.034 453.288,447.034 452,460.5C 448.219,468.305 442.053,471.138 433.5,469C 426.46,464.745 423.96,458.578 426,450.5C 428.028,447.308 430.528,444.641 433.5,442.5 Z"/></g>
<g><path style="opacity:1" fill="#3c3a3b" d="M 553.5,413.5 C 554.833,414.167 556.167,414.833 557.5,415.5C 554.813,415.336 552.146,415.503 549.5,416C 548.953,416.925 548.287,417.758 547.5,418.5C 543.755,419.081 540.588,420.747 538,423.5C 535.519,427.39 533.352,431.556 531.5,436C 532.574,436.739 533.241,437.739 533.5,439C 531.775,441.886 531.108,445.052 531.5,448.5C 532.5,448.5 533.5,448.5 534.5,448.5C 532.369,454.225 534.036,458.225 539.5,460.5C 536.208,460.353 533.208,459.353 530.5,457.5C 528.701,450.95 528.201,444.283 529,437.5C 532.416,424.583 540.583,416.583 553.5,413.5 Z"/></g>
<g><path style="opacity:1" fill="#3a3839" d="M 659.5,446.5 C 661.199,446.34 662.866,446.506 664.5,447C 661.833,447.667 659.167,448.333 656.5,449C 657.337,450.011 657.67,451.178 657.5,452.5C 654.073,452.976 650.74,452.976 647.5,452.5C 649.862,451.729 652.196,450.895 654.5,450C 650.382,449.797 646.382,450.464 642.5,452C 641.167,453.333 641.167,454.667 642.5,456C 636.106,456.208 629.773,455.875 623.5,455C 624.517,456.049 624.684,457.216 624,458.5C 623.667,458.167 623.333,457.833 623,457.5C 620.478,459.662 617.645,459.995 614.5,458.5C 615.376,457.749 616.376,457.249 617.5,457C 615.559,456.257 613.726,456.424 612,457.5C 611.5,457 611,456.5 610.5,456C 627.028,453.127 643.361,449.96 659.5,446.5 Z"/></g>
<g><path style="opacity:1" fill="#282628" d="M 398.5,609.5 C 392.514,612.038 386.181,613.704 379.5,614.5C 378.673,609.523 378.006,604.523 377.5,599.5C 375.833,599.5 374.167,599.5 372.5,599.5C 371.235,590.146 369.735,580.812 368,571.5C 366.644,570.62 365.144,570.286 363.5,570.5C 364.244,567.05 362.91,565.384 359.5,565.5C 361.981,582.531 364.647,599.531 367.5,616.5C 367.167,616.5 366.833,616.5 366.5,616.5C 365.508,611.548 364.842,606.548 364.5,601.5C 362.446,601.635 360.779,600.968 359.5,599.5C 358.833,595.5 358.167,591.5 357.5,587.5C 355.708,587.634 354.042,587.301 352.5,586.5C 352.425,583.794 352.092,581.127 351.5,578.5C 350.5,578.5 349.5,578.5 348.5,578.5C 350.515,591.891 352.848,605.225 355.5,618.5C 354.833,618.833 354.167,619.167 353.5,619.5C 353.708,617.08 353.374,614.747 352.5,612.5C 351.311,611.571 349.978,611.238 348.5,611.5C 347.962,607.476 347.295,603.476 346.5,599.5C 345.167,599.5 343.833,599.5 342.5,599.5C 341.578,595.888 340.911,592.221 340.5,588.5C 339.5,588.5 338.5,588.5 337.5,588.5C 338.521,598.939 340.188,609.273 342.5,619.5C 341.833,620.167 341.167,620.833 340.5,621.5C 340.5,619.833 340.5,618.167 340.5,616.5C 339.167,616.5 337.833,616.5 336.5,616.5C 336.148,613.572 335.482,610.738 334.5,608C 331.961,607.204 329.628,607.371 327.5,608.5C 328.352,612.794 329.018,617.127 329.5,621.5C 329.167,621.5 328.833,621.5 328.5,621.5C 327.699,619.958 327.366,618.292 327.5,616.5C 324.941,616.198 322.607,616.532 320.5,617.5C 320.5,620.167 320.5,622.833 320.5,625.5C 311.168,627.166 301.834,628.833 292.5,630.5C 283.889,581.442 274.889,532.442 265.5,483.5C 265.968,478.725 268.301,475.225 272.5,473C 301.624,467.214 330.791,461.714 360,456.5C 364.791,456.431 368.458,458.431 371,462.5C 380.246,511.456 389.413,560.456 398.5,609.5 Z"/></g>
<g><path style="opacity:1" fill="#f4f4f4" d="M 770.5,456.5 C 772.833,456.5 775.167,456.5 777.5,456.5C 777.5,457.833 777.5,459.167 777.5,460.5C 779.46,459.862 781.293,459.862 783,460.5C 784.122,465.102 784.622,469.768 784.5,474.5C 780.087,474.687 775.754,475.354 771.5,476.5C 770.379,470.704 769.379,464.87 768.5,459C 769.056,457.989 769.722,457.156 770.5,456.5 Z"/></g>
<g><path style="opacity:0.412" fill="#494a4b" d="M 832.5,433.5 C 837.903,458.239 842.57,483.239 846.5,508.5C 842.623,490.287 838.79,471.954 835,453.5C 833.838,446.868 833.004,440.201 832.5,433.5 Z"/></g>
<g><path style="opacity:1" fill="#727171" d="M 284.5,479.5 C 286.527,479.338 288.527,479.505 290.5,480C 286.216,481.326 281.883,481.992 277.5,482C 279.927,481.098 282.26,480.264 284.5,479.5 Z"/></g>
<g><path style="opacity:1" fill="#696768" d="M 284.5,483.5 C 286.527,483.338 288.527,483.505 290.5,484C 286.275,485.508 281.942,486.175 277.5,486C 279.927,485.098 282.26,484.264 284.5,483.5 Z"/></g>
<g><path style="opacity:1" fill="#666465" d="M 285.5,487.5 C 287.527,487.338 289.527,487.505 291.5,488C 287.27,489.581 282.936,490.248 278.5,490C 280.833,488.957 283.166,488.124 285.5,487.5 Z"/></g>
<g><path style="opacity:1" fill="#40b4d0" d="M 328.5,505.5 C 343.773,504.419 353.606,511.419 358,526.5C 358.241,548.922 347.074,559.422 324.5,558C 319.964,556.238 315.964,553.738 312.5,550.5C 313.394,546.604 315.727,543.938 319.5,542.5C 326.341,548.6 333.674,549.1 341.5,544C 350.464,533.368 349.131,524.368 337.5,517C 335.26,516.023 332.927,515.523 330.5,515.5C 327.078,512.82 326.745,509.82 329.5,506.5C 329.376,505.893 329.043,505.56 328.5,505.5 Z"/></g>
<g><path style="opacity:1" fill="#69dee1" d="M 328.5,505.5 C 329.043,505.56 329.376,505.893 329.5,506.5C 326.745,509.82 327.078,512.82 330.5,515.5C 315.71,519.857 312.044,528.857 319.5,542.5C 315.727,543.938 313.394,546.604 312.5,550.5C 299.667,533.171 302.334,518.671 320.5,507C 323.063,505.921 325.729,505.421 328.5,505.5 Z"/></g>
<g><path style="opacity:1" fill="#282829" d="M 330.5,515.5 C 332.927,515.523 335.26,516.023 337.5,517C 349.131,524.368 350.464,533.368 341.5,544C 333.674,549.1 326.341,548.6 319.5,542.5C 312.044,528.857 315.71,519.857 330.5,515.5 Z"/></g>
<g><path style="opacity:1" fill="#bdbcbc" d="M 595.5,513.5 C 601.261,513.709 601.594,514.542 596.5,516C 573.435,520.011 550.435,524.344 527.5,529C 524.833,529.667 522.167,529.667 519.5,529C 544.824,523.504 570.157,518.337 595.5,513.5 Z"/></g>
<g><path style="opacity:1" fill="#bdbdbd" d="M 565.5,534.5 C 567.288,534.215 568.955,534.548 570.5,535.5C 555.409,538.806 540.243,541.806 525,544.5C 524.167,544.167 523.333,543.833 522.5,543.5C 536.926,540.378 551.26,537.378 565.5,534.5 Z"/></g>
<g><path style="opacity:1" fill="#bcbcbc" d="M 462.5,538.5 C 463.675,538.281 464.675,538.614 465.5,539.5C 450.167,542.7 434.834,546.034 419.5,549.5C 418.833,549.167 418.167,548.833 417.5,548.5C 419.22,547.066 421.22,546.233 423.5,546C 436.702,543.811 449.702,541.311 462.5,538.5 Z"/></g>
<g><path style="opacity:0.258" fill="#434344" d="M 846.5,508.5 C 848.495,515.827 849.828,523.161 850.5,530.5C 848.311,538.363 844.145,545.03 838,550.5C 837.667,550.167 837.333,549.833 837,549.5C 836.5,550.667 835.667,551.5 834.5,552C 825.9,553.954 817.234,555.454 808.5,556.5C 817.204,554.603 825.871,552.103 834.5,549C 840.353,545.481 844.353,540.481 846.5,534C 846.43,533.235 846.097,532.735 845.5,532.5C 845.5,528.5 845.5,524.5 845.5,520.5C 846.323,523.977 846.823,527.644 847,531.5C 847.597,523.815 847.43,516.148 846.5,508.5 Z"/></g>
<g><path style="opacity:1" fill="#bbbbbb" d="M 495.5,547.5 C 497.288,547.215 498.955,547.548 500.5,548.5C 477.935,553.323 455.269,557.823 432.5,562C 429.318,562.407 426.151,562.907 423,563.5C 422.167,563.167 421.333,562.833 420.5,562.5C 445.597,557.377 470.597,552.377 495.5,547.5 Z"/></g>
<g><path style="opacity:1" fill="#d6d6d6" d="M 567.5,548.5 C 569.604,548.201 571.604,548.534 573.5,549.5C 558.264,552.929 542.931,555.929 527.5,558.5C 526.833,558.167 526.167,557.833 525.5,557.5C 539.617,554.478 553.617,551.478 567.5,548.5 Z"/></g>
<g><path style="opacity:0.562" fill="#404041" d="M 808.5,556.5 C 794.425,559.904 780.092,562.57 765.5,564.5C 766.842,563.207 768.509,562.374 770.5,562C 783.179,560.165 795.846,558.332 808.5,556.5 Z"/></g>
<g><path style="opacity:1" fill="#d3d3d3" d="M 603.5,555.5 C 607.971,555.672 608.304,556.506 604.5,558C 581.147,562.241 557.813,566.574 534.5,571C 532.167,571.667 529.833,571.667 527.5,571C 552.926,565.749 578.259,560.582 603.5,555.5 Z"/></g>
<g><path style="opacity:1" fill="#464647" d="M 765.5,564.5 C 753.407,567.451 741.074,569.784 728.5,571.5C 740.322,567.138 752.656,564.805 765.5,564.5 Z"/></g>
<g><path style="opacity:1" fill="#d9d9d9" d="M 498.5,560.5 C 500.288,560.215 501.955,560.548 503.5,561.5C 480.912,566.313 458.246,570.813 435.5,575C 431.181,575.905 426.848,576.238 422.5,576C 447.865,570.719 473.199,565.552 498.5,560.5 Z"/></g>
<g><path style="opacity:1" fill="#626263" d="M 212.5,406.5 C 216.501,426.171 220.501,445.837 224.5,465.5C 234.214,520.905 244.381,576.239 255,631.5C 258.082,643.749 265.916,650.416 278.5,651.5C 314.154,645.036 349.821,638.702 385.5,632.5C 388.598,632.413 388.932,632.913 386.5,634C 380.463,634.791 374.463,635.791 368.5,637C 366.68,637.2 365.347,638.034 364.5,639.5C 335.324,645.102 306.157,650.769 277,656.5C 275.275,655.536 273.441,654.869 271.5,654.5C 271.918,653.778 272.584,653.278 273.5,653C 263.333,649.5 256.5,642.667 253,632.5C 239.095,557.81 225.262,483.144 211.5,408.5C 212.338,408.158 212.672,407.492 212.5,406.5 Z"/></g>
<g><path style="opacity:1" fill="#c8c7c7" d="M 602.5,567.5 C 604.857,567.337 607.19,567.503 609.5,568C 608.833,568.333 608.167,568.667 607.5,569C 582.182,573.832 556.848,578.666 531.5,583.5C 528.972,582.831 528.972,581.998 531.5,581C 555.31,576.537 578.976,572.037 602.5,567.5 Z"/></g>
<g><path style="opacity:0.988" fill="#6e6e6f" d="M 845.5,532.5 C 846.097,532.735 846.43,533.235 846.5,534C 844.353,540.481 840.353,545.481 834.5,549C 825.871,552.103 817.204,554.603 808.5,556.5C 795.846,558.332 783.179,560.165 770.5,562C 768.509,562.374 766.842,563.207 765.5,564.5C 752.656,564.805 740.322,567.138 728.5,571.5C 724.818,571.335 721.152,571.501 717.5,572C 691.222,577.079 664.888,582.079 638.5,587C 637.584,587.278 636.918,587.778 636.5,588.5C 627.449,589.178 618.449,590.345 609.5,592C 539.039,605.855 468.372,619.189 397.5,632C 394.633,632.801 391.966,632.634 389.5,631.5C 534.75,604.151 680.083,576.984 825.5,550C 835.744,548.256 842.41,542.423 845.5,532.5 Z"/></g>
<g><path style="opacity:1" fill="#41a7be" d="M 363.5,570.5 C 365.144,570.286 366.644,570.62 368,571.5C 369.735,580.812 371.235,590.146 372.5,599.5C 373.336,604.838 374.336,610.172 375.5,615.5C 374.167,615.5 372.833,615.5 371.5,615.5C 368.32,600.599 365.653,585.599 363.5,570.5 Z"/></g>
<g><path style="opacity:0.118" fill="#404041" d="M 728.5,571.5 C 698.071,577.796 667.405,583.462 636.5,588.5C 636.918,587.778 637.584,587.278 638.5,587C 664.888,582.079 691.222,577.079 717.5,572C 721.152,571.501 724.818,571.335 728.5,571.5 Z"/></g>
<g><path style="opacity:1" fill="#d2d2d2" d="M 469.5,580.5 C 473.971,580.672 474.304,581.506 470.5,583C 457.813,585.241 445.147,587.574 432.5,590C 430.167,590.667 427.833,590.667 425.5,590C 440.252,586.713 454.919,583.547 469.5,580.5 Z"/></g>
<g><path style="opacity:1" fill="#67d9dc" d="M 342.5,599.5 C 343.37,606.517 344.37,613.517 345.5,620.5C 344.053,621.885 343.053,621.552 342.5,619.5C 340.188,609.273 338.521,598.939 337.5,588.5C 338.5,588.5 339.5,588.5 340.5,588.5C 340.911,592.221 341.578,595.888 342.5,599.5 Z"/></g>
<g><path style="opacity:1" fill="#41aac2" d="M 352.5,586.5 C 354.042,587.301 355.708,587.634 357.5,587.5C 358.167,591.5 358.833,595.5 359.5,599.5C 360.069,605.582 361.069,611.582 362.5,617.5C 361.292,618.234 359.959,618.567 358.5,618.5C 356.592,607.808 354.592,597.141 352.5,586.5 Z"/></g>
<g><path style="opacity:1" fill="#68dbde" d="M 352.5,586.5 C 354.592,597.141 356.592,607.808 358.5,618.5C 357.5,618.5 356.5,618.5 355.5,618.5C 352.848,605.225 350.515,591.891 348.5,578.5C 349.5,578.5 350.5,578.5 351.5,578.5C 352.092,581.127 352.425,583.794 352.5,586.5 Z"/></g>
<g><path style="opacity:1" fill="#66d6da" d="M 363.5,570.5 C 365.653,585.599 368.32,600.599 371.5,615.5C 370.432,616.434 369.099,616.768 367.5,616.5C 364.647,599.531 361.981,582.531 359.5,565.5C 362.91,565.384 364.244,567.05 363.5,570.5 Z"/></g>
<g><path style="opacity:1" fill="#c6c6c6" d="M 503.5,586.5 C 504.978,586.238 506.311,586.571 507.5,587.5C 503.236,588.879 498.902,590.045 494.5,591C 472.71,594.598 451.043,598.765 429.5,603.5C 427.431,603.176 427.098,602.342 428.5,601C 453.756,596.756 478.756,591.923 503.5,586.5 Z"/></g>
<g><path style="opacity:1" fill="#2d80a8" d="M 359.5,599.5 C 360.779,600.968 362.446,601.635 364.5,601.5C 364.842,606.548 365.508,611.548 366.5,616.5C 365.432,617.434 364.099,617.768 362.5,617.5C 361.069,611.582 360.069,605.582 359.5,599.5 Z"/></g>
<g><path style="opacity:1" fill="#2c7ca4" d="M 372.5,599.5 C 374.167,599.5 375.833,599.5 377.5,599.5C 378.006,604.523 378.673,609.523 379.5,614.5C 378.292,615.234 376.959,615.567 375.5,615.5C 374.336,610.172 373.336,604.838 372.5,599.5 Z"/></g>
<g><path style="opacity:1" fill="#2d7ca3" d="M 348.5,611.5 C 349.978,611.238 351.311,611.571 352.5,612.5C 353.374,614.747 353.708,617.08 353.5,619.5C 352.041,619.433 350.708,619.766 349.5,620.5C 349.296,617.482 348.963,614.482 348.5,611.5 Z"/></g>
<g><path style="opacity:1" fill="#67d9dc" d="M 327.5,608.5 C 329.124,608.36 330.29,609.027 331,610.5C 331.53,614.583 332.363,618.583 333.5,622.5C 333.083,623.124 332.416,623.457 331.5,623.5C 330.287,623.253 329.62,622.586 329.5,621.5C 329.018,617.127 328.352,612.794 327.5,608.5 Z"/></g>
<g><path style="opacity:1" fill="#41a2b8" d="M 342.5,599.5 C 343.833,599.5 345.167,599.5 346.5,599.5C 347.295,603.476 347.962,607.476 348.5,611.5C 348.963,614.482 349.296,617.482 349.5,620.5C 348.167,620.5 346.833,620.5 345.5,620.5C 344.37,613.517 343.37,606.517 342.5,599.5 Z"/></g>
<g><path style="opacity:1" fill="#3d9fba" d="M 327.5,608.5 C 329.628,607.371 331.961,607.204 334.5,608C 335.482,610.738 336.148,613.572 336.5,616.5C 337.833,616.5 339.167,616.5 340.5,616.5C 340.5,618.167 340.5,619.833 340.5,621.5C 338.393,622.468 336.059,622.802 333.5,622.5C 332.363,618.583 331.53,614.583 331,610.5C 330.29,609.027 329.124,608.36 327.5,608.5 Z"/></g>
<g><path style="opacity:1" fill="#3fb1ce" d="M 320.5,617.5 C 321.5,617.5 322.5,617.5 323.5,617.5C 323.721,620.279 323.388,622.946 322.5,625.5C 321.833,625.5 321.167,625.5 320.5,625.5C 320.5,622.833 320.5,620.167 320.5,617.5 Z"/></g>
<g><path style="opacity:1" fill="#307d9d" d="M 320.5,617.5 C 322.607,616.532 324.941,616.198 327.5,616.5C 327.366,618.292 327.699,619.958 328.5,621.5C 328.5,622.5 328.5,623.5 328.5,624.5C 326.435,624.517 324.435,624.85 322.5,625.5C 323.388,622.946 323.721,620.279 323.5,617.5C 322.5,617.5 321.5,617.5 320.5,617.5 Z"/></g>
<g><path style="opacity:0.702" fill="#49494b" d="M 636.5,588.5 C 546.053,605.988 455.386,622.988 364.5,639.5C 365.347,638.034 366.68,637.2 368.5,637C 374.463,635.791 380.463,634.791 386.5,634C 388.932,632.913 388.598,632.413 385.5,632.5C 386.568,631.566 387.901,631.232 389.5,631.5C 391.966,632.634 394.633,632.801 397.5,632C 468.372,619.189 539.039,605.855 609.5,592C 618.449,590.345 627.449,589.178 636.5,588.5 Z"/></g>
</svg>
