<?xml version="1.0" encoding="UTF-8"?>
<!DOCTYPE svg PUBLIC "-//W3C//DTD SVG 1.1//EN" "http://www.w3.org/Graphics/SVG/1.1/DTD/svg11.dtd">
<svg xmlns="http://www.w3.org/2000/svg" version="1.1" width="1026px" height="899px" style="shape-rendering:geometricPrecision; text-rendering:geometricPrecision; image-rendering:optimizeQuality; fill-rule:evenodd; clip-rule:evenodd" xmlns:xlink="http://www.w3.org/1999/xlink">
<g><path style="opacity:0.881" fill="#060606" d="M 39.5,146.5 C 45.0502,146.721 50.7169,146.721 56.5,146.5C 64.8253,147.388 73.1587,148.222 81.5,149C 81.1667,149.333 80.8333,149.667 80.5,150C 81.448,150.483 82.448,150.649 83.5,150.5C 90.3274,150.974 97.3274,151.141 104.5,151C 110.5,151.667 116.5,152.333 122.5,153C 124.022,154.328 125.689,154.162 127.5,152.5C 131.605,154.325 135.772,154.659 140,153.5C 147.826,154.407 155.659,155.24 163.5,156C 160.5,156.333 157.5,156.667 154.5,157C 168.447,156.26 182.28,157.093 196,159.5C 199.995,158 203.662,158.667 207,161.5C 207.674,160.422 208.674,159.755 210,159.5C 211.551,160.054 213.051,160.72 214.5,161.5C 218.799,160.458 223.132,160.291 227.5,161C 234.081,161.263 240.414,162.429 246.5,164.5C 248.273,163.913 250.106,163.58 252,163.5C 259.821,164.175 267.654,164.675 275.5,165C 279.531,165.072 283.364,165.906 287,167.5C 290.121,166.464 293.287,166.297 296.5,167C 293.937,167.763 293.937,168.263 296.5,168.5C 306.856,167.704 317.189,168.204 327.5,170C 328,170.5 328.5,171 329,171.5C 342.066,170.346 355.232,170.846 368.5,173C 367.5,173.333 366.5,173.667 365.5,174C 367.134,174.494 368.801,174.66 370.5,174.5C 377.327,174.974 384.327,175.141 391.5,175C 397.5,175.667 403.5,176.333 409.5,177C 410,177.5 410.5,178 411,178.5C 414.13,175.878 417.297,175.878 420.5,178.5C 422.273,177.913 424.106,177.58 426,177.5C 434.173,178.273 442.339,179.107 450.5,180C 447.5,180.333 444.5,180.667 441.5,181C 457.508,180.647 473.508,181.314 489.5,183C 492.147,186.033 494.98,186.199 498,183.5C 499.716,183.748 501.216,184.415 502.5,185.5C 504.44,184.905 506.44,184.572 508.5,184.5C 516.507,185.267 524.507,186.101 532.5,187C 533,187.5 533.5,188 534,188.5C 544.998,187.598 556.164,187.932 567.5,189.5C 569.608,189.86 571.608,190.527 573.5,191.5C 577.131,190.485 580.798,190.319 584.5,191C 583.5,191.333 582.5,191.667 581.5,192C 592.508,191.553 603.508,192.22 614.5,194C 615,194.5 615.5,195 616,195.5C 619.295,192.983 622.629,192.983 626,195.5C 628.064,194.409 630.231,194.242 632.5,195C 634.306,196.806 636.14,198.64 638,200.5C 638.752,235.345 638.585,270.011 637.5,304.5C 638.809,342.787 639.476,381.12 639.5,419.5C 639.446,462.503 639.113,505.503 638.5,548.5C 638.776,563.686 639.443,578.853 640.5,594C 641.009,599.385 639.009,603.385 634.5,606C 573.17,607.696 511.837,607.862 450.5,606.5C 430.109,607.239 409.942,608.573 390,610.5C 389.79,608.942 389.29,607.609 388.5,606.5C 368.674,605.503 348.674,605.17 328.5,605.5C 348.329,604.668 368.329,604.168 388.5,604C 377.434,604.048 370.434,603.548 367.5,602.5C 367.833,598.5 368.167,598.5 368.5,602.5C 369.978,602.762 371.311,602.429 372.5,601.5C 367.684,599.639 367.684,597.139 372.5,594C 371.692,593.692 371.025,593.192 370.5,592.5C 263.167,591.679 155.834,591.513 48.5,592C 47.8904,511.896 47.2237,442.396 46.5,383.5C 44.5714,383.231 42.9047,383.731 41.5,385C 43.9011,385.805 43.7344,386.638 41,387.5C 40.2496,386.874 39.4162,386.374 38.5,386C 38.799,384.68 38.9657,383.18 39,381.5C 40.7261,382.576 42.5594,382.743 44.5,382C 43.8016,381.029 43.8016,379.863 44.5,378.5C 44.1667,377.833 43.8333,377.167 43.5,376.5C 41.8513,377.648 40.3513,378.981 39,380.5C 38.6667,378.5 38.3333,376.5 38,374.5C 37.2009,379.087 37.3676,383.587 38.5,388C 37.8742,388.75 37.3742,389.584 37,390.5C 36.3333,311.833 36.3333,233.167 37,154.5C 38.1356,151.904 38.969,149.237 39.5,146.5 Z"/></g>
<g><path style="opacity:0.005" fill="#000000" d="M 83.5,150.5 C 86.3035,149.362 89.3035,149.195 92.5,150C 89.5184,150.498 86.5184,150.665 83.5,150.5 Z"/></g>
<g><path style="opacity:1" fill="#afafaf" d="M 614.5,587.5 C 614.667,502.166 614.5,416.833 614,331.5C 612.212,326.08 608.712,322.247 603.5,320C 477.484,312.924 351.484,305.757 225.5,298.5C 217.837,298.171 212.504,301.505 209.5,308.5C 208.732,309.263 208.232,310.263 208,311.5C 207.5,404.166 207.333,496.833 207.5,589.5C 203.167,589.5 198.833,589.5 194.5,589.5C 194.667,555.832 194.5,522.165 194,488.5C 191.915,482.367 187.748,478.367 181.5,476.5C 157.351,474.943 133.017,474.276 108.5,474.5C 99.7646,474.124 91.0979,474.624 82.5,476C 78.8128,479.21 75.9794,483.044 74,487.5C 73.5,521.498 73.3333,555.498 73.5,589.5C 65.8333,589.5 58.1667,589.5 50.5,589.5C 50.3333,458.166 50.5,326.833 51,195.5C 52.7431,184.835 57.9097,176.335 66.5,170C 68.5,169.833 70.5,169.667 72.5,169.5C 254.849,183.853 437.182,198.353 619.5,213C 620.667,214.167 621.833,215.333 623,216.5C 623.5,340.166 623.667,463.833 623.5,587.5C 620.5,587.5 617.5,587.5 614.5,587.5 Z"/></g>
<g><path style="opacity:0.007" fill="#000000" d="M 370.5,174.5 C 373.304,173.362 376.304,173.195 379.5,174C 376.518,174.498 373.518,174.665 370.5,174.5 Z"/></g>
<g><path style="opacity:1" fill="#292728" d="M 613.5,245.5 C 613.799,259.549 613.465,273.549 612.5,287.5C 609.873,295.895 604.207,298.895 595.5,296.5C 501.991,291.176 408.657,285.51 315.5,279.5C 300.37,277.674 285.037,276.674 269.5,276.5C 208.147,273.428 146.813,269.928 85.5,266C 80.8535,262.358 77.3535,257.858 75,252.5C 74.3333,236.5 74.3333,220.5 75,204.5C 76.7379,200.759 79.2379,197.592 82.5,195C 109.173,195.857 135.839,197.191 162.5,199C 309.138,210.264 455.804,221.264 602.5,232C 608.657,234.486 612.324,238.986 613.5,245.5 Z"/></g>
<g><path style="opacity:1" fill="#bdbcbc" d="M 93.5,216.5 C 141.439,219.492 141.439,220.492 93.5,219.5C 93.5,218.5 93.5,217.5 93.5,216.5 Z"/></g>
<g><path style="opacity:1" fill="#acabab" d="M 93.5,229.5 C 105.487,230.206 117.487,230.539 129.5,230.5C 129.5,231.5 129.5,232.5 129.5,233.5C 120.161,233.166 110.828,232.666 101.5,232C 98.3248,232.053 95.6581,231.22 93.5,229.5 Z"/></g>
<g><path style="opacity:1" fill="#aeaeae" d="M 600.5,279.5 C 600.093,273.755 597.093,270.089 591.5,268.5C 590.167,269.167 588.833,269.833 587.5,270.5C 579.413,265.545 574.746,267.878 573.5,277.5C 567.114,267.3 566.948,256.966 573,246.5C 579.519,238.703 587.019,237.536 595.5,243C 604.169,250.987 607.002,260.82 604,272.5C 603.102,275.069 601.935,277.402 600.5,279.5 Z"/></g>
<g><path style="opacity:1" fill="#cacaca" d="M 93.5,242.5 C 105.26,242.384 116.927,243.217 128.5,245C 120.164,245.389 111.831,245.222 103.5,244.5C 99.7614,244.486 96.428,243.82 93.5,242.5 Z"/></g>
<g><path style="opacity:1" fill="#ececec" d="M 583.5,247.5 C 593.262,248.058 596.262,253.058 592.5,262.5C 591.375,266.799 588.708,268.299 584.5,267C 579.659,260.621 579.325,254.121 583.5,247.5 Z"/></g>
<g><path style="opacity:1" fill="#6a6869" d="M 613.5,245.5 C 614.661,258.994 614.827,272.66 614,286.5C 613.617,287.056 613.117,287.389 612.5,287.5C 613.465,273.549 613.799,259.549 613.5,245.5 Z"/></g>
<g><path style="opacity:1" fill="#ededed" d="M 600.5,279.5 C 594.982,286.517 587.982,288.351 579.5,285C 576.882,282.894 574.882,280.394 573.5,277.5C 574.746,267.878 579.413,265.545 587.5,270.5C 588.833,269.833 590.167,269.167 591.5,268.5C 597.093,270.089 600.093,273.755 600.5,279.5 Z"/></g>
<g><path style="opacity:1" fill="#575656" d="M 269.5,276.5 C 285.037,276.674 300.37,277.674 315.5,279.5C 299.955,279.43 284.622,278.43 269.5,276.5 Z"/></g>
<g><path style="opacity:1" fill="#282728" d="M 614.5,587.5 C 479.168,588.16 343.834,588.494 208.5,588.5C 208.176,495.145 208.51,401.811 209.5,308.5C 212.504,301.505 217.837,298.171 225.5,298.5C 351.484,305.757 477.484,312.924 603.5,320C 608.712,322.247 612.212,326.08 614,331.5C 614.5,416.833 614.667,502.166 614.5,587.5 Z"/></g>
<g><path style="opacity:1" fill="#e9e8e9" d="M 267.5,314.5 C 268.833,314.5 270.167,314.5 271.5,314.5C 271.672,316.492 271.005,318.158 269.5,319.5C 270.415,320.328 271.081,321.328 271.5,322.5C 269.752,326.993 269.085,331.66 269.5,336.5C 268.167,336.5 266.833,336.5 265.5,336.5C 265.718,331.789 265.385,327.122 264.5,322.5C 264.9,319.534 265.9,316.868 267.5,314.5 Z"/></g>
<g><path style="opacity:1" fill="#e9e9e9" d="M 251.5,315.5 C 261.002,316.182 264.502,321.182 262,330.5C 259.565,335.224 255.731,336.724 250.5,335C 246.809,330.827 245.642,325.993 247,320.5C 248.025,318.313 249.525,316.646 251.5,315.5 Z"/></g>
<g><path style="opacity:1" fill="#d5d5d5" d="M 298.5,319.5 C 296.833,320.833 295.167,320.833 293.5,319.5C 293.35,315.839 294.85,314.839 298,316.5C 298.483,317.448 298.649,318.448 298.5,319.5 Z"/></g>
<g><path style="opacity:1" fill="#e6e5e5" d="M 273.5,314.5 C 277.161,314.35 278.161,315.85 276.5,319C 275.552,319.483 274.552,319.649 273.5,319.5C 273.5,317.833 273.5,316.167 273.5,314.5 Z"/></g>
<g><path style="opacity:1" fill="#333132" d="M 251.5,320.5 C 257.997,320.18 260.164,323.18 258,329.5C 255.16,332.371 252.826,332.037 251,328.5C 250.278,325.739 250.445,323.073 251.5,320.5 Z"/></g>
<g><path style="opacity:1" fill="#e9e9e9" d="M 273.5,321.5 C 274.833,321.5 276.167,321.5 277.5,321.5C 277.5,326.5 277.5,331.5 277.5,336.5C 276.167,336.5 274.833,336.5 273.5,336.5C 273.5,331.5 273.5,326.5 273.5,321.5 Z"/></g>
<g><path style="opacity:1" fill="#e4e4e4" d="M 288.5,321.5 C 290.385,323.053 291.385,325.053 291.5,327.5C 289.43,327.551 287.597,326.885 286,325.5C 284.115,325.862 283.281,327.029 283.5,329C 283.432,331.034 284.266,332.534 286,333.5C 287.597,332.115 289.43,331.449 291.5,331.5C 291.5,332.5 291.5,333.5 291.5,334.5C 286.833,339.005 282.999,338.339 280,332.5C 277.844,324.833 280.678,321.166 288.5,321.5 Z"/></g>
<g><path style="opacity:1" fill="#e7e7e7" d="M 300.5,322.5 C 303.238,323.237 305.905,323.237 308.5,322.5C 310.383,322.876 311.883,323.876 313,325.5C 313.499,329.821 313.666,334.154 313.5,338.5C 312.167,338.5 310.833,338.5 309.5,338.5C 309.665,334.818 309.499,331.152 309,327.5C 307.667,326.167 306.333,326.167 305,327.5C 304.501,331.152 304.335,334.818 304.5,338.5C 303.167,338.5 301.833,338.5 300.5,338.5C 300.5,333.167 300.5,327.833 300.5,322.5 Z"/></g>
<g><path style="opacity:1" fill="#e8e8e8" d="M 317.5,323.5 C 321.315,324.105 324.982,324.105 328.5,323.5C 328.5,328.5 328.5,333.5 328.5,338.5C 325.991,337.325 323.491,337.325 321,338.5C 316.823,337.339 314.99,334.505 315.5,330C 315.338,327.498 316.005,325.331 317.5,323.5 Z"/></g>
<g><path style="opacity:1" fill="#494849" d="M 293.5,319.5 C 295.167,320.833 296.833,320.833 298.5,319.5C 298.5,325.833 298.5,332.167 298.5,338.5C 296.901,338.768 295.568,338.434 294.5,337.5C 293.691,335.708 293.191,333.708 293,331.5C 292.768,332.737 292.268,333.737 291.5,334.5C 291.5,333.5 291.5,332.5 291.5,331.5C 289.43,331.449 287.597,332.115 286,333.5C 284.266,332.534 283.432,331.034 283.5,329C 283.281,327.029 284.115,325.862 286,325.5C 287.597,326.885 289.43,327.551 291.5,327.5C 291.385,325.053 290.385,323.053 288.5,321.5C 290.514,321.608 292.18,320.942 293.5,319.5 Z"/></g>
<g><path style="opacity:1" fill="#f6f6f6" d="M 294.5,337.5 C 294.5,332.5 294.5,327.5 294.5,322.5C 295.5,322.5 296.5,322.5 297.5,322.5C 297.5,327.5 297.5,332.5 297.5,337.5C 296.5,337.5 295.5,337.5 294.5,337.5 Z"/></g>
<g><path style="opacity:1" fill="#383637" d="M 320.5,327.5 C 321.822,327.33 322.989,327.663 324,328.5C 324.495,330.473 324.662,332.473 324.5,334.5C 319.59,334.424 318.257,332.09 320.5,327.5 Z"/></g>
<g><path style="opacity:1" fill="#f0f0f0" d="M 597.5,330.5 C 599.833,330.5 602.167,330.5 604.5,330.5C 604.5,341.5 604.5,352.5 604.5,363.5C 602.208,363.756 600.041,363.423 598,362.5C 597.5,351.839 597.333,341.172 597.5,330.5 Z"/></g>
<g><path style="opacity:1" fill="#efefef" d="M 588.5,337.5 C 590.833,337.5 593.167,337.5 595.5,337.5C 595.5,345.833 595.5,354.167 595.5,362.5C 593.167,362.5 590.833,362.5 588.5,362.5C 588.5,354.167 588.5,345.833 588.5,337.5 Z"/></g>
<g><path style="opacity:1" fill="#efeeee" d="M 579.5,345.5 C 581.833,345.5 584.167,345.5 586.5,345.5C 586.5,351.167 586.5,356.833 586.5,362.5C 584.167,362.5 581.833,362.5 579.5,362.5C 579.5,356.833 579.5,351.167 579.5,345.5 Z"/></g>
<g><path style="opacity:1" fill="#292728" d="M 84.5,291.5 C 116.806,293.484 149.14,294.984 181.5,296C 187,298.833 191.167,303 194,308.5C 194.667,357.167 194.667,405.833 194,454.5C 192.365,460.974 188.532,465.474 182.5,468C 150.163,468.373 117.829,468.04 85.5,467C 80.9506,463.747 77.4506,459.58 75,454.5C 74.3333,403.833 74.3333,353.167 75,302.5C 77.3138,298.025 80.4804,294.358 84.5,291.5 Z"/></g>
<g><path style="opacity:0.998" fill="#c2c2c4" d="M 37.5,146.5 C 37.7163,148.681 36.883,150.347 35,151.5C 34.5,216.166 34.3333,280.832 34.5,345.5C 33.5033,362.659 33.17,379.992 33.5,397.5C 32.5008,465.998 32.1675,534.665 32.5,603.5C 27.6367,603.181 22.97,603.514 18.5,604.5C 17.8334,573.835 17.5,543.002 17.5,512C 18.1006,392.834 18.6006,273.667 19,154.5C 20.5,151.667 22.6667,149.5 25.5,148C 29.4402,146.985 33.4402,146.485 37.5,146.5 Z"/></g>
<g><path style="opacity:1" fill="#c8c7c8" d="M 85.5,327.5 C 117.511,328.518 149.511,329.851 181.5,331.5C 190.079,335.995 193.246,342.995 191,352.5C 189.698,356.274 187.531,359.441 184.5,362C 151.815,361.888 119.148,360.888 86.5,359C 78.0618,352.63 75.5618,344.463 79,334.5C 80.6941,331.642 82.8607,329.309 85.5,327.5 Z"/></g>
<g><path style="opacity:1" fill="#7b797a" d="M 136.5,331.5 C 147.029,331.47 157.362,332.137 167.5,333.5C 156.971,333.53 146.638,332.863 136.5,331.5 Z"/></g>
<g><path style="opacity:1" fill="#2a2829" d="M 136.5,331.5 C 146.638,332.863 156.971,333.53 167.5,333.5C 182.596,330.58 189.763,336.58 189,351.5C 187.569,354.927 185.402,357.76 182.5,360C 151.134,359.915 119.801,358.748 88.5,356.5C 80.8109,352.027 78.3109,345.36 81,336.5C 82.1217,334.376 83.6217,332.543 85.5,331C 102.499,330.808 119.499,330.974 136.5,331.5 Z"/></g>
<g><path style="opacity:1" fill="#c2c2c2" d="M 91.5,337.5 C 93.0481,337.821 93.7148,338.821 93.5,340.5C 94.5,340.5 95.5,340.5 96.5,340.5C 96.3505,339.448 96.5172,338.448 97,337.5C 101.672,340.387 102.506,344.054 99.5,348.5C 96.5541,349.655 93.5541,349.821 90.5,349C 87.6432,344.814 87.9765,340.981 91.5,337.5 Z"/></g>
<g><path style="opacity:1" fill="#25567b" d="M 316.5,384.5 C 316.5,385.5 316.5,386.5 316.5,387.5C 302.178,386.789 287.844,386.456 273.5,386.5C 273.5,385.167 273.5,383.833 273.5,382.5C 287.822,383.355 302.155,384.022 316.5,384.5 Z"/></g>
<g><path style="opacity:1" fill="#5fc5c8" d="M 316.5,384.5 C 319.833,384.5 323.167,384.5 326.5,384.5C 326.5,385.5 326.5,386.5 326.5,387.5C 323.167,387.5 319.833,387.5 316.5,387.5C 316.5,386.5 316.5,385.5 316.5,384.5 Z"/></g>
<g><path style="opacity:1" fill="#ededed" d="M 263.5,403.5 C 263.847,398.681 261.68,395.681 257,394.5C 252.842,395.496 250.675,398.163 250.5,402.5C 246.5,402.5 242.5,402.5 238.5,402.5C 238.51,395.686 235.177,393.186 228.5,395C 226.635,397.194 224.968,399.36 223.5,401.5C 222.359,398.36 222.192,395.027 223,391.5C 224.887,389.114 227.387,387.947 230.5,388C 238.042,378.862 247.375,376.862 258.5,382C 261.679,385.025 264.512,388.191 267,391.5C 267.667,395.167 267.667,398.833 267,402.5C 265.989,403.337 264.822,403.67 263.5,403.5 Z"/></g>
<g><path style="opacity:1" fill="#343233" d="M 250.5,383.5 C 254.836,383.272 258.17,384.939 260.5,388.5C 257.232,389.487 253.898,389.82 250.5,389.5C 250.5,387.5 250.5,385.5 250.5,383.5 Z"/></g>
<g><path style="opacity:1" fill="#3a3839" d="M 239.5,382.5 C 242.167,382.5 244.833,382.5 247.5,382.5C 247.5,384.833 247.5,387.167 247.5,389.5C 243.116,389.826 238.783,389.492 234.5,388.5C 236.19,386.481 237.856,384.481 239.5,382.5 Z"/></g>
<g><path style="opacity:1" fill="#cc4456" d="M 424.5,402.5 C 422.54,400.844 420.54,399.177 418.5,397.5C 423.017,387.58 430.683,384.08 441.5,387C 452.317,392.46 457.651,401.293 457.5,413.5C 454.833,413.5 452.167,413.5 449.5,413.5C 449.351,400.848 443.017,395.015 430.5,396C 428.266,398.063 426.266,400.229 424.5,402.5 Z"/></g>
<g><path style="opacity:1" fill="#5cbbbe" d="M 381.5,385.5 C 385.514,385.334 389.514,385.501 393.5,386C 393.957,386.414 394.291,386.914 394.5,387.5C 390.204,388.328 385.871,388.828 381.5,389C 379.043,392.058 376.043,394.392 372.5,396C 368.509,395.842 364.509,395.342 360.5,394.5C 357.011,395.238 353.677,396.571 350.5,398.5C 350.167,398 349.833,397.5 349.5,397C 351.627,395.098 353.96,393.431 356.5,392C 362.213,392.036 367.88,392.369 373.5,393C 376.432,390.715 379.098,388.215 381.5,385.5 Z"/></g>
<g><path style="opacity:1" fill="#f6f6f6" d="M 552.5,390.5 C 565.517,390.516 578.517,391.016 591.5,392C 592.649,400.421 592.816,408.921 592,417.5C 579.242,418.655 566.409,418.822 553.5,418C 553,417.5 552.5,417 552,416.5C 551.198,407.755 551.364,399.088 552.5,390.5 Z"/></g>
<g><path style="opacity:1" fill="#fdfdfd" d="M 487.5,392.5 C 488.096,393.935 488.096,395.602 487.5,397.5C 488.568,398.434 489.901,398.768 491.5,398.5C 491.5,404.167 491.5,409.833 491.5,415.5C 487.5,415.5 483.5,415.5 479.5,415.5C 479.5,407.833 479.5,400.167 479.5,392.5C 482.167,392.5 484.833,392.5 487.5,392.5 Z"/></g>
<g><path style="opacity:1" fill="#23618f" d="M 296.5,395.5 C 296.5,396.167 296.5,396.833 296.5,397.5C 288.833,397.5 281.167,397.5 273.5,397.5C 273.5,396.5 273.5,395.5 273.5,394.5C 281.15,395.143 288.817,395.477 296.5,395.5 Z"/></g>
<g><path style="opacity:1" fill="#dadada" d="M 529.5,394.5 C 532.487,394.422 533.153,395.589 531.5,398C 532.137,399.713 533.137,399.879 534.5,398.5C 535.583,399.365 535.749,400.365 535,401.5C 529.816,402.69 524.982,404.856 520.5,408C 517.786,410.181 515.786,412.847 514.5,416C 513.365,416.749 512.365,416.583 511.5,415.5C 512.95,414.15 513.617,412.484 513.5,410.5C 512.022,410.762 510.689,410.429 509.5,409.5C 515.105,407.527 520.438,404.693 525.5,401C 527.666,399.322 528.999,397.155 529.5,394.5 Z"/></g>
<g><path style="opacity:1" fill="#5bb6b9" d="M 296.5,395.5 C 306.5,395.5 316.5,395.5 326.5,395.5C 326.5,396.5 326.5,397.5 326.5,398.5C 316.319,398.827 306.319,398.494 296.5,397.5C 296.5,396.833 296.5,396.167 296.5,395.5 Z"/></g>
<g><path style="opacity:1" fill="#eb0908" d="M 418.5,397.5 C 420.54,399.177 422.54,400.844 424.5,402.5C 422.822,405.552 422.155,408.885 422.5,412.5C 419.833,412.5 417.167,412.5 414.5,412.5C 414.335,409.482 414.502,406.482 415,403.5C 415.424,400.975 416.59,398.975 418.5,397.5 Z"/></g>
<g><path style="opacity:1" fill="#c1c0c1" d="M 487.5,392.5 C 484.833,392.5 482.167,392.5 479.5,392.5C 479.5,400.167 479.5,407.833 479.5,415.5C 483.5,415.5 487.5,415.5 491.5,415.5C 491.5,409.833 491.5,404.167 491.5,398.5C 489.901,398.768 488.568,398.434 487.5,397.5C 489.167,397.5 490.833,397.5 492.5,397.5C 492.5,403.833 492.5,410.167 492.5,416.5C 487.833,416.5 483.167,416.5 478.5,416.5C 478.5,408.167 478.5,399.833 478.5,391.5C 481.713,391.19 484.713,391.523 487.5,392.5 Z"/></g>
<g><path style="opacity:1" fill="#656364" d="M 133.5,402.5 C 117.172,401.96 100.839,401.627 84.5,401.5C 84.5,402.5 84.5,403.5 84.5,404.5C 83.5655,403.432 83.2322,402.099 83.5,400.5C 96.1711,400.333 108.838,400.5 121.5,401C 125.688,401.176 129.688,401.676 133.5,402.5 Z"/></g>
<g><path style="opacity:1" fill="#e9e9e9" d="M 133.5,402.5 C 144.654,403.495 155.988,403.828 167.5,403.5C 167.5,404.5 167.5,405.5 167.5,406.5C 157.5,406.5 147.5,406.5 137.5,406.5C 119.658,406.302 101.991,405.635 84.5,404.5C 84.5,403.5 84.5,402.5 84.5,401.5C 100.839,401.627 117.172,401.96 133.5,402.5 Z"/></g>
<g><path style="opacity:1" fill="#676667" d="M 263.5,403.5 C 263.167,403.5 262.833,403.5 262.5,403.5C 262.276,400.278 260.609,398.278 257.5,397.5C 253.674,397.662 252.007,399.662 252.5,403.5C 247.5,403.5 242.5,403.5 237.5,403.5C 236.893,396.703 233.726,395.036 228,398.5C 227.506,400.134 227.34,401.801 227.5,403.5C 226.005,403.011 224.671,402.345 223.5,401.5C 224.968,399.36 226.635,397.194 228.5,395C 235.177,393.186 238.51,395.686 238.5,402.5C 242.5,402.5 246.5,402.5 250.5,402.5C 250.675,398.163 252.842,395.496 257,394.5C 261.68,395.681 263.847,398.681 263.5,403.5 Z"/></g>
<g><path style="opacity:1" fill="#828181" d="M 133.5,402.5 C 145.167,402.5 156.833,402.5 168.5,402.5C 168.5,404.167 168.5,405.833 168.5,407.5C 157.986,407.828 147.653,407.494 137.5,406.5C 147.5,406.5 157.5,406.5 167.5,406.5C 167.5,405.5 167.5,404.5 167.5,403.5C 155.988,403.828 144.654,403.495 133.5,402.5 Z"/></g>
<g><path style="opacity:1" fill="#dad9d9" d="M 237.5,403.5 C 236.135,407.254 233.468,408.421 229.5,407C 228.695,405.887 228.028,404.721 227.5,403.5C 227.34,401.801 227.506,400.134 228,398.5C 233.726,395.036 236.893,396.703 237.5,403.5 Z"/></g>
<g><path style="opacity:1" fill="#3f3d3e" d="M 230.5,398.5 C 234.068,398.759 235.401,400.759 234.5,404.5C 229.74,404.799 228.406,402.799 230.5,398.5 Z"/></g>
<g><path style="opacity:1" fill="#858585" d="M 555.5,400.5 C 566.418,400.894 577.418,401.561 588.5,402.5C 588.5,403.833 588.5,405.167 588.5,406.5C 585.176,405.518 582.176,405.851 579.5,407.5C 577.883,406.358 576.05,405.691 574,405.5C 567.981,405.805 561.815,405.805 555.5,405.5C 555.5,403.833 555.5,402.167 555.5,400.5 Z"/></g>
<g><path style="opacity:1" fill="#d5d4d5" d="M 262.5,403.5 C 261.76,408.151 259.094,409.651 254.5,408C 253.418,406.67 252.751,405.17 252.5,403.5C 252.007,399.662 253.674,397.662 257.5,397.5C 260.609,398.278 262.276,400.278 262.5,403.5 Z"/></g>
<g><path style="opacity:1" fill="#323031" d="M 255.5,399.5 C 259.068,399.759 260.401,401.759 259.5,405.5C 258.167,405.5 256.833,405.5 255.5,405.5C 255.5,403.5 255.5,401.5 255.5,399.5 Z"/></g>
<g><path style="opacity:1" fill="#306a8b" d="M 326.5,407.5 C 301.167,408.167 301.167,408.833 326.5,409.5C 309.008,409.915 291.341,409.915 273.5,409.5C 273.5,408.167 273.5,406.833 273.5,405.5C 291.33,405.994 308.997,406.66 326.5,407.5 Z"/></g>
<g><path style="opacity:1" fill="#67d8db" d="M 326.5,407.5 C 326.5,408.167 326.5,408.833 326.5,409.5C 301.167,408.833 301.167,408.167 326.5,407.5 Z"/></g>
<g><path style="opacity:1" fill="#5e5d5d" d="M 134.5,420.5 C 117.824,420.519 101.158,420.186 84.5,419.5C 84.5,420.833 84.5,422.167 84.5,423.5C 83.5489,422.081 83.2155,420.415 83.5,418.5C 100.691,418.305 117.691,418.972 134.5,420.5 Z"/></g>
<g><path style="opacity:1" fill="#dfdfdf" d="M 134.5,420.5 C 135.434,421.568 135.768,422.901 135.5,424.5C 118.494,424.403 101.494,424.07 84.5,423.5C 84.5,422.167 84.5,420.833 84.5,419.5C 101.158,420.186 117.824,420.519 134.5,420.5 Z"/></g>
<g><path style="opacity:1" fill="#ebebeb" d="M 606.5,381.5 C 606.5,445.833 606.5,510.167 606.5,574.5C 605.167,542.674 604.5,510.507 604.5,478C 604.5,445.493 605.167,413.326 606.5,381.5 Z"/></g>
<g><path style="opacity:1" fill="#1d1d1e" d="M 34.5,345.5 C 35.5235,432.235 35.5235,518.902 34.5,605.5C 34.1667,605.5 33.8333,605.5 33.5,605.5C 33.5,536.167 33.5,466.833 33.5,397.5C 33.17,379.992 33.5033,362.659 34.5,345.5 Z"/></g>
<g><path style="opacity:1" fill="#e3e3e3" d="M 106.5,439.5 C 127.164,439.986 147.83,440.319 168.5,440.5C 168.5,441.833 168.5,443.167 168.5,444.5C 154.5,444.5 140.5,444.5 126.5,444.5C 112.679,443.34 98.6791,442.673 84.5,442.5C 84.5,441.5 84.5,440.5 84.5,439.5C 91.8333,439.5 99.1667,439.5 106.5,439.5 Z"/></g>
<g><path style="opacity:1" fill="#5e5c5d" d="M 106.5,439.5 C 99.1667,439.5 91.8333,439.5 84.5,439.5C 84.5,440.5 84.5,441.5 84.5,442.5C 98.6791,442.673 112.679,443.34 126.5,444.5C 112.157,444.511 97.8233,444.178 83.5,443.5C 83.5,441.833 83.5,440.167 83.5,438.5C 91.3516,438.175 99.0182,438.508 106.5,439.5 Z"/></g>
<g><path style="opacity:1" fill="#504e4f" d="M 209.5,308.5 C 208.51,401.811 208.176,495.145 208.5,588.5C 208.5,589.167 208.167,589.5 207.5,589.5C 207.333,496.833 207.5,404.166 208,311.5C 208.232,310.263 208.732,309.263 209.5,308.5 Z"/></g>
<g><path style="opacity:1" fill="#326e8e" d="M 273.5,448.5 C 291.163,448.989 308.83,449.322 326.5,449.5C 326.5,450.5 326.5,451.5 326.5,452.5C 308.833,452.5 291.167,452.5 273.5,452.5C 273.5,451.167 273.5,449.833 273.5,448.5 Z"/></g>
<g><path style="opacity:1" fill="#e8bc2e" d="M 432.5,462.5 C 431.469,460.039 430.802,457.373 430.5,454.5C 441.844,452.77 449.677,457.437 454,468.5C 455.043,471.757 455.543,475.09 455.5,478.5C 453.167,478.5 450.833,478.5 448.5,478.5C 448.101,468.1 442.767,462.767 432.5,462.5 Z"/></g>
<g><path style="opacity:1" fill="#ebebeb" d="M 266.5,459.5 C 266.5,463.5 266.5,467.5 266.5,471.5C 265.5,471.5 264.5,471.5 263.5,471.5C 262.907,463.429 259.074,461.429 252,465.5C 250.872,467.345 250.372,469.345 250.5,471.5C 246.5,471.5 242.5,471.5 238.5,471.5C 238.847,466.681 236.68,463.681 232,462.5C 227.796,463.535 225.63,466.202 225.5,470.5C 224.5,470.5 223.5,470.5 222.5,470.5C 220.522,462.276 223.522,457.276 231.5,455.5C 233.65,452.849 235.983,450.349 238.5,448C 244.569,447.196 250.569,447.529 256.5,449C 260.649,451.863 263.983,455.363 266.5,459.5 Z"/></g>
<g><path style="opacity:1" fill="#383637" d="M 239.5,450.5 C 242.167,450.5 244.833,450.5 247.5,450.5C 247.5,452.833 247.5,455.167 247.5,457.5C 243.445,457.824 239.445,457.491 235.5,456.5C 237.252,454.754 238.585,452.754 239.5,450.5 Z"/></g>
<g><path style="opacity:1" fill="#2e2c2d" d="M 250.5,451.5 C 255.134,451.301 258.134,453.301 259.5,457.5C 256.5,457.5 253.5,457.5 250.5,457.5C 250.5,455.5 250.5,453.5 250.5,451.5 Z"/></g>
<g><path style="opacity:1" fill="#fdfdfd" d="M 487.5,455.5 C 487.5,457.5 487.5,459.5 487.5,461.5C 488.568,462.434 489.901,462.768 491.5,462.5C 491.5,468.167 491.5,473.833 491.5,479.5C 487.5,479.5 483.5,479.5 479.5,479.5C 479.5,471.5 479.5,463.5 479.5,455.5C 482.167,455.5 484.833,455.5 487.5,455.5 Z"/></g>
<g><path style="opacity:1" fill="#f2f2f2" d="M 551.5,455.5 C 564.837,455.333 578.171,455.5 591.5,456C 592.648,464.088 592.815,472.254 592,480.5C 591.5,481 591,481.5 590.5,482C 578.153,482.833 565.82,482.666 553.5,481.5C 553.192,480.692 552.692,480.025 552,479.5C 551.5,471.507 551.334,463.507 551.5,455.5 Z"/></g>
<g><path style="opacity:1" fill="#cc7e0d" d="M 430.5,454.5 C 430.802,457.373 431.469,460.039 432.5,462.5C 430.229,464.266 428.063,466.266 426,468.5C 424.851,471.393 424.351,474.393 424.5,477.5C 421.833,477.5 419.167,477.5 416.5,477.5C 416.372,466.732 421.038,459.065 430.5,454.5 Z"/></g>
<g><path style="opacity:1" fill="#bfbebf" d="M 487.5,455.5 C 484.833,455.5 482.167,455.5 479.5,455.5C 479.5,463.5 479.5,471.5 479.5,479.5C 483.5,479.5 487.5,479.5 491.5,479.5C 491.5,473.833 491.5,468.167 491.5,462.5C 489.901,462.768 488.568,462.434 487.5,461.5C 489.167,461.5 490.833,461.5 492.5,461.5C 492.5,467.833 492.5,474.167 492.5,480.5C 487.833,480.5 483.167,480.5 478.5,480.5C 478.5,471.833 478.5,463.167 478.5,454.5C 481.713,454.19 484.713,454.523 487.5,455.5 Z"/></g>
<g><path style="opacity:1" fill="#dddddd" d="M 529.5,459.5 C 532.487,459.422 533.153,460.589 531.5,463C 532.137,464.713 533.137,464.879 534.5,463.5C 535.583,464.365 535.749,465.365 535,466.5C 532.834,468.121 530.334,468.955 527.5,469C 521.632,471.418 517.299,475.418 514.5,481C 513.365,481.749 512.365,481.583 511.5,480.5C 513.401,479.065 513.734,477.398 512.5,475.5C 510.216,476.843 509.383,476.176 510,473.5C 516.911,471.948 522.911,468.615 528,463.5C 528.41,462.099 528.91,460.766 529.5,459.5 Z"/></g>
<g><path style="opacity:1" fill="#63ced1" d="M 326.5,461.5 C 326.5,462.167 326.5,462.833 326.5,463.5C 286.5,462.833 286.5,462.167 326.5,461.5 Z"/></g>
<g><path style="opacity:1" fill="#366b83" d="M 326.5,461.5 C 286.5,462.167 286.5,462.833 326.5,463.5C 309,464.371 291.333,464.371 273.5,463.5C 273.5,462.5 273.5,461.5 273.5,460.5C 291.341,460.17 309.008,460.503 326.5,461.5 Z"/></g>
<g><path style="opacity:1" fill="#5dbdc0" d="M 381.5,454.5 C 385.833,454.5 390.167,454.5 394.5,454.5C 394.5,455.5 394.5,456.5 394.5,457.5C 390.116,457.174 385.783,457.508 381.5,458.5C 378.978,460.856 376.312,463.023 373.5,465C 368.052,465.139 362.719,464.806 357.5,464C 354.995,465.753 352.329,467.253 349.5,468.5C 348.406,467.132 348.74,465.965 350.5,465C 353.382,463.392 356.382,462.059 359.5,461C 364.076,461.958 368.743,462.291 373.5,462C 376.666,460 379.332,457.5 381.5,454.5 Z"/></g>
<g><path style="opacity:1" fill="#7f7f7f" d="M 555.5,464.5 C 566.418,464.894 577.418,465.561 588.5,466.5C 588.5,467.5 588.5,468.5 588.5,469.5C 581.953,469.225 575.453,469.558 569,470.5C 564.705,468.701 560.205,468.035 555.5,468.5C 555.5,467.167 555.5,465.833 555.5,464.5 Z"/></g>
<g><path style="opacity:1" fill="#d6d5d6" d="M 262.5,473.5 C 259.167,477.5 255.833,477.5 252.5,473.5C 252.274,465.123 255.441,463.456 262,468.5C 262.494,470.134 262.66,471.801 262.5,473.5 Z"/></g>
<g><path style="opacity:1" fill="#595758" d="M 266.5,459.5 C 267.811,463.683 267.811,468.016 266.5,472.5C 265.264,473.246 263.93,473.579 262.5,473.5C 262.66,471.801 262.494,470.134 262,468.5C 255.441,463.456 252.274,465.123 252.5,473.5C 247.731,472.883 243.064,472.216 238.5,471.5C 242.5,471.5 246.5,471.5 250.5,471.5C 250.372,469.345 250.872,467.345 252,465.5C 259.074,461.429 262.907,463.429 263.5,471.5C 264.5,471.5 265.5,471.5 266.5,471.5C 266.5,467.5 266.5,463.5 266.5,459.5 Z"/></g>
<g><path style="opacity:1" fill="#3d3b3c" d="M 255.5,467.5 C 259.068,467.759 260.401,469.759 259.5,473.5C 254.719,473.833 253.386,471.833 255.5,467.5 Z"/></g>
<g><path style="opacity:1" fill="#235b85" d="M 306.5,472.5 C 306.5,473.167 306.5,473.833 306.5,474.5C 295.5,474.5 284.5,474.5 273.5,474.5C 273.5,473.5 273.5,472.5 273.5,471.5C 284.679,471.172 295.679,471.505 306.5,472.5 Z"/></g>
<g><path style="opacity:1" fill="#d5d5d5" d="M 230.5,464.5 C 235.734,464.623 237.901,467.29 237,472.5C 234.452,477.278 231.452,477.611 228,473.5C 226.927,469.9 227.76,466.9 230.5,464.5 Z"/></g>
<g><path style="opacity:1" fill="#3b393a" d="M 230.5,467.5 C 234.068,467.759 235.401,469.759 234.5,473.5C 229.74,473.799 228.406,471.799 230.5,467.5 Z"/></g>
<g><path style="opacity:1" fill="#5cbabd" d="M 306.5,472.5 C 313.167,472.5 319.833,472.5 326.5,472.5C 326.5,473.5 326.5,474.5 326.5,475.5C 319.646,475.824 312.979,475.491 306.5,474.5C 306.5,473.833 306.5,473.167 306.5,472.5 Z"/></g>
<g><path style="opacity:1" fill="#292728" d="M 108.5,474.5 C 132.658,475.713 156.992,476.379 181.5,476.5C 187.748,478.367 191.915,482.367 194,488.5C 194.5,522.165 194.667,555.832 194.5,589.5C 146.33,589.858 98.3301,589.858 50.5,589.5C 58.1667,589.5 65.8333,589.5 73.5,589.5C 73.3333,555.498 73.5,521.498 74,487.5C 75.9794,483.044 78.8128,479.21 82.5,476C 91.0979,474.624 99.7646,474.124 108.5,474.5 Z"/></g>
<g><path style="opacity:1" fill="#6b6a6a" d="M 108.5,474.5 C 133.017,474.276 157.351,474.943 181.5,476.5C 156.992,476.379 132.658,475.713 108.5,474.5 Z"/></g>
<g><path style="opacity:1" fill="#6e6c6d" d="M 90.5,482.5 C 95.8746,482.172 101.208,482.505 106.5,483.5C 103.833,483.833 101.167,484.167 98.5,484.5C 95.4098,484.478 92.7432,483.812 90.5,482.5 Z"/></g>
<g><path style="opacity:1" fill="#908f8f" d="M 606.5,381.5 C 605.167,413.326 604.5,445.493 604.5,478C 604.5,510.507 605.167,542.674 606.5,574.5C 605.791,575.404 604.791,575.737 603.5,575.5C 603.5,510.5 603.5,445.5 603.5,380.5C 604.791,380.263 605.791,380.596 606.5,381.5 Z"/></g>
<g><path style="opacity:1" fill="#ebebeb" d="M 266.5,537.5 C 265.5,537.5 264.5,537.5 263.5,537.5C 264.113,532.61 261.946,529.944 257,529.5C 252.796,530.535 250.63,533.202 250.5,537.5C 246.5,537.5 242.5,537.5 238.5,537.5C 238.5,536.833 238.5,536.167 238.5,535.5C 238.069,531.432 235.736,529.432 231.5,529.5C 227.115,530.239 225.115,532.906 225.5,537.5C 224.504,537.586 223.671,537.252 223,536.5C 220.323,528.837 222.823,524.337 230.5,523C 237.596,514.29 246.596,511.957 257.5,516C 260.74,518.901 263.574,522.068 266,525.5C 266.499,529.486 266.666,533.486 266.5,537.5 Z"/></g>
<g><path style="opacity:1" fill="#246592" d="M 316.5,515.5 C 316.5,516.5 316.5,517.5 316.5,518.5C 302.167,518.5 287.833,518.5 273.5,518.5C 273.5,517.5 273.5,516.5 273.5,515.5C 287.833,515.5 302.167,515.5 316.5,515.5 Z"/></g>
<g><path style="opacity:1" fill="#5fc5c9" d="M 316.5,515.5 C 319.833,515.5 323.167,515.5 326.5,515.5C 326.5,516.5 326.5,517.5 326.5,518.5C 323.167,518.5 319.833,518.5 316.5,518.5C 316.5,517.5 316.5,516.5 316.5,515.5 Z"/></g>
<g><path style="opacity:1" fill="#2e2c2d" d="M 239.5,517.5 C 241.833,517.5 244.167,517.5 246.5,517.5C 246.5,519.5 246.5,521.5 246.5,523.5C 242.774,523.823 239.107,523.489 235.5,522.5C 236.857,520.814 238.19,519.148 239.5,517.5 Z"/></g>
<g><path style="opacity:1" fill="#3e3c3d" d="M 249.5,517.5 C 254.177,517.672 257.844,519.672 260.5,523.5C 256.893,524.489 253.226,524.823 249.5,524.5C 249.5,522.167 249.5,519.833 249.5,517.5 Z"/></g>
<g><path style="opacity:1" fill="#c3c3c3" d="M 591.5,544.5 C 591.815,536.58 591.482,528.747 590.5,521C 577.838,520.5 565.171,520.333 552.5,520.5C 552.5,528.5 552.5,536.5 552.5,544.5C 551.343,536.344 551.177,528.01 552,519.5C 564.758,518.345 577.591,518.178 590.5,519C 591,519.5 591.5,520 592,520.5C 592.823,528.677 592.656,536.677 591.5,544.5 Z"/></g>
<g><path style="opacity:1" fill="#f8f8f8" d="M 591.5,544.5 C 591.389,545.117 591.056,545.617 590.5,546C 578.167,546.667 565.833,546.667 553.5,546C 552.944,545.617 552.611,545.117 552.5,544.5C 552.5,536.5 552.5,528.5 552.5,520.5C 565.171,520.333 577.838,520.5 590.5,521C 591.482,528.747 591.815,536.58 591.5,544.5 Z"/></g>
<g><path style="opacity:1" fill="#60c61b" d="M 445.5,524.5 C 444.833,527.167 444.167,529.833 443.5,532.5C 431.093,527.898 424.426,532.232 423.5,545.5C 421.167,545.5 418.833,545.5 416.5,545.5C 416.5,543.167 416.5,540.833 416.5,538.5C 421.127,522.683 430.794,518.016 445.5,524.5 Z"/></g>
<g><path style="opacity:1" fill="#ecebec" d="M 478.5,520.5 C 484.166,519.278 488.666,520.945 492,525.5C 492.811,532.414 492.645,539.248 491.5,546C 487.245,546.796 483.079,546.629 479,545.5C 478.5,537.173 478.334,528.84 478.5,520.5 Z"/></g>
<g><path style="opacity:1" fill="#5dbdc0" d="M 380.5,518.5 C 384.833,518.5 389.167,518.5 393.5,518.5C 393.5,519.5 393.5,520.5 393.5,521.5C 389.486,521.334 385.486,521.501 381.5,522C 378.5,524.333 375.5,526.667 372.5,529C 367.451,528.963 362.451,528.63 357.5,528C 355.067,529.632 352.567,531.132 350,532.5C 348.743,532.15 348.409,531.483 349,530.5C 351.08,528.877 353.246,527.377 355.5,526C 361.179,525.802 366.845,525.802 372.5,526C 375.666,524 378.332,521.5 380.5,518.5 Z"/></g>
<g><path style="opacity:1" fill="#48adc0" d="M 168.5,515.5 C 168.5,517.833 168.5,520.167 168.5,522.5C 169.833,522.5 171.167,522.5 172.5,522.5C 172.5,544.167 172.5,565.833 172.5,587.5C 170.833,587.5 169.167,587.5 167.5,587.5C 166.833,491.5 166.167,491.5 165.5,587.5C 165.167,587.5 164.833,587.5 164.5,587.5C 164.5,563.167 164.5,538.833 164.5,514.5C 166.099,514.232 167.432,514.566 168.5,515.5 Z"/></g>
<g><path style="opacity:1" fill="#6be4e7" d="M 167.5,587.5 C 166.833,587.5 166.167,587.5 165.5,587.5C 166.167,491.5 166.833,491.5 167.5,587.5 Z"/></g>
<g><path style="opacity:1" fill="#e1e1e1" d="M 531.5,521.5 C 532.675,521.281 533.675,521.614 534.5,522.5C 533.05,523.85 532.383,525.516 532.5,527.5C 533.978,527.238 535.311,527.571 536.5,528.5C 536.333,528.833 536.167,529.167 536,529.5C 530.737,531.049 525.904,533.549 521.5,537C 518.701,539.123 516.701,541.79 515.5,545C 514.167,545.667 512.833,545.667 511.5,545C 513.515,543.445 513.848,541.611 512.5,539.5C 511.137,540.879 510.137,540.713 509.5,539C 509.645,538.228 509.978,537.561 510.5,537C 519.937,535.054 526.937,529.887 531.5,521.5 Z"/></g>
<g><path style="opacity:1" fill="#a4ca84" d="M 445.5,524.5 C 450.64,527.823 454.14,532.49 456,538.5C 456.497,541.146 456.664,543.813 456.5,546.5C 453.833,546.5 451.167,546.5 448.5,546.5C 449.073,540.99 447.407,536.323 443.5,532.5C 444.167,529.833 444.833,527.167 445.5,524.5 Z"/></g>
<g><path style="opacity:1" fill="#2e6283" d="M 326.5,527.5 C 316.5,527.5 306.5,527.5 296.5,527.5C 296.5,528.5 296.5,529.5 296.5,530.5C 288.833,530.5 281.167,530.5 273.5,530.5C 273.5,529.167 273.5,527.833 273.5,526.5C 291.341,526.17 309.008,526.503 326.5,527.5 Z"/></g>
<g><path style="opacity:1" fill="#61c9cc" d="M 326.5,527.5 C 326.5,528.5 326.5,529.5 326.5,530.5C 316.5,530.5 306.5,530.5 296.5,530.5C 296.5,529.5 296.5,528.5 296.5,527.5C 306.5,527.5 316.5,527.5 326.5,527.5 Z"/></g>
<g><path style="opacity:1" fill="#68dcdf" d="M 150.5,528.5 C 151.5,528.5 152.5,528.5 153.5,528.5C 153.5,548.167 153.5,567.833 153.5,587.5C 152.5,587.5 151.5,587.5 150.5,587.5C 150.5,567.833 150.5,548.167 150.5,528.5 Z"/></g>
<g><path style="opacity:1" fill="#6a6969" d="M 238.5,535.5 C 237.833,536.833 237.167,538.167 236.5,539.5C 237.196,532.003 234.363,530.003 228,533.5C 227.505,535.473 227.338,537.473 227.5,539.5C 226.833,538.833 226.167,538.167 225.5,537.5C 225.115,532.906 227.115,530.239 231.5,529.5C 235.736,529.432 238.069,531.432 238.5,535.5 Z"/></g>
<g><path style="opacity:1" fill="#676667" d="M 266.5,537.5 C 265.365,539.213 263.698,539.88 261.5,539.5C 262.526,533.019 260.026,530.686 254,532.5C 252.798,534.677 252.298,537.011 252.5,539.5C 247.731,538.883 243.064,538.216 238.5,537.5C 242.5,537.5 246.5,537.5 250.5,537.5C 250.63,533.202 252.796,530.535 257,529.5C 261.946,529.944 264.113,532.61 263.5,537.5C 264.5,537.5 265.5,537.5 266.5,537.5 Z"/></g>
<g><path style="opacity:1" fill="#818181" d="M 555.5,529.5 C 566.484,530.261 577.484,530.594 588.5,530.5C 588.5,531.833 588.5,533.167 588.5,534.5C 585.421,534.26 582.421,534.593 579.5,535.5C 575.959,532.884 572.459,532.884 569,535.5C 564.822,533.601 560.322,532.935 555.5,533.5C 555.5,532.167 555.5,530.833 555.5,529.5 Z"/></g>
<g><path style="opacity:1" fill="#dad9da" d="M 261.5,539.5 C 258.745,544.753 255.745,544.753 252.5,539.5C 252.298,537.011 252.798,534.677 254,532.5C 260.026,530.686 262.526,533.019 261.5,539.5 Z"/></g>
<g><path style="opacity:1" fill="#3c3a3b" d="M 255.5,534.5 C 256.833,534.5 258.167,534.5 259.5,534.5C 259.66,536.199 259.494,537.866 259,539.5C 254.633,540.575 253.466,538.908 255.5,534.5 Z"/></g>
<g><path style="opacity:1" fill="#d3d2d2" d="M 236.5,539.5 C 236.116,542.05 234.616,543.383 232,543.5C 229.859,542.879 228.359,541.546 227.5,539.5C 227.338,537.473 227.505,535.473 228,533.5C 234.363,530.003 237.196,532.003 236.5,539.5 Z"/></g>
<g><path style="opacity:1" fill="#3c3a3b" d="M 230.5,534.5 C 231.833,534.5 233.167,534.5 234.5,534.5C 234.66,536.199 234.494,537.866 234,539.5C 229.633,540.575 228.466,538.908 230.5,534.5 Z"/></g>
<g><path style="opacity:1" fill="#225f8c" d="M 306.5,538.5 C 306.5,539.5 306.5,540.5 306.5,541.5C 295.5,541.5 284.5,541.5 273.5,541.5C 273.5,540.5 273.5,539.5 273.5,538.5C 284.5,538.5 295.5,538.5 306.5,538.5 Z"/></g>
<g><path style="opacity:1" fill="#6be3e6" d="M 139.5,538.5 C 139.5,554.833 139.5,571.167 139.5,587.5C 138.5,587.5 137.5,587.5 136.5,587.5C 136.5,571.167 136.5,554.833 136.5,538.5C 137.5,538.5 138.5,538.5 139.5,538.5 Z"/></g>
<g><path style="opacity:1" fill="#68dadd" d="M 326.5,539.5 C 326.5,540.167 326.5,540.833 326.5,541.5C 301.167,540.833 301.167,540.167 326.5,539.5 Z"/></g>
<g><path style="opacity:1" fill="#416e71" d="M 306.5,538.5 C 313.354,538.176 320.021,538.509 326.5,539.5C 301.167,540.167 301.167,540.833 326.5,541.5C 319.833,542.833 313.167,542.833 306.5,541.5C 306.5,540.5 306.5,539.5 306.5,538.5 Z"/></g>
<g><path style="opacity:1" fill="#3d5f23" d="M 416.5,538.5 C 416.5,540.833 416.5,543.167 416.5,545.5C 418.833,545.5 421.167,545.5 423.5,545.5C 421.052,546.473 418.385,546.806 415.5,546.5C 415.194,543.615 415.527,540.948 416.5,538.5 Z"/></g>
<g><path style="opacity:1" fill="#8d8e90" d="M 33.5,397.5 C 33.5,466.833 33.5,536.167 33.5,605.5C 29.03,606.486 24.3633,606.819 19.5,606.5C 18.6618,606.158 18.3284,605.492 18.5,604.5C 22.97,603.514 27.6367,603.181 32.5,603.5C 32.1675,534.665 32.5008,465.998 33.5,397.5 Z"/></g>
<g><path style="opacity:1" fill="#49959c" d="M 153.5,528.5 C 154.485,532.634 154.818,536.968 154.5,541.5C 155.833,541.5 157.167,541.5 158.5,541.5C 158.5,541.833 158.5,542.167 158.5,542.5C 157.5,542.5 156.5,542.5 155.5,542.5C 155.5,557.5 155.5,572.5 155.5,587.5C 154.833,587.5 154.167,587.5 153.5,587.5C 153.5,567.833 153.5,548.167 153.5,528.5 Z"/></g>
<g><path style="opacity:1" fill="#3c95ae" d="M 139.5,538.5 C 140.488,543.64 140.821,548.974 140.5,554.5C 141.833,554.5 143.167,554.5 144.5,554.5C 144.5,560.167 144.5,565.833 144.5,571.5C 145.833,571.5 147.167,571.5 148.5,571.5C 148.5,576.833 148.5,582.167 148.5,587.5C 145.5,587.5 142.5,587.5 139.5,587.5C 139.5,571.167 139.5,554.833 139.5,538.5 Z"/></g>
<g><path style="opacity:1" fill="#2e6f8c" d="M 168.5,515.5 C 169.461,517.265 169.795,519.265 169.5,521.5C 170.833,521.5 172.167,521.5 173.5,521.5C 173.5,534.833 173.5,548.167 173.5,561.5C 174.833,561.5 176.167,561.5 177.5,561.5C 177.5,570.5 177.5,579.5 177.5,588.5C 172.968,588.818 168.634,588.485 164.5,587.5C 164.833,587.5 165.167,587.5 165.5,587.5C 166.167,587.5 166.833,587.5 167.5,587.5C 169.167,587.5 170.833,587.5 172.5,587.5C 172.5,565.833 172.5,544.167 172.5,522.5C 171.167,522.5 169.833,522.5 168.5,522.5C 168.5,520.167 168.5,517.833 168.5,515.5 Z"/></g>
<g><path style="opacity:1" fill="#4ba6b4" d="M 129.5,561.5 C 129.5,570.167 129.5,578.833 129.5,587.5C 128.167,587.5 126.833,587.5 125.5,587.5C 125.5,579.167 125.5,570.833 125.5,562.5C 124.5,562.5 123.5,562.5 122.5,562.5C 122.5,570.833 122.5,579.167 122.5,587.5C 122.167,587.5 121.833,587.5 121.5,587.5C 121.5,578.833 121.5,570.167 121.5,561.5C 124.167,561.5 126.833,561.5 129.5,561.5 Z"/></g>
<g><path style="opacity:1" fill="#69e1e4" d="M 125.5,587.5 C 124.5,587.5 123.5,587.5 122.5,587.5C 122.5,579.167 122.5,570.833 122.5,562.5C 123.5,562.5 124.5,562.5 125.5,562.5C 125.5,570.833 125.5,579.167 125.5,587.5 Z"/></g>
<g><path style="opacity:1" fill="#3eadc9" d="M 115.5,571.5 C 115.5,576.833 115.5,582.167 115.5,587.5C 114.167,587.5 112.833,587.5 111.5,587.5C 111.5,582.167 111.5,576.833 111.5,571.5C 112.833,571.5 114.167,571.5 115.5,571.5 Z"/></g>
<g><path style="opacity:1" fill="#2c769a" d="M 115.5,571.5 C 117.167,571.5 118.833,571.5 120.5,571.5C 120.666,576.844 120.499,582.177 120,587.5C 117.063,588.817 114.23,588.817 111.5,587.5C 112.833,587.5 114.167,587.5 115.5,587.5C 115.5,582.167 115.5,576.833 115.5,571.5 Z"/></g>
<g><path style="opacity:1" fill="#305662" d="M 150.5,528.5 C 150.5,548.167 150.5,567.833 150.5,587.5C 151.5,587.5 152.5,587.5 153.5,587.5C 154.167,587.5 154.833,587.5 155.5,587.5C 156.5,587.5 157.5,587.5 158.5,587.5C 158.5,572.5 158.5,557.5 158.5,542.5C 158.5,542.167 158.5,541.833 158.5,541.5C 159.491,547.979 159.824,554.646 159.5,561.5C 160.833,561.5 162.167,561.5 163.5,561.5C 163.826,570.349 163.493,579.016 162.5,587.5C 153.833,588.833 145.167,588.833 136.5,587.5C 137.5,587.5 138.5,587.5 139.5,587.5C 142.5,587.5 145.5,587.5 148.5,587.5C 148.5,582.167 148.5,576.833 148.5,571.5C 149.167,557.167 149.833,542.833 150.5,528.5 Z"/></g>
<g><path style="opacity:1" fill="#2c85b2" d="M 162.5,587.5 C 161.5,587.5 160.5,587.5 159.5,587.5C 159.5,579.167 159.5,570.833 159.5,562.5C 160.5,562.5 161.5,562.5 162.5,562.5C 162.5,570.833 162.5,579.167 162.5,587.5 Z"/></g>
<g><path style="opacity:1" fill="#40b6d3" d="M 158.5,542.5 C 158.5,557.5 158.5,572.5 158.5,587.5C 157.5,587.5 156.5,587.5 155.5,587.5C 155.5,572.5 155.5,557.5 155.5,542.5C 156.5,542.5 157.5,542.5 158.5,542.5 Z"/></g>
<g><path style="opacity:1" fill="#306c84" d="M 129.5,561.5 C 130.485,565.634 130.818,569.968 130.5,574.5C 131.833,574.5 133.167,574.5 134.5,574.5C 134.5,579.167 134.5,583.833 134.5,588.5C 129.968,588.818 125.634,588.485 121.5,587.5C 121.833,587.5 122.167,587.5 122.5,587.5C 123.5,587.5 124.5,587.5 125.5,587.5C 126.833,587.5 128.167,587.5 129.5,587.5C 129.5,578.833 129.5,570.167 129.5,561.5 Z"/></g>
<g><path style="opacity:0.947" fill="#121212" d="M 39.5,146.5 C 38.969,149.237 38.1356,151.904 37,154.5C 36.3333,233.167 36.3333,311.833 37,390.5C 37.3742,389.584 37.8742,388.75 38.5,388C 37.3676,383.587 37.2009,379.087 38,374.5C 38.3333,376.5 38.6667,378.5 39,380.5C 40.3513,378.981 41.8513,377.648 43.5,376.5C 43.8333,377.167 44.1667,377.833 44.5,378.5C 43.8016,379.863 43.8016,381.029 44.5,382C 42.5594,382.743 40.7261,382.576 39,381.5C 38.9657,383.18 38.799,384.68 38.5,386C 39.4162,386.374 40.2496,386.874 41,387.5C 43.7344,386.638 43.9011,385.805 41.5,385C 42.9047,383.731 44.5714,383.231 46.5,383.5C 47.2237,442.396 47.8904,511.896 48.5,592C 155.834,591.513 263.167,591.679 370.5,592.5C 371.025,593.192 371.692,593.692 372.5,594C 367.684,597.139 367.684,599.639 372.5,601.5C 371.311,602.429 369.978,602.762 368.5,602.5C 368.167,598.5 367.833,598.5 367.5,602.5C 370.434,603.548 377.434,604.048 388.5,604C 368.329,604.168 348.329,604.668 328.5,605.5C 328.5,605.833 328.5,606.167 328.5,606.5C 327.005,606.989 325.671,607.655 324.5,608.5C 323.833,608.5 323.5,608.833 323.5,609.5C 323.167,609.5 322.833,609.5 322.5,609.5C 315.5,609.5 308.5,609.5 301.5,609.5C 300.71,608.599 299.71,607.932 298.5,607.5C 279.004,606.338 259.338,606.171 239.5,607C 238.309,607.698 237.309,608.531 236.5,609.5C 170.17,610.343 103.837,610.676 37.5,610.5C 36.925,608.589 35.925,606.922 34.5,605.5C 35.5235,518.902 35.5235,432.235 34.5,345.5C 34.3333,280.832 34.5,216.166 35,151.5C 36.883,150.347 37.7163,148.681 37.5,146.5C 38.3957,145.494 39.0623,145.494 39.5,146.5 Z"/></g>
<g><path style="opacity:0.392" fill="#4e4e50" d="M 33.5,605.5 C 33.8333,605.5 34.1667,605.5 34.5,605.5C 35.925,606.922 36.925,608.589 37.5,610.5C 32.4889,610.666 27.4889,610.499 22.5,610C 21.2899,608.961 20.2899,607.794 19.5,606.5C 24.3633,606.819 29.03,606.486 33.5,605.5 Z"/></g>
<g><path style="opacity:1" fill="#a7a7aa" d="M 328.5,606.5 C 328.5,606.167 328.5,605.833 328.5,605.5C 348.674,605.17 368.674,605.503 388.5,606.5C 389.736,614.369 389.069,622.036 386.5,629.5C 385.539,627.735 385.205,625.735 385.5,623.5C 386.492,620.221 386.659,616.888 386,613.5C 383.072,617.381 379.239,619.881 374.5,621C 361.388,621.304 348.721,619.804 336.5,616.5C 333.343,617.079 331.009,615.746 329.5,612.5C 338.901,608.412 338.568,606.412 328.5,606.5 Z"/></g>
<g><path style="opacity:1" fill="#bebec1" d="M 328.5,606.5 C 338.568,606.412 338.901,608.412 329.5,612.5C 331.009,615.746 333.343,617.079 336.5,616.5C 348.721,619.804 361.388,621.304 374.5,621C 379.239,619.881 383.072,617.381 386,613.5C 386.659,616.888 386.492,620.221 385.5,623.5C 381.253,626.064 376.587,627.397 371.5,627.5C 351.09,625.406 330.756,623.239 310.5,621C 307.827,619.999 305.493,618.499 303.5,616.5C 302.914,616.709 302.414,617.043 302,617.5C 297.681,615.696 293.514,615.696 289.5,617.5C 284.555,617.504 280.055,617.17 276,616.5C 264.528,617.748 253.361,619.081 242.5,620.5C 243.2,616.202 243.533,611.869 243.5,607.5C 261.833,607.5 280.167,607.5 298.5,607.5C 299.71,607.932 300.71,608.599 301.5,609.5C 301.5,609.833 301.5,610.167 301.5,610.5C 304.105,612.322 306.105,613.989 307.5,615.5C 309.948,614.527 312.615,614.194 315.5,614.5C 318.09,613.251 320.424,611.584 322.5,609.5C 322.833,609.5 323.167,609.5 323.5,609.5C 324.167,609.5 324.5,609.167 324.5,608.5C 325.671,607.655 327.005,606.989 328.5,606.5 Z M 301.5,610.5 C 301.5,610.167 301.5,609.833 301.5,609.5C 308.5,609.5 315.5,609.5 322.5,609.5C 320.424,611.584 318.09,613.251 315.5,614.5C 312.615,614.194 309.948,614.527 307.5,615.5C 306.105,613.989 304.105,612.322 301.5,610.5 Z"/></g>
<g><path style="opacity:1" fill="#d8d9db" d="M 385.5,623.5 C 385.205,625.735 385.539,627.735 386.5,629.5C 386.651,636.798 385.817,644.464 384,652.5C 383.667,650.833 383.333,649.167 383,647.5C 383.403,655.997 382.903,664.497 381.5,673C 381.252,674.716 380.585,676.216 379.5,677.5C 380.577,680.474 380.577,683.474 379.5,686.5C 378.504,686.586 377.671,686.252 377,685.5C 376.461,688.529 375.794,691.529 375,694.5C 374.519,692.522 373.353,691.189 371.5,690.5C 366.843,691.188 362.343,691.188 358,690.5C 357.147,692.125 356.147,692.458 355,691.5C 354.383,692.449 354.549,693.282 355.5,694C 354.551,694.617 353.718,694.451 353,693.5C 352.383,694.449 352.549,695.282 353.5,696C 351.773,697.389 350.439,699.056 349.5,701C 349.607,703.44 349.607,705.94 349.5,708.5C 350.537,711.703 352.203,714.537 354.5,717C 354.043,717.414 353.709,717.914 353.5,718.5C 355.276,719.315 355.943,720.482 355.5,722C 356.672,722.419 357.672,723.085 358.5,724C 363.882,724.265 369.215,724.765 374.5,725.5C 374.5,726.5 374.5,727.5 374.5,728.5C 374.167,728.5 373.833,728.5 373.5,728.5C 357.831,728.753 342.165,729.087 326.5,729.5C 334.984,728.344 343.651,727.511 352.5,727C 323.164,726.795 293.831,726.795 264.5,727C 265.833,726 265.833,725 264.5,724C 265.357,723.311 266.023,722.478 266.5,721.5C 267.002,720.479 267.668,720.312 268.5,721C 267.167,722.84 267.334,723.34 269,722.5C 270.368,721.007 270.535,719.507 269.5,718C 272.167,717.333 272.167,716.667 269.5,716C 271.205,712.75 272.705,712.916 274,716.5C 274.333,714.833 274.667,713.167 275,711.5C 275.667,712.833 276.333,712.833 277,711.5C 277.333,712.167 277.667,712.833 278,713.5C 278.36,711.579 279.194,709.912 280.5,708.5C 281.251,709.376 281.751,710.376 282,711.5C 282.333,709.833 282.667,708.167 283,706.5C 285.558,708.943 286.392,708.443 285.5,705C 287.878,704.026 287.544,703.359 284.5,703C 286.061,702.059 287.395,700.892 288.5,699.5C 287.738,699.089 286.738,698.923 285.5,699C 287.091,696.867 289.091,695.201 291.5,694C 288.851,691.563 289.517,690.23 293.5,690C 293,689.5 292.5,689 292,688.5C 290.467,688.944 288.967,689.277 287.5,689.5C 286.528,687.364 284.861,686.197 282.5,686C 285.567,684.48 288.567,682.813 291.5,681C 290.333,680.5 289.5,679.667 289,678.5C 288.667,679.5 288.333,680.5 288,681.5C 286.667,680.167 285.333,678.833 284,677.5C 281.904,678.715 282.071,679.549 284.5,680C 283.552,680.483 282.552,680.649 281.5,680.5C 281.33,679.178 281.663,678.011 282.5,677C 281.338,676.173 280.171,675.34 279,674.5C 278.5,674.833 278,675.167 277.5,675.5C 278.59,676.609 278.59,677.609 277.5,678.5C 276.808,677.975 276.308,677.308 276,676.5C 275.667,676.833 275.333,677.167 275,677.5C 273.69,675.868 273.19,674.201 273.5,672.5C 272.201,673.09 271.368,674.09 271,675.5C 269.491,674.91 267.991,674.244 266.5,673.5C 267.234,670.432 266.234,669.932 263.5,672C 264.956,672.423 265.456,673.256 265,674.5C 263.732,674.384 262.398,674.051 261,673.5C 260.333,674.167 259.667,674.833 259,675.5C 257.667,672.833 256.333,672.833 255,675.5C 253.933,674.809 252.766,674.309 251.5,674C 250.485,671.735 249.318,669.901 248,668.5C 247.751,669.624 247.251,670.624 246.5,671.5C 244.826,668.746 243.159,668.413 241.5,670.5C 239.216,669.584 238.049,670.584 238,673.5C 237.667,672.5 237.333,671.5 237,670.5C 236.809,672.708 236.309,674.708 235.5,676.5C 237.313,657.767 239.647,639.101 242.5,620.5C 253.361,619.081 264.528,617.748 276,616.5C 280.055,617.17 284.555,617.504 289.5,617.5C 293.514,615.696 297.681,615.696 302,617.5C 302.414,617.043 302.914,616.709 303.5,616.5C 305.493,618.499 307.827,619.999 310.5,621C 330.756,623.239 351.09,625.406 371.5,627.5C 376.587,627.397 381.253,626.064 385.5,623.5 Z"/></g>
<g><path style="opacity:1" fill="#dfdfe1" d="M 326.5,729.5 C 293.816,729.991 261.149,730.991 228.5,732.5C 229.989,713.596 232.323,694.93 235.5,676.5C 236.309,674.708 236.809,672.708 237,670.5C 237.333,671.5 237.667,672.5 238,673.5C 238.049,670.584 239.216,669.584 241.5,670.5C 243.159,668.413 244.826,668.746 246.5,671.5C 247.251,670.624 247.751,669.624 248,668.5C 249.318,669.901 250.485,671.735 251.5,674C 252.766,674.309 253.933,674.809 255,675.5C 256.333,672.833 257.667,672.833 259,675.5C 259.667,674.833 260.333,674.167 261,673.5C 262.398,674.051 263.732,674.384 265,674.5C 265.456,673.256 264.956,672.423 263.5,672C 266.234,669.932 267.234,670.432 266.5,673.5C 267.991,674.244 269.491,674.91 271,675.5C 271.368,674.09 272.201,673.09 273.5,672.5C 273.19,674.201 273.69,675.868 275,677.5C 275.333,677.167 275.667,676.833 276,676.5C 276.308,677.308 276.808,677.975 277.5,678.5C 278.59,677.609 278.59,676.609 277.5,675.5C 278,675.167 278.5,674.833 279,674.5C 280.171,675.34 281.338,676.173 282.5,677C 281.663,678.011 281.33,679.178 281.5,680.5C 282.552,680.649 283.552,680.483 284.5,680C 282.071,679.549 281.904,678.715 284,677.5C 285.333,678.833 286.667,680.167 288,681.5C 288.333,680.5 288.667,679.5 289,678.5C 289.5,679.667 290.333,680.5 291.5,681C 288.567,682.813 285.567,684.48 282.5,686C 284.861,686.197 286.528,687.364 287.5,689.5C 288.967,689.277 290.467,688.944 292,688.5C 292.5,689 293,689.5 293.5,690C 289.517,690.23 288.851,691.563 291.5,694C 289.091,695.201 287.091,696.867 285.5,699C 286.738,698.923 287.738,699.089 288.5,699.5C 287.395,700.892 286.061,702.059 284.5,703C 287.544,703.359 287.878,704.026 285.5,705C 286.392,708.443 285.558,708.943 283,706.5C 282.667,708.167 282.333,709.833 282,711.5C 281.751,710.376 281.251,709.376 280.5,708.5C 279.194,709.912 278.36,711.579 278,713.5C 277.667,712.833 277.333,712.167 277,711.5C 276.333,712.833 275.667,712.833 275,711.5C 274.667,713.167 274.333,714.833 274,716.5C 272.705,712.916 271.205,712.75 269.5,716C 272.167,716.667 272.167,717.333 269.5,718C 270.535,719.507 270.368,721.007 269,722.5C 267.334,723.34 267.167,722.84 268.5,721C 267.668,720.312 267.002,720.479 266.5,721.5C 266.023,722.478 265.357,723.311 264.5,724C 265.833,725 265.833,726 264.5,727C 293.831,726.795 323.164,726.795 352.5,727C 343.651,727.511 334.984,728.344 326.5,729.5 Z"/></g>
<g><path style="opacity:0.91" fill="#7c7c7f" d="M 298.5,607.5 C 280.167,607.5 261.833,607.5 243.5,607.5C 243.533,611.869 243.2,616.202 242.5,620.5C 239.647,639.101 237.313,657.767 235.5,676.5C 232.323,694.93 229.989,713.596 228.5,732.5C 228.427,734.027 229.094,735.027 230.5,735.5C 232.877,736.887 235.543,737.721 238.5,738C 237.5,738.333 236.5,738.667 235.5,739C 244.861,741.565 254.694,743.065 265,743.5C 267.554,743.886 269.72,744.886 271.5,746.5C 251.214,744.473 230.88,743.14 210.5,742.5C 209.385,738.725 209.385,735.225 210.5,732C 213.578,732.066 216.578,731.899 219.5,731.5C 220.97,728.692 221.803,725.692 222,722.5C 223.043,726.226 223.543,725.893 223.5,721.5C 224.501,718.506 224.501,715.339 223.5,712C 224.31,706.783 225.31,701.617 226.5,696.5C 224.976,694.208 225.309,692.208 227.5,690.5C 226.954,689.228 226.621,687.894 226.5,686.5C 227.333,681.5 228.167,676.5 229,671.5C 229.333,673.167 229.667,674.833 230,676.5C 229.747,667.686 230.247,658.852 231.5,650C 231.61,647.745 232.61,646.078 234.5,645C 231.921,643.271 231.921,641.438 234.5,639.5C 234.227,630.61 235.227,621.777 237.5,613C 237.011,611.862 236.678,610.695 236.5,609.5C 237.309,608.531 238.309,607.698 239.5,607C 259.338,606.171 279.004,606.338 298.5,607.5 Z"/></g>
<g><path style="opacity:0.997" fill="#cbcbce" d="M 379.5,686.5 C 376.826,699.51 375.16,712.51 374.5,725.5C 369.215,724.765 363.882,724.265 358.5,724C 357.672,723.085 356.672,722.419 355.5,722C 355.943,720.482 355.276,719.315 353.5,718.5C 353.709,717.914 354.043,717.414 354.5,717C 352.203,714.537 350.537,711.703 349.5,708.5C 349.607,705.94 349.607,703.44 349.5,701C 350.439,699.056 351.773,697.389 353.5,696C 352.549,695.282 352.383,694.449 353,693.5C 353.718,694.451 354.551,694.617 355.5,694C 354.549,693.282 354.383,692.449 355,691.5C 356.147,692.458 357.147,692.125 358,690.5C 362.343,691.188 366.843,691.188 371.5,690.5C 373.353,691.189 374.519,692.522 375,694.5C 375.794,691.529 376.461,688.529 377,685.5C 377.671,686.252 378.504,686.586 379.5,686.5 Z"/></g>
<g><path style="opacity:0.008" fill="#5d5d5d" d="M 223.5,721.5 C 222.387,720.054 222.22,718.387 223,716.5C 223.494,718.134 223.66,719.801 223.5,721.5 Z"/></g>
<g><path style="opacity:1" fill="#c9c9cc" d="M 373.5,728.5 C 372.602,729.158 371.602,729.824 370.5,730.5C 375.434,732.758 380.434,734.925 385.5,737C 393.095,738.356 400.762,738.856 408.5,738.5C 380.682,740.217 352.682,741.384 324.5,742C 326.25,743.754 326.917,745.921 326.5,748.5C 338.88,748.87 351.214,748.37 363.5,747C 362.346,746.086 362.513,745.253 364,744.5C 380.072,746.049 396.238,746.716 412.5,746.5C 379.359,748.609 346.026,749.609 312.5,749.5C 312.5,746.833 312.5,744.167 312.5,741.5C 285.076,740.603 257.743,738.603 230.5,735.5C 229.094,735.027 228.427,734.027 228.5,732.5C 261.149,730.991 293.816,729.991 326.5,729.5C 342.165,729.087 357.831,728.753 373.5,728.5 Z"/></g>
<g><path style="opacity:0.99" fill="#9a9b9d" d="M 373.5,728.5 C 373.833,728.5 374.167,728.5 374.5,728.5C 382.952,729.591 391.286,730.091 399.5,730C 401.615,730.557 403.615,731.391 405.5,732.5C 408.954,729.896 412.454,729.896 416,732.5C 427.328,731.664 438.662,731.997 450,733.5C 452.625,733.581 454.959,734.248 457,735.5C 459.044,734.228 460.878,734.561 462.5,736.5C 463.741,739.537 463.741,742.537 462.5,745.5C 456.5,745.5 450.5,745.5 444.5,745.5C 449.64,744.512 454.974,744.179 460.5,744.5C 460.5,742.167 460.5,739.833 460.5,737.5C 443.168,737.883 425.835,738.216 408.5,738.5C 400.762,738.856 393.095,738.356 385.5,737C 380.434,734.925 375.434,732.758 370.5,730.5C 371.602,729.824 372.602,729.158 373.5,728.5 Z"/></g>
<g><path style="opacity:1" fill="#9a9a9d" d="M 230.5,735.5 C 257.743,738.603 285.076,740.603 312.5,741.5C 312.5,744.167 312.5,746.833 312.5,749.5C 298.795,748.959 285.128,747.959 271.5,746.5C 269.72,744.886 267.554,743.886 265,743.5C 254.694,743.065 244.861,741.565 235.5,739C 236.5,738.667 237.5,738.333 238.5,738C 235.543,737.721 232.877,736.887 230.5,735.5 Z"/></g>
<g><path style="opacity:1" fill="#dcdcdd" d="M 444.5,745.5 C 433.841,746.043 423.175,746.377 412.5,746.5C 396.238,746.716 380.072,746.049 364,744.5C 362.513,745.253 362.346,746.086 363.5,747C 351.214,748.37 338.88,748.87 326.5,748.5C 326.917,745.921 326.25,743.754 324.5,742C 352.682,741.384 380.682,740.217 408.5,738.5C 425.835,738.216 443.168,737.883 460.5,737.5C 460.5,739.833 460.5,742.167 460.5,744.5C 454.974,744.179 449.64,744.512 444.5,745.5 Z"/></g>
<g><path style="opacity:0.004" fill="#000000" d="M 234.5,748.5 C 237.304,747.362 240.304,747.195 243.5,748C 240.518,748.498 237.518,748.665 234.5,748.5 Z"/></g>
<g><path style="opacity:0.276" fill="#1c1c1c" d="M 210.5,742.5 C 230.88,743.14 251.214,744.473 271.5,746.5C 285.128,747.959 298.795,748.959 312.5,749.5C 346.026,749.609 379.359,748.609 412.5,746.5C 423.175,746.377 433.841,746.043 444.5,745.5C 450.5,745.5 456.5,745.5 462.5,745.5C 461.319,747.067 459.653,747.901 457.5,748C 458.167,748.333 458.833,748.667 459.5,749C 431.452,751.01 403.452,751.51 375.5,750.5C 347.94,754.509 320.273,755.009 292.5,752C 292,751.5 291.5,751 291,750.5C 285.829,751.195 280.662,751.528 275.5,751.5C 269.385,751.28 263.552,750.28 258,748.5C 256.262,749.127 254.429,749.46 252.5,749.5C 249.375,747.702 244.708,746.702 238.5,746.5C 229.483,747.757 220.483,747.59 211.5,746C 209.689,744.959 209.355,743.793 210.5,742.5 Z"/></g>
</svg>
