<?xml version="1.0" encoding="UTF-8"?>
<!DOCTYPE svg PUBLIC "-//W3C//DTD SVG 1.1//EN" "http://www.w3.org/Graphics/SVG/1.1/DTD/svg11.dtd">
<svg xmlns="http://www.w3.org/2000/svg" version="1.1" width="1026px" height="899px" style="shape-rendering:geometricPrecision; text-rendering:geometricPrecision; image-rendering:optimizeQuality; fill-rule:evenodd; clip-rule:evenodd" xmlns:xlink="http://www.w3.org/1999/xlink">
<g><path style="opacity:0.891" fill="#030303" d="M 43.5,219.5 C 48.7748,219.703 54.1081,219.703 59.5,219.5C 59.8333,221.075 61.8333,221.908 65.5,222C 70.3538,222.62 75.1872,222.453 80,221.5C 82.2605,221.439 84.2605,222.106 86,223.5C 93.6592,223.317 101.326,223.317 109,223.5C 112.798,225.283 116.798,226.283 121,226.5C 125.157,225.708 129.323,225.542 133.5,226C 131.167,226.333 128.833,226.667 126.5,227C 139.716,226.43 152.883,227.263 166,229.5C 169.161,228.103 172.161,228.437 175,230.5C 177.453,229.507 179.953,229.34 182.5,230C 181.167,230.333 179.833,230.667 178.5,231C 185.482,232.536 192.482,232.703 199.5,231.5C 201.945,231.403 204.111,232.07 206,233.5C 215.351,233.033 224.685,233.7 234,235.5C 235.984,235.074 237.984,234.74 240,234.5C 241.444,235.419 243.277,236.086 245.5,236.5C 250.172,237.65 255.005,237.65 260,236.5C 264.489,237.099 268.989,237.599 273.5,238C 274.416,238.374 275.25,238.874 276,239.5C 280.468,239.015 284.968,238.682 289.5,238.5C 291.325,239.651 293.325,240.318 295.5,240.5C 298.962,241.482 302.629,241.815 306.5,241.5C 310.503,242.61 314.67,242.61 319,241.5C 321.379,241.482 323.546,242.149 325.5,243.5C 332.615,242.549 339.615,243.216 346.5,245.5C 350.779,245.69 355.112,245.357 359.5,244.5C 362.602,244.497 362.935,244.997 360.5,246C 362.134,246.494 363.801,246.66 365.5,246.5C 370.172,247.65 375.005,247.65 380,246.5C 388.894,247.683 397.561,249.016 406,250.5C 406.674,249.422 407.674,248.755 409,248.5C 414.496,251.171 420.33,252.171 426.5,251.5C 435.342,251.216 444.342,251.716 453.5,253C 457.838,253.109 462.004,253.943 466,255.5C 467.333,254.833 468.667,254.167 470,253.5C 471.333,254.167 472.667,254.833 474,255.5C 476.453,254.507 478.953,254.34 481.5,255C 480.5,255.333 479.5,255.667 478.5,256C 485.467,257.709 492.467,257.876 499.5,256.5C 507.691,257.391 515.858,258.391 524,259.5C 525.301,259.04 526.634,258.706 528,258.5C 531.577,260.687 535.41,261.52 539.5,261C 535.576,260.201 535.576,259.701 539.5,259.5C 542.602,259.497 542.935,259.997 540.5,261C 542.134,261.494 543.801,261.66 545.5,261.5C 547.292,262.309 549.292,262.809 551.5,263C 552.701,263.903 553.535,265.069 554,266.5C 554.568,315.903 554.401,365.237 553.5,414.5C 555.325,478.49 555.825,542.49 555,606.5C 553.968,608.027 552.801,609.36 551.5,610.5C 541.641,609.23 531.641,609.23 521.5,610.5C 527.802,607.555 530.136,602.555 528.5,595.5C 532.167,595.5 535.833,595.5 539.5,595.5C 540.571,489.001 541.238,382.334 541.5,275.5C 526.116,275.208 510.782,274.208 495.5,272.5C 458.473,269.809 421.473,266.809 384.5,263.5C 347.521,260.479 310.521,257.813 273.5,255.5C 229.376,251.132 185.042,247.466 140.5,244.5C 111.496,242.211 82.4955,239.877 53.5,237.5C 52.5005,357.332 52.1671,477.332 52.5,597.5C 53.5,597.5 54.5,597.5 55.5,597.5C 60.5,597.5 65.5,597.5 70.5,597.5C 71.3382,597.842 71.6716,598.508 71.5,599.5C 64.5778,599.812 57.7445,599.479 51,598.5C 51.2587,512.185 51.4254,426.685 51.5,342C 50.8591,337.548 50.1924,333.048 49.5,328.5C 48.8076,327.975 48.3076,327.308 48,326.5C 46.3005,327.406 44.4672,327.739 42.5,327.5C 41.5384,293.839 41.3718,259.506 42,224.5C 42.7914,223.255 43.2914,221.922 43.5,220.5C 43.5,220.167 43.5,219.833 43.5,219.5 Z"/></g>
<g><path style="opacity:0.006" fill="#fefffe" d="M 31.5,221.5 C 31.8966,220.475 32.5632,220.308 33.5,221C 32.9056,221.464 32.2389,221.631 31.5,221.5 Z"/></g>
<g><path style="opacity:0.006" fill="#000000" d="M 67.5,221.5 C 69.6282,220.371 71.9615,220.204 74.5,221C 72.1902,221.497 69.8568,221.663 67.5,221.5 Z"/></g>
<g><path style="opacity:0.004" fill="#000000" d="M 117.5,225.5 C 119.288,224.378 121.288,224.211 123.5,225C 121.527,225.495 119.527,225.662 117.5,225.5 Z"/></g>
<g><path style="opacity:0.006" fill="#000000" d="M 187.5,231.5 C 189.628,230.371 191.961,230.204 194.5,231C 192.19,231.497 189.857,231.663 187.5,231.5 Z"/></g>
<g><path style="opacity:0.967" fill="#c8c8cb" d="M 43.5,219.5 C 43.5,219.833 43.5,220.167 43.5,220.5C 42.2058,221.29 41.0391,222.29 40,223.5C 39.5,272.166 39.3333,320.832 39.5,369.5C 38.5008,436.331 38.1675,503.331 38.5,570.5C 37.6671,511.001 37.1671,451.335 37,391.5C 37.0868,396.963 36.2535,402.13 34.5,407C 36.2826,408.067 36.7826,409.567 36,411.5C 33.9521,408.849 32.4521,405.849 31.5,402.5C 30.6701,396.862 30.1701,391.196 30,385.5C 29.2917,386.381 28.4584,387.047 27.5,387.5C 27.8289,333.458 27.4956,279.458 26.5,225.5C 28.1848,224.047 29.8514,222.714 31.5,221.5C 31.7352,222.097 32.2352,222.43 33,222.5C 35.4806,222.047 36.8139,221.047 37,219.5C 39.0094,219.995 41.1761,219.995 43.5,219.5 Z"/></g>
<g><path style="opacity:0.006" fill="#000000" d="M 245.5,236.5 C 247.628,235.371 249.961,235.204 252.5,236C 250.19,236.497 247.857,236.663 245.5,236.5 Z"/></g>
<g><path style="opacity:0.004" fill="#000000" d="M 295.5,240.5 C 297.628,239.371 299.961,239.204 302.5,240C 300.19,240.497 297.857,240.663 295.5,240.5 Z"/></g>
<g><path style="opacity:0.008" fill="#000000" d="M 306.5,241.5 C 308.966,240.366 311.633,240.199 314.5,241C 311.854,241.497 309.187,241.664 306.5,241.5 Z"/></g>
<g><path style="opacity:1" fill="#616161" d="M 53.5,237.5 C 82.4955,239.877 111.496,242.211 140.5,244.5C 144.772,245.254 149.106,246.254 153.5,247.5C 154.772,247.43 155.938,247.097 157,246.5C 157.667,247.5 157.667,248.5 157,249.5C 151.22,254.008 144.72,258.008 137.5,261.5C 136.459,263.585 134.959,265.252 133,266.5C 132.667,265.833 132.333,265.167 132,264.5C 130.933,265.943 129.766,267.276 128.5,268.5C 137.962,269.947 147.296,271.28 156.5,272.5C 129.142,271.02 101.808,269.52 74.5,268C 64.6714,272.495 58.5047,279.995 56,290.5C 55.5,392.499 55.3333,494.499 55.5,596.5C 54.1072,477.003 53.4406,357.336 53.5,237.5 Z"/></g>
<g><path style="opacity:0.006" fill="#000000" d="M 365.5,246.5 C 367.628,245.371 369.961,245.204 372.5,246C 370.19,246.497 367.857,246.663 365.5,246.5 Z"/></g>
<g><path style="opacity:0.004" fill="#000000" d="M 415.5,250.5 C 417.628,249.371 419.961,249.204 422.5,250C 420.19,250.497 417.857,250.663 415.5,250.5 Z"/></g>
<g><path style="opacity:1" fill="#565656" d="M 140.5,244.5 C 185.042,247.466 229.376,251.132 273.5,255.5C 273.611,256.117 273.944,256.617 274.5,257C 272.68,257.979 271.513,259.479 271,261.5C 270.692,260.692 270.192,260.025 269.5,259.5C 266.993,262.101 264.326,264.434 261.5,266.5C 258.285,267.038 255.952,268.705 254.5,271.5C 252.831,272.89 251.164,273.223 249.5,272.5C 248.738,273.628 248.071,274.795 247.5,276C 249.5,276.333 251.5,276.667 253.5,277C 252.263,277.232 251.263,277.732 250.5,278.5C 242.16,278.666 233.827,278.5 225.5,278C 202.479,276.245 179.479,274.412 156.5,272.5C 147.296,271.28 137.962,269.947 128.5,268.5C 129.766,267.276 130.933,265.943 132,264.5C 132.333,265.167 132.667,265.833 133,266.5C 134.959,265.252 136.459,263.585 137.5,261.5C 144.72,258.008 151.22,254.008 157,249.5C 157.667,248.5 157.667,247.5 157,246.5C 155.938,247.097 154.772,247.43 153.5,247.5C 149.106,246.254 144.772,245.254 140.5,244.5 Z"/></g>
<g><path style="opacity:0.008" fill="#000000" d="M 426.5,251.5 C 428.628,250.371 430.961,250.204 433.5,251C 431.19,251.497 428.857,251.663 426.5,251.5 Z"/></g>
<g><path style="opacity:0.006" fill="#000000" d="M 486.5,256.5 C 488.628,255.371 490.961,255.204 493.5,256C 491.19,256.497 488.857,256.663 486.5,256.5 Z"/></g>
<g><path style="opacity:1" fill="#4a4a4a" d="M 273.5,255.5 C 310.521,257.813 347.521,260.479 384.5,263.5C 394.554,264.719 394.887,267.219 385.5,271C 386.5,271.333 387.5,271.667 388.5,272C 385.385,272.03 382.885,273.197 381,275.5C 380.667,275.167 380.333,274.833 380,274.5C 374.234,281.633 366.734,285.467 357.5,286C 364.38,286.29 371.046,287.123 377.5,288.5C 348.2,286.225 318.867,284.392 289.5,283C 276.39,282.227 263.39,280.727 250.5,278.5C 251.263,277.732 252.263,277.232 253.5,277C 251.5,276.667 249.5,276.333 247.5,276C 248.071,274.795 248.738,273.628 249.5,272.5C 251.164,273.223 252.831,272.89 254.5,271.5C 255.952,268.705 258.285,267.038 261.5,266.5C 264.326,264.434 266.993,262.101 269.5,259.5C 270.192,260.025 270.692,260.692 271,261.5C 271.513,259.479 272.68,257.979 274.5,257C 273.944,256.617 273.611,256.117 273.5,255.5 Z"/></g>
<g><path style="opacity:0.009" fill="#000000" d="M 545.5,261.5 C 546.601,260.402 547.934,260.235 549.5,261C 548.207,261.49 546.873,261.657 545.5,261.5 Z"/></g>
<g><path style="opacity:1" fill="#afafaf" d="M 156.5,272.5 C 179.479,274.412 202.479,276.245 225.5,278C 233.827,278.5 242.16,278.666 250.5,278.5C 263.39,280.727 276.39,282.227 289.5,283C 318.867,284.392 348.2,286.225 377.5,288.5C 412.731,291.937 448.064,294.604 483.5,296.5C 496.536,297.16 509.536,298.327 522.5,300C 531.325,304.506 536.825,311.672 539,321.5C 539.5,412.833 539.667,504.166 539.5,595.5C 535.833,595.5 532.167,595.5 528.5,595.5C 528.5,594.833 528.5,594.167 528.5,593.5C 528.993,522.084 528.493,450.751 527,379.5C 525.59,378.213 524.09,377.046 522.5,376C 485.507,374.001 448.507,372.167 411.5,370.5C 374.663,368.368 337.663,366.368 300.5,364.5C 264.662,362.182 228.662,360.349 192.5,359C 190.622,360.543 189.122,362.376 188,364.5C 187.5,400.832 187.333,437.165 187.5,473.5C 187.5,514.5 187.5,555.5 187.5,596.5C 183.5,596.5 179.5,596.5 175.5,596.5C 175.667,566.831 175.5,537.165 175,507.5C 173.437,504.272 170.937,502.105 167.5,501C 136.836,500.056 106.169,499.722 75.5,500C 73.6217,501.543 72.1217,503.376 71,505.5C 70.5,532.165 70.3334,558.831 70.5,585.5C 70.5,589.5 70.5,593.5 70.5,597.5C 65.5,597.5 60.5,597.5 55.5,597.5C 55.5,597.167 55.5,596.833 55.5,596.5C 55.3333,494.499 55.5,392.499 56,290.5C 58.5047,279.995 64.6714,272.495 74.5,268C 101.808,269.52 129.142,271.02 156.5,272.5 Z"/></g>
<g><path style="opacity:1" fill="#3e3e3e" d="M 384.5,263.5 C 421.473,266.809 458.473,269.809 495.5,272.5C 495.66,274.199 495.494,275.866 495,277.5C 494.667,277.167 494.333,276.833 494,276.5C 487.977,280.105 482.144,284.105 476.5,288.5C 475.17,290.347 475.503,291.847 477.5,293C 475.167,293.333 472.833,293.667 470.5,294C 475.047,294.429 479.381,295.262 483.5,296.5C 448.064,294.604 412.731,291.937 377.5,288.5C 371.046,287.123 364.38,286.29 357.5,286C 366.734,285.467 374.234,281.633 380,274.5C 380.333,274.833 380.667,275.167 381,275.5C 382.885,273.197 385.385,272.03 388.5,272C 387.5,271.667 386.5,271.333 385.5,271C 394.887,267.219 394.554,264.719 384.5,263.5 Z"/></g>
<g><path style="opacity:1" fill="#323232" d="M 495.5,272.5 C 510.782,274.208 526.116,275.208 541.5,275.5C 541.238,382.334 540.571,489.001 539.5,595.5C 539.667,504.166 539.5,412.833 539,321.5C 536.825,311.672 531.325,304.506 522.5,300C 509.536,298.327 496.536,297.16 483.5,296.5C 479.381,295.262 475.047,294.429 470.5,294C 472.833,293.667 475.167,293.333 477.5,293C 475.503,291.847 475.17,290.347 476.5,288.5C 482.144,284.105 487.977,280.105 494,276.5C 494.333,276.833 494.667,277.167 495,277.5C 495.494,275.866 495.66,274.199 495.5,272.5 Z"/></g>
<g><path style="opacity:1" fill="#292728" d="M 83.5,279.5 C 227.838,289.569 372.172,299.736 516.5,310C 519.04,312.205 521.207,314.705 523,317.5C 523.667,329.833 523.667,342.167 523,354.5C 521.562,360.94 517.562,363.94 511,363.5C 369.505,355.546 228.005,347.712 86.5,340C 81.6667,337.833 78.1667,334.333 76,329.5C 75.3333,315.833 75.3333,302.167 76,288.5C 77.6416,284.7 80.1416,281.7 83.5,279.5 Z"/></g>
<g><path style="opacity:1" fill="#b6b6b6" d="M 90.5,298.5 C 100.881,299.014 111.215,300.014 121.5,301.5C 114.516,302.277 107.516,302.11 100.5,301C 96.6887,301.083 93.3554,300.25 90.5,298.5 Z"/></g>
<g><path style="opacity:1" fill="#adadad" d="M 91.5,309.5 C 101.229,309.308 110.895,309.974 120.5,311.5C 113.352,312.479 106.185,312.479 99,311.5C 96.0706,311.475 93.5706,310.809 91.5,309.5 Z"/></g>
<g><path style="opacity:1" fill="#b0b0b0" d="M 512.5,349.5 C 512.593,344.575 510.259,341.242 505.5,339.5C 502.532,342.014 499.532,342.014 496.5,339.5C 491.784,340.58 489.784,343.58 490.5,348.5C 489.065,346.402 487.898,344.069 487,341.5C 484.612,332.25 486.779,324.416 493.5,318C 503.44,314.718 510.607,317.884 515,327.5C 517.518,335.335 516.685,342.668 512.5,349.5 Z"/></g>
<g><path style="opacity:1" fill="#d1d1d1" d="M 91.5,319.5 C 101.183,320.09 110.849,320.923 120.5,322C 114.167,322.667 107.833,322.667 101.5,322C 97.6887,322.083 94.3554,321.25 91.5,319.5 Z"/></g>
<g><path style="opacity:1" fill="#eeeeee" d="M 498.5,322.5 C 506.121,322.946 508.621,326.946 506,334.5C 503.075,339.721 500.075,339.721 497,334.5C 495.994,330.198 496.494,326.198 498.5,322.5 Z"/></g>
<g><path style="opacity:1" fill="#ebebeb" d="M 512.5,349.5 C 508.098,355.446 502.432,356.946 495.5,354C 493.627,352.296 491.96,350.463 490.5,348.5C 489.784,343.58 491.784,340.58 496.5,339.5C 499.532,342.014 502.532,342.014 505.5,339.5C 510.259,341.242 512.593,344.575 512.5,349.5 Z"/></g>
<g><path style="opacity:1" fill="#656565" d="M 101.5,356.5 C 97.0878,358.773 91.7544,360.107 85.5,360.5C 80.3112,363.017 76.9778,367.017 75.5,372.5C 74.6762,376.312 74.1762,380.312 74,384.5C 73.3333,385.833 72.6667,387.167 72,388.5C 71.8285,395.679 71.3285,402.679 70.5,409.5C 70.3334,393.163 70.5001,376.83 71,360.5C 72.6374,358.19 74.804,356.69 77.5,356C 85.6775,355.177 93.6775,355.344 101.5,356.5 Z"/></g>
<g><path style="opacity:1" fill="#4e4e4e" d="M 101.5,356.5 C 120.675,357.114 139.675,358.114 158.5,359.5C 148.307,361.217 137.807,362.217 127,362.5C 113.154,362.027 99.3208,361.36 85.5,360.5C 91.7544,360.107 97.0878,358.773 101.5,356.5 Z"/></g>
<g><path style="opacity:1" fill="#676767" d="M 300.5,364.5 C 292.287,363.85 284.287,364.684 276.5,367C 262.834,367.199 249.168,367.032 235.5,366.5C 223.504,365.81 211.504,365.643 199.5,366C 195.121,368.211 192.454,371.711 191.5,376.5C 190.67,385.658 190.17,394.991 190,404.5C 189.667,399.833 189.333,395.167 189,390.5C 188.832,418.336 188.332,446.003 187.5,473.5C 187.333,437.165 187.5,400.832 188,364.5C 189.122,362.376 190.622,360.543 192.5,359C 228.662,360.349 264.662,362.182 300.5,364.5 Z"/></g>
<g><path style="opacity:1" fill="#292728" d="M 158.5,359.5 C 165.852,357.759 171.352,360.092 175,366.5C 175.667,406.833 175.667,447.167 175,487.5C 173.519,492.146 170.352,494.813 165.5,495.5C 138.183,494.712 110.85,494.046 83.5,493.5C 80.4474,490.61 77.9474,487.276 76,483.5C 75.5,446.502 75.3333,409.502 75.5,372.5C 76.9778,367.017 80.3112,363.017 85.5,360.5C 99.3208,361.36 113.154,362.027 127,362.5C 137.807,362.217 148.307,361.217 158.5,359.5 Z"/></g>
<g><path style="opacity:1" fill="#282728" d="M 235.5,366.5 C 281.312,369.522 327.312,371.855 373.5,373.5C 421.674,376.081 470.007,378.581 518.5,381C 521.88,382.371 524.713,384.538 527,387.5C 527.167,456.335 527.667,525.001 528.5,593.5C 528.5,594.167 528.5,594.833 528.5,595.5C 530.136,602.555 527.802,607.555 521.5,610.5C 504.833,610.5 488.167,610.5 471.5,610.5C 461.167,610.5 450.833,610.5 440.5,610.5C 435.5,610.5 430.5,610.5 425.5,610.5C 373.583,610.583 321.75,609.917 270,608.5C 245.811,608.509 221.644,608.843 197.5,609.5C 191.792,607.09 189.459,602.756 190.5,596.5C 190.944,523.167 191.278,449.834 191.5,376.5C 192.454,371.711 195.121,368.211 199.5,366C 211.504,365.643 223.504,365.81 235.5,366.5 Z"/></g>
<g><path style="opacity:1" fill="#525252" d="M 300.5,364.5 C 337.663,366.368 374.663,368.368 411.5,370.5C 405.859,369.909 400.526,370.742 395.5,373C 388.174,373.5 380.841,373.666 373.5,373.5C 327.312,371.855 281.312,369.522 235.5,366.5C 249.168,367.032 262.834,367.199 276.5,367C 284.287,364.684 292.287,363.85 300.5,364.5 Z"/></g>
<g><path style="opacity:1" fill="#3c3c3c" d="M 411.5,370.5 C 448.507,372.167 485.507,374.001 522.5,376C 524.09,377.046 525.59,378.213 527,379.5C 528.493,450.751 528.993,522.084 528.5,593.5C 527.667,525.001 527.167,456.335 527,387.5C 524.713,384.538 521.88,382.371 518.5,381C 470.007,378.581 421.674,376.081 373.5,373.5C 380.841,373.666 388.174,373.5 395.5,373C 400.526,370.742 405.859,369.909 411.5,370.5 Z"/></g>
<g><path style="opacity:1" fill="#c7c7c7" d="M 248.5,376.5 C 250.344,377.204 250.844,378.537 250,380.5C 248.13,382.219 245.963,383.219 243.5,383.5C 243.343,382.127 243.51,380.793 244,379.5C 245.652,378.601 247.152,377.601 248.5,376.5 Z"/></g>
<g><path style="opacity:1" fill="#e7e6e7" d="M 208.5,378.5 C 210.167,378.5 211.833,378.5 213.5,378.5C 214.219,383.593 215.386,388.593 217,393.5C 218.805,388.955 220.305,384.288 221.5,379.5C 223.288,379.215 224.955,379.548 226.5,380.5C 224.029,387.385 222.029,394.385 220.5,401.5C 218.5,401.5 216.5,401.5 214.5,401.5C 212.475,393.771 210.475,386.104 208.5,378.5 Z"/></g>
<g><path style="opacity:1" fill="#f4f4f4" d="M 285.5,381.5 C 286.833,381.5 288.167,381.5 289.5,381.5C 289.5,388.833 289.5,396.167 289.5,403.5C 288.167,403.5 286.833,403.5 285.5,403.5C 285.5,396.167 285.5,388.833 285.5,381.5 Z"/></g>
<g><path style="opacity:1" fill="#e6e6e6" d="M 230.5,384.5 C 238.465,383.134 242.465,386.468 242.5,394.5C 239.167,394.5 235.833,394.5 232.5,394.5C 232.5,395.5 232.5,396.5 232.5,397.5C 235.554,396.679 238.554,396.679 241.5,397.5C 237.044,404.113 232.544,404.113 228,397.5C 226.842,392.693 227.676,388.36 230.5,384.5 Z"/></g>
<g><path style="opacity:1" fill="#e2e2e2" d="M 255.5,385.5 C 261.686,384.042 265.019,386.375 265.5,392.5C 262.5,391.833 259.5,391.167 256.5,390.5C 256.232,393.119 256.565,395.619 257.5,398C 259.379,398.063 261.213,397.563 263,396.5C 263.833,396.833 264.667,397.167 265.5,397.5C 263.086,404.016 259.253,405.016 254,400.5C 250.359,395.027 250.859,390.027 255.5,385.5 Z"/></g>
<g><path style="opacity:1" fill="#e9e9e9" d="M 268.5,386.5 C 269.833,386.5 271.167,386.5 272.5,386.5C 272.335,390.182 272.501,393.848 273,397.5C 274.356,398.38 275.856,398.714 277.5,398.5C 277.5,394.5 277.5,390.5 277.5,386.5C 279.167,386.5 280.833,386.5 282.5,386.5C 282.5,392.167 282.5,397.833 282.5,403.5C 278.336,403.22 274.169,402.887 270,402.5C 268.661,397.264 268.161,391.93 268.5,386.5 Z"/></g>
<g><path style="opacity:1" fill="#a9a8a9" d="M 248.5,402.5 C 248.5,396.833 248.5,391.167 248.5,385.5C 247.5,385.5 246.5,385.5 245.5,385.5C 245.5,391.167 245.5,396.833 245.5,402.5C 244.51,396.69 244.177,390.69 244.5,384.5C 246.167,384.5 247.833,384.5 249.5,384.5C 249.823,390.69 249.49,396.69 248.5,402.5 Z"/></g>
<g><path style="opacity:1" fill="#f9f9f9" d="M 248.5,402.5 C 247.5,402.5 246.5,402.5 245.5,402.5C 245.5,396.833 245.5,391.167 245.5,385.5C 246.5,385.5 247.5,385.5 248.5,385.5C 248.5,391.167 248.5,396.833 248.5,402.5 Z"/></g>
<g><path style="opacity:1" fill="#efefef" d="M 295.5,387.5 C 306.548,387.755 309.548,392.921 304.5,403C 296.252,406.756 292.252,404.089 292.5,395C 292.11,391.876 293.11,389.376 295.5,387.5 Z"/></g>
<g><path style="opacity:1" fill="#e2e2e2" d="M 311.5,387.5 C 316.246,386.928 318.913,388.928 319.5,393.5C 317.401,392.769 315.401,392.769 313.5,393.5C 315.427,395.102 317.594,396.435 320,397.5C 320.668,403.829 317.834,406.329 311.5,405C 309.393,403.736 308.393,401.903 308.5,399.5C 310.954,399.321 313.121,399.987 315,401.5C 315.5,401.167 316,400.833 316.5,400.5C 314.012,398.931 311.512,397.264 309,395.5C 308.018,392.225 308.851,389.559 311.5,387.5 Z"/></g>
<g><path style="opacity:1" fill="#4a4849" d="M 232.5,388.5 C 234.665,388.116 236.332,388.783 237.5,390.5C 235.955,391.452 234.288,391.785 232.5,391.5C 232.5,390.5 232.5,389.5 232.5,388.5 Z"/></g>
<g><path style="opacity:1" fill="#3d3b3c" d="M 297.5,391.5 C 301.976,391.822 303.476,394.156 302,398.5C 300.333,401.167 298.667,401.167 297,398.5C 296.297,396.071 296.463,393.738 297.5,391.5 Z"/></g>
<g><path style="opacity:1" fill="#cd850c" d="M 84.5,408.5 C 88.5,408.5 92.5,408.5 96.5,408.5C 96.5,407.167 96.5,405.833 96.5,404.5C 94.4004,404.477 92.5671,405.144 91,406.5C 89.5262,404.084 87.3595,403.084 84.5,403.5C 84.2601,400.421 84.5934,397.421 85.5,394.5C 89.1073,393.511 92.774,393.177 96.5,393.5C 97.0978,398.813 97.4312,404.146 97.5,409.5C 92.9677,409.818 88.6344,409.485 84.5,408.5 Z"/></g>
<g><path style="opacity:1" fill="#bebdbd" d="M 101.5,394.5 C 114.171,394.989 126.837,395.656 139.5,396.5C 129.851,397.665 120.184,397.832 110.5,397C 107.008,397.07 104.008,396.237 101.5,394.5 Z"/></g>
<g><path style="opacity:1" fill="#e6e5e6" d="M 510.5,391.5 C 512.5,391.5 514.5,391.5 516.5,391.5C 516.5,400.5 516.5,409.5 516.5,418.5C 514.5,418.5 512.5,418.5 510.5,418.5C 510.5,409.5 510.5,400.5 510.5,391.5 Z"/></g>
<g><path style="opacity:1" fill="#f0f0f0" d="M 502.5,397.5 C 504.5,397.5 506.5,397.5 508.5,397.5C 508.5,404.5 508.5,411.5 508.5,418.5C 506.5,418.5 504.5,418.5 502.5,418.5C 502.5,411.5 502.5,404.5 502.5,397.5 Z"/></g>
<g><path style="opacity:1" fill="#b0afaf" d="M 101.5,401.5 C 114.173,401.96 126.84,402.627 139.5,403.5C 130.184,404.665 120.851,404.832 111.5,404C 107.689,404.083 104.355,403.25 101.5,401.5 Z"/></g>
<g><path style="opacity:1" fill="#f7ba06" d="M 84.5,403.5 C 87.3595,403.084 89.5262,404.084 91,406.5C 92.5671,405.144 94.4004,404.477 96.5,404.5C 96.5,405.833 96.5,407.167 96.5,408.5C 92.5,408.5 88.5,408.5 84.5,408.5C 84.5,406.833 84.5,405.167 84.5,403.5 Z"/></g>
<g><path style="opacity:1" fill="#dcdcdc" d="M 495.5,404.5 C 497.5,404.5 499.5,404.5 501.5,404.5C 501.666,408.846 501.499,413.179 501,417.5C 499.301,418.406 497.467,418.739 495.5,418.5C 495.5,413.833 495.5,409.167 495.5,404.5 Z"/></g>
<g><path style="opacity:0.992" fill="#0f0f0f" d="M 43.5,220.5 C 43.2914,221.922 42.7914,223.255 42,224.5C 41.3718,259.506 41.5384,293.839 42.5,327.5C 44.4672,327.739 46.3005,327.406 48,326.5C 48.3076,327.308 48.8076,327.975 49.5,328.5C 50.1924,333.048 50.8591,337.548 51.5,342C 51.4254,426.685 51.2587,512.185 51,598.5C 57.7445,599.479 64.5778,599.812 71.5,599.5C 71.2201,604.984 72.5534,609.984 75.5,614.5C 62.6609,615.117 49.9942,615.117 37.5,614.5C 42.2419,615.188 43.0753,614.188 40,611.5C 39.5,530.834 39.3333,450.167 39.5,369.5C 39.3333,320.832 39.5,272.166 40,223.5C 41.0391,222.29 42.2058,221.29 43.5,220.5 Z"/></g>
<g><path style="opacity:1" fill="#edd4b2" d="M 97.5,424.5 C 97.5,425.167 97.5,425.833 97.5,426.5C 86.8333,425.833 86.8333,425.167 97.5,424.5 Z"/></g>
<g><path style="opacity:1" fill="#efbf2f" d="M 97.5,424.5 C 86.8333,425.167 86.8333,425.833 97.5,426.5C 97.5,429.5 97.5,432.5 97.5,435.5C 93.1667,435.5 88.8333,435.5 84.5,435.5C 84.5,431.5 84.5,427.5 84.5,423.5C 88.2155,423.68 91.8822,423.346 95.5,422.5C 96.7133,422.747 97.38,423.414 97.5,424.5 Z"/></g>
<g><path style="opacity:1" fill="#aaaaaa" d="M 245.5,449.5 C 245.649,448.448 245.483,447.448 245,446.5C 240.722,443.217 239.388,438.884 241,433.5C 233.751,431.182 231.584,433.682 234.5,441C 233.73,442.775 232.563,444.275 231,445.5C 230.506,447.134 230.34,448.801 230.5,450.5C 224.436,442.112 225.436,434.612 233.5,428C 245.134,427.98 249.968,433.813 248,445.5C 247.392,447.066 246.558,448.4 245.5,449.5 Z"/></g>
<g><path style="opacity:1" fill="#b4b3b4" d="M 102.5,428.5 C 114.857,428.713 127.19,429.38 139.5,430.5C 132.189,431.665 124.856,431.831 117.5,431C 112.067,431.118 107.067,430.285 102.5,428.5 Z"/></g>
<g><path style="opacity:1" fill="#2f5d92" d="M 431.5,443.5 C 432.833,446.167 432.833,448.833 431.5,451.5C 374.799,450.648 318.132,448.814 261.5,446C 259.32,443.582 258.987,440.916 260.5,438C 286.831,438.006 313.164,438.34 339.5,439C 370.294,441.122 400.961,442.622 431.5,443.5 Z"/></g>
<g><path style="opacity:1" fill="#f8f8f8" d="M 453.5,440.5 C 464.172,440.333 474.839,440.5 485.5,441C 486.471,446.072 486.805,451.238 486.5,456.5C 475.828,456.667 465.161,456.5 454.5,456C 453.529,450.928 453.195,445.762 453.5,440.5 Z"/></g>
<g><path style="opacity:1" fill="#78c045" d="M 491.5,441.5 C 501.839,441.334 512.172,441.5 522.5,442C 523,442.5 523.5,443 524,443.5C 524.667,448.167 524.667,452.833 524,457.5C 513.577,458.652 503.077,458.819 492.5,458C 492,457.5 491.5,457 491,456.5C 490.222,451.416 490.389,446.416 491.5,441.5 Z"/></g>
<g><path style="opacity:1" fill="#e9e9e9" d="M 245.5,449.5 C 242.401,453.24 238.401,454.407 233.5,453C 232.058,452.623 231.058,451.79 230.5,450.5C 230.34,448.801 230.506,447.134 231,445.5C 232.563,444.275 233.73,442.775 234.5,441C 231.584,433.682 233.751,431.182 241,433.5C 239.388,438.884 240.722,443.217 245,446.5C 245.483,447.448 245.649,448.448 245.5,449.5 Z"/></g>
<g><path style="opacity:1" fill="#66d8dc" d="M 431.5,443.5 C 436.844,443.334 442.177,443.501 447.5,444C 450.167,446.667 450.167,449.333 447.5,452C 441.984,452.817 436.65,452.651 431.5,451.5C 432.833,448.833 432.833,446.167 431.5,443.5 Z"/></g>
<g><path style="opacity:1" fill="#444444" d="M 75.5,372.5 C 75.3333,409.502 75.5,446.502 76,483.5C 77.9474,487.276 80.4474,490.61 83.5,493.5C 77.6726,494.063 73.5059,491.73 71,486.5C 70.5,460.835 70.3334,435.169 70.5,409.5C 71.3285,402.679 71.8285,395.679 72,388.5C 72.6667,387.167 73.3333,385.833 74,384.5C 74.1762,380.312 74.6762,376.312 75.5,372.5 Z"/></g>
<g><path style="opacity:1" fill="#838383" d="M 456.5,445.5 C 465.738,445.902 475.071,446.569 484.5,447.5C 484.5,448.5 484.5,449.5 484.5,450.5C 481.751,450.274 479.084,450.607 476.5,451.5C 475.216,450.415 473.716,449.748 472,449.5C 466.923,449.885 461.756,449.885 456.5,449.5C 456.5,448.167 456.5,446.833 456.5,445.5 Z"/></g>
<g><path style="opacity:1" fill="#bbe39e" d="M 497.5,447.5 C 503.838,447.767 510.171,448.1 516.5,448.5C 516.5,449.5 516.5,450.5 516.5,451.5C 510.211,450.628 503.878,450.295 497.5,450.5C 497.5,449.5 497.5,448.5 497.5,447.5 Z"/></g>
<g><path style="opacity:1" fill="#c4c3c4" d="M 101.5,455.5 C 113.838,455.826 126.171,456.326 138.5,457C 132.333,457.167 126.167,457.333 120,457.5C 113.462,457.496 107.295,456.83 101.5,455.5 Z"/></g>
<g><path style="opacity:1" fill="#d1a33f" d="M 93.5,448.5 C 94.8333,448.5 96.1667,448.5 97.5,448.5C 97.5,452.833 97.5,457.167 97.5,461.5C 93.1667,461.5 88.8333,461.5 84.5,461.5C 84.5,457.833 84.5,454.167 84.5,450.5C 88.0122,451.055 91.0122,450.388 93.5,448.5 Z"/></g>
<g><path style="opacity:1" fill="#fbcc31" d="M 85.5,451.5 C 89.1352,452.114 92.8019,452.448 96.5,452.5C 96.5,455.167 96.5,457.833 96.5,460.5C 92.8333,460.5 89.1667,460.5 85.5,460.5C 85.5,457.5 85.5,454.5 85.5,451.5 Z"/></g>
<g><path style="opacity:1" fill="#b0afaf" d="M 102.5,460.5 C 114.851,460.168 127.185,460.501 139.5,461.5C 133.333,461.833 127.167,462.167 121,462.5C 114.462,462.496 108.295,461.83 102.5,460.5 Z"/></g>
<g><path style="opacity:1" fill="#a9a9a9" d="M 245.5,488.5 C 245.649,487.448 245.483,486.448 245,485.5C 240.722,482.217 239.388,477.884 241,472.5C 233.751,470.182 231.584,472.682 234.5,480C 232.601,482.389 230.934,484.889 229.5,487.5C 224.884,480.284 225.884,473.784 232.5,468C 239.316,465.74 244.483,467.907 248,474.5C 249.193,479.672 248.36,484.338 245.5,488.5 Z"/></g>
<g><path style="opacity:1" fill="#3b3b3b" d="M 53.5,237.5 C 53.4406,357.336 54.1072,477.003 55.5,596.5C 55.5,596.833 55.5,597.167 55.5,597.5C 54.5,597.5 53.5,597.5 52.5,597.5C 52.1671,477.332 52.5005,357.332 53.5,237.5 Z"/></g>
<g><path style="opacity:1" fill="#d9ab45" d="M 93.5,472.5 C 94.8333,472.5 96.1667,472.5 97.5,472.5C 97.5,476.833 97.5,481.167 97.5,485.5C 93.1667,485.5 88.8333,485.5 84.5,485.5C 84.5,481.833 84.5,478.167 84.5,474.5C 87.1873,474.664 89.854,474.497 92.5,474C 93.056,473.617 93.3893,473.117 93.5,472.5 Z"/></g>
<g><path style="opacity:1" fill="#fbcc2d" d="M 85.5,475.5 C 88.9863,476.953 92.653,477.619 96.5,477.5C 96.5,479.833 96.5,482.167 96.5,484.5C 92.8333,484.5 89.1667,484.5 85.5,484.5C 85.5,481.5 85.5,478.5 85.5,475.5 Z"/></g>
<g><path style="opacity:1" fill="#4d4c4c" d="M 191.5,376.5 C 191.278,449.834 190.944,523.167 190.5,596.5C 189.5,596.5 188.5,596.5 187.5,596.5C 187.5,555.5 187.5,514.5 187.5,473.5C 188.332,446.003 188.832,418.336 189,390.5C 189.333,395.167 189.667,399.833 190,404.5C 190.17,394.991 190.67,385.658 191.5,376.5 Z"/></g>
<g><path style="opacity:1" fill="#2f5d91" d="M 310.5,477.5 C 313.167,480.5 313.167,483.5 310.5,486.5C 293.787,486.852 277.12,486.185 260.5,484.5C 258.938,481.386 259.271,478.553 261.5,476C 278.006,475.751 294.34,476.251 310.5,477.5 Z"/></g>
<g><path style="opacity:1" fill="#f4f4f4" d="M 453.5,477.5 C 464.172,477.333 474.839,477.5 485.5,478C 486.471,483.072 486.805,488.238 486.5,493.5C 475.828,493.667 465.161,493.5 454.5,493C 453.529,487.928 453.195,482.762 453.5,477.5 Z"/></g>
<g><path style="opacity:1" fill="#68dde0" d="M 310.5,477.5 C 356.165,478.634 401.832,479.801 447.5,481C 450.167,483.667 450.167,486.333 447.5,489C 426.833,489.284 406.166,489.118 385.5,488.5C 360.681,487.028 335.681,486.361 310.5,486.5C 313.167,483.5 313.167,480.5 310.5,477.5 Z"/></g>
<g><path style="opacity:0.004" fill="#010101" d="M 26.5,479.5 C 26.5,514.5 26.5,549.5 26.5,584.5C 25.8333,584.5 25.1667,584.5 24.5,584.5C 23.84,549.151 24.5066,514.151 26.5,479.5 Z"/></g>
<g><path style="opacity:1" fill="#7ac545" d="M 490.5,478.5 C 501.505,478.333 512.505,478.5 523.5,479C 524.635,483.748 524.802,488.581 524,493.5C 513.243,494.653 502.41,494.82 491.5,494C 490.529,488.928 490.195,483.762 490.5,478.5 Z"/></g>
<g><path style="opacity:1" fill="#9b9a9a" d="M 101.5,478.5 C 114.167,478.5 126.833,478.5 139.5,478.5C 139.5,479.5 139.5,480.5 139.5,481.5C 130.158,481.462 120.824,481.129 111.5,480.5C 107.761,480.486 104.428,479.82 101.5,478.5 Z"/></g>
<g><path style="opacity:1" fill="#e5e5e5" d="M 245.5,488.5 C 242.25,493.49 237.916,494.657 232.5,492C 230.859,490.871 229.859,489.371 229.5,487.5C 230.934,484.889 232.601,482.389 234.5,480C 231.584,472.682 233.751,470.182 241,472.5C 239.388,477.884 240.722,482.217 245,485.5C 245.483,486.448 245.649,487.448 245.5,488.5 Z"/></g>
<g><path style="opacity:1" fill="#868686" d="M 456.5,482.5 C 464.056,482.811 471.723,483.311 479.5,484C 480.938,484.219 482.271,484.719 483.5,485.5C 481.608,486.473 479.608,487.14 477.5,487.5C 470.558,487.564 463.558,487.23 456.5,486.5C 456.5,485.167 456.5,483.833 456.5,482.5 Z"/></g>
<g><path style="opacity:1" fill="#b9e39c" d="M 498.5,483.5 C 504.591,483.17 510.591,484.17 516.5,486.5C 510.528,487.664 504.528,487.83 498.5,487C 497.316,485.855 497.316,484.688 498.5,483.5 Z"/></g>
<g><path style="opacity:1" fill="#498587" d="M 310.5,486.5 C 335.681,486.361 360.681,487.028 385.5,488.5C 360.322,488.513 335.322,487.846 310.5,486.5 Z"/></g>
<g><path style="opacity:0.97" fill="#bfbfc1" d="M 27.5,387.5 C 28.4584,387.047 29.2917,386.381 30,385.5C 30.1701,391.196 30.6701,396.862 31.5,402.5C 32.4521,405.849 33.9521,408.849 36,411.5C 36.7826,409.567 36.2826,408.067 34.5,407C 36.2535,402.13 37.0868,396.963 37,391.5C 37.1671,451.335 37.6671,511.001 38.5,570.5C 38.5,583.833 38.5,597.167 38.5,610.5C 34.4338,610.693 30.4338,610.36 26.5,609.5C 27.1279,602.087 26.4612,595.087 24.5,588.5C 24.5,587.833 24.5,587.167 24.5,586.5C 25.8333,586.5 26.5,585.833 26.5,584.5C 26.5,549.5 26.5,514.5 26.5,479.5C 25.6684,395.672 25.5017,311.672 26,227.5C 26.1625,282.208 26.6625,335.541 27.5,387.5 Z"/></g>
<g><path style="opacity:1" fill="#525151" d="M 175.5,596.5 C 174.668,569.336 174.168,542.003 174,514.5C 171.586,507.769 166.753,504.602 159.5,505C 133.833,504.333 108.167,504.333 82.5,505C 79.1517,507.501 76.8184,510.668 75.5,514.5C 74.6684,531.995 74.1684,549.662 74,567.5C 72.5035,573.552 71.3368,579.552 70.5,585.5C 70.3334,558.831 70.5,532.165 71,505.5C 72.1217,503.376 73.6217,501.543 75.5,500C 106.169,499.722 136.836,500.056 167.5,501C 170.937,502.105 173.437,504.272 175,507.5C 175.5,537.165 175.667,566.831 175.5,596.5 Z"/></g>
<g><path style="opacity:1" fill="#aaa9a9" d="M 245.5,527.5 C 244.141,524.94 242.474,522.44 240.5,520C 241.493,517.547 241.66,515.047 241,512.5C 238.667,509.833 236.333,509.833 234,512.5C 233.272,515.23 233.438,517.897 234.5,520.5C 231.61,522.043 229.943,524.376 229.5,527.5C 224.802,519.931 225.802,513.098 232.5,507C 244.777,505.613 249.943,511.113 248,523.5C 247.392,525.066 246.558,526.4 245.5,527.5 Z"/></g>
<g><path style="opacity:1" fill="#2d86b2" d="M 370.5,517.5 C 371.833,520.167 371.833,522.833 370.5,525.5C 337.159,525.759 303.825,525.426 270.5,524.5C 267.167,524.167 263.833,523.833 260.5,523.5C 259.212,520.966 259.212,518.466 260.5,516C 297.339,515.55 334.006,516.05 370.5,517.5 Z"/></g>
<g><path style="opacity:1" fill="#f1f1f1" d="M 454.5,514.5 C 464.839,514.334 475.172,514.5 485.5,515C 486.637,520.082 486.804,525.249 486,530.5C 475.577,531.652 465.077,531.819 454.5,531C 453.189,525.5 453.189,520 454.5,514.5 Z"/></g>
<g><path style="opacity:1" fill="#272627" d="M 175.5,596.5 C 179.5,596.5 183.5,596.5 187.5,596.5C 183.702,597.483 179.702,597.817 175.5,597.5C 175.593,604.736 172.927,610.736 167.5,615.5C 167.158,616.338 166.492,616.672 165.5,616.5C 137.831,616.667 110.165,616.5 82.5,616C 76.8437,611.53 74.177,605.697 74.5,598.5C 75.4297,570.51 75.763,542.51 75.5,514.5C 76.8184,510.668 79.1517,507.501 82.5,505C 108.167,504.333 133.833,504.333 159.5,505C 166.753,504.602 171.586,507.769 174,514.5C 174.168,542.003 174.668,569.336 175.5,596.5 Z"/></g>
<g><path style="opacity:1" fill="#7ac645" d="M 491.5,515.5 C 502.172,515.333 512.839,515.5 523.5,516C 524.635,520.748 524.802,525.581 524,530.5C 513.243,531.653 502.41,531.82 491.5,531C 490.19,525.834 490.19,520.667 491.5,515.5 Z"/></g>
<g><path style="opacity:1" fill="#67d9dc" d="M 370.5,517.5 C 396.169,517.333 421.835,517.5 447.5,518C 449.706,520.209 450.04,522.709 448.5,525.5C 422.336,526.829 396.336,526.829 370.5,525.5C 371.833,522.833 371.833,520.167 370.5,517.5 Z"/></g>
<g><path style="opacity:1" fill="#e7e7e7" d="M 245.5,527.5 C 242.823,532.189 238.823,533.689 233.5,532C 231.959,530.629 230.625,529.129 229.5,527.5C 229.943,524.376 231.61,522.043 234.5,520.5C 233.438,517.897 233.272,515.23 234,512.5C 236.333,509.833 238.667,509.833 241,512.5C 241.66,515.047 241.493,517.547 240.5,520C 242.474,522.44 244.141,524.94 245.5,527.5 Z"/></g>
<g><path style="opacity:1" fill="#898989" d="M 456.5,519.5 C 463.759,520.274 471.092,520.274 478.5,519.5C 479.192,520.025 479.692,520.692 480,521.5C 481.88,520.07 483.38,520.404 484.5,522.5C 481.843,523.259 479.177,523.926 476.5,524.5C 469.95,524.28 463.283,523.947 456.5,523.5C 456.5,522.167 456.5,520.833 456.5,519.5 Z"/></g>
<g><path style="opacity:1" fill="#b8e299" d="M 498.5,520.5 C 504.376,520.714 510.376,521.047 516.5,521.5C 516.5,522.5 516.5,523.5 516.5,524.5C 510.491,524.666 504.491,524.499 498.5,524C 497.316,522.855 497.316,521.688 498.5,520.5 Z"/></g>
<g><path style="opacity:1" fill="#6ae2e5" d="M 149.5,597.5 C 149.5,597.833 149.5,598.167 149.5,598.5C 148.5,598.5 147.5,598.5 146.5,598.5C 146.5,575.167 146.5,551.833 146.5,528.5C 147.5,528.5 148.5,528.5 149.5,528.5C 149.5,551.5 149.5,574.5 149.5,597.5 Z"/></g>
<g><path style="opacity:1" fill="#3fb2ce" d="M 150.5,536.5 C 151.833,536.5 153.167,536.5 154.5,536.5C 154.5,557.167 154.5,577.833 154.5,598.5C 152.833,598.5 151.167,598.5 149.5,598.5C 149.5,598.167 149.5,597.833 149.5,597.5C 150.497,577.34 150.83,557.007 150.5,536.5 Z"/></g>
<g><path style="opacity:1" fill="#4e979a" d="M 150.5,535.5 C 150.5,535.833 150.5,536.167 150.5,536.5C 150.83,557.007 150.497,577.34 149.5,597.5C 149.5,574.5 149.5,551.5 149.5,528.5C 148.5,528.5 147.5,528.5 146.5,528.5C 146.5,551.833 146.5,575.167 146.5,598.5C 145.502,575.006 145.169,551.339 145.5,527.5C 147.167,527.5 148.833,527.5 150.5,527.5C 150.5,530.167 150.5,532.833 150.5,535.5 Z"/></g>
<g><path style="opacity:1" fill="#aaa9aa" d="M 245.5,566.5 C 244.066,563.889 242.399,561.389 240.5,559C 241.493,556.547 241.66,554.047 241,551.5C 238.667,548.833 236.333,548.833 234,551.5C 233.34,554.047 233.507,556.547 234.5,559C 232.266,561.118 230.6,563.618 229.5,566.5C 225.227,560.153 225.56,553.986 230.5,548C 238.196,543.587 244.029,545.42 248,553.5C 249.156,558.347 248.323,562.68 245.5,566.5 Z"/></g>
<g><path style="opacity:1" fill="#f0f0f0" d="M 454.5,551.5 C 464.839,551.334 475.172,551.5 485.5,552C 486.637,557.082 486.804,562.249 486,567.5C 475.577,568.652 465.077,568.819 454.5,568C 453.189,562.5 453.189,557 454.5,551.5 Z"/></g>
<g><path style="opacity:1" fill="#78c144" d="M 491.5,551.5 C 501.839,551.334 512.172,551.5 522.5,552C 523,552.5 523.5,553 524,553.5C 524.667,558.167 524.667,562.833 524,567.5C 513.243,568.653 502.41,568.82 491.5,568C 490.189,562.5 490.189,557 491.5,551.5 Z"/></g>
<g><path style="opacity:1" fill="#246290" d="M 400.5,555.5 C 401.734,558.465 401.734,561.465 400.5,564.5C 354.165,564.667 307.832,564.5 261.5,564C 259.297,561.24 258.964,558.24 260.5,555C 307.237,554.172 353.904,554.339 400.5,555.5 Z"/></g>
<g><path style="opacity:1" fill="#67dadd" d="M 400.5,555.5 C 416.17,555.333 431.837,555.5 447.5,556C 450.167,558.667 450.167,561.333 447.5,564C 431.837,564.5 416.17,564.667 400.5,564.5C 401.734,561.465 401.734,558.465 400.5,555.5 Z"/></g>
<g><path style="opacity:1" fill="#6ae2e5" d="M 117.5,554.5 C 117.5,569.167 117.5,583.833 117.5,598.5C 116.167,598.5 114.833,598.5 113.5,598.5C 113.5,583.5 113.5,568.5 113.5,553.5C 115.099,553.232 116.432,553.566 117.5,554.5 Z"/></g>
<g><path style="opacity:1" fill="#46acc0" d="M 134.5,557.5 C 135.568,558.434 136.901,558.768 138.5,558.5C 138.5,571.833 138.5,585.167 138.5,598.5C 136.833,598.5 135.167,598.5 133.5,598.5C 133.5,580.167 133.5,561.833 133.5,543.5C 132.5,543.5 131.5,543.5 130.5,543.5C 130.5,561.833 130.5,580.167 130.5,598.5C 130.167,598.5 129.833,598.5 129.5,598.5C 129.5,579.833 129.5,561.167 129.5,542.5C 131.167,542.5 132.833,542.5 134.5,542.5C 134.5,547.5 134.5,552.5 134.5,557.5 Z"/></g>
<g><path style="opacity:1" fill="#69e0e4" d="M 133.5,598.5 C 132.5,598.5 131.5,598.5 130.5,598.5C 130.5,580.167 130.5,561.833 130.5,543.5C 131.5,543.5 132.5,543.5 133.5,543.5C 133.5,561.833 133.5,580.167 133.5,598.5 Z"/></g>
<g><path style="opacity:1" fill="#787878" d="M 456.5,556.5 C 463.759,557.274 471.092,557.274 478.5,556.5C 479.192,557.025 479.692,557.692 480,558.5C 481.88,557.07 483.38,557.404 484.5,559.5C 475.124,561.005 465.79,561.338 456.5,560.5C 456.5,559.167 456.5,557.833 456.5,556.5 Z"/></g>
<g><path style="opacity:1" fill="#bae39c" d="M 497.5,557.5 C 504.167,557.5 510.833,557.5 517.5,557.5C 517.5,558.5 517.5,559.5 517.5,560.5C 510.833,560.5 504.167,560.5 497.5,560.5C 497.5,559.5 497.5,558.5 497.5,557.5 Z"/></g>
<g><path style="opacity:1" fill="#474748" d="M 39.5,369.5 C 39.3333,450.167 39.5,530.834 40,611.5C 43.0753,614.188 42.2419,615.188 37.5,614.5C 34.8127,614.664 32.146,614.497 29.5,614C 28.8742,613.25 28.3742,612.416 28,611.5C 25.9068,612.234 25.4068,611.567 26.5,609.5C 30.4338,610.36 34.4338,610.693 38.5,610.5C 38.5,597.167 38.5,583.833 38.5,570.5C 38.1675,503.331 38.5008,436.331 39.5,369.5 Z"/></g>
<g><path style="opacity:1" fill="#e7e7e7" d="M 245.5,566.5 C 244.075,570.304 241.242,571.971 237,571.5C 233,571.99 230.5,570.323 229.5,566.5C 230.6,563.618 232.266,561.118 234.5,559C 233.507,556.547 233.34,554.047 234,551.5C 236.333,548.833 238.667,548.833 241,551.5C 241.66,554.047 241.493,556.547 240.5,559C 242.399,561.389 244.066,563.889 245.5,566.5 Z"/></g>
<g><path style="opacity:1" fill="#3eb0cc" d="M 102.5,580.5 C 103.833,580.5 105.167,580.5 106.5,580.5C 106.5,582.167 106.5,583.833 106.5,585.5C 106.5,589.833 106.5,594.167 106.5,598.5C 105.167,598.5 103.833,598.5 102.5,598.5C 102.5,592.5 102.5,586.5 102.5,580.5 Z"/></g>
<g><path style="opacity:0.004" fill="#0000ff" d="M 24.5,584.5 C 25.1667,584.5 25.8333,584.5 26.5,584.5C 26.5,585.833 25.8333,586.5 24.5,586.5C 24.5,585.833 24.5,585.167 24.5,584.5 Z"/></g>
<g><path style="opacity:1" fill="#3eaeca" d="M 89.5,585.5 C 89.5,589.833 89.5,594.167 89.5,598.5C 88.1667,598.5 86.8333,598.5 85.5,598.5C 85.5,594.167 85.5,589.833 85.5,585.5C 86.8333,585.5 88.1667,585.5 89.5,585.5 Z"/></g>
<g><path style="opacity:1" fill="#337f9f" d="M 97.5,580.5 C 97.5,586.5 97.5,592.5 97.5,598.5C 98.8333,598.5 100.167,598.5 101.5,598.5C 101.5,592.5 101.5,586.5 101.5,580.5C 101.833,580.5 102.167,580.5 102.5,580.5C 102.5,586.5 102.5,592.5 102.5,598.5C 103.833,598.5 105.167,598.5 106.5,598.5C 106.5,594.167 106.5,589.833 106.5,585.5C 108.167,585.5 109.833,585.5 111.5,585.5C 111.5,590.167 111.5,594.833 111.5,599.5C 106.5,599.5 101.5,599.5 96.5,599.5C 96.1765,592.978 96.5098,586.645 97.5,580.5 Z"/></g>
<g><path style="opacity:1" fill="#67d9dc" d="M 97.5,580.5 C 98.8333,580.5 100.167,580.5 101.5,580.5C 101.5,586.5 101.5,592.5 101.5,598.5C 100.167,598.5 98.8333,598.5 97.5,598.5C 97.5,592.5 97.5,586.5 97.5,580.5 Z"/></g>
<g><path style="opacity:1" fill="#2f7696" d="M 150.5,536.5 C 150.5,536.167 150.5,535.833 150.5,535.5C 152.167,535.5 153.833,535.5 155.5,535.5C 155.5,550.5 155.5,565.5 155.5,580.5C 157.167,580.5 158.833,580.5 160.5,580.5C 160.5,586.5 160.5,592.5 160.5,598.5C 158.5,598.5 156.5,598.5 154.5,598.5C 154.5,577.833 154.5,557.167 154.5,536.5C 153.167,536.5 151.833,536.5 150.5,536.5 Z"/></g>
<g><path style="opacity:0.004" fill="#000000" d="M 24.5,588.5 C 26.4612,595.087 27.1279,602.087 26.5,609.5C 24.5388,602.913 23.8721,595.913 24.5,588.5 Z"/></g>
<g><path style="opacity:1" fill="#2e5f72" d="M 134.5,557.5 C 136.167,557.5 137.833,557.5 139.5,557.5C 139.5,565.167 139.5,572.833 139.5,580.5C 139.5,586.5 139.5,592.5 139.5,598.5C 140.833,598.5 142.167,598.5 143.5,598.5C 143.5,592.5 143.5,586.5 143.5,580.5C 144.49,586.645 144.823,592.978 144.5,599.5C 139.305,599.821 134.305,599.487 129.5,598.5C 129.833,598.5 130.167,598.5 130.5,598.5C 131.5,598.5 132.5,598.5 133.5,598.5C 135.167,598.5 136.833,598.5 138.5,598.5C 138.5,585.167 138.5,571.833 138.5,558.5C 136.901,558.768 135.568,558.434 134.5,557.5 Z"/></g>
<g><path style="opacity:1" fill="#2b83b0" d="M 139.5,580.5 C 140.833,580.5 142.167,580.5 143.5,580.5C 143.5,586.5 143.5,592.5 143.5,598.5C 142.167,598.5 140.833,598.5 139.5,598.5C 139.5,592.5 139.5,586.5 139.5,580.5 Z"/></g>
<g><path style="opacity:1" fill="#377488" d="M 117.5,554.5 C 118.49,560.31 118.823,566.31 118.5,572.5C 120.099,572.232 121.432,572.566 122.5,573.5C 123.483,577.298 123.817,581.298 123.5,585.5C 124.833,585.5 126.167,585.5 127.5,585.5C 127.5,590.167 127.5,594.833 127.5,599.5C 122.637,599.819 117.97,599.486 113.5,598.5C 114.833,598.5 116.167,598.5 117.5,598.5C 117.5,583.833 117.5,569.167 117.5,554.5 Z"/></g>
<g><path style="opacity:1" fill="#3eafcb" d="M 122.5,573.5 C 122.5,581.833 122.5,590.167 122.5,598.5C 121.167,598.5 119.833,598.5 118.5,598.5C 118.5,590.167 118.5,581.833 118.5,573.5C 119.833,573.5 121.167,573.5 122.5,573.5 Z"/></g>
<g><path style="opacity:1" fill="#2d7394" d="M 89.5,585.5 C 91.5,585.5 93.5,585.5 95.5,585.5C 95.6657,589.846 95.499,594.179 95,598.5C 91.7312,599.818 88.5645,599.818 85.5,598.5C 86.8333,598.5 88.1667,598.5 89.5,598.5C 89.5,594.167 89.5,589.833 89.5,585.5 Z"/></g>
<g><path style="opacity:0.925" fill="#3c3c3c" d="M 75.5,514.5 C 75.763,542.51 75.4297,570.51 74.5,598.5C 74.177,605.697 76.8437,611.53 82.5,616C 110.165,616.5 137.831,616.667 165.5,616.5C 137.336,617.664 109.003,617.83 80.5,617C 78.8068,616.153 77.1401,615.32 75.5,614.5C 72.5534,609.984 71.2201,604.984 71.5,599.5C 71.6716,598.508 71.3382,597.842 70.5,597.5C 70.5,593.5 70.5,589.5 70.5,585.5C 71.3368,579.552 72.5035,573.552 74,567.5C 74.1684,549.662 74.6684,531.995 75.5,514.5 Z"/></g>
<g><path style="opacity:1" fill="#191818" d="M 187.5,596.5 C 188.5,596.5 189.5,596.5 190.5,596.5C 189.459,602.756 191.792,607.09 197.5,609.5C 221.644,608.843 245.811,608.509 270,608.5C 321.75,609.917 373.583,610.583 425.5,610.5C 425.5,610.833 425.5,611.167 425.5,611.5C 398.017,611.358 370.684,612.025 343.5,613.5C 343.5,612.833 343.167,612.5 342.5,612.5C 342.5,611.833 342.167,611.5 341.5,611.5C 324.5,610.167 307.5,610.167 290.5,611.5C 289.167,611.833 287.833,612.167 286.5,612.5C 280.162,612.767 273.829,613.1 267.5,613.5C 253.007,611.572 238.341,610.905 223.5,611.5C 219.513,611.01 215.846,611.676 212.5,613.5C 197.499,612.803 182.499,613.47 167.5,615.5C 172.927,610.736 175.593,604.736 175.5,597.5C 179.702,597.817 183.702,597.483 187.5,596.5 Z"/></g>
<g><path style="opacity:0.005" fill="#000000" d="M 440.5,610.5 C 450.833,610.5 461.167,610.5 471.5,610.5C 480.991,611.33 490.658,611.83 500.5,612C 475.33,612.83 450.33,612.663 425.5,611.5C 430.695,611.821 435.695,611.487 440.5,610.5 Z"/></g>
<g><path style="opacity:0.004" fill="#000000" d="M 537.5,611.5 C 538.251,610.427 539.251,610.26 540.5,611C 539.552,611.483 538.552,611.649 537.5,611.5 Z"/></g>
<g><path style="opacity:0.004" fill="#000000" d="M 551.5,610.5 C 549.372,611.629 547.039,611.796 544.5,611C 546.81,610.503 549.143,610.337 551.5,610.5 Z"/></g>
<g><path style="opacity:1" fill="#aaabad" d="M 290.5,611.5 C 307.5,610.167 324.5,610.167 341.5,611.5C 342.167,611.5 342.5,611.833 342.5,612.5C 343.167,612.5 343.5,612.833 343.5,613.5C 342.867,613.88 342.2,614.213 341.5,614.5C 342.52,616.432 342.687,618.432 342,620.5C 340.992,615.459 340.492,615.792 340.5,621.5C 339.71,620.391 339.21,619.058 339,617.5C 334.704,621.144 329.704,623.144 324,623.5C 313.057,622.954 302.223,621.62 291.5,619.5C 291.5,618.167 291.5,616.833 291.5,615.5C 299.695,612.291 299.361,610.958 290.5,611.5 Z"/></g>
<g><path style="opacity:0.998" fill="#c1c2c4" d="M 223.5,611.5 C 238.341,610.905 253.007,611.572 267.5,613.5C 267.389,614.117 267.056,614.617 266.5,615C 267.416,615.278 268.082,615.778 268.5,616.5C 269.222,616.918 269.722,617.584 270,618.5C 271.049,617.483 272.216,617.316 273.5,618C 271.405,618.556 271.238,619.056 273,619.5C 274.667,618.167 276.333,618.167 278,619.5C 279.762,619.056 279.595,618.556 277.5,618C 278.784,617.316 279.951,617.483 281,618.5C 282.209,616.816 283.709,615.483 285.5,614.5C 286.078,615.547 286.744,615.38 287.5,614C 287.272,613.601 286.938,613.435 286.5,613.5C 286.5,613.167 286.5,612.833 286.5,612.5C 287.833,612.167 289.167,611.833 290.5,611.5C 299.361,610.958 299.695,612.291 291.5,615.5C 291.5,616.833 291.5,618.167 291.5,619.5C 302.223,621.62 313.057,622.954 324,623.5C 329.704,623.144 334.704,621.144 339,617.5C 339.21,619.058 339.71,620.391 340.5,621.5C 341.375,625.842 341.041,630.176 339.5,634.5C 338.839,633.282 338.172,631.949 337.5,630.5C 321.806,631.491 305.973,630.491 290,627.5C 289.228,627.645 288.561,627.978 288,628.5C 276.792,627.254 266.125,626.588 256,626.5C 251.667,627.167 247.333,627.833 243,628.5C 241.732,628.384 240.398,628.051 239,627.5C 236.595,628.274 234.095,628.774 231.5,629C 232.167,629.333 232.833,629.667 233.5,630C 229.445,630.232 225.445,630.732 221.5,631.5C 220.033,631.277 218.533,630.944 217,630.5C 216.809,632.708 216.309,634.708 215.5,636.5C 216.328,629.18 217.161,621.847 218,614.5C 219.649,613.047 221.482,612.047 223.5,611.5 Z M 286.5,612.5 C 286.5,612.833 286.5,613.167 286.5,613.5C 285.833,613.5 285.5,613.833 285.5,614.5C 283.709,615.483 282.209,616.816 281,618.5C 279.951,617.483 278.784,617.316 277.5,618C 279.595,618.556 279.762,619.056 278,619.5C 276.333,618.167 274.667,618.167 273,619.5C 271.238,619.056 271.405,618.556 273.5,618C 272.216,617.316 271.049,617.483 270,618.5C 269.722,617.584 269.222,616.918 268.5,616.5C 268.082,615.778 267.416,615.278 266.5,615C 267.056,614.617 267.389,614.117 267.5,613.5C 273.829,613.1 280.162,612.767 286.5,612.5 Z"/></g>
<g><path style="opacity:0.008" fill="#4b4b4b" d="M 210.5,634.5 C 209.402,633.399 209.235,632.066 210,630.5C 210.49,631.793 210.657,633.127 210.5,634.5 Z"/></g>
<g><path style="opacity:1" fill="#d6d7d9" d="M 339.5,634.5 C 338.483,637.027 338.483,639.527 339.5,642C 338.571,643.077 337.904,644.244 337.5,645.5C 336.579,648.14 335.912,650.973 335.5,654C 335.528,655.07 335.861,655.903 336.5,656.5C 336.917,659.079 336.25,661.246 334.5,663C 334.76,667.683 334.76,672.35 334.5,677C 333.833,678 333.167,679 332.5,680C 333.409,681.789 333.576,683.623 333,685.5C 332.667,684.5 332.333,683.5 332,682.5C 331.581,684.68 331.748,686.846 332.5,689C 332.333,689.833 332.167,690.667 332,691.5C 331.667,690.167 331.333,688.833 331,687.5C 330.447,690.359 330.614,693.192 331.5,696C 331.244,699.322 330.244,702.322 328.5,705C 329.605,707.12 329.605,709.287 328.5,711.5C 304.928,713.272 281.262,713.939 257.5,713.5C 257.658,709.946 259.325,708.613 262.5,709.5C 264.201,708.198 265.368,706.531 266,704.5C 267.77,705.276 269.603,705.11 271.5,704C 270.483,702.951 270.316,701.784 271,700.5C 271.333,701.167 271.667,701.833 272,702.5C 272.11,699.354 273.443,698.354 276,699.5C 276.219,698.062 276.719,696.729 277.5,695.5C 281.793,694.756 282.793,692.923 280.5,690C 281.289,689.454 282.289,688.787 283.5,688C 280.806,685.448 281.473,684.281 285.5,684.5C 285.26,681.421 285.593,678.421 286.5,675.5C 284.083,673.506 284.083,671.673 286.5,670C 285.376,669.751 284.376,669.251 283.5,668.5C 284.651,667.269 285.817,667.269 287,668.5C 287.359,665.456 288.026,665.122 289,667.5C 291.655,665.735 292.321,663.735 291,661.5C 290.107,662.711 289.274,662.711 288.5,661.5C 289.04,660.252 289.707,659.085 290.5,658C 289.061,657.009 288.061,655.676 287.5,654C 289.603,655.817 291.937,656.983 294.5,657.5C 295.568,655.813 295.401,654.146 294,652.5C 293.086,653.654 292.253,653.487 291.5,652C 295.19,651.576 295.357,650.742 292,649.5C 287.436,653.89 284.77,652.89 284,646.5C 283.71,648.952 283.044,651.285 282,653.5C 281.667,652.167 281.333,650.833 281,649.5C 280.667,650.167 280.333,650.833 280,651.5C 279.529,649.754 278.862,648.087 278,646.5C 277.517,647.448 277.351,648.448 277.5,649.5C 275.669,648.948 274.003,648.948 272.5,649.5C 270.04,648.603 268.873,647.27 269,645.5C 268.055,645.905 267.388,646.572 267,647.5C 266.632,646.09 265.799,645.09 264.5,644.5C 262.289,645.123 260.289,646.123 258.5,647.5C 257.167,646.167 255.833,646.167 254.5,647.5C 253.369,646.249 252.036,645.249 250.5,644.5C 248.528,645.02 248.528,646.187 250.5,648C 248.782,648.346 247.115,648.846 245.5,649.5C 244.318,647.355 242.818,647.355 241,649.5C 240,648.833 239,648.167 238,647.5C 236.857,650.915 235.19,651.249 233,648.5C 230.904,650.266 228.571,651.599 226,652.5C 225.667,652.167 225.333,651.833 225,651.5C 221.815,653.079 218.481,654.412 215,655.5C 214.667,655.167 214.333,654.833 214,654.5C 213.79,656.058 213.29,657.391 212.5,658.5C 213.18,651.116 214.18,643.783 215.5,636.5C 216.309,634.708 216.809,632.708 217,630.5C 218.533,630.944 220.033,631.277 221.5,631.5C 225.445,630.732 229.445,630.232 233.5,630C 232.833,629.667 232.167,629.333 231.5,629C 234.095,628.774 236.595,628.274 239,627.5C 240.398,628.051 241.732,628.384 243,628.5C 247.333,627.833 251.667,627.167 256,626.5C 266.125,626.588 276.792,627.254 288,628.5C 288.561,627.978 289.228,627.645 290,627.5C 305.973,630.491 321.806,631.491 337.5,630.5C 338.172,631.949 338.839,633.282 339.5,634.5 Z"/></g>
<g><path style="opacity:0.755" fill="#78787c" d="M 223.5,611.5 C 221.482,612.047 219.649,613.047 218,614.5C 217.161,621.847 216.328,629.18 215.5,636.5C 214.18,643.783 213.18,651.116 212.5,658.5C 209.628,676.085 207.295,693.752 205.5,711.5C 204.844,712.622 204.511,713.955 204.5,715.5C 204.361,717.883 205.028,719.883 206.5,721.5C 206.33,722.822 206.663,723.989 207.5,725C 214.449,726.122 221.449,726.789 228.5,727C 230.119,727.236 231.119,728.069 231.5,729.5C 218.1,729.207 204.767,728.207 191.5,726.5C 191.598,724.447 190.931,722.78 189.5,721.5C 192.008,719.763 195.008,718.93 198.5,719C 187.854,718.171 187.854,717.671 198.5,717.5C 199.245,713.924 200.245,710.424 201.5,707C 200.05,703.682 200.384,700.682 202.5,698C 201.994,691.826 202.661,685.66 204.5,679.5C 204.244,678.311 203.911,677.144 203.5,676C 204.429,674.923 205.096,673.756 205.5,672.5C 206.641,669.495 206.641,666.329 205.5,663C 205.815,659.561 206.815,656.394 208.5,653.5C 208.256,650.65 207.923,647.817 207.5,645C 210.035,642.742 210.368,640.575 208.5,638.5C 209.853,637.476 210.52,636.143 210.5,634.5C 211.112,627.527 211.778,620.527 212.5,613.5C 215.846,611.676 219.513,611.01 223.5,611.5 Z"/></g>
<g><path style="opacity:0.004" fill="#fefffe" d="M 337.5,645.5 C 338.598,646.601 338.765,647.934 338,649.5C 337.51,648.207 337.343,646.873 337.5,645.5 Z"/></g>
<g><path style="opacity:0.007" fill="#fefffe" d="M 336.5,656.5 C 336.343,655.127 336.51,653.793 337,652.5C 337.765,654.066 337.598,655.399 336.5,656.5 Z"/></g>
<g><path style="opacity:1" fill="#dedee0" d="M 328.5,711.5 C 329.833,712.5 329.833,713.5 328.5,714.5C 287.497,715.896 246.497,717.229 205.5,718.5C 205.5,716.167 205.5,713.833 205.5,711.5C 207.295,693.752 209.628,676.085 212.5,658.5C 213.29,657.391 213.79,656.058 214,654.5C 214.333,654.833 214.667,655.167 215,655.5C 218.481,654.412 221.815,653.079 225,651.5C 225.333,651.833 225.667,652.167 226,652.5C 228.571,651.599 230.904,650.266 233,648.5C 235.19,651.249 236.857,650.915 238,647.5C 239,648.167 240,648.833 241,649.5C 242.818,647.355 244.318,647.355 245.5,649.5C 247.115,648.846 248.782,648.346 250.5,648C 248.528,646.187 248.528,645.02 250.5,644.5C 252.036,645.249 253.369,646.249 254.5,647.5C 255.833,646.167 257.167,646.167 258.5,647.5C 260.289,646.123 262.289,645.123 264.5,644.5C 265.799,645.09 266.632,646.09 267,647.5C 267.388,646.572 268.055,645.905 269,645.5C 268.873,647.27 270.04,648.603 272.5,649.5C 274.003,648.948 275.669,648.948 277.5,649.5C 277.351,648.448 277.517,647.448 278,646.5C 278.862,648.087 279.529,649.754 280,651.5C 280.333,650.833 280.667,650.167 281,649.5C 281.333,650.833 281.667,652.167 282,653.5C 283.044,651.285 283.71,648.952 284,646.5C 284.77,652.89 287.436,653.89 292,649.5C 295.357,650.742 295.19,651.576 291.5,652C 292.253,653.487 293.086,653.654 294,652.5C 295.401,654.146 295.568,655.813 294.5,657.5C 291.937,656.983 289.603,655.817 287.5,654C 288.061,655.676 289.061,657.009 290.5,658C 289.707,659.085 289.04,660.252 288.5,661.5C 289.274,662.711 290.107,662.711 291,661.5C 292.321,663.735 291.655,665.735 289,667.5C 288.026,665.122 287.359,665.456 287,668.5C 285.817,667.269 284.651,667.269 283.5,668.5C 284.376,669.251 285.376,669.751 286.5,670C 284.083,671.673 284.083,673.506 286.5,675.5C 285.593,678.421 285.26,681.421 285.5,684.5C 281.473,684.281 280.806,685.448 283.5,688C 282.289,688.787 281.289,689.454 280.5,690C 282.793,692.923 281.793,694.756 277.5,695.5C 276.719,696.729 276.219,698.062 276,699.5C 273.443,698.354 272.11,699.354 272,702.5C 271.667,701.833 271.333,701.167 271,700.5C 270.316,701.784 270.483,702.951 271.5,704C 269.603,705.11 267.77,705.276 266,704.5C 265.368,706.531 264.201,708.198 262.5,709.5C 259.325,708.613 257.658,709.946 257.5,713.5C 281.262,713.939 304.928,713.272 328.5,711.5 Z"/></g>
<g><path style="opacity:0.004" fill="#000000" d="M 205.5,672.5 C 204.402,671.399 204.235,670.066 205,668.5C 205.49,669.793 205.657,671.127 205.5,672.5 Z"/></g>
<g><path style="opacity:0.006" fill="#1c1c1c" d="M 199.5,705.5 C 200.598,706.601 200.765,707.934 200,709.5C 199.51,708.207 199.343,706.873 199.5,705.5 Z"/></g>
<g><path style="opacity:0.004" fill="#000000" d="M 343.5,717.5 C 341.833,717.5 340.167,717.5 338.5,717.5C 340.167,714.833 341.833,714.833 343.5,717.5 Z"/></g>
<g><path style="opacity:0.008" fill="#656565" d="M 361.5,718.5 C 364.304,717.362 367.304,717.195 370.5,718C 367.518,718.498 364.518,718.665 361.5,718.5 Z"/></g>
<g><path style="opacity:0.951" fill="#99999d" d="M 328.5,715.5 C 331.877,715.959 335.211,716.626 338.5,717.5C 340.167,717.5 341.833,717.5 343.5,717.5C 348.489,716.778 353.489,716.612 358.5,717C 357.5,717.333 356.5,717.667 355.5,718C 357.473,718.495 359.473,718.662 361.5,718.5C 367.835,719.595 374.335,719.595 381,718.5C 387.627,718.81 394.127,719.81 400.5,721.5C 401.906,720.332 403.072,720.665 404,722.5C 404.789,724.712 404.622,726.712 403.5,728.5C 403.5,726.833 403.5,725.167 403.5,723.5C 379.503,724.242 355.503,724.409 331.5,724C 329.333,722.241 327.666,720.074 326.5,717.5C 327.243,716.818 327.909,716.151 328.5,715.5 Z"/></g>
<g><path style="opacity:1" fill="#d1d2d4" d="M 205.5,711.5 C 205.5,713.833 205.5,716.167 205.5,718.5C 246.497,717.229 287.497,715.896 328.5,714.5C 328.5,714.833 328.5,715.167 328.5,715.5C 327.909,716.151 327.243,716.818 326.5,717.5C 327.666,720.074 329.333,722.241 331.5,724C 355.503,724.409 379.503,724.242 403.5,723.5C 403.5,725.167 403.5,726.833 403.5,728.5C 403.5,728.833 403.5,729.167 403.5,729.5C 394.983,729.174 386.65,729.507 378.5,730.5C 348.324,731.135 318.157,732.135 288,733.5C 283.985,733.499 280.151,733.165 276.5,732.5C 276.5,730.5 276.5,728.5 276.5,726.5C 253.083,725.684 229.75,724.018 206.5,721.5C 205.028,719.883 204.361,717.883 204.5,715.5C 204.511,713.955 204.844,712.622 205.5,711.5 Z"/></g>
<g><path style="opacity:1" fill="#9a9a9d" d="M 206.5,721.5 C 229.75,724.018 253.083,725.684 276.5,726.5C 276.5,728.5 276.5,730.5 276.5,732.5C 261.46,732.078 246.46,731.078 231.5,729.5C 231.119,728.069 230.119,727.236 228.5,727C 221.449,726.789 214.449,726.122 207.5,725C 206.663,723.989 206.33,722.822 206.5,721.5 Z"/></g>
<g><path style="opacity:0.942" fill="#464647" d="M 378.5,730.5 C 386.65,729.507 394.983,729.174 403.5,729.5C 403.423,730.75 402.756,731.583 401.5,732C 398.518,732.498 395.518,732.665 392.5,732.5C 391.127,732.657 389.793,732.49 388.5,732C 389.167,731.667 389.833,731.333 390.5,731C 386.514,730.501 382.514,730.334 378.5,730.5 Z"/></g>
<g><path style="opacity:0.004" fill="#000000" d="M 193.5,731.5 C 195.628,730.371 197.961,730.204 200.5,731C 198.19,731.497 195.857,731.663 193.5,731.5 Z"/></g>
<g><path style="opacity:1" fill="#1d1d1d" d="M 189.5,721.5 C 190.931,722.78 191.598,724.447 191.5,726.5C 204.767,728.207 218.1,729.207 231.5,729.5C 246.46,731.078 261.46,732.078 276.5,732.5C 280.151,733.165 283.985,733.499 288,733.5C 318.157,732.135 348.324,731.135 378.5,730.5C 382.514,730.334 386.514,730.501 390.5,731C 389.833,731.333 389.167,731.667 388.5,732C 389.793,732.49 391.127,732.657 392.5,732.5C 364.957,733.425 337.29,734.425 309.5,735.5C 304.61,735.66 299.777,736.326 295,737.5C 291.947,737.066 288.947,736.4 286,735.5C 283.521,736.245 281.021,736.911 278.5,737.5C 275.53,736.574 272.53,735.908 269.5,735.5C 260.861,733.585 252.027,733.252 243,734.5C 240.287,734.589 237.787,733.922 235.5,732.5C 231.209,733.816 227.043,733.483 223,731.5C 221.769,732.108 220.436,732.441 219,732.5C 209.265,730.675 199.432,729.508 189.5,729C 188.563,726.664 188.563,724.164 189.5,721.5 Z"/></g>
<g><path style="opacity:0.006" fill="#000000" d="M 249.5,735.5 C 251.966,734.366 254.633,734.199 257.5,735C 254.854,735.497 252.187,735.664 249.5,735.5 Z"/></g>
<g><path style="opacity:0.007" fill="#000000" d="M 332.5,735.5 C 337.316,734.35 342.316,734.184 347.5,735C 342.511,735.499 337.511,735.666 332.5,735.5 Z"/></g>
<g><path style="opacity:0.004" fill="#000000" d="M 269.5,735.5 C 267.372,736.629 265.039,736.796 262.5,736C 264.81,735.503 267.143,735.337 269.5,735.5 Z"/></g>
<g><path style="opacity:0.006" fill="#000000" d="M 309.5,735.5 C 314.179,735.334 318.845,735.501 323.5,736C 318.648,736.815 313.981,736.648 309.5,735.5 Z"/></g>
</svg>
