<svg xmlns="http://www.w3.org/2000/svg" xmlns:xlink="http://www.w3.org/1999/xlink" width="1026" zoomAndPan="magnify" viewBox="0 0 769.5 674.249984" height="899" preserveAspectRatio="xMidYMid meet" version="1.0"><defs><clipPath id="6ce5d99ff1"><path d="M 47.75 0 L 721.25 0 L 721.25 673.5 L 47.75 673.5 Z M 47.75 0 " clip-rule="nonzero"/></clipPath></defs><g clip-path="url(#6ce5d99ff1)"><path fill="#000000" d="M 384.5 0 C 198.386719 0 47.75 150.613281 47.75 336.75 C 47.75 522.863281 198.363281 673.5 384.5 673.5 C 570.613281 673.5 721.25 522.890625 721.25 336.75 C 721.25 150.636719 570.640625 0 384.5 0 Z M 384.5 633.882812 C 220.660156 633.882812 87.367188 500.589844 87.367188 336.75 C 87.367188 172.910156 220.660156 39.617188 384.5 39.617188 C 548.339844 39.617188 681.632812 172.910156 681.632812 336.75 C 681.632812 500.589844 548.339844 633.882812 384.5 633.882812 Z M 384.5 633.882812 " fill-opacity="1" fill-rule="nonzero"/></g><path fill="#000000" d="M 562.78125 455.601562 L 361.285156 455.601562 C 353.105469 432.546875 331.089844 415.984375 305.265625 415.984375 C 279.441406 415.984375 257.421875 432.546875 249.246094 455.601562 L 206.21875 455.601562 C 195.28125 455.601562 186.410156 464.472656 186.410156 475.414062 C 186.410156 486.351562 195.28125 495.222656 206.21875 495.222656 L 249.246094 495.222656 C 257.421875 518.277344 279.441406 534.839844 305.265625 534.839844 C 331.089844 534.839844 353.105469 518.277344 361.285156 495.222656 L 562.78125 495.222656 C 573.71875 495.222656 582.589844 486.351562 582.589844 475.414062 C 582.589844 464.472656 573.71875 455.601562 562.78125 455.601562 Z M 562.78125 455.601562 " fill-opacity="1" fill-rule="nonzero"/><path fill="#000000" d="M 562.78125 198.089844 L 361.285156 198.089844 C 353.105469 175.03125 331.089844 158.472656 305.265625 158.472656 C 279.441406 158.472656 257.421875 175.03125 249.246094 198.089844 L 206.21875 198.089844 C 195.28125 198.089844 186.410156 206.957031 186.410156 217.898438 C 186.410156 228.835938 195.28125 237.707031 206.21875 237.707031 L 249.246094 237.707031 C 257.421875 260.761719 279.441406 277.324219 305.265625 277.324219 C 331.089844 277.324219 353.105469 260.761719 361.285156 237.707031 L 562.78125 237.707031 C 573.71875 237.707031 582.589844 228.835938 582.589844 217.898438 C 582.589844 206.957031 573.71875 198.089844 562.78125 198.089844 Z M 562.78125 198.089844 " fill-opacity="1" fill-rule="nonzero"/><path fill="#000000" d="M 562.78125 316.941406 L 519.753906 316.941406 C 511.578125 293.886719 489.558594 277.324219 463.734375 277.324219 C 437.910156 277.324219 415.894531 293.886719 407.714844 316.941406 L 206.21875 316.941406 C 195.28125 316.941406 186.410156 325.8125 186.410156 336.75 C 186.410156 347.691406 195.28125 356.558594 206.21875 356.558594 L 407.714844 356.558594 C 415.894531 379.617188 437.910156 396.175781 463.734375 396.175781 C 489.558594 396.175781 511.578125 379.617188 519.753906 356.558594 L 562.78125 356.558594 C 573.71875 356.558594 582.589844 347.691406 582.589844 336.75 C 582.589844 325.8125 573.71875 316.941406 562.78125 316.941406 Z M 562.78125 316.941406 " fill-opacity="1" fill-rule="nonzero"/></svg>