<svg xmlns="http://www.w3.org/2000/svg" xmlns:xlink="http://www.w3.org/1999/xlink" width="1026" zoomAndPan="magnify" viewBox="0 0 769.5 674.249984" height="899" preserveAspectRatio="xMidYMid meet" version="1.0"><defs><clipPath id="da407b3390"><path d="M 35.082031 0 L 381 0 L 381 288 L 35.082031 288 Z M 35.082031 0 " clip-rule="nonzero"/></clipPath><clipPath id="d5ed64a32a"><path d="M 413 410 L 734 410 L 734 673.5 L 413 673.5 Z M 413 410 " clip-rule="nonzero"/></clipPath><clipPath id="9c91e33b57"><path d="M 183 352 L 447 352 L 447 673.5 L 183 673.5 Z M 183 352 " clip-rule="nonzero"/></clipPath></defs><g clip-path="url(#da407b3390)"><path fill="#000000" d="M 224.769531 275.136719 C 224.769531 275.957031 224.851562 276.765625 225.015625 277.566406 C 225.175781 278.371094 225.414062 279.148438 225.726562 279.90625 C 226.042969 280.660156 226.425781 281.378906 226.882812 282.058594 C 227.335938 282.738281 227.855469 283.367188 228.433594 283.945312 C 229.011719 284.523438 229.640625 285.042969 230.320312 285.496094 C 231 285.953125 231.71875 286.335938 232.476562 286.652344 C 233.230469 286.964844 234.007812 287.203125 234.8125 287.363281 C 235.613281 287.523438 236.425781 287.605469 237.242188 287.609375 L 310.21875 287.609375 C 311.039062 287.605469 311.847656 287.527344 312.652344 287.363281 C 313.453125 287.203125 314.234375 286.964844 314.988281 286.652344 C 315.746094 286.335938 316.460938 285.953125 317.140625 285.496094 C 317.824219 285.042969 318.453125 284.523438 319.03125 283.945312 C 319.609375 283.367188 320.125 282.738281 320.582031 282.058594 C 321.035156 281.378906 321.421875 280.660156 321.734375 279.90625 C 322.050781 279.148438 322.289062 278.371094 322.449219 277.566406 C 322.609375 276.765625 322.691406 275.957031 322.695312 275.136719 L 322.695312 213.523438 C 324.71875 213.164062 326.71875 212.714844 328.703125 212.175781 C 330.6875 211.640625 332.644531 211.019531 334.570312 210.3125 C 336.5 209.605469 338.394531 208.816406 340.253906 207.945312 C 342.117188 207.070312 343.933594 206.121094 345.710938 205.089844 C 347.488281 204.058594 349.21875 202.953125 350.898438 201.773438 C 352.578125 200.589844 354.207031 199.339844 355.777344 198.015625 C 357.351562 196.695312 358.859375 195.304688 360.3125 193.851562 C 361.761719 192.394531 363.148438 190.878906 364.464844 189.304688 C 365.785156 187.730469 367.03125 186.101562 368.207031 184.417969 C 369.382812 182.734375 370.484375 181 371.511719 179.222656 C 372.535156 177.441406 373.484375 175.621094 374.351562 173.757812 C 375.214844 171.894531 376 170 376.703125 168.066406 C 377.402344 166.136719 378.019531 164.179688 378.550781 162.195312 C 379.082031 160.210938 379.523438 158.207031 379.878906 156.183594 C 380.238281 154.160156 380.503906 152.125 380.683594 150.082031 C 380.863281 148.035156 380.949219 145.984375 380.949219 143.929688 C 380.949219 141.875 380.863281 139.824219 380.683594 137.777344 C 380.503906 135.734375 380.238281 133.699219 379.878906 131.675781 C 379.523438 129.652344 379.082031 127.648438 378.550781 125.664062 C 378.019531 123.679688 377.402344 121.722656 376.703125 119.792969 C 376 117.859375 375.214844 115.964844 374.351562 114.101562 C 373.484375 112.238281 372.535156 110.417969 371.511719 108.636719 C 370.484375 106.859375 369.382812 105.125 368.207031 103.441406 C 367.03125 101.757812 365.785156 100.128906 364.464844 98.554688 C 363.148438 96.980469 361.761719 95.464844 360.3125 94.007812 C 358.859375 92.554688 357.351562 91.164062 355.777344 89.84375 C 354.207031 88.519531 352.578125 87.269531 350.898438 86.085938 C 349.21875 84.90625 347.488281 83.800781 345.710938 82.769531 C 343.933594 81.738281 342.117188 80.789062 340.253906 79.914062 C 338.394531 79.042969 336.5 78.253906 334.570312 77.546875 C 332.644531 76.839844 330.6875 76.21875 328.703125 75.683594 C 326.71875 75.144531 324.71875 74.695312 322.695312 74.335938 L 322.695312 12.722656 C 322.699219 11.902344 322.621094 11.089844 322.460938 10.285156 C 322.304688 9.480469 322.070312 8.699219 321.757812 7.941406 C 321.445312 7.183594 321.0625 6.464844 320.605469 5.78125 C 320.152344 5.101562 319.632812 4.46875 319.054688 3.890625 C 318.472656 3.308594 317.84375 2.792969 317.160156 2.335938 C 316.480469 1.882812 315.757812 1.5 315 1.1875 C 314.242188 0.875 313.460938 0.640625 312.65625 0.480469 C 311.851562 0.324219 311.039062 0.246094 310.21875 0.25 L 90.164062 0.25 C 88.367188 0.25 86.574219 0.335938 84.785156 0.515625 C 82.996094 0.691406 81.21875 0.953125 79.457031 1.304688 C 77.695312 1.65625 75.953125 2.089844 74.234375 2.613281 C 72.511719 3.132812 70.820312 3.738281 69.160156 4.425781 C 67.5 5.113281 65.875 5.882812 64.292969 6.730469 C 62.707031 7.578125 61.167969 8.5 59.671875 9.5 C 58.175781 10.496094 56.734375 11.566406 55.34375 12.707031 C 53.957031 13.847656 52.625 15.050781 51.355469 16.324219 C 50.082031 17.59375 48.875 18.925781 47.738281 20.3125 C 46.597656 21.703125 45.527344 23.144531 44.527344 24.640625 C 43.527344 26.132812 42.605469 27.671875 41.757812 29.257812 C 40.910156 30.84375 40.144531 32.464844 39.457031 34.125 C 38.765625 35.785156 38.164062 37.476562 37.640625 39.195312 C 37.117188 40.917969 36.683594 42.660156 36.332031 44.421875 C 35.980469 46.183594 35.71875 47.960938 35.542969 49.75 C 35.363281 51.535156 35.277344 53.328125 35.277344 55.128906 L 35.277344 275.136719 C 35.28125 275.957031 35.359375 276.765625 35.523438 277.566406 C 35.683594 278.371094 35.921875 279.148438 36.238281 279.90625 C 36.550781 280.660156 36.933594 281.378906 37.390625 282.058594 C 37.847656 282.738281 38.363281 283.367188 38.941406 283.945312 C 39.519531 284.523438 40.148438 285.042969 40.828125 285.496094 C 41.511719 285.953125 42.226562 286.335938 42.984375 286.648438 C 43.738281 286.964844 44.519531 287.203125 45.320312 287.363281 C 46.121094 287.523438 46.933594 287.605469 47.75 287.609375 L 120.730469 287.609375 C 121.546875 287.605469 122.359375 287.527344 123.160156 287.363281 C 123.960938 287.203125 124.742188 286.964844 125.496094 286.652344 C 126.253906 286.335938 126.972656 285.953125 127.652344 285.496094 C 128.332031 285.042969 128.960938 284.523438 129.539062 283.945312 C 130.117188 283.367188 130.636719 282.738281 131.089844 282.058594 C 131.546875 281.378906 131.929688 280.660156 132.246094 279.90625 C 132.558594 279.148438 132.796875 278.371094 132.957031 277.566406 C 133.121094 276.765625 133.203125 275.957031 133.203125 275.136719 C 133.222656 273.648438 133.3125 272.164062 133.472656 270.6875 C 133.636719 269.207031 133.867188 267.738281 134.175781 266.285156 C 134.480469 264.828125 134.855469 263.386719 135.300781 261.96875 C 135.746094 260.550781 136.257812 259.152344 136.839844 257.785156 C 137.421875 256.414062 138.070312 255.078125 138.78125 253.769531 C 139.492188 252.464844 140.265625 251.195312 141.101562 249.964844 C 141.9375 248.730469 142.832031 247.542969 143.785156 246.398438 C 144.738281 245.257812 145.742188 244.160156 146.800781 243.113281 C 147.859375 242.070312 148.964844 241.078125 150.121094 240.136719 C 151.277344 239.199219 152.476562 238.320312 153.714844 237.5 C 154.957031 236.679688 156.234375 235.917969 157.550781 235.222656 C 158.867188 234.527344 160.210938 233.894531 161.589844 233.328125 C 162.964844 232.765625 164.367188 232.265625 165.792969 231.839844 C 167.214844 231.410156 168.660156 231.050781 170.121094 230.761719 C 171.578125 230.472656 173.050781 230.257812 174.53125 230.113281 C 176.011719 229.96875 177.496094 229.894531 178.984375 229.894531 C 180.472656 229.894531 181.960938 229.96875 183.441406 230.113281 C 184.921875 230.257812 186.390625 230.472656 187.851562 230.761719 C 189.3125 231.050781 190.753906 231.410156 192.179688 231.839844 C 193.605469 232.265625 195.007812 232.765625 196.382812 233.328125 C 197.761719 233.894531 199.105469 234.527344 200.421875 235.222656 C 201.738281 235.917969 203.015625 236.679688 204.257812 237.5 C 205.496094 238.320312 206.695312 239.199219 207.851562 240.136719 C 209.007812 241.078125 210.113281 242.070312 211.171875 243.113281 C 212.230469 244.160156 213.234375 245.257812 214.1875 246.398438 C 215.140625 247.542969 216.03125 248.730469 216.867188 249.964844 C 217.703125 251.195312 218.476562 252.464844 219.191406 253.769531 C 219.902344 255.078125 220.550781 256.414062 221.132812 257.785156 C 221.710938 259.152344 222.226562 260.550781 222.671875 261.96875 C 223.117188 263.386719 223.492188 264.828125 223.796875 266.285156 C 224.101562 267.738281 224.335938 269.207031 224.5 270.6875 C 224.660156 272.164062 224.75 273.648438 224.769531 275.136719 Z M 224.769531 275.136719 " fill-opacity="1" fill-rule="nonzero"/></g><path fill="#000000" d="M 678.972656 131.457031 L 471.394531 131.457031 C 471.417969 146.894531 471.378906 189.488281 471.394531 205.542969 C 548.324219 219.671875 548.214844 330.574219 471.390625 344.734375 L 471.394531 385.890625 L 531.894531 385.890625 C 532.714844 385.894531 533.523438 385.976562 534.328125 386.136719 C 535.128906 386.296875 535.910156 386.535156 536.664062 386.851562 C 537.421875 387.164062 538.136719 387.550781 538.816406 388.003906 C 539.5 388.460938 540.128906 388.976562 540.707031 389.554688 C 541.285156 390.132812 541.800781 390.761719 542.257812 391.441406 C 542.710938 392.121094 543.097656 392.839844 543.410156 393.597656 C 543.726562 394.351562 543.964844 395.128906 544.125 395.933594 C 544.285156 396.734375 544.367188 397.542969 544.371094 398.363281 C 544.386719 399.851562 544.476562 401.335938 544.640625 402.8125 C 544.800781 404.292969 545.035156 405.761719 545.339844 407.21875 C 545.648438 408.671875 546.023438 410.113281 546.46875 411.53125 C 546.914062 412.953125 547.425781 414.347656 548.007812 415.714844 C 548.589844 417.085938 549.238281 418.421875 549.949219 419.730469 C 550.660156 421.039062 551.433594 422.304688 552.269531 423.539062 C 553.105469 424.769531 554 425.957031 554.953125 427.101562 C 555.902344 428.246094 556.910156 429.339844 557.96875 430.386719 C 559.027344 431.429688 560.132812 432.421875 561.289062 433.363281 C 562.445312 434.300781 563.640625 435.179688 564.882812 436 C 566.125 436.820312 567.402344 437.582031 568.71875 438.277344 C 570.03125 438.972656 571.378906 439.605469 572.753906 440.171875 C 574.132812 440.734375 575.535156 441.234375 576.957031 441.660156 C 578.382812 442.089844 579.828125 442.449219 581.285156 442.738281 C 582.746094 443.027344 584.21875 443.242188 585.699219 443.386719 C 587.179688 443.53125 588.664062 443.605469 590.152344 443.605469 C 591.640625 443.605469 593.125 443.53125 594.609375 443.386719 C 596.089844 443.242188 597.558594 443.027344 599.019531 442.738281 C 600.480469 442.449219 601.921875 442.089844 603.347656 441.660156 C 604.773438 441.234375 606.175781 440.734375 607.550781 440.171875 C 608.929688 439.605469 610.273438 438.972656 611.589844 438.277344 C 612.90625 437.582031 614.183594 436.820312 615.421875 436 C 616.664062 435.179688 617.863281 434.300781 619.019531 433.359375 C 620.171875 432.421875 621.28125 431.429688 622.339844 430.382812 C 623.398438 429.339844 624.402344 428.242188 625.355469 427.097656 C 626.304688 425.957031 627.199219 424.765625 628.035156 423.535156 C 628.871094 422.304688 629.644531 421.035156 630.359375 419.730469 C 631.070312 418.421875 631.71875 417.085938 632.296875 415.714844 C 632.878906 414.34375 633.394531 412.949219 633.839844 411.53125 C 634.285156 410.109375 634.660156 408.671875 634.964844 407.214844 C 635.269531 405.757812 635.503906 404.292969 635.667969 402.8125 C 635.828125 401.332031 635.917969 399.851562 635.9375 398.363281 C 635.9375 397.542969 636.019531 396.734375 636.179688 395.929688 C 636.34375 395.128906 636.582031 394.351562 636.894531 393.59375 C 637.210938 392.839844 637.59375 392.121094 638.050781 391.441406 C 638.503906 390.761719 639.023438 390.132812 639.601562 389.554688 C 640.179688 388.976562 640.808594 388.457031 641.488281 388.003906 C 642.167969 387.546875 642.886719 387.164062 643.640625 386.851562 C 644.398438 386.535156 645.175781 386.296875 645.980469 386.136719 C 646.78125 385.976562 647.59375 385.894531 648.410156 385.890625 C 665.371094 385.867188 717.59375 385.910156 733.863281 385.890625 L 733.863281 186.335938 C 733.863281 184.539062 733.773438 182.746094 733.597656 180.957031 C 733.421875 179.167969 733.160156 177.390625 732.808594 175.628906 C 732.457031 173.867188 732.019531 172.125 731.5 170.40625 C 730.976562 168.683594 730.371094 166.996094 729.683594 165.335938 C 728.996094 163.675781 728.226562 162.050781 727.382812 160.464844 C 726.535156 158.882812 725.609375 157.339844 724.613281 155.847656 C 723.613281 154.351562 722.542969 152.910156 721.402344 151.519531 C 720.261719 150.132812 719.058594 148.800781 717.785156 147.53125 C 716.515625 146.261719 715.183594 145.054688 713.792969 143.914062 C 712.40625 142.773438 710.960938 141.703125 709.46875 140.707031 C 707.972656 139.707031 706.433594 138.785156 704.847656 137.9375 C 703.261719 137.089844 701.640625 136.324219 699.980469 135.636719 C 698.316406 134.945312 696.628906 134.34375 694.90625 133.820312 C 693.1875 133.300781 691.445312 132.863281 689.683594 132.511719 C 687.917969 132.160156 686.144531 131.898438 684.355469 131.722656 C 682.566406 131.546875 680.769531 131.457031 678.972656 131.457031 Z M 678.972656 131.457031 " fill-opacity="1" fill-rule="nonzero"/><g clip-path="url(#d5ed64a32a)"><path fill="#000000" d="M 659.761719 410.835938 C 645.558594 487.75 534.625 487.636719 520.542969 410.832031 L 471.394531 410.835938 L 471.394531 471.324219 C 471.398438 472.144531 471.320312 472.957031 471.160156 473.761719 C 471.003906 474.566406 470.769531 475.347656 470.457031 476.105469 C 470.144531 476.863281 469.761719 477.582031 469.304688 478.265625 C 468.851562 478.945312 468.332031 479.578125 467.753906 480.15625 C 467.171875 480.738281 466.542969 481.253906 465.859375 481.710938 C 465.179688 482.164062 464.457031 482.546875 463.699219 482.859375 C 462.941406 483.171875 462.160156 483.40625 461.355469 483.566406 C 460.550781 483.722656 459.738281 483.800781 458.917969 483.796875 C 398.59375 485.328125 398.496094 573.863281 458.921875 575.34375 C 459.738281 575.347656 460.550781 575.429688 461.351562 575.589844 C 462.152344 575.75 462.933594 575.988281 463.6875 576.304688 C 464.445312 576.617188 465.160156 577.003906 465.84375 577.457031 C 466.523438 577.914062 467.152344 578.429688 467.730469 579.007812 C 468.308594 579.585938 468.824219 580.214844 469.28125 580.894531 C 469.734375 581.578125 470.121094 582.292969 470.433594 583.050781 C 470.75 583.804688 470.988281 584.582031 471.148438 585.386719 C 471.308594 586.1875 471.390625 587 471.394531 587.816406 C 471.429688 604.71875 471.367188 657.023438 471.394531 673.25 L 678.972656 673.25 C 680.769531 673.25 682.566406 673.164062 684.355469 672.988281 C 686.144531 672.8125 687.917969 672.546875 689.683594 672.195312 C 691.445312 671.847656 693.1875 671.410156 694.90625 670.886719 C 696.628906 670.367188 698.316406 669.761719 699.980469 669.074219 C 701.640625 668.386719 703.261719 667.617188 704.847656 666.769531 C 706.433594 665.925781 707.972656 665 709.46875 664.003906 C 710.964844 663.003906 712.40625 661.933594 713.792969 660.792969 C 715.183594 659.65625 716.515625 658.449219 717.785156 657.179688 C 719.058594 655.90625 720.261719 654.578125 721.402344 653.1875 C 722.542969 651.796875 723.613281 650.355469 724.613281 648.863281 C 725.609375 647.367188 726.535156 645.828125 727.382812 644.242188 C 728.230469 642.65625 728.996094 641.035156 729.683594 639.375 C 730.371094 637.714844 730.976562 636.023438 731.5 634.304688 C 732.019531 632.582031 732.457031 630.84375 732.808594 629.078125 C 733.160156 627.316406 733.421875 625.539062 733.597656 623.753906 C 733.773438 621.964844 733.863281 620.171875 733.863281 618.375 L 733.863281 410.835938 Z M 659.761719 410.835938 " fill-opacity="1" fill-rule="nonzero"/></g><g clip-path="url(#9c91e33b57)"><path fill="#000000" d="M 388.1875 529.570312 C 388.191406 527.519531 388.289062 525.46875 388.472656 523.425781 C 388.65625 521.378906 388.925781 519.347656 389.289062 517.328125 C 389.648438 515.304688 390.09375 513.304688 390.628906 511.324219 C 391.164062 509.339844 391.78125 507.386719 392.484375 505.457031 C 393.1875 503.527344 393.976562 501.632812 394.84375 499.773438 C 395.710938 497.914062 396.660156 496.09375 397.683594 494.316406 C 398.710938 492.539062 399.8125 490.808594 400.988281 489.125 C 402.164062 487.445312 403.410156 485.816406 404.730469 484.242188 C 406.046875 482.667969 407.429688 481.152344 408.878906 479.699219 C 410.328125 478.246094 411.839844 476.855469 413.40625 475.535156 C 414.976562 474.210938 416.601562 472.957031 418.28125 471.777344 C 419.957031 470.59375 421.683594 469.484375 423.460938 468.453125 C 425.234375 467.421875 427.050781 466.46875 428.90625 465.59375 C 430.765625 464.71875 432.65625 463.925781 434.582031 463.214844 C 436.507812 462.503906 438.464844 461.878906 440.445312 461.339844 C 442.425781 460.796875 444.425781 460.34375 446.445312 459.976562 L 446.445312 410.835938 L 385.816406 410.835938 C 385 410.832031 384.1875 410.75 383.386719 410.589844 C 382.582031 410.429688 381.804688 410.191406 381.050781 409.875 C 380.292969 409.5625 379.574219 409.175781 378.894531 408.722656 C 378.214844 408.265625 377.585938 407.75 377.007812 407.171875 C 376.429688 406.59375 375.910156 405.964844 375.457031 405.285156 C 375 404.605469 374.617188 403.886719 374.300781 403.128906 C 373.988281 402.375 373.75 401.597656 373.589844 400.792969 C 373.425781 399.992188 373.34375 399.179688 373.34375 398.363281 C 373.34375 396.867188 373.269531 395.371094 373.121094 393.882812 C 372.976562 392.394531 372.757812 390.914062 372.464844 389.445312 C 372.171875 387.976562 371.808594 386.527344 371.375 385.09375 C 370.9375 383.660156 370.433594 382.253906 369.863281 380.871094 C 369.289062 379.488281 368.648438 378.136719 367.945312 376.816406 C 367.238281 375.496094 366.46875 374.210938 365.636719 372.96875 C 364.804688 371.722656 363.914062 370.523438 362.964844 369.363281 C 362.015625 368.207031 361.011719 367.097656 359.953125 366.039062 C 358.894531 364.980469 357.785156 363.976562 356.628906 363.027344 C 355.46875 362.078125 354.269531 361.1875 353.023438 360.355469 C 351.777344 359.523438 350.496094 358.753906 349.175781 358.050781 C 347.855469 357.34375 346.503906 356.703125 345.117188 356.132812 C 343.734375 355.558594 342.328125 355.054688 340.894531 354.621094 C 339.460938 354.1875 338.011719 353.824219 336.542969 353.53125 C 335.074219 353.238281 333.59375 353.019531 332.105469 352.871094 C 330.613281 352.726562 329.121094 352.652344 327.621094 352.652344 C 326.125 352.652344 324.632812 352.726562 323.140625 352.871094 C 321.652344 353.019531 320.171875 353.238281 318.703125 353.53125 C 317.234375 353.824219 315.785156 354.1875 314.351562 354.621094 C 312.917969 355.054688 311.507812 355.558594 310.125 356.132812 C 308.742188 356.703125 307.390625 357.34375 306.070312 358.050781 C 304.75 358.753906 303.46875 359.523438 302.222656 360.355469 C 300.976562 361.1875 299.777344 362.078125 298.617188 363.027344 C 297.460938 363.976562 296.351562 364.980469 295.292969 366.039062 C 294.234375 367.097656 293.230469 368.207031 292.28125 369.363281 C 291.332031 370.523438 290.441406 371.722656 289.609375 372.96875 C 288.777344 374.210938 288.007812 375.496094 287.300781 376.816406 C 286.59375 378.136719 285.957031 379.488281 285.382812 380.871094 C 284.808594 382.253906 284.304688 383.660156 283.871094 385.09375 C 283.4375 386.527344 283.074219 387.976562 282.78125 389.445312 C 282.488281 390.914062 282.269531 392.394531 282.121094 393.882812 C 281.976562 395.371094 281.902344 396.867188 281.902344 398.363281 C 281.898438 399.179688 281.816406 399.992188 281.65625 400.792969 C 281.496094 401.597656 281.257812 402.375 280.941406 403.128906 C 280.628906 403.886719 280.242188 404.605469 279.789062 405.285156 C 279.332031 405.964844 278.816406 406.59375 278.238281 407.171875 C 277.660156 407.75 277.03125 408.265625 276.351562 408.722656 C 275.667969 409.175781 274.953125 409.5625 274.195312 409.875 C 273.441406 410.191406 272.660156 410.429688 271.859375 410.589844 C 271.054688 410.75 270.246094 410.832031 269.429688 410.835938 C 252.460938 410.863281 200.125 410.816406 183.851562 410.835938 L 183.851562 618.375 C 183.855469 620.171875 183.945312 621.96875 184.125 623.757812 C 184.304688 625.546875 184.574219 627.324219 184.925781 629.085938 C 185.28125 630.851562 185.71875 632.59375 186.246094 634.3125 C 186.769531 636.035156 187.378906 637.726562 188.070312 639.386719 C 188.761719 641.046875 189.53125 642.671875 190.382812 644.253906 C 191.234375 645.839844 192.160156 647.382812 193.160156 648.875 C 194.164062 650.371094 195.234375 651.8125 196.378906 653.199219 C 197.519531 654.589844 198.730469 655.921875 200.003906 657.191406 C 201.277344 658.460938 202.609375 659.667969 204.003906 660.804688 C 205.394531 661.945312 206.839844 663.015625 208.335938 664.011719 C 209.832031 665.011719 211.375 665.933594 212.960938 666.78125 C 214.550781 667.625 216.175781 668.394531 217.839844 669.082031 C 219.5 669.769531 221.195312 670.371094 222.914062 670.894531 C 224.636719 671.414062 226.382812 671.851562 228.144531 672.199219 C 229.910156 672.550781 231.6875 672.8125 233.480469 672.988281 C 235.269531 673.164062 237.066406 673.25 238.863281 673.25 L 446.445312 673.25 C 446.421875 657.824219 446.460938 615.214844 446.445312 599.167969 C 444.421875 598.804688 442.421875 598.351562 440.4375 597.816406 C 438.453125 597.277344 436.5 596.65625 434.570312 595.949219 C 432.640625 595.242188 430.746094 594.453125 428.886719 593.578125 C 427.027344 592.707031 425.210938 591.753906 423.433594 590.722656 C 421.65625 589.695312 419.925781 588.585938 418.246094 587.40625 C 416.566406 586.226562 414.941406 584.972656 413.367188 583.648438 C 411.796875 582.328125 410.285156 580.9375 408.835938 579.484375 C 407.386719 578.027344 406 576.515625 404.683594 574.9375 C 403.363281 573.363281 402.117188 571.734375 400.941406 570.050781 C 399.765625 568.367188 398.664062 566.636719 397.636719 564.855469 C 396.613281 563.078125 395.664062 561.253906 394.796875 559.394531 C 393.929688 557.53125 393.148438 555.636719 392.445312 553.707031 C 391.742188 551.773438 391.125 549.816406 390.59375 547.832031 C 390.0625 545.851562 389.621094 543.847656 389.261719 541.824219 C 388.90625 539.800781 388.636719 537.765625 388.457031 535.722656 C 388.277344 533.675781 388.1875 531.625 388.1875 529.570312 Z M 388.1875 529.570312 " fill-opacity="1" fill-rule="nonzero"/></g></svg>