<svg xmlns="http://www.w3.org/2000/svg" xmlns:xlink="http://www.w3.org/1999/xlink" width="1026" zoomAndPan="magnify" viewBox="0 0 769.5 674.249984" height="899" preserveAspectRatio="xMidYMid meet" version="1.0"><defs><clipPath id="8f67eb5a36"><path d="M 47.75 0 L 721.25 0 L 721.25 673.5 L 47.75 673.5 Z M 47.75 0 " clip-rule="nonzero"/></clipPath></defs><g clip-path="url(#8f67eb5a36)"><path fill="#000000" d="M 700.691406 221.191406 C 713.984375 257.171875 721.074219 296.164062 721.074219 336.75 C 721.074219 522.671875 570.421875 673.324219 384.5 673.324219 C 306.339844 673.324219 234.378906 646.738281 177.308594 602.074219 L 142.75 632.027344 C 139.734375 634.6875 135.835938 635.394531 132.113281 633.976562 C 128.214844 632.558594 125.910156 629.367188 125.378906 625.292969 L 111.734375 502.46875 C 111.199219 498.921875 112.617188 495.554688 115.453125 493.25 C 118.289062 490.945312 121.835938 490.238281 125.203125 491.300781 L 238.988281 527.101562 C 242.710938 528.34375 245.191406 531.179688 246.078125 535.078125 C 246.785156 538.800781 245.546875 542.523438 242.710938 545.179688 L 212.582031 571.414062 C 260.613281 606.683594 320.164062 627.597656 384.5 627.597656 C 545.078125 627.597656 675.347656 497.328125 675.347656 336.75 C 675.347656 304.140625 670.027344 272.769531 660.105469 243.523438 C 658.6875 239.09375 660.105469 234.484375 663.824219 231.648438 L 684.5625 216.40625 C 687.398438 214.28125 690.589844 213.746094 693.957031 214.8125 C 697.144531 215.699219 699.628906 218 700.691406 221.191406 Z M 384.5 238.914062 C 438.378906 238.914062 482.15625 282.691406 482.15625 336.75 C 482.15625 390.628906 438.378906 434.40625 384.5 434.40625 C 330.441406 434.40625 286.664062 390.628906 286.664062 336.75 C 286.664062 282.691406 330.441406 238.914062 384.5 238.914062 Z M 440.507812 158.273438 C 450.964844 161.640625 461.242188 165.894531 470.992188 170.855469 C 474.003906 172.453125 475.601562 175.820312 474.890625 179.1875 C 470.816406 197.265625 475.953125 216.9375 489.957031 231.117188 C 504.136719 245.296875 523.808594 250.257812 541.886719 246.359375 C 545.253906 245.472656 548.621094 247.070312 550.21875 250.082031 C 555.179688 259.828125 559.433594 270.109375 562.800781 280.742188 C 563.863281 283.933594 562.625 287.300781 559.789062 289.25 C 544.011719 299.175781 533.734375 316.722656 533.734375 336.75 C 533.734375 356.601562 544.011719 374.148438 559.789062 384.074219 C 562.625 386.023438 563.863281 389.390625 562.800781 392.757812 C 559.433594 403.214844 555.179688 413.492188 550.21875 423.242188 C 548.621094 426.253906 545.253906 427.851562 541.886719 427.140625 C 523.808594 423.066406 504.136719 428.203125 489.957031 442.207031 C 475.953125 456.386719 470.816406 476.058594 474.890625 494.136719 C 475.601562 497.503906 474.003906 500.871094 470.992188 502.46875 C 461.242188 507.429688 450.964844 511.683594 440.507812 515.050781 C 437.140625 516.113281 433.773438 514.875 431.824219 512.039062 C 421.898438 496.265625 404.351562 485.984375 384.5 485.984375 C 364.472656 485.984375 346.925781 496.265625 337 512.039062 C 335.050781 514.875 331.683594 516.113281 328.492188 515.050781 C 317.859375 511.683594 307.578125 507.429688 297.832031 502.46875 C 294.816406 500.871094 293.222656 497.503906 294.109375 494.136719 C 298.007812 476.058594 293.046875 456.386719 278.867188 442.207031 C 264.6875 428.203125 245.015625 423.066406 226.9375 427.140625 C 223.570312 427.851562 220.203125 426.253906 218.605469 423.242188 C 213.644531 413.492188 209.390625 403.214844 206.023438 392.757812 C 204.960938 389.390625 206.199219 386.023438 209.210938 384.074219 C 224.808594 374.148438 235.089844 356.601562 235.089844 336.75 C 235.089844 316.722656 224.808594 299.175781 209.210938 289.25 C 206.199219 287.300781 204.960938 283.933594 206.023438 280.742188 C 209.390625 270.109375 213.644531 259.828125 218.605469 250.082031 C 220.203125 247.070312 223.570312 245.472656 226.9375 246.359375 C 245.015625 250.257812 264.6875 245.296875 278.867188 231.117188 C 293.046875 216.9375 298.007812 197.265625 294.109375 179.1875 C 293.222656 175.820312 294.816406 172.453125 297.832031 170.855469 C 307.578125 165.894531 317.859375 161.640625 328.492188 158.273438 C 331.683594 157.210938 335.050781 158.449219 337 161.464844 C 346.925781 177.058594 364.472656 187.339844 384.5 187.339844 C 404.351562 187.339844 421.898438 177.058594 431.824219 161.464844 C 433.773438 158.449219 437.140625 157.210938 440.507812 158.273438 Z M 384.5 0 C 462.484375 0 534.441406 26.585938 591.511719 71.25 L 626.074219 41.296875 C 629.085938 38.636719 632.988281 37.929688 636.886719 39.347656 C 640.609375 40.765625 642.910156 43.953125 643.445312 48.03125 L 657.089844 170.855469 C 657.621094 174.402344 656.203125 177.769531 653.367188 180.074219 C 650.53125 182.375 646.988281 183.085938 643.621094 182.023438 L 529.835938 146.21875 C 526.113281 144.980469 523.632812 142.144531 522.746094 138.246094 C 522.035156 134.523438 523.277344 130.800781 526.113281 128.140625 L 556.242188 101.910156 C 508.210938 66.640625 448.660156 45.726562 384.5 45.726562 C 223.746094 45.726562 93.476562 175.996094 93.476562 336.75 C 93.476562 369.183594 98.792969 400.554688 108.71875 429.800781 C 110.316406 434.230469 108.71875 438.839844 104.996094 441.675781 L 84.261719 456.917969 C 81.425781 459.042969 78.234375 459.574219 74.867188 458.511719 C 71.675781 457.625 69.195312 455.320312 68.132812 452.132812 C 55.015625 416.152344 47.75 377.160156 47.75 336.75 C 47.75 150.652344 198.402344 0 384.5 0 Z M 384.5 0 " fill-opacity="1" fill-rule="evenodd"/></g></svg>