<svg xmlns="http://www.w3.org/2000/svg" width="1026" viewBox="0 0 769.5 674.25" height="899" version="1.0"><defs><clipPath id="A"><path d="M412.559 534.016H537.07v90.777H412.56zm0 0"/></clipPath><clipPath id="a"><path d="M95.824 173.035h298.324v431.766H95.824zm0 0"/></clipPath><clipPath id="Y"><path d="M640.02 320.563h23.976v23.972H640.02zm0 0"/></clipPath><clipPath id="d"><path d="M404.688 36.422h268.488v264.113H404.687zm0 0"/></clipPath><clipPath id="e"><path d="M415.926 36.422h246.012c6.207 0 11.238 5.031 11.238 11.238v241.637c0 6.207-5.031 11.238-11.239 11.238H415.927c-6.207 0-11.238-5.031-11.238-11.238V47.66c0-6.207 5.03-11.238 11.238-11.238zm0 0"/></clipPath><clipPath id="X"><path d="M640.02 43.773h23.976v23.973H640.02zm0 0"/></clipPath><clipPath id="g"><path d="M404.688 493.582h268.488v143.496H404.687zm0 0"/></clipPath><clipPath id="h"><path d="M415.926 493.582h246.012a11.238 11.238 0 0 1 11.238 11.238v121.02c0 2.98-1.184 5.84-3.293 7.945a11.225 11.225 0 0 1-7.946 3.293H415.927a11.238 11.238 0 0 1-11.238-11.238V504.82c0-2.98 1.183-5.84 3.289-7.949a11.254 11.254 0 0 1 7.949-3.289zm0 0"/></clipPath><clipPath id="W"><path d="M358.871 179.543h23.973v23.973H358.87zm0 0"/></clipPath><clipPath id="j"><path d="M106.984 244.016h276.008v158.21H106.984zm0 0"/></clipPath><clipPath id="k"><path d="M114.477 244.016H375.5a7.493 7.493 0 0 1 7.492 7.492v143.226c0 1.989-.789 3.895-2.195 5.301a7.499 7.499 0 0 1-5.297 2.192H114.477a7.492 7.492 0 0 1-7.493-7.493V251.508a7.493 7.493 0 0 1 7.493-7.492zm0 0"/></clipPath><clipPath id="l"><path d="M107.094 412.992h131.238v181.25H107.094zm0 0"/></clipPath><clipPath id="m"><path d="M114.586 412.992H230.84a7.492 7.492 0 0 1 7.492 7.492V586.75a7.492 7.492 0 0 1-7.492 7.492H114.586c-1.988 0-3.89-.789-5.297-2.195a7.48 7.48 0 0 1-2.195-5.297V420.484a7.48 7.48 0 0 1 2.195-5.296 7.486 7.486 0 0 1 5.297-2.196zm0 0"/></clipPath><clipPath id="n"><path d="M251.086 412.992h132.016v181.25H251.086zm0 0"/></clipPath><clipPath id="o"><path d="M258.578 412.992H375.61a7.48 7.48 0 0 1 5.297 2.195 7.48 7.48 0 0 1 2.196 5.297V586.75a7.48 7.48 0 0 1-2.196 5.297 7.48 7.48 0 0 1-5.297 2.195H258.58a7.493 7.493 0 0 1-7.493-7.492V420.484a7.495 7.495 0 0 1 7.492-7.492zm0 0"/></clipPath><clipPath id="p"><path d="M414.82 96.488h250.805v95.145H414.82zm0 0"/></clipPath><clipPath id="q"><path d="M422.313 96.488h235.82a7.48 7.48 0 0 1 5.297 2.196 7.48 7.48 0 0 1 2.195 5.296v80.165a7.493 7.493 0 0 1-7.492 7.488h-235.82a7.493 7.493 0 0 1-7.492-7.488V103.98a7.48 7.48 0 0 1 2.195-5.296 7.486 7.486 0 0 1 5.296-2.196zm0 0"/></clipPath><clipPath id="r"><path d="M414.82 200.988h250.805v88.871H414.82zm0 0"/></clipPath><clipPath id="s"><path d="M422.313 200.988h235.82a7.48 7.48 0 0 1 5.297 2.196 7.48 7.48 0 0 1 2.195 5.296v73.887a7.48 7.48 0 0 1-2.195 5.297 7.48 7.48 0 0 1-5.297 2.195h-235.82c-1.989 0-3.891-.789-5.297-2.195a7.48 7.48 0 0 1-2.196-5.297V208.48a7.48 7.48 0 0 1 2.196-5.296 7.486 7.486 0 0 1 5.296-2.196zm0 0"/></clipPath><clipPath id="t"><path d="M404.688 311.89h268.488v172.337H404.687zm0 0"/></clipPath><clipPath id="u"><path d="M415.926 311.89h246.012c2.98 0 5.84 1.184 7.945 3.294a11.225 11.225 0 0 1 3.293 7.945v149.86a11.238 11.238 0 0 1-11.238 11.238H415.925c-2.98 0-5.84-1.184-7.95-3.29a11.254 11.254 0 0 1-3.288-7.949v-149.86a11.238 11.238 0 0 1 11.238-11.237zm0 0"/></clipPath><clipPath id="V"><path d="m267.57 428.531 3.282 5.742c.539.942.535 2.098-.012 3.04a3.041 3.041 0 0 1-2.63 1.515h-6.48a3.043 3.043 0 0 1-2.632-1.515 3.058 3.058 0 0 1-.012-3.04l3.281-5.742a2.998 2.998 0 0 1 5.203 0zm0 0"/></clipPath><clipPath id="w"><path d="M414.82 350.754h123.14V468.5H414.82zm0 0"/></clipPath><clipPath id="x"><path d="M422.313 350.754h108.156a7.492 7.492 0 0 1 7.492 7.488v102.766c0 1.988-.79 3.89-2.195 5.297a7.48 7.48 0 0 1-5.297 2.195H422.312c-1.988 0-3.89-.79-5.296-2.195a7.486 7.486 0 0 1-2.196-5.297V358.242a7.493 7.493 0 0 1 7.493-7.488zm0 0"/></clipPath><clipPath id="y"><path d="M541.113 544.93h124.512v79.863H541.113zm0 0"/></clipPath><clipPath id="z"><path d="M548.605 544.93h109.528a7.48 7.48 0 0 1 5.297 2.195 7.48 7.48 0 0 1 2.195 5.297V617.3c0 1.988-.79 3.89-2.195 5.297a7.48 7.48 0 0 1-5.297 2.195H548.605a7.495 7.495 0 0 1-5.3-2.195 7.499 7.499 0 0 1-2.192-5.297v-64.88a7.492 7.492 0 0 1 7.492-7.491zm0 0"/></clipPath><clipPath id="b"><path d="M107.063 173.035h275.851c6.203 0 11.234 5.031 11.234 11.238v409.29c0 6.207-5.03 11.238-11.234 11.238H107.063c-6.208 0-11.239-5.031-11.239-11.239V184.274c0-6.207 5.031-11.238 11.239-11.238zm0 0"/></clipPath><clipPath id="B"><path d="M420.05 534.016h109.528a7.492 7.492 0 0 1 7.492 7.492V617.3c0 1.988-.789 3.89-2.191 5.297a7.495 7.495 0 0 1-5.3 2.195H420.05a7.48 7.48 0 0 1-5.297-2.195 7.486 7.486 0 0 1-2.195-5.297v-75.793a7.48 7.48 0 0 1 2.195-5.297 7.48 7.48 0 0 1 5.297-2.195zm0 0"/></clipPath><clipPath id="C"><path d="M541.113 394.836H664.25V468.5H541.113zm0 0"/></clipPath><clipPath id="D"><path d="M548.605 394.836h108.157c1.984 0 3.89.789 5.297 2.191a7.508 7.508 0 0 1 2.191 5.301v58.68c0 1.988-.79 3.89-2.191 5.297a7.493 7.493 0 0 1-5.297 2.195H548.605a7.495 7.495 0 0 1-5.3-2.195 7.499 7.499 0 0 1-2.192-5.297v-58.68c0-1.988.79-3.894 2.192-5.3a7.508 7.508 0 0 1 5.3-2.192zm0 0"/></clipPath><clipPath id="E"><path d="M113.828 423.98H128v12.852h-14.172zm0 0"/></clipPath><clipPath id="F"><path d="m123.16 435.523 4.367-7.64c.461-.809.457-1.801-.007-2.606a2.61 2.61 0 0 0-2.258-1.297h-8.664a2.6 2.6 0 0 0-2.254 1.297 2.599 2.599 0 0 0-.008 2.606l4.363 7.64a2.566 2.566 0 0 0 2.23 1.293c.923 0 1.774-.492 2.231-1.293zm0 0"/></clipPath><clipPath id="G"><path d="M113.828 250.676H128v12.855h-14.172zm0 0"/></clipPath><clipPath id="H"><path d="m123.16 262.223 4.367-7.641c.461-.809.457-1.8-.007-2.605a2.614 2.614 0 0 0-2.258-1.301h-8.664c-.93 0-1.79.496-2.254 1.3a2.599 2.599 0 0 0-.008 2.606l4.363 7.64a2.566 2.566 0 0 0 2.23 1.294c.923 0 1.774-.493 2.231-1.293zm0 0"/></clipPath><clipPath id="I"><path d="M418.371 102.3h12.86v11.829h-12.86zm0 0"/></clipPath><clipPath id="J"><path d="m427.402 103.836 3.282 5.742c.539.942.535 2.098-.012 3.035a3.033 3.033 0 0 1-2.629 1.516h-6.48a3.034 3.034 0 0 1-2.633-1.516 3.031 3.031 0 0 1-.012-3.035l3.281-5.742a2.998 2.998 0 0 1 5.203 0zm0 0"/></clipPath><clipPath id="K"><path d="M418.04 358.95h13.522v12.296H418.04zm0 0"/></clipPath><clipPath id="L"><path d="m427.031 369.895 4.024-7.04c.46-.808.457-1.8-.008-2.605a2.614 2.614 0 0 0-2.258-1.3h-7.976c-.93 0-1.79.495-2.258 1.3a2.618 2.618 0 0 0-.008 2.605l4.023 7.04a2.57 2.57 0 0 0 2.23 1.296 2.57 2.57 0 0 0 2.231-1.296zm0 0"/></clipPath><clipPath id="M"><path d="M418.04 208.262h13.522v12.293H418.04zm0 0"/></clipPath><clipPath id="N"><path d="m427.031 219.203 4.024-7.039c.46-.809.457-1.8-.008-2.605a2.61 2.61 0 0 0-2.258-1.297h-7.976c-.93 0-1.79.492-2.258 1.297a2.618 2.618 0 0 0-.008 2.605l4.023 7.04a2.57 2.57 0 0 0 2.23 1.296 2.57 2.57 0 0 0 2.231-1.297zm0 0"/></clipPath><clipPath id="O"><path d="M545.172 399.156H558v11.832h-12.828zm0 0"/></clipPath><clipPath id="P"><path d="m554.203 400.695 3.281 5.739a3.058 3.058 0 0 1-.011 3.039 3.043 3.043 0 0 1-2.633 1.515h-6.48a3.052 3.052 0 0 1-2.633-1.515 3.048 3.048 0 0 1-.008-3.04l3.281-5.738a2.992 2.992 0 0 1 5.203 0zm0 0"/></clipPath><clipPath id="Q"><path d="M418.371 539.664h12.86v11.828h-12.86zm0 0"/></clipPath><clipPath id="R"><path d="m427.402 541.2 3.282 5.741c.539.942.535 2.098-.012 3.036a3.033 3.033 0 0 1-2.629 1.515h-6.48a3.034 3.034 0 0 1-2.633-1.515 3.031 3.031 0 0 1-.012-3.036l3.281-5.742a2.998 2.998 0 0 1 5.203 0zm0 0"/></clipPath><clipPath id="S"><path d="M545 550.48h13.36v12.297H545zm0 0"/></clipPath><clipPath id="T"><path d="m553.832 561.426 4.023-7.04c.461-.808.457-1.8-.007-2.605a2.614 2.614 0 0 0-2.258-1.3h-7.977a2.608 2.608 0 0 0-2.266 3.906l4.024 7.039a2.57 2.57 0 0 0 2.23 1.297 2.57 2.57 0 0 0 2.231-1.297zm0 0"/></clipPath><clipPath id="U"><path d="M258.54 427h12.858v11.828H258.54zm0 0"/></clipPath><clipPath id="Z"><path d="M640.02 499.594h23.976v23.972H640.02zm0 0"/></clipPath><linearGradient x1="0" gradientTransform="matrix(1.04878 0 0 .67319 404.687 311.892)" y1="0" x2="256" gradientUnits="userSpaceOnUse" y2="256" id="v"><stop stop-color="#6D6D6D" offset="0"/><stop stop-color="#6C6C6C" offset=".008"/><stop stop-color="#6C6C6C" offset=".016"/><stop stop-color="#6B6B6B" offset=".023"/><stop stop-color="#6A6A6A" offset=".031"/><stop stop-color="#696969" offset=".039"/><stop stop-color="#686868" offset=".047"/><stop stop-color="#676767" offset=".055"/><stop stop-color="#676767" offset=".063"/><stop stop-color="#666" offset=".07"/><stop stop-color="#656565" offset=".078"/><stop stop-color="#646464" offset=".086"/><stop stop-color="#636363" offset=".094"/><stop stop-color="#626262" offset=".102"/><stop stop-color="#616161" offset=".109"/><stop stop-color="#616161" offset=".117"/><stop stop-color="#606060" offset=".125"/><stop stop-color="#5F5F5F" offset=".133"/><stop stop-color="#5E5E5E" offset=".141"/><stop stop-color="#5D5D5D" offset=".148"/><stop stop-color="#5C5C5C" offset=".156"/><stop stop-color="#5B5B5B" offset=".164"/><stop stop-color="#5B5B5B" offset=".172"/><stop stop-color="#5A5A5A" offset=".18"/><stop stop-color="#595959" offset=".188"/><stop stop-color="#585858" offset=".195"/><stop stop-color="#575757" offset=".203"/><stop stop-color="#565656" offset=".211"/><stop stop-color="#555" offset=".219"/><stop stop-color="#555" offset=".227"/><stop stop-color="#545454" offset=".234"/><stop stop-color="#535353" offset=".242"/><stop stop-color="#525252" offset=".25"/><stop stop-color="#515151" offset=".258"/><stop stop-color="#505050" offset=".266"/><stop stop-color="#505050" offset=".273"/><stop stop-color="#4F4F4F" offset=".281"/><stop stop-color="#4E4E4E" offset=".289"/><stop stop-color="#4D4D4D" offset=".297"/><stop stop-color="#4C4C4C" offset=".305"/><stop stop-color="#4B4B4B" offset=".313"/><stop stop-color="#4A4A4A" offset=".32"/><stop stop-color="#4A4A4A" offset=".328"/><stop stop-color="#494949" offset=".336"/><stop stop-color="#484848" offset=".344"/><stop stop-color="#474747" offset=".352"/><stop stop-color="#464646" offset=".359"/><stop stop-color="#454545" offset=".367"/><stop stop-color="#444" offset=".375"/><stop stop-color="#444" offset=".383"/><stop stop-color="#434343" offset=".391"/><stop stop-color="#424242" offset=".398"/><stop stop-color="#414141" offset=".406"/><stop stop-color="#404040" offset=".414"/><stop stop-color="#3F3F3F" offset=".422"/><stop stop-color="#3F3F3F" offset=".43"/><stop stop-color="#3E3E3E" offset=".438"/><stop stop-color="#3D3D3D" offset=".445"/><stop stop-color="#3C3C3C" offset=".453"/><stop stop-color="#3B3B3B" offset=".461"/><stop stop-color="#3A3A3A" offset=".469"/><stop stop-color="#393939" offset=".477"/><stop stop-color="#393939" offset=".484"/><stop stop-color="#383838" offset=".492"/><stop stop-color="#373737" offset=".5"/><stop stop-color="#363636" offset=".5"/><stop stop-color="#363636" offset=".5"/><stop stop-color="#363636" offset=".508"/><stop stop-color="#353535" offset=".516"/><stop stop-color="#343434" offset=".523"/><stop stop-color="#333" offset=".531"/><stop stop-color="#333" offset=".539"/><stop stop-color="#323232" offset=".547"/><stop stop-color="#313131" offset=".555"/><stop stop-color="#303030" offset=".563"/><stop stop-color="#2F2F2F" offset=".57"/><stop stop-color="#2E2E2E" offset=".578"/><stop stop-color="#2E2E2E" offset=".586"/><stop stop-color="#2D2D2D" offset=".594"/><stop stop-color="#2C2C2C" offset=".602"/><stop stop-color="#2B2B2B" offset=".609"/><stop stop-color="#2A2A2A" offset=".617"/><stop stop-color="#292929" offset=".625"/><stop stop-color="#282828" offset=".633"/><stop stop-color="#282828" offset=".641"/><stop stop-color="#272727" offset=".648"/><stop stop-color="#262626" offset=".656"/><stop stop-color="#252525" offset=".664"/><stop stop-color="#242424" offset=".672"/><stop stop-color="#232323" offset=".68"/><stop stop-color="#222" offset=".688"/><stop stop-color="#222" offset=".695"/><stop stop-color="#212121" offset=".703"/><stop stop-color="#202020" offset=".711"/><stop stop-color="#1F1F1F" offset=".719"/><stop stop-color="#1E1E1E" offset=".727"/><stop stop-color="#1D1D1D" offset=".734"/><stop stop-color="#1C1C1C" offset=".742"/><stop stop-color="#1C1C1C" offset=".75"/><stop stop-color="#1B1B1B" offset=".758"/><stop stop-color="#1A1A1A" offset=".766"/><stop stop-color="#191919" offset=".773"/><stop stop-color="#181818" offset=".781"/><stop stop-color="#171717" offset=".789"/><stop stop-color="#171717" offset=".797"/><stop stop-color="#161616" offset=".805"/><stop stop-color="#151515" offset=".813"/><stop stop-color="#141414" offset=".82"/><stop stop-color="#131313" offset=".828"/><stop stop-color="#121212" offset=".836"/><stop stop-color="#111" offset=".844"/><stop stop-color="#111" offset=".852"/><stop stop-color="#101010" offset=".859"/><stop stop-color="#0F0F0F" offset=".867"/><stop stop-color="#0E0E0E" offset=".875"/><stop stop-color="#0D0D0D" offset=".883"/><stop stop-color="#0C0C0C" offset=".891"/><stop stop-color="#0B0B0B" offset=".898"/><stop stop-color="#0B0B0B" offset=".906"/><stop stop-color="#0A0A0A" offset=".914"/><stop stop-color="#090909" offset=".922"/><stop stop-color="#080808" offset=".93"/><stop stop-color="#070707" offset=".938"/><stop stop-color="#060606" offset=".945"/><stop stop-color="#060606" offset=".953"/><stop stop-color="#050505" offset=".961"/><stop stop-color="#040404" offset=".969"/><stop stop-color="#030303" offset=".977"/><stop stop-color="#020202" offset=".984"/><stop stop-color="#010101" offset=".992"/><stop offset="1"/></linearGradient><linearGradient x1="0" gradientTransform="matrix(1.04878 0 0 .56053 404.687 493.581)" y1="0" x2="256" gradientUnits="userSpaceOnUse" y2="256" id="i"><stop stop-color="#6D6D6D" offset="0"/><stop stop-color="#6C6C6C" offset=".008"/><stop stop-color="#6C6C6C" offset=".016"/><stop stop-color="#6B6B6B" offset=".023"/><stop stop-color="#6A6A6A" offset=".031"/><stop stop-color="#696969" offset=".039"/><stop stop-color="#686868" offset=".047"/><stop stop-color="#676767" offset=".055"/><stop stop-color="#676767" offset=".063"/><stop stop-color="#666" offset=".07"/><stop stop-color="#656565" offset=".078"/><stop stop-color="#646464" offset=".086"/><stop stop-color="#636363" offset=".094"/><stop stop-color="#626262" offset=".102"/><stop stop-color="#616161" offset=".109"/><stop stop-color="#616161" offset=".117"/><stop stop-color="#606060" offset=".125"/><stop stop-color="#5F5F5F" offset=".133"/><stop stop-color="#5E5E5E" offset=".141"/><stop stop-color="#5D5D5D" offset=".148"/><stop stop-color="#5C5C5C" offset=".156"/><stop stop-color="#5B5B5B" offset=".164"/><stop stop-color="#5B5B5B" offset=".172"/><stop stop-color="#5A5A5A" offset=".18"/><stop stop-color="#595959" offset=".188"/><stop stop-color="#585858" offset=".195"/><stop stop-color="#575757" offset=".203"/><stop stop-color="#565656" offset=".211"/><stop stop-color="#555" offset=".219"/><stop stop-color="#555" offset=".227"/><stop stop-color="#545454" offset=".234"/><stop stop-color="#535353" offset=".242"/><stop stop-color="#525252" offset=".25"/><stop stop-color="#515151" offset=".258"/><stop stop-color="#505050" offset=".266"/><stop stop-color="#505050" offset=".273"/><stop stop-color="#4F4F4F" offset=".281"/><stop stop-color="#4E4E4E" offset=".289"/><stop stop-color="#4D4D4D" offset=".297"/><stop stop-color="#4C4C4C" offset=".305"/><stop stop-color="#4B4B4B" offset=".313"/><stop stop-color="#4A4A4A" offset=".32"/><stop stop-color="#4A4A4A" offset=".328"/><stop stop-color="#494949" offset=".336"/><stop stop-color="#484848" offset=".344"/><stop stop-color="#474747" offset=".352"/><stop stop-color="#464646" offset=".359"/><stop stop-color="#454545" offset=".367"/><stop stop-color="#444" offset=".375"/><stop stop-color="#444" offset=".383"/><stop stop-color="#434343" offset=".391"/><stop stop-color="#424242" offset=".398"/><stop stop-color="#414141" offset=".406"/><stop stop-color="#404040" offset=".414"/><stop stop-color="#3F3F3F" offset=".422"/><stop stop-color="#3F3F3F" offset=".43"/><stop stop-color="#3E3E3E" offset=".438"/><stop stop-color="#3D3D3D" offset=".445"/><stop stop-color="#3C3C3C" offset=".453"/><stop stop-color="#3B3B3B" offset=".461"/><stop stop-color="#3A3A3A" offset=".469"/><stop stop-color="#393939" offset=".477"/><stop stop-color="#393939" offset=".484"/><stop stop-color="#383838" offset=".492"/><stop stop-color="#373737" offset=".5"/><stop stop-color="#363636" offset=".5"/><stop stop-color="#363636" offset=".5"/><stop stop-color="#363636" offset=".508"/><stop stop-color="#353535" offset=".516"/><stop stop-color="#343434" offset=".523"/><stop stop-color="#333" offset=".531"/><stop stop-color="#333" offset=".539"/><stop stop-color="#323232" offset=".547"/><stop stop-color="#313131" offset=".555"/><stop stop-color="#303030" offset=".563"/><stop stop-color="#2F2F2F" offset=".57"/><stop stop-color="#2E2E2E" offset=".578"/><stop stop-color="#2E2E2E" offset=".586"/><stop stop-color="#2D2D2D" offset=".594"/><stop stop-color="#2C2C2C" offset=".602"/><stop stop-color="#2B2B2B" offset=".609"/><stop stop-color="#2A2A2A" offset=".617"/><stop stop-color="#292929" offset=".625"/><stop stop-color="#282828" offset=".633"/><stop stop-color="#282828" offset=".641"/><stop stop-color="#272727" offset=".648"/><stop stop-color="#262626" offset=".656"/><stop stop-color="#252525" offset=".664"/><stop stop-color="#242424" offset=".672"/><stop stop-color="#232323" offset=".68"/><stop stop-color="#222" offset=".688"/><stop stop-color="#222" offset=".695"/><stop stop-color="#212121" offset=".703"/><stop stop-color="#202020" offset=".711"/><stop stop-color="#1F1F1F" offset=".719"/><stop stop-color="#1E1E1E" offset=".727"/><stop stop-color="#1D1D1D" offset=".734"/><stop stop-color="#1C1C1C" offset=".742"/><stop stop-color="#1C1C1C" offset=".75"/><stop stop-color="#1B1B1B" offset=".758"/><stop stop-color="#1A1A1A" offset=".766"/><stop stop-color="#191919" offset=".773"/><stop stop-color="#181818" offset=".781"/><stop stop-color="#171717" offset=".789"/><stop stop-color="#171717" offset=".797"/><stop stop-color="#161616" offset=".805"/><stop stop-color="#151515" offset=".813"/><stop stop-color="#141414" offset=".82"/><stop stop-color="#131313" offset=".828"/><stop stop-color="#121212" offset=".836"/><stop stop-color="#111" offset=".844"/><stop stop-color="#111" offset=".852"/><stop stop-color="#101010" offset=".859"/><stop stop-color="#0F0F0F" offset=".867"/><stop stop-color="#0E0E0E" offset=".875"/><stop stop-color="#0D0D0D" offset=".883"/><stop stop-color="#0C0C0C" offset=".891"/><stop stop-color="#0B0B0B" offset=".898"/><stop stop-color="#0B0B0B" offset=".906"/><stop stop-color="#0A0A0A" offset=".914"/><stop stop-color="#090909" offset=".922"/><stop stop-color="#080808" offset=".93"/><stop stop-color="#070707" offset=".938"/><stop stop-color="#060606" offset=".945"/><stop stop-color="#060606" offset=".953"/><stop stop-color="#050505" offset=".961"/><stop stop-color="#040404" offset=".969"/><stop stop-color="#030303" offset=".977"/><stop stop-color="#020202" offset=".984"/><stop stop-color="#010101" offset=".992"/><stop offset="1"/></linearGradient><linearGradient x1="0" gradientTransform="matrix(1.04878 0 0 1.03168 404.687 36.423)" y1="0" x2="256" gradientUnits="userSpaceOnUse" y2="256" id="f"><stop stop-color="#6D6D6D" offset="0"/><stop stop-color="#6C6C6C" offset=".008"/><stop stop-color="#6C6C6C" offset=".016"/><stop stop-color="#6B6B6B" offset=".023"/><stop stop-color="#6A6A6A" offset=".031"/><stop stop-color="#696969" offset=".039"/><stop stop-color="#686868" offset=".047"/><stop stop-color="#676767" offset=".055"/><stop stop-color="#676767" offset=".063"/><stop stop-color="#666" offset=".07"/><stop stop-color="#656565" offset=".078"/><stop stop-color="#646464" offset=".086"/><stop stop-color="#636363" offset=".094"/><stop stop-color="#626262" offset=".102"/><stop stop-color="#616161" offset=".109"/><stop stop-color="#616161" offset=".117"/><stop stop-color="#606060" offset=".125"/><stop stop-color="#5F5F5F" offset=".133"/><stop stop-color="#5E5E5E" offset=".141"/><stop stop-color="#5D5D5D" offset=".148"/><stop stop-color="#5C5C5C" offset=".156"/><stop stop-color="#5B5B5B" offset=".164"/><stop stop-color="#5B5B5B" offset=".172"/><stop stop-color="#5A5A5A" offset=".18"/><stop stop-color="#595959" offset=".188"/><stop stop-color="#585858" offset=".195"/><stop stop-color="#575757" offset=".203"/><stop stop-color="#565656" offset=".211"/><stop stop-color="#555" offset=".219"/><stop stop-color="#555" offset=".227"/><stop stop-color="#545454" offset=".234"/><stop stop-color="#535353" offset=".242"/><stop stop-color="#525252" offset=".25"/><stop stop-color="#515151" offset=".258"/><stop stop-color="#505050" offset=".266"/><stop stop-color="#505050" offset=".273"/><stop stop-color="#4F4F4F" offset=".281"/><stop stop-color="#4E4E4E" offset=".289"/><stop stop-color="#4D4D4D" offset=".297"/><stop stop-color="#4C4C4C" offset=".305"/><stop stop-color="#4B4B4B" offset=".313"/><stop stop-color="#4A4A4A" offset=".32"/><stop stop-color="#4A4A4A" offset=".328"/><stop stop-color="#494949" offset=".336"/><stop stop-color="#484848" offset=".344"/><stop stop-color="#474747" offset=".352"/><stop stop-color="#464646" offset=".359"/><stop stop-color="#454545" offset=".367"/><stop stop-color="#444" offset=".375"/><stop stop-color="#444" offset=".383"/><stop stop-color="#434343" offset=".391"/><stop stop-color="#424242" offset=".398"/><stop stop-color="#414141" offset=".406"/><stop stop-color="#404040" offset=".414"/><stop stop-color="#3F3F3F" offset=".422"/><stop stop-color="#3F3F3F" offset=".43"/><stop stop-color="#3E3E3E" offset=".438"/><stop stop-color="#3D3D3D" offset=".445"/><stop stop-color="#3C3C3C" offset=".453"/><stop stop-color="#3B3B3B" offset=".461"/><stop stop-color="#3A3A3A" offset=".469"/><stop stop-color="#393939" offset=".477"/><stop stop-color="#393939" offset=".484"/><stop stop-color="#383838" offset=".492"/><stop stop-color="#373737" offset=".5"/><stop stop-color="#363636" offset=".5"/><stop stop-color="#363636" offset=".5"/><stop stop-color="#363636" offset=".508"/><stop stop-color="#353535" offset=".516"/><stop stop-color="#343434" offset=".523"/><stop stop-color="#333" offset=".531"/><stop stop-color="#333" offset=".539"/><stop stop-color="#323232" offset=".547"/><stop stop-color="#313131" offset=".555"/><stop stop-color="#303030" offset=".563"/><stop stop-color="#2F2F2F" offset=".57"/><stop stop-color="#2E2E2E" offset=".578"/><stop stop-color="#2E2E2E" offset=".586"/><stop stop-color="#2D2D2D" offset=".594"/><stop stop-color="#2C2C2C" offset=".602"/><stop stop-color="#2B2B2B" offset=".609"/><stop stop-color="#2A2A2A" offset=".617"/><stop stop-color="#292929" offset=".625"/><stop stop-color="#282828" offset=".633"/><stop stop-color="#282828" offset=".641"/><stop stop-color="#272727" offset=".648"/><stop stop-color="#262626" offset=".656"/><stop stop-color="#252525" offset=".664"/><stop stop-color="#242424" offset=".672"/><stop stop-color="#232323" offset=".68"/><stop stop-color="#222" offset=".688"/><stop stop-color="#222" offset=".695"/><stop stop-color="#212121" offset=".703"/><stop stop-color="#202020" offset=".711"/><stop stop-color="#1F1F1F" offset=".719"/><stop stop-color="#1E1E1E" offset=".727"/><stop stop-color="#1D1D1D" offset=".734"/><stop stop-color="#1C1C1C" offset=".742"/><stop stop-color="#1C1C1C" offset=".75"/><stop stop-color="#1B1B1B" offset=".758"/><stop stop-color="#1A1A1A" offset=".766"/><stop stop-color="#191919" offset=".773"/><stop stop-color="#181818" offset=".781"/><stop stop-color="#171717" offset=".789"/><stop stop-color="#171717" offset=".797"/><stop stop-color="#161616" offset=".805"/><stop stop-color="#151515" offset=".813"/><stop stop-color="#141414" offset=".82"/><stop stop-color="#131313" offset=".828"/><stop stop-color="#121212" offset=".836"/><stop stop-color="#111" offset=".844"/><stop stop-color="#111" offset=".852"/><stop stop-color="#101010" offset=".859"/><stop stop-color="#0F0F0F" offset=".867"/><stop stop-color="#0E0E0E" offset=".875"/><stop stop-color="#0D0D0D" offset=".883"/><stop stop-color="#0C0C0C" offset=".891"/><stop stop-color="#0B0B0B" offset=".898"/><stop stop-color="#0B0B0B" offset=".906"/><stop stop-color="#0A0A0A" offset=".914"/><stop stop-color="#090909" offset=".922"/><stop stop-color="#080808" offset=".93"/><stop stop-color="#070707" offset=".938"/><stop stop-color="#060606" offset=".945"/><stop stop-color="#060606" offset=".953"/><stop stop-color="#050505" offset=".961"/><stop stop-color="#040404" offset=".969"/><stop stop-color="#030303" offset=".977"/><stop stop-color="#020202" offset=".984"/><stop stop-color="#010101" offset=".992"/><stop offset="1"/></linearGradient><linearGradient x1="0" gradientTransform="matrix(1.16533 0 0 1.68658 95.826 173.036)" y1="0" x2="256" gradientUnits="userSpaceOnUse" y2="256" id="c"><stop stop-color="#969393" offset="0"/><stop stop-color="#959292" offset=".008"/><stop stop-color="#959292" offset=".016"/><stop stop-color="#949191" offset=".023"/><stop stop-color="#939090" offset=".031"/><stop stop-color="#928F8F" offset=".039"/><stop stop-color="#918E8E" offset=".047"/><stop stop-color="#908D8D" offset=".055"/><stop stop-color="#8F8C8C" offset=".063"/><stop stop-color="#8E8B8B" offset=".07"/><stop stop-color="#8D8A8A" offset=".078"/><stop stop-color="#8C8989" offset=".086"/><stop stop-color="#8B8888" offset=".094"/><stop stop-color="#8A8787" offset=".102"/><stop stop-color="#898787" offset=".109"/><stop stop-color="#898686" offset=".117"/><stop stop-color="#888585" offset=".125"/><stop stop-color="#878484" offset=".133"/><stop stop-color="#868383" offset=".141"/><stop stop-color="#858282" offset=".148"/><stop stop-color="#848181" offset=".156"/><stop stop-color="#838080" offset=".164"/><stop stop-color="#827F7F" offset=".172"/><stop stop-color="#817E7E" offset=".18"/><stop stop-color="#807D7D" offset=".188"/><stop stop-color="#7F7D7D" offset=".195"/><stop stop-color="#7E7C7C" offset=".203"/><stop stop-color="#7D7B7B" offset=".211"/><stop stop-color="#7D7A7A" offset=".219"/><stop stop-color="#7C7979" offset=".227"/><stop stop-color="#7B7878" offset=".234"/><stop stop-color="#7A7777" offset=".242"/><stop stop-color="#797676" offset=".25"/><stop stop-color="#787575" offset=".258"/><stop stop-color="#777474" offset=".266"/><stop stop-color="#767373" offset=".273"/><stop stop-color="#757272" offset=".281"/><stop stop-color="#747272" offset=".289"/><stop stop-color="#737171" offset=".297"/><stop stop-color="#727070" offset=".305"/><stop stop-color="#726F6F" offset=".313"/><stop stop-color="#716E6E" offset=".32"/><stop stop-color="#706D6D" offset=".328"/><stop stop-color="#6F6C6C" offset=".336"/><stop stop-color="#6E6B6B" offset=".344"/><stop stop-color="#6D6A6A" offset=".352"/><stop stop-color="#6C6969" offset=".359"/><stop stop-color="#6B6868" offset=".367"/><stop stop-color="#6A6868" offset=".375"/><stop stop-color="#696767" offset=".383"/><stop stop-color="#686666" offset=".391"/><stop stop-color="#676565" offset=".398"/><stop stop-color="#666464" offset=".406"/><stop stop-color="#666363" offset=".414"/><stop stop-color="#656262" offset=".422"/><stop stop-color="#646161" offset=".43"/><stop stop-color="#636060" offset=".438"/><stop stop-color="#625F5F" offset=".445"/><stop stop-color="#615E5E" offset=".453"/><stop stop-color="#605E5E" offset=".461"/><stop stop-color="#5F5D5D" offset=".469"/><stop stop-color="#5E5C5C" offset=".477"/><stop stop-color="#5D5B5B" offset=".484"/><stop stop-color="#5C5A5A" offset=".492"/><stop stop-color="#5B5959" offset=".5"/><stop stop-color="#5B5858" offset=".5"/><stop stop-color="#5A5858" offset=".5"/><stop stop-color="#5A5858" offset=".508"/><stop stop-color="#5A5757" offset=".516"/><stop stop-color="#595656" offset=".523"/><stop stop-color="#585555" offset=".531"/><stop stop-color="#575454" offset=".539"/><stop stop-color="#565353" offset=".547"/><stop stop-color="#555353" offset=".555"/><stop stop-color="#545252" offset=".563"/><stop stop-color="#535151" offset=".57"/><stop stop-color="#525050" offset=".578"/><stop stop-color="#514F4F" offset=".586"/><stop stop-color="#504E4E" offset=".594"/><stop stop-color="#4F4D4D" offset=".602"/><stop stop-color="#4E4C4C" offset=".609"/><stop stop-color="#4E4B4B" offset=".617"/><stop stop-color="#4D4A4A" offset=".625"/><stop stop-color="#4C4949" offset=".633"/><stop stop-color="#4B4949" offset=".641"/><stop stop-color="#4A4848" offset=".648"/><stop stop-color="#494747" offset=".656"/><stop stop-color="#484646" offset=".664"/><stop stop-color="#474545" offset=".672"/><stop stop-color="#464444" offset=".68"/><stop stop-color="#454343" offset=".688"/><stop stop-color="#444242" offset=".695"/><stop stop-color="#434141" offset=".703"/><stop stop-color="#424040" offset=".711"/><stop stop-color="#423F3F" offset=".719"/><stop stop-color="#413E3E" offset=".727"/><stop stop-color="#403E3E" offset=".734"/><stop stop-color="#3F3D3D" offset=".742"/><stop stop-color="#3E3C3C" offset=".75"/><stop stop-color="#3D3B3B" offset=".758"/><stop stop-color="#3C3A3A" offset=".766"/><stop stop-color="#3B3939" offset=".773"/><stop stop-color="#3A3838" offset=".781"/><stop stop-color="#393737" offset=".789"/><stop stop-color="#383636" offset=".797"/><stop stop-color="#373535" offset=".805"/><stop stop-color="#363434" offset=".813"/><stop stop-color="#363434" offset=".82"/><stop stop-color="#353333" offset=".828"/><stop stop-color="#343232" offset=".836"/><stop stop-color="#333131" offset=".844"/><stop stop-color="#323030" offset=".852"/><stop stop-color="#312F2F" offset=".859"/><stop stop-color="#302E2E" offset=".867"/><stop stop-color="#2F2D2D" offset=".875"/><stop stop-color="#2E2C2C" offset=".883"/><stop stop-color="#2D2B2B" offset=".891"/><stop stop-color="#2C2A2A" offset=".898"/><stop stop-color="#2B2929" offset=".906"/><stop stop-color="#2A2929" offset=".914"/><stop stop-color="#2A2828" offset=".922"/><stop stop-color="#292727" offset=".93"/><stop stop-color="#282626" offset=".938"/><stop stop-color="#272525" offset=".945"/><stop stop-color="#262424" offset=".953"/><stop stop-color="#252323" offset=".961"/><stop stop-color="#242222" offset=".969"/><stop stop-color="#232121" offset=".977"/><stop stop-color="#222020" offset=".984"/><stop stop-color="#211F1F" offset=".992"/><stop stop-color="#201F1F" offset="1"/></linearGradient></defs><g clip-path="url(#a)"><g clip-path="url(#b)"><path fill="url(#c)" d="M95.824 173.035v431.766h298.324V173.035zm0 0"/></g></g><g clip-path="url(#d)"><g clip-path="url(#e)"><path fill="url(#f)" d="M404.688 36.422v264.113h268.488V36.422zm0 0"/></g></g><g clip-path="url(#g)"><g clip-path="url(#h)"><path fill="url(#i)" d="M404.688 493.582v143.496h268.488V493.582zm0 0"/></g></g><g clip-path="url(#j)"><g clip-path="url(#k)"><path fill="#fff" d="M106.984 244.016h276.008v158.21H106.984zm0 0"/></g></g><g clip-path="url(#l)"><g clip-path="url(#m)"><path fill="#fff" d="M107.094 412.992h131.238v181.25H107.094zm0 0"/></g></g><g clip-path="url(#n)"><g clip-path="url(#o)"><path fill="#fff" d="M251.086 412.992h132.016v181.25H251.086zm0 0"/></g></g><g clip-path="url(#p)"><g clip-path="url(#q)"><path fill="#fff" d="M414.82 96.488h250.805v95.145H414.82zm0 0"/></g></g><g clip-path="url(#r)"><g clip-path="url(#s)"><path fill="#fff" d="M414.82 200.988h250.805v88.871H414.82zm0 0"/></g></g><g clip-path="url(#t)"><g clip-path="url(#u)"><path fill="url(#v)" d="M404.688 311.89v172.337h268.488V311.89zm0 0"/></g></g><g clip-path="url(#w)"><g clip-path="url(#x)"><path fill="#fff" d="M414.82 350.754h123.14V468.5H414.82zm0 0"/></g></g><g clip-path="url(#y)"><g clip-path="url(#z)"><path fill="#fff" d="M541.113 544.93h124.512v79.863H541.113zm0 0"/></g></g><g clip-path="url(#A)"><g clip-path="url(#B)"><path fill="#fff" d="M412.559 534.016H537.07v90.777H412.56zm0 0"/></g></g><g clip-path="url(#C)"><g clip-path="url(#D)"><path fill="#fff" d="M541.113 394.836H664.25V468.5H541.113zm0 0"/></g></g><g clip-path="url(#E)"><g clip-path="url(#F)"><path fill="#65ea08" d="M112.105 423.98h17.653v15.446h-17.653zm0 0"/></g></g><g clip-path="url(#G)"><g clip-path="url(#H)"><path fill="#65ea08" d="M112.105 250.676h17.653v15.449h-17.653zm0 0"/></g></g><g clip-path="url(#I)"><g clip-path="url(#J)"><path fill="red" d="M416.316 99.285h16.97v14.844h-16.97zm0 0"/></g></g><g clip-path="url(#K)"><g clip-path="url(#L)"><path fill="#65ea08" d="M416.316 358.95h16.97v14.847h-16.97zm0 0"/></g></g><g clip-path="url(#M)"><g clip-path="url(#N)"><path fill="#65ea08" d="M416.316 208.262h16.97v14.843h-16.97zm0 0"/></g></g><g clip-path="url(#O)"><g clip-path="url(#P)"><path fill="red" d="M543.117 396.14h16.969v14.848h-16.969zm0 0"/></g></g><g clip-path="url(#Q)"><g clip-path="url(#R)"><path fill="red" d="M416.316 536.648h16.97v14.844h-16.97zm0 0"/></g></g><g clip-path="url(#S)"><g clip-path="url(#T)"><path fill="#65ea08" d="M543.117 550.48h16.969v14.848h-16.969zm0 0"/></g></g><g clip-path="url(#U)"><g clip-path="url(#V)"><path fill="red" d="M256.484 423.98h16.97v14.848h-16.97zm0 0"/></g></g><g clip-path="url(#W)"><path fill="#fff" d="M382.934 203.035a.4.4 0 0 1-.286.684.399.399 0 0 1-.285-.117l-11.383-11.383-11.382 11.383a.405.405 0 0 1-.57 0 .4.4 0 0 1 0-.567l11.382-11.387-11.383-11.382a.4.4 0 0 1 0-.567c.157-.16.41-.16.57 0l11.383 11.383 11.383-11.383c.157-.16.41-.16.57 0a.4.4 0 0 1 0 .567l-11.382 11.382zm0 0"/></g><path d="M114.652 229.628c-2.032 0-3.899-.473-5.594-1.422a10.655 10.655 0 0 1-4.047-3.953c-.992-1.695-1.484-3.601-1.484-5.719 0-2.125.492-4.023 1.484-5.703 1-1.687 2.348-3.004 4.047-3.953 1.695-.945 3.562-1.422 5.594-1.422 2.039 0 3.906.477 5.593 1.422a10.492 10.492 0 0 1 4.016 3.953c.976 1.68 1.469 3.578 1.469 5.703 0 2.118-.496 4.024-1.485 5.72-.992 1.687-2.328 3.007-4.015 3.952-1.68.95-3.54 1.422-5.578 1.422zm0-4.812c1.726 0 3.109-.57 4.14-1.72 1.04-1.155 1.563-2.675 1.563-4.562 0-1.914-.524-3.441-1.563-4.578-1.031-1.144-2.414-1.718-4.14-1.718-1.743 0-3.133.57-4.172 1.703-1.043 1.125-1.563 2.656-1.563 4.593 0 1.907.52 3.434 1.563 4.579 1.039 1.136 2.43 1.703 4.172 1.703zM133.921 214.644c.508-.801 1.219-1.446 2.125-1.938.906-.5 1.961-.75 3.172-.75 1.414 0 2.695.36 3.844 1.078 1.156.72 2.066 1.75 2.734 3.094.664 1.336 1 2.887 1 4.656 0 1.762-.336 3.32-1 4.672-.668 1.344-1.578 2.383-2.734 3.11-1.149.73-2.43 1.093-3.844 1.093-1.187 0-2.242-.246-3.156-.734-.918-.5-1.633-1.14-2.14-1.922v10.61h-5.282v-25.407h5.281zm7.516 6.14c0-1.32-.367-2.359-1.094-3.109-.73-.75-1.633-1.125-2.703-1.125-1.043 0-1.93.383-2.656 1.14-.73.762-1.094 1.805-1.094 3.126 0 1.312.363 2.351 1.094 3.109.726.762 1.613 1.14 2.656 1.14 1.05 0 1.945-.382 2.687-1.156.739-.77 1.11-1.812 1.11-3.125zM165.784 220.534c0 .493-.031 1-.094 1.532h-11.922c.082 1.074.426 1.898 1.032 2.468.601.563 1.347.844 2.234.844 1.312 0 2.223-.555 2.734-1.672h5.61a7.61 7.61 0 0 1-1.547 3.063c-.75.898-1.696 1.605-2.828 2.125-1.125.511-2.387.765-3.782.765-1.687 0-3.195-.359-4.515-1.078a7.656 7.656 0 0 1-3.078-3.078c-.743-1.344-1.11-2.906-1.11-4.687 0-1.79.364-3.352 1.094-4.688a7.539 7.539 0 0 1 3.063-3.094c1.32-.718 2.835-1.078 4.546-1.078 1.657 0 3.13.352 4.422 1.047 1.301.7 2.317 1.7 3.047 3 .727 1.293 1.094 2.805 1.094 4.531zm-5.39-1.39c0-.906-.313-1.625-.938-2.156-.617-.532-1.383-.797-2.297-.797-.887 0-1.637.257-2.25.765-.606.512-.977 1.242-1.11 2.188zM173.83 215.081c.613-.945 1.38-1.691 2.297-2.234.926-.55 1.957-.828 3.094-.828v5.578h-1.453c-1.313 0-2.297.289-2.953.86-.657.562-.985 1.554-.985 2.968v7.984h-5.281v-17.203h5.281zM180.692 220.784c0-1.77.332-3.32 1-4.656.664-1.344 1.57-2.375 2.719-3.094 1.156-.718 2.445-1.078 3.875-1.078 1.207 0 2.27.25 3.187.75.914.492 1.618 1.137 2.11 1.938v-2.438h5.265v17.203h-5.265v-2.437c-.512.805-1.227 1.453-2.14 1.953-.919.488-1.981.734-3.188.734-1.407 0-2.688-.363-3.844-1.093-1.149-.727-2.055-1.766-2.719-3.11-.668-1.351-1-2.91-1-4.672zm12.89.032c0-1.32-.366-2.364-1.093-3.125-.73-.758-1.621-1.141-2.672-1.141a3.56 3.56 0 0 0-2.656 1.125c-.73.75-1.094 1.79-1.094 3.11 0 1.312.363 2.355 1.094 3.124.726.774 1.613 1.157 2.656 1.157 1.05 0 1.941-.38 2.672-1.141.727-.758 1.094-1.797 1.094-3.11zM201.617 220.816c0-1.79.364-3.352 1.094-4.688.727-1.344 1.742-2.375 3.047-3.094 1.312-.718 2.812-1.078 4.5-1.078 2.156 0 3.957.57 5.406 1.703 1.446 1.125 2.395 2.72 2.844 4.782h-5.61c-.468-1.32-1.382-1.985-2.734-1.985-.969 0-1.742.375-2.312 1.125-.575.75-.86 1.828-.86 3.235 0 1.398.285 2.468.86 3.218.57.75 1.343 1.125 2.312 1.125 1.352 0 2.266-.66 2.735-1.984h5.609c-.45 2.023-1.402 3.61-2.86 4.766-1.46 1.148-3.257 1.718-5.39 1.718-1.688 0-3.188-.359-4.5-1.078a7.557 7.557 0 0 1-3.047-3.078c-.73-1.344-1.094-2.906-1.094-4.687zM223.965 210.425c-.93 0-1.683-.27-2.265-.812a2.673 2.673 0 0 1-.875-2.032c0-.82.289-1.504.875-2.047.582-.539 1.336-.812 2.265-.812.906 0 1.649.273 2.235.812.582.543.875 1.227.875 2.047 0 .805-.293 1.48-.875 2.032-.586.542-1.329.812-2.235.812zm2.625 1.781v17.203h-5.281v-17.203zM238.228 229.66c-1.68 0-3.195-.36-4.547-1.079a7.884 7.884 0 0 1-3.171-3.078c-.774-1.344-1.157-2.906-1.157-4.687 0-1.77.391-3.328 1.172-4.672.781-1.352 1.848-2.39 3.203-3.11 1.364-.718 2.883-1.078 4.563-1.078 1.687 0 3.207.36 4.562 1.078a7.928 7.928 0 0 1 3.22 3.11c.78 1.344 1.171 2.902 1.171 4.672 0 1.761-.398 3.32-1.188 4.672a8.019 8.019 0 0 1-3.25 3.093c-1.367.719-2.89 1.078-4.578 1.078zm0-4.563c1.008 0 1.868-.367 2.578-1.11.707-.738 1.063-1.796 1.063-3.171 0-1.383-.344-2.446-1.031-3.188-.688-.738-1.54-1.11-2.547-1.11-1.024 0-1.871.368-2.547 1.095-.68.73-1.016 1.796-1.016 3.203 0 1.375.332 2.433 1 3.172.664.742 1.5 1.109 2.5 1.109zM260.516 212.019c2.019 0 3.628.656 4.828 1.969 1.195 1.304 1.797 3.093 1.797 5.375v10.046h-5.235v-9.343c0-1.145-.305-2.036-.906-2.672-.594-.645-1.39-.969-2.39-.969-1.012 0-1.813.324-2.407.969-.594.636-.89 1.527-.89 2.672v9.343h-5.282v-17.203h5.281v2.282c.532-.758 1.25-1.36 2.157-1.797.906-.446 1.922-.672 3.047-.672zM269.755 220.784c0-1.77.332-3.32 1-4.656.664-1.344 1.57-2.375 2.72-3.094 1.155-.718 2.444-1.078 3.874-1.078 1.207 0 2.27.25 3.188.75.914.492 1.617 1.137 2.11 1.938v-2.438h5.265v17.203h-5.266v-2.437c-.512.805-1.227 1.453-2.14 1.953-.919.488-1.981.734-3.188.734-1.406 0-2.688-.363-3.844-1.093-1.148-.727-2.055-1.766-2.719-3.11-.668-1.351-1-2.91-1-4.672zm12.891.032c0-1.32-.367-2.364-1.094-3.125-.73-.758-1.62-1.141-2.672-1.141a3.56 3.56 0 0 0-2.656 1.125c-.73.75-1.094 1.79-1.094 3.11 0 1.312.364 2.355 1.094 3.124.727.774 1.613 1.157 2.656 1.157 1.051 0 1.942-.38 2.672-1.141.727-.758 1.094-1.797 1.094-3.11zM297.009 206.597v22.812h-5.281v-22.812zM425.727 339.545h-5.719l-.922 2.703h-3.921l5.562-15.344h4.328l5.547 15.344h-3.953zm-.953-2.89-1.906-5.626-1.875 5.625zM431.541 336.123c0-1.25.235-2.348.703-3.297.477-.945 1.125-1.676 1.938-2.187a5.101 5.101 0 0 1 2.734-.766c.801 0 1.536.172 2.203.516.665.336 1.188.78 1.563 1.343v-5.656h3.734v16.172h-3.734v-1.75a3.89 3.89 0 0 1-1.5 1.406c-.648.344-1.402.516-2.266.516-1 0-1.914-.254-2.734-.766-.813-.52-1.46-1.254-1.938-2.203-.468-.957-.703-2.066-.703-3.328zm9.141.031c0-.937-.262-1.672-.781-2.203a2.506 2.506 0 0 0-1.89-.812c-.743 0-1.372.265-1.892.796-.511.532-.765 1.262-.765 2.188 0 .937.254 1.684.765 2.234.52.543 1.149.813 1.891.813.75 0 1.379-.27 1.89-.813.52-.539.782-1.273.782-2.203zM462.697 329.92c1.508 0 2.711.46 3.61 1.375.894.918 1.343 2.195 1.343 3.828v7.125h-3.703v-6.625c0-.781-.21-1.383-.625-1.813-.418-.437-.992-.656-1.719-.656-.73 0-1.304.219-1.718.656-.418.43-.625 1.032-.625 1.813v6.625h-3.72v-6.625c0-.781-.21-1.383-.624-1.813-.406-.437-.977-.656-1.703-.656-.73 0-1.305.219-1.719.656-.418.43-.625 1.032-.625 1.813v6.625h-3.734v-12.203h3.734v1.531c.375-.508.867-.91 1.484-1.203.614-.3 1.305-.453 2.079-.453.914 0 1.734.199 2.453.594a4.276 4.276 0 0 1 1.703 1.671c.414-.664.988-1.207 1.719-1.625a4.645 4.645 0 0 1 2.39-.64zM472.16 328.78c-.656 0-1.195-.192-1.61-.579a1.853 1.853 0 0 1-.624-1.422c0-.582.207-1.066.625-1.453.414-.394.953-.594 1.609-.594.645 0 1.172.2 1.578.594.414.387.625.871.625 1.453 0 .563-.21 1.04-.625 1.422-.406.387-.933.578-1.578.578zm1.86 1.265v12.203h-3.735v-12.203zM484.156 329.92c1.437 0 2.578.465 3.422 1.39.851.93 1.28 2.2 1.28 3.813v7.125h-3.718v-6.625c0-.813-.215-1.441-.64-1.89-.418-.458-.981-.688-1.688-.688-.719 0-1.293.23-1.719.687-.418.45-.625 1.078-.625 1.891v6.625h-3.734v-12.203h3.734v1.625c.375-.54.88-.969 1.516-1.281.644-.313 1.367-.47 2.172-.47zM493.343 328.78c-.656 0-1.195-.192-1.61-.579a1.853 1.853 0 0 1-.624-1.422c0-.582.207-1.066.625-1.453.414-.394.953-.594 1.609-.594.644 0 1.172.2 1.578.594.414.387.625.871.625 1.453 0 .563-.21 1.04-.625 1.422-.406.387-.934.578-1.578.578zm1.86 1.265v12.203h-3.735v-12.203zM502.87 342.42c-1.063 0-2.012-.18-2.844-.547-.824-.363-1.48-.86-1.969-1.484a3.878 3.878 0 0 1-.797-2.141h3.688c.04.43.238.773.594 1.031.351.262.785.39 1.297.39.457 0 .812-.085 1.062-.265.258-.187.39-.426.39-.719 0-.351-.183-.613-.546-.78-.367-.165-.953-.348-1.766-.548a18.369 18.369 0 0 1-2.187-.64 3.786 3.786 0 0 1-1.516-1.078c-.418-.489-.625-1.149-.625-1.985 0-.695.192-1.332.578-1.906.383-.57.953-1.023 1.703-1.36.75-.343 1.645-.515 2.688-.515 1.52 0 2.723.383 3.61 1.14.882.762 1.39 1.766 1.515 3.016h-3.453c-.055-.426-.242-.758-.563-1-.312-.25-.719-.375-1.219-.375-.437 0-.777.086-1.015.25a.805.805 0 0 0-.344.688c0 .355.18.62.547.797.375.168.957.34 1.75.515.895.23 1.629.461 2.203.688.57.23 1.07.593 1.5 1.093.426.5.645 1.172.656 2.016 0 .719-.199 1.36-.593 1.922-.399.562-.977 1.008-1.735 1.328-.75.313-1.62.469-2.61.469zM516.912 339.076v3.172h-1.906c-1.356 0-2.415-.328-3.172-.984-.75-.664-1.125-1.75-1.125-3.25v-4.86h-1.5v-3.11h1.5v-2.968h3.734v2.969h2.438v3.11h-2.438v4.89c0 .367.082.633.25.797.176.156.469.234.875.234zM522.725 332.076a4.98 4.98 0 0 1 1.64-1.578 4.258 4.258 0 0 1 2.188-.578v3.953h-1.031c-.93 0-1.625.203-2.094.61-.469.398-.703 1.1-.703 2.109v5.656h-3.735v-12.203h3.735zM527.597 336.123c0-1.25.234-2.348.703-3.297.476-.945 1.125-1.676 1.937-2.187a5.101 5.101 0 0 1 2.735-.766c.863 0 1.617.18 2.265.531a3.875 3.875 0 0 1 1.5 1.375v-1.734h3.735v12.203h-3.735v-1.734a4.036 4.036 0 0 1-1.531 1.39c-.648.344-1.398.516-2.25.516a5.033 5.033 0 0 1-2.719-.766c-.812-.52-1.46-1.254-1.937-2.203-.469-.957-.703-2.066-.703-3.328zm9.14.031c0-.937-.261-1.672-.781-2.203a2.506 2.506 0 0 0-1.89-.812c-.743 0-1.372.265-1.891.796-.512.532-.766 1.262-.766 2.188 0 .937.254 1.684.766 2.234.52.543 1.148.813 1.89.813.75 0 1.38-.27 1.891-.813.52-.539.781-1.273.781-2.203zM549.987 339.076v3.172h-1.906c-1.356 0-2.414-.328-3.172-.984-.75-.664-1.125-1.75-1.125-3.25v-4.86h-1.5v-3.11h1.5v-2.968h3.734v2.969h2.438v3.11h-2.438v4.89c0 .367.082.633.25.797.176.156.469.234.875.234zM553.94 328.78c-.656 0-1.195-.192-1.609-.579a1.853 1.853 0 0 1-.625-1.422c0-.582.207-1.066.625-1.453.414-.394.953-.594 1.61-.594.644 0 1.171.2 1.577.594.415.387.625.871.625 1.453 0 .563-.21 1.04-.625 1.422-.406.387-.933.578-1.578.578zm1.86 1.265v12.203h-3.735v-12.203zM563.999 338.748l2.64-8.703h3.985l-4.329 12.203h-4.609l-4.328-12.203h4zM577.746 342.42c-1.2 0-2.278-.254-3.235-.766a5.635 5.635 0 0 1-2.25-2.187c-.543-.946-.812-2.051-.812-3.313 0-1.258.273-2.363.828-3.312a5.614 5.614 0 0 1 2.266-2.203c.968-.508 2.05-.766 3.25-.766 1.195 0 2.273.258 3.234.766a5.663 5.663 0 0 1 2.266 2.203c.562.949.843 2.054.843 3.312 0 1.25-.28 2.356-.843 3.313a5.704 5.704 0 0 1-2.297 2.187c-.969.512-2.055.766-3.25.766zm0-3.235c.719 0 1.328-.257 1.828-.78.5-.532.75-1.282.75-2.25 0-.977-.246-1.727-.734-2.25-.493-.532-1.09-.798-1.797-.798-.73 0-1.336.262-1.813.782-.48.523-.719 1.277-.719 2.265 0 .969.235 1.719.704 2.25.476.524 1.07.781 1.78.781zM428.396 73.216v3.203h-4.36v13.25h-4.015V76.42h-4.36v-3.203zM434.419 73.216V89.67h-4.016V73.216zM413.277 516.446c0-1.52.329-2.875.985-4.062a6.975 6.975 0 0 1 2.734-2.766c1.176-.664 2.508-1 4-1 1.82 0 3.38.48 4.672 1.438 1.3.96 2.172 2.273 2.61 3.937h-4.11c-.312-.644-.75-1.133-1.312-1.469-.555-.332-1.188-.5-1.907-.5-1.148 0-2.078.403-2.797 1.204-.71.804-1.062 1.875-1.062 3.218 0 1.336.352 2.403 1.062 3.203.72.805 1.649 1.204 2.797 1.204.72 0 1.352-.165 1.907-.5.562-.333 1-.82 1.312-1.47h4.11c-.438 1.669-1.31 2.981-2.61 3.938-1.293.95-2.851 1.422-4.672 1.422-1.492 0-2.824-.328-4-.984a7.077 7.077 0 0 1-2.734-2.766c-.656-1.187-.985-2.535-.985-4.047zM436.123 524.306c-1.2 0-2.278-.254-3.235-.766a5.635 5.635 0 0 1-2.25-2.187c-.543-.946-.812-2.051-.812-3.313 0-1.258.273-2.363.828-3.312a5.614 5.614 0 0 1 2.266-2.204c.968-.507 2.05-.765 3.25-.765 1.195 0 2.273.258 3.234.765a5.663 5.663 0 0 1 2.266 2.204c.562.949.843 2.054.843 3.312 0 1.25-.28 2.355-.843 3.313a5.704 5.704 0 0 1-2.297 2.187c-.969.512-2.055.766-3.25.766zm0-3.235c.718 0 1.328-.258 1.828-.781.5-.531.75-1.281.75-2.25 0-.977-.246-1.727-.735-2.25-.492-.531-1.09-.797-1.796-.797-.73 0-1.336.262-1.813.781-.48.524-.719 1.278-.719 2.266 0 .969.235 1.719.703 2.25.477.523 1.07.781 1.782.781zM460.064 511.806c1.507 0 2.71.46 3.609 1.375.894.918 1.344 2.195 1.344 3.828v7.125h-3.703v-6.625c0-.781-.211-1.383-.625-1.813-.418-.437-.993-.656-1.72-.656-.73 0-1.304.219-1.718.656-.418.43-.625 1.032-.625 1.813v6.625h-3.719v-6.625c0-.781-.21-1.383-.625-1.813-.406-.437-.976-.656-1.703-.656-.73 0-1.305.219-1.719.656-.418.43-.625 1.032-.625 1.813v6.625h-3.734V511.93h3.734v1.53c.375-.507.868-.91 1.485-1.202.613-.301 1.304-.453 2.078-.453.914 0 1.734.199 2.453.593a4.276 4.276 0 0 1 1.703 1.672c.414-.664.988-1.207 1.719-1.625a4.645 4.645 0 0 1 2.39-.64zM479.151 517.837c0 .355-.027.719-.078 1.094h-8.453c.063.761.305 1.343.734 1.75.426.398.954.593 1.579.593.937 0 1.586-.394 1.953-1.187h3.968a5.417 5.417 0 0 1-1.093 2.172 5.546 5.546 0 0 1-2 1.5c-.805.367-1.7.547-2.688.547-1.199 0-2.265-.254-3.203-.766a5.483 5.483 0 0 1-2.187-2.187c-.524-.946-.782-2.051-.782-3.313 0-1.27.258-2.379.782-3.328a5.421 5.421 0 0 1 2.171-2.188c.938-.507 2.008-.765 3.22-.765 1.175 0 2.222.25 3.14.75a5.35 5.35 0 0 1 2.156 2.125c.52.918.781 1.984.781 3.203zm-3.828-.984c0-.633-.219-1.141-.656-1.516-.438-.383-.984-.578-1.64-.578-.626 0-1.157.183-1.594.547-.43.367-.696.882-.797 1.547zM484.852 513.962a4.98 4.98 0 0 1 1.64-1.578 4.258 4.258 0 0 1 2.188-.578v3.953h-1.031c-.93 0-1.625.203-2.094.61-.469.398-.703 1.1-.703 2.109v5.656h-3.735V511.93h3.735zM489.724 518.04c0-1.27.258-2.379.781-3.328a5.457 5.457 0 0 1 2.156-2.188c.926-.507 1.989-.765 3.188-.765 1.531 0 2.804.402 3.828 1.203 1.031.805 1.707 1.933 2.031 3.39h-3.984c-.336-.937-.98-1.406-1.938-1.406-.687 0-1.234.274-1.64.813-.407.531-.61 1.293-.61 2.281 0 .992.203 1.75.61 2.281.406.532.953.797 1.64.797.957 0 1.602-.469 1.938-1.406h3.984c-.324 1.437-1.008 2.562-2.047 3.375-1.031.812-2.304 1.219-3.812 1.219-1.2 0-2.262-.254-3.188-.766a5.409 5.409 0 0 1-2.156-2.187c-.523-.946-.781-2.051-.781-3.313zM505.574 510.665c-.656 0-1.195-.191-1.609-.578a1.853 1.853 0 0 1-.625-1.422c0-.582.207-1.066.625-1.453.414-.395.953-.594 1.61-.594.644 0 1.171.2 1.577.594.415.387.625.871.625 1.453 0 .563-.21 1.04-.625 1.422-.406.387-.933.578-1.578.578zm1.86 1.266v12.203h-3.735V511.93zM509.398 518.009c0-1.25.235-2.348.703-3.297.477-.945 1.125-1.676 1.938-2.188a5.101 5.101 0 0 1 2.734-.765c.864 0 1.617.18 2.266.531a3.875 3.875 0 0 1 1.5 1.375v-1.734h3.734v12.203h-3.734v-1.735a4.036 4.036 0 0 1-1.531 1.391c-.649.344-1.399.516-2.25.516a5.033 5.033 0 0 1-2.72-.766c-.812-.52-1.46-1.254-1.937-2.203-.468-.957-.703-2.067-.703-3.328zm9.14.031c0-.937-.26-1.672-.78-2.203a2.506 2.506 0 0 0-1.891-.813c-.742 0-1.371.266-1.89.797-.512.532-.766 1.262-.766 2.188 0 .937.254 1.683.765 2.234.52.543 1.149.813 1.891.813.75 0 1.379-.27 1.89-.813.52-.539.782-1.273.782-2.203zM528.726 507.962v16.172h-3.734v-16.172zm0 0" fill="#fff"/><path d="M195.043 312.79v15.234h-3.72V312.79zM205.102 315.79c1.426 0 2.562.461 3.406 1.375.844.918 1.266 2.18 1.266 3.781v7.078h-3.688v-6.578c0-.812-.215-1.441-.64-1.89-.418-.446-.981-.672-1.688-.672-.71 0-1.273.226-1.687.672-.418.449-.625 1.078-.625 1.89v6.578h-3.72v-12.109h3.72v1.61c.375-.54.878-.962 1.515-1.266.633-.313 1.348-.469 2.14-.469zM217.278 328.196c-1.055 0-1.992-.176-2.813-.531-.824-.363-1.476-.86-1.953-1.484a3.974 3.974 0 0 1-.812-2.125h3.672c.039.418.234.757.578 1.015.351.262.785.39 1.297.39.457 0 .812-.085 1.062-.265.258-.187.39-.422.39-.703 0-.351-.183-.613-.546-.781-.367-.164-.953-.348-1.766-.547a18.463 18.463 0 0 1-2.172-.64 3.899 3.899 0 0 1-1.5-1.063c-.418-.488-.625-1.145-.625-1.969 0-.695.192-1.328.578-1.89.383-.57.946-1.024 1.688-1.36.75-.332 1.64-.5 2.672-.5 1.52 0 2.719.375 3.594 1.125s1.375 1.75 1.5 3H218.7c-.063-.426-.25-.758-.563-1-.312-.25-.719-.375-1.219-.375-.437 0-.773.086-1 .25a.805.805 0 0 0-.343.688c0 .343.18.605.547.78.375.18.953.352 1.734.517.894.242 1.625.476 2.187.703.563.218 1.055.578 1.485 1.078.426.492.644 1.156.656 2 0 .71-.2 1.344-.594 1.906-.398.555-.968.992-1.718 1.313-.743.312-1.606.468-2.594.468zM236.42 315.915v12.11h-3.703v-1.657c-.375.543-.886.977-1.531 1.297a4.71 4.71 0 0 1-2.14.484c-.93 0-1.747-.203-2.454-.609-.71-.414-1.261-1.016-1.656-1.797-.387-.781-.578-1.695-.578-2.75v-7.078h3.687v6.578c0 .813.207 1.445.625 1.89.426.45.993.673 1.704.673.718 0 1.285-.223 1.703-.672.425-.446.64-1.078.64-1.89v-6.579zM254.55 315.79c1.507 0 2.707.461 3.593 1.375.883.906 1.328 2.168 1.328 3.781v7.078h-3.687v-6.578c0-.781-.211-1.383-.625-1.812-.406-.426-.969-.64-1.688-.64-.73 0-1.304.214-1.718.64-.407.43-.61 1.031-.61 1.812v6.578h-3.687v-6.578c0-.781-.211-1.383-.625-1.812-.406-.426-.977-.64-1.703-.64-.72 0-1.29.214-1.703.64-.407.43-.61 1.031-.61 1.812v6.578h-3.719v-12.109h3.72v1.516c.374-.5.862-.895 1.468-1.188.601-.3 1.289-.453 2.062-.453.914 0 1.727.2 2.438.594a4.174 4.174 0 0 1 1.687 1.656 4.827 4.827 0 0 1 1.704-1.625 4.722 4.722 0 0 1 2.375-.625zM267.598 328.196c-1.188 0-2.258-.25-3.204-.75a5.56 5.56 0 0 1-2.234-2.172c-.543-.945-.812-2.05-.812-3.312 0-1.238.27-2.332.812-3.281a5.538 5.538 0 0 1 2.266-2.172c.957-.508 2.031-.766 3.218-.766 1.188 0 2.254.258 3.204.766.957.5 1.71 1.226 2.265 2.172.551.949.828 2.043.828 3.28 0 1.25-.28 2.352-.843 3.298a5.616 5.616 0 0 1-2.282 2.187c-.96.5-2.03.75-3.218.75zm0-3.203c.707 0 1.312-.258 1.812-.781.5-.52.75-1.27.75-2.25 0-.969-.246-1.711-.734-2.234a2.331 2.331 0 0 0-1.782-.782c-.73 0-1.335.262-1.812.782-.469.511-.703 1.257-.703 2.234 0 .98.234 1.73.703 2.25.469.523 1.055.781 1.766.781zM280.83 328.196c-1.055 0-1.992-.176-2.813-.531-.824-.363-1.476-.86-1.953-1.484a3.974 3.974 0 0 1-.812-2.125h3.672c.039.418.234.757.578 1.015.351.262.785.39 1.297.39.457 0 .812-.085 1.062-.265.258-.187.39-.422.39-.703 0-.351-.183-.613-.546-.781-.367-.164-.953-.348-1.766-.547a18.463 18.463 0 0 1-2.172-.64 3.899 3.899 0 0 1-1.5-1.063c-.418-.488-.625-1.145-.625-1.969 0-.695.192-1.328.579-1.89.382-.57.945-1.024 1.687-1.36.75-.332 1.64-.5 2.672-.5 1.52 0 2.719.375 3.594 1.125s1.375 1.75 1.5 3h-3.422c-.063-.426-.25-.758-.563-1-.312-.25-.718-.375-1.218-.375-.438 0-.774.086-1 .25a.805.805 0 0 0-.344.688c0 .343.18.605.547.78.375.18.953.352 1.734.517.895.242 1.625.476 2.188.703.562.218 1.054.578 1.484 1.078.426.492.644 1.156.656 2 0 .71-.199 1.344-.594 1.906-.398.555-.968.992-1.718 1.313-.742.312-1.606.468-2.594.468zM128.758 495.454v12.734h-3.11v-7.64l-2.843 7.64h-2.5l-2.86-7.656v7.656h-3.11v-12.734h3.673l3.562 8.812 3.547-8.812zM130.373 503.11c0-1.04.191-1.953.578-2.734.395-.79.93-1.395 1.61-1.813a4.16 4.16 0 0 1 2.265-.64c.719 0 1.344.148 1.875.437.54.293.957.672 1.25 1.14v-1.437h3.094v10.125h-3.094v-1.437c-.304.48-.726.867-1.265 1.156-.543.281-1.168.422-1.875.422-.825 0-1.575-.211-2.25-.64-.68-.427-1.215-1.036-1.61-1.829-.387-.79-.578-1.707-.578-2.75zm7.578.016c0-.77-.219-1.38-.656-1.828a2.092 2.092 0 0 0-1.563-.672 2.08 2.08 0 0 0-1.562.672c-.43.437-.64 1.042-.64 1.812 0 .773.21 1.387.64 1.844.426.449.945.672 1.562.672.614 0 1.133-.223 1.563-.672.437-.446.656-1.055.656-1.828zM149.467 497.954c1.176 0 2.117.386 2.828 1.156.707.773 1.063 1.828 1.063 3.172v5.906h-3.078v-5.5c0-.676-.18-1.203-.532-1.578-.343-.375-.812-.562-1.406-.562-.594 0-1.07.187-1.422.562-.344.375-.515.902-.515 1.578v5.5h-3.11v-10.125h3.11v1.344c.312-.445.734-.8 1.265-1.063a4.06 4.06 0 0 1 1.797-.39zM165.517 498.063v10.125h-3.11v-1.375c-.312.45-.741.809-1.28 1.078-.532.274-1.125.407-1.782.407-.773 0-1.453-.172-2.046-.516-.594-.344-1.06-.844-1.391-1.5-.324-.656-.484-1.422-.484-2.297v-5.922h3.093v5.5c0 .68.172 1.203.516 1.578.351.375.828.563 1.422.563.601 0 1.078-.188 1.422-.563.351-.375.53-.898.53-1.578v-5.5zM173.38 505.563v2.625h-1.578c-1.125 0-2.008-.273-2.64-.828-.626-.55-.938-1.445-.938-2.687v-4.032h-1.235v-2.578h1.235v-2.469h3.11v2.47h2.03v2.577h-2.03v4.063c0 .304.07.523.218.656.144.137.383.203.719.203zM184.648 502.97c0 .28-.023.585-.062.906h-7.016c.051.625.254 1.105.61 1.437.351.336.789.5 1.312.5.77 0 1.305-.328 1.61-.984h3.312a4.714 4.714 0 0 1-.922 1.797c-.437.53-.992.949-1.656 1.25-.668.304-1.414.453-2.234.453-.993 0-1.875-.207-2.657-.625a4.571 4.571 0 0 1-1.812-1.813c-.43-.789-.64-1.71-.64-2.765 0-1.051.21-1.97.64-2.75a4.368 4.368 0 0 1 1.797-1.813c.781-.426 1.672-.64 2.672-.64.976 0 1.847.21 2.609.625a4.414 4.414 0 0 1 1.781 1.75c.438.761.656 1.652.656 2.671zm-3.187-.829c0-.531-.184-.953-.547-1.265-.355-.313-.805-.47-1.344-.47-.523 0-.964.153-1.328.454-.355.305-.574.73-.656 1.281zM192.444 497.954c1.176 0 2.117.386 2.828 1.156.707.773 1.062 1.828 1.062 3.172v5.906h-3.078v-5.5c0-.676-.18-1.203-.53-1.578-.345-.375-.813-.562-1.407-.562-.594 0-1.07.187-1.422.562-.344.375-.516.902-.516 1.578v5.5h-3.109v-10.125h3.11v1.344c.312-.445.734-.8 1.265-1.063a4.06 4.06 0 0 1 1.797-.39zM202.9 505.688c.801 0 1.336-.39 1.61-1.172h3.312c-.23 1.032-.695 1.875-1.39 2.532-.688.656-1.543 1.062-2.563 1.218v.672c.625 0 1.172.172 1.64.516.477.344.72.86.72 1.547 0 .687-.25 1.207-.75 1.562-.5.363-1.094.547-1.782.547H200.9v-1.719h2.375c.25 0 .43-.039.547-.11.125-.062.188-.183.188-.358 0-.168-.063-.29-.188-.36-.117-.062-.297-.094-.547-.094h-1.281v-2.203c-1.25-.195-2.25-.75-3-1.656-.742-.914-1.11-2.078-1.11-3.484 0-1.051.212-1.97.641-2.75a4.401 4.401 0 0 1 1.782-1.813c.77-.426 1.656-.64 2.656-.64 1.258 0 2.316.335 3.172 1 .851.667 1.414 1.605 1.687 2.812h-3.312c-.274-.781-.809-1.172-1.61-1.172-.562 0-1.015.227-1.36.672-.335.438-.5 1.07-.5 1.89 0 .825.165 1.462.5 1.907.345.437.798.656 1.36.656zM208.856 503.11c0-1.04.19-1.953.578-2.734.394-.79.93-1.395 1.609-1.813a4.16 4.16 0 0 1 2.266-.64c.718 0 1.343.148 1.875.437.539.293.957.672 1.25 1.14v-1.437h3.093v10.125h-3.093v-1.437c-.305.48-.727.867-1.266 1.156-.543.281-1.168.422-1.875.422-.824 0-1.574-.211-2.25-.64-.68-.427-1.215-1.036-1.61-1.829-.386-.79-.577-1.707-.577-2.75zm7.578.016c0-.77-.22-1.38-.657-1.828a2.092 2.092 0 0 0-1.562-.672 2.08 2.08 0 0 0-1.563.672c-.43.437-.64 1.042-.64 1.812 0 .773.21 1.387.64 1.844.426.449.946.672 1.563.672.613 0 1.133-.223 1.562-.672.438-.446.657-1.055.657-1.828zm-5.5-5.907c.289-1.789 1.125-2.687 2.5-2.687.27 0 .504.043.703.125.195.074.441.187.734.344.219.125.39.214.516.265.133.055.273.078.422.078.445 0 .707-.27.78-.812h1.595c-.293 1.793-1.125 2.687-2.5 2.687-.274 0-.508-.035-.703-.109a6.285 6.285 0 0 1-.735-.375 6.879 6.879 0 0 0-.531-.25.9.9 0 0 0-.406-.094c-.45 0-.715.278-.797.828zM226.387 508.329c-.992 0-1.883-.207-2.672-.625a4.727 4.727 0 0 1-1.875-1.813c-.45-.789-.672-1.71-.672-2.765 0-1.04.227-1.957.688-2.75a4.625 4.625 0 0 1 1.875-1.813c.8-.426 1.695-.64 2.687-.64.989 0 1.883.214 2.688.64a4.64 4.64 0 0 1 1.89 1.813c.457.793.688 1.71.688 2.75 0 1.043-.234 1.96-.703 2.75a4.792 4.792 0 0 1-1.906 1.828c-.805.418-1.7.625-2.688.625zm0-2.688c.594 0 1.098-.21 1.516-.64.414-.438.625-1.063.625-1.875 0-.813-.203-1.43-.61-1.86a1.967 1.967 0 0 0-1.5-.656c-.605 0-1.105.215-1.5.64-.398.43-.593 1.055-.593 1.876 0 .812.19 1.437.578 1.875.394.43.89.64 1.484.64zM312.175 508.188l-2.657-4.812h-.734v4.812h-3.11v-12.734h5.204c1.008 0 1.863.18 2.562.531.707.344 1.238.824 1.594 1.438.352.617.531 1.296.531 2.046 0 .844-.242 1.602-.719 2.266-.48.668-1.183 1.137-2.109 1.406l2.938 5.047zm-3.391-7h1.922c.562 0 .984-.14 1.265-.422.29-.281.438-.672.438-1.172 0-.488-.148-.867-.438-1.14-.28-.281-.703-.422-1.265-.422h-1.922zM328.529 495.454v12.734h-3.11v-5.25h-4.812v5.25h-3.11v-12.734h3.11v4.984h4.813v-4.984zM469.895 419.121l-2.657-4.812h-.734v4.812h-3.11v-12.734h5.204c1.008 0 1.863.18 2.562.531.707.344 1.239.824 1.594 1.438.352.617.531 1.296.531 2.046 0 .844-.242 1.602-.718 2.266-.48.668-1.184 1.137-2.11 1.406l2.938 5.047zm-3.39-7h1.921c.562 0 .984-.14 1.266-.422.289-.28.437-.672.437-1.172 0-.488-.148-.867-.437-1.14-.282-.281-.704-.422-1.266-.422h-1.922zM486.25 406.387v12.734h-3.11v-5.25h-4.813v5.25h-3.11v-12.734h3.11v4.984h4.813v-4.984zM487.6 237.651v15.235h-3.703v-9.141l-3.406 9.14h-3l-3.422-9.156v9.157h-3.719V237.65h4.39l4.266 10.547 4.235-10.547zM489.54 246.808c0-1.239.235-2.329.704-3.266.469-.945 1.11-1.672 1.922-2.172a5.029 5.029 0 0 1 2.719-.766c.851 0 1.597.172 2.234.516.644.344 1.14.805 1.484 1.375v-1.719h3.719v12.11h-3.719v-1.72c-.355.563-.855 1.024-1.5 1.376-.648.344-1.398.516-2.25.516-.98 0-1.875-.254-2.687-.766-.813-.52-1.453-1.25-1.922-2.188-.469-.945-.703-2.046-.703-3.296zm9.063.015c0-.914-.258-1.64-.765-2.172a2.49 2.49 0 0 0-1.875-.812c-.743 0-1.368.265-1.875.797-.512.523-.766 1.246-.766 2.172 0 .93.254 1.664.766 2.203a2.465 2.465 0 0 0 1.875.812c.738 0 1.363-.265 1.875-.797.507-.539.765-1.273.765-2.203zM512.388 240.651c1.426 0 2.562.461 3.406 1.375.844.918 1.266 2.18 1.266 3.782v7.078h-3.688v-6.578c0-.813-.215-1.442-.64-1.891-.418-.445-.98-.672-1.688-.672-.71 0-1.273.227-1.687.672-.418.45-.625 1.078-.625 1.89v6.579h-3.72v-12.11h3.72v1.61c.375-.54.878-.961 1.515-1.266.633-.312 1.348-.469 2.14-.469zM531.595 240.776v12.11h-3.703v-1.657c-.375.543-.887.977-1.531 1.297a4.71 4.71 0 0 1-2.14.485c-.93 0-1.747-.203-2.454-.61-.711-.414-1.262-1.015-1.656-1.797-.387-.78-.578-1.695-.578-2.75v-7.078h3.687v6.578c0 .813.207 1.446.625 1.891.426.45.992.672 1.703.672.719 0 1.285-.223 1.703-.672.426-.445.641-1.078.641-1.89v-6.579zM541.021 249.745v3.14h-1.89c-1.344 0-2.391-.327-3.141-.984-.75-.656-1.125-1.726-1.125-3.218v-4.829h-1.485v-3.078h1.485v-2.953h3.703v2.953h2.437v3.078h-2.437v4.86c0 .367.082.633.25.797.176.156.469.234.875.234zM554.505 246.636c0 .343-.023.703-.062 1.078h-8.407c.063.762.305 1.34.735 1.734.426.399.945.594 1.562.594.926 0 1.57-.39 1.938-1.172h3.953a5.623 5.623 0 0 1-1.11 2.156 5.423 5.423 0 0 1-1.984 1.5c-.793.356-1.68.532-2.656.532-1.188 0-2.246-.25-3.172-.75a5.407 5.407 0 0 1-2.172-2.172c-.523-.946-.781-2.051-.781-3.313 0-1.25.254-2.344.766-3.281.52-.945 1.238-1.672 2.156-2.172.926-.508 1.992-.766 3.203-.766 1.164 0 2.203.247 3.11.735a5.274 5.274 0 0 1 2.14 2.11c.52.905.781 1.968.781 3.187zm-3.797-.985c0-.633-.218-1.14-.656-1.515-.437-.375-.98-.563-1.625-.563-.625 0-1.152.184-1.578.547-.43.367-.695.875-.797 1.531zM563.829 240.651c1.425 0 2.562.461 3.406 1.375.844.918 1.265 2.18 1.265 3.782v7.078h-3.687v-6.578c0-.813-.215-1.442-.64-1.891-.419-.445-.981-.672-1.688-.672-.711 0-1.274.227-1.688.672-.418.45-.625 1.078-.625 1.89v6.579h-3.718v-12.11h3.718v1.61c.375-.54.88-.961 1.516-1.266.633-.312 1.348-.469 2.14-.469zM576.364 249.886c.945 0 1.586-.461 1.922-1.391h3.953c-.273 1.23-.824 2.234-1.656 3.016-.824.78-1.852 1.273-3.078 1.468v.797c.75 0 1.406.203 1.968.61.57.414.86 1.035.86 1.859 0 .82-.297 1.445-.89 1.875-.595.426-1.306.64-2.126.64h-3.344v-2.03h2.844c.29 0 .504-.047.64-.141.145-.086.22-.227.22-.422 0-.211-.075-.356-.22-.438-.136-.074-.35-.109-.64-.109h-1.547v-2.64c-1.492-.239-2.683-.899-3.578-1.985-.898-1.094-1.344-2.484-1.344-4.172 0-1.25.254-2.344.766-3.281.52-.945 1.238-1.672 2.156-2.172.914-.508 1.969-.766 3.156-.766 1.52 0 2.79.403 3.813 1.204 1.02.793 1.687 1.914 2 3.359h-3.953c-.336-.926-.977-1.39-1.922-1.39-.688 0-1.234.265-1.64.796-.4.524-.594 1.274-.594 2.25 0 .992.195 1.75.593 2.281.407.524.953.782 1.641.782zM583.48 246.808c0-1.239.234-2.329.703-3.266.469-.945 1.11-1.672 1.922-2.172a5.029 5.029 0 0 1 2.719-.766c.851 0 1.597.172 2.234.516.645.344 1.14.805 1.484 1.375v-1.719h3.72v12.11h-3.72v-1.72c-.355.563-.855 1.024-1.5 1.376-.648.344-1.398.516-2.25.516-.98 0-1.875-.254-2.687-.766-.813-.52-1.453-1.25-1.922-2.188-.469-.945-.703-2.046-.703-3.296zm9.062.015c0-.914-.257-1.64-.765-2.172a2.49 2.49 0 0 0-1.875-.812c-.742 0-1.367.265-1.875.797-.512.523-.766 1.246-.766 2.172 0 .93.254 1.664.766 2.203a2.465 2.465 0 0 0 1.875.812c.738 0 1.363-.265 1.875-.797.508-.539.765-1.273.765-2.203zm-6.562-7.062c.344-2.145 1.344-3.22 3-3.22.312 0 .586.048.828.142.238.093.531.234.875.421.258.149.469.258.625.329.164.062.336.093.516.093.53 0 .836-.328.921-.984h1.922c-.355 2.148-1.355 3.219-3 3.219a2.3 2.3 0 0 1-.843-.141 7.724 7.724 0 0 1-.875-.422 6.094 6.094 0 0 0-.625-.312 1.212 1.212 0 0 0-.5-.11c-.532 0-.852.328-.954.985zM604.468 253.058c-1.188 0-2.258-.25-3.204-.75a5.56 5.56 0 0 1-2.234-2.172c-.543-.946-.812-2.051-.812-3.313 0-1.238.27-2.332.812-3.281a5.538 5.538 0 0 1 2.266-2.172c.957-.508 2.03-.766 3.218-.766 1.188 0 2.254.258 3.204.766.957.5 1.71 1.227 2.265 2.172.551.95.828 2.043.828 3.281 0 1.25-.281 2.352-.843 3.297a5.616 5.616 0 0 1-2.282 2.188c-.96.5-2.031.75-3.218.75zm0-3.204c.707 0 1.312-.257 1.812-.78.5-.52.75-1.27.75-2.25 0-.97-.246-1.712-.734-2.235a2.331 2.331 0 0 0-1.782-.781c-.73 0-1.336.261-1.812.78-.469.513-.703 1.259-.703 2.235 0 .98.234 1.73.703 2.25.469.524 1.055.781 1.766.781zM466.89 136.289v15.234h-3.72V136.29zM476.949 139.289c1.426 0 2.562.46 3.406 1.375.844.918 1.266 2.18 1.266 3.781v7.078h-3.688v-6.578c0-.812-.215-1.441-.64-1.89-.418-.446-.98-.672-1.688-.672-.71 0-1.273.226-1.687.671-.418.45-.625 1.079-.625 1.891v6.578h-3.72v-12.11h3.72v1.61c.375-.539.879-.96 1.515-1.265.633-.313 1.348-.47 2.14-.47zM490.281 142.492h-2v9.031h-3.703v-9.031h-1.344v-3.078h1.344v-.344c0-1.488.426-2.617 1.281-3.39.852-.782 2.102-1.172 3.75-1.172.27 0 .473.007.61.015v3.156c-.711-.039-1.211.063-1.5.313-.293.242-.438.68-.438 1.312v.11h2zM495.736 141.43a4.694 4.694 0 0 1 1.609-1.563 4.258 4.258 0 0 1 2.187-.578v3.922h-1.03c-.919 0-1.61.199-2.079.593-.46.399-.687 1.094-.687 2.094v5.625h-3.72v-12.11h3.72zM500.572 145.445c0-1.238.235-2.328.703-3.266.47-.945 1.11-1.671 1.922-2.171a5.029 5.029 0 0 1 2.719-.766c.851 0 1.598.172 2.234.516.645.343 1.14.804 1.485 1.375v-1.72h3.718v12.11h-3.718v-1.719c-.356.563-.856 1.024-1.5 1.375-.649.344-1.399.516-2.25.516-.98 0-1.875-.254-2.688-.766-.812-.52-1.453-1.25-1.922-2.187-.468-.945-.703-2.047-.703-3.297zm9.063.016c0-.914-.258-1.64-.766-2.172a2.49 2.49 0 0 0-1.875-.813c-.742 0-1.367.266-1.875.797-.512.524-.766 1.246-.766 2.172 0 .93.254 1.664.766 2.203a2.465 2.465 0 0 0 1.875.813c.738 0 1.363-.266 1.875-.797.508-.54.766-1.274.766-2.203zM527.466 145.273c0 .344-.023.703-.062 1.078h-8.407c.063.762.305 1.34.735 1.735.426.398.945.593 1.562.593.926 0 1.57-.39 1.938-1.171h3.953a5.623 5.623 0 0 1-1.11 2.156 5.423 5.423 0 0 1-1.984 1.5c-.793.355-1.68.531-2.656.531-1.188 0-2.246-.25-3.172-.75a5.407 5.407 0 0 1-2.172-2.172c-.523-.945-.781-2.05-.781-3.312 0-1.25.254-2.344.765-3.282.52-.945 1.239-1.671 2.157-2.171.926-.508 1.992-.766 3.203-.766 1.164 0 2.203.246 3.11.734a5.274 5.274 0 0 1 2.14 2.11c.52.906.781 1.968.781 3.187zm-3.797-.984c0-.633-.219-1.14-.656-1.516-.438-.375-.98-.562-1.625-.562-.625 0-1.152.183-1.578.547-.43.367-.695.875-.797 1.53zM534.336 151.695c-1.054 0-1.992-.176-2.812-.531-.824-.363-1.477-.86-1.953-1.485a3.974 3.974 0 0 1-.813-2.125h3.672c.04.418.234.758.578 1.016.352.262.785.39 1.297.39.457 0 .813-.085 1.063-.265.257-.187.39-.422.39-.703 0-.352-.183-.613-.547-.781-.367-.164-.953-.348-1.765-.547a18.463 18.463 0 0 1-2.172-.64 3.899 3.899 0 0 1-1.5-1.063c-.418-.489-.625-1.145-.625-1.97 0-.694.191-1.327.578-1.89.383-.57.945-1.023 1.687-1.36.75-.331 1.641-.5 2.672-.5 1.52 0 2.72.376 3.594 1.126.875.75 1.375 1.75 1.5 3h-3.422c-.062-.426-.25-.758-.562-1-.313-.25-.719-.375-1.219-.375-.438 0-.773.086-1 .25a.805.805 0 0 0-.344.687c0 .344.18.606.547.782.375.18.953.351 1.734.515.895.243 1.625.477 2.188.703.562.22 1.055.579 1.484 1.079.426.492.645 1.156.657 2 0 .71-.2 1.343-.594 1.906-.399.555-.969.992-1.719 1.312-.742.313-1.605.47-2.594.47zM548.276 148.383v3.14h-1.89c-1.345 0-2.391-.328-3.141-.984-.75-.656-1.125-1.727-1.125-3.219v-4.828h-1.485v-3.078h1.485v-2.953h3.703v2.953h2.437v3.078h-2.437v4.86c0 .367.082.632.25.796.176.156.468.235.875.235zM554.057 141.43a4.694 4.694 0 0 1 1.61-1.563 4.258 4.258 0 0 1 2.187-.578v3.922h-1.032c-.918 0-1.609.199-2.078.593-.46.399-.687 1.094-.687 2.094v5.625h-3.719v-12.11h3.719zM571.58 139.414v12.11h-3.702v-1.657c-.375.543-.887.977-1.531 1.297a4.71 4.71 0 0 1-2.141.484c-.93 0-1.746-.203-2.453-.61-.711-.413-1.262-1.015-1.656-1.796-.387-.781-.579-1.695-.579-2.75v-7.078h3.688v6.578c0 .812.207 1.445.625 1.89.426.45.992.672 1.703.672.719 0 1.285-.222 1.703-.671.426-.446.64-1.079.64-1.891v-6.578zM581.007 148.383v3.14h-1.89c-1.344 0-2.391-.328-3.141-.984-.75-.656-1.125-1.727-1.125-3.219v-4.828h-1.485v-3.078h1.485v-2.953h3.703v2.953h2.437v3.078h-2.437v4.86c0 .367.082.632.25.796.176.156.469.235.875.235zM595.022 139.414v12.11h-3.703v-1.657c-.375.543-.887.977-1.531 1.297a4.71 4.71 0 0 1-2.14.484c-.93 0-1.747-.203-2.454-.61-.71-.413-1.262-1.015-1.656-1.796-.387-.781-.578-1.695-.578-2.75v-7.078h3.687v6.578c0 .812.207 1.445.625 1.89.426.45.992.672 1.703.672.72 0 1.286-.222 1.704-.671.425-.446.64-1.079.64-1.891v-6.578zM601.417 141.43a4.694 4.694 0 0 1 1.61-1.563 4.258 4.258 0 0 1 2.187-.578v3.922h-1.031c-.918 0-1.61.199-2.078.593-.461.399-.688 1.094-.688 2.094v5.625h-3.719v-12.11h3.72zM606.254 145.445c0-1.238.234-2.328.703-3.266.469-.945 1.11-1.671 1.922-2.171a5.029 5.029 0 0 1 2.718-.766c.852 0 1.598.172 2.235.516.644.343 1.14.804 1.484 1.375v-1.72h3.719v12.11h-3.719v-1.719c-.355.563-.855 1.024-1.5 1.375-.648.344-1.398.516-2.25.516-.98 0-1.875-.254-2.687-.766-.813-.52-1.453-1.25-1.922-2.187-.469-.945-.703-2.047-.703-3.297zm9.062.016c0-.914-.258-1.64-.765-2.172a2.49 2.49 0 0 0-1.875-.813c-.743 0-1.368.266-1.875.797-.512.524-.766 1.246-.766 2.172 0 .93.254 1.664.766 2.203a2.465 2.465 0 0 0 1.875.813c.738 0 1.363-.266 1.875-.797.507-.54.765-1.274.765-2.203zM586.253 428.139v2.484h-5.187v2.687h3.875v2.407h-3.875v5.156h-3.11v-12.734zM589.438 429.701c-.543 0-.992-.16-1.344-.484a1.562 1.562 0 0 1-.515-1.188c0-.476.171-.879.515-1.203.352-.32.801-.484 1.344-.484.531 0 .969.164 1.312.484.344.324.516.727.516 1.203 0 .469-.172.867-.516 1.188-.343.324-.78.484-1.312.484zm1.547 1.047v10.125h-3.11v-10.125zM599.21 440.873l-1.938-2.813-1.64 2.813h-3.345l3.329-5.172-3.422-4.953h3.484l1.938 2.797 1.625-2.797h3.359l-3.39 5.094 3.484 5.03zM603.278 435.795c0-1.04.192-1.953.578-2.735.395-.789.93-1.394 1.61-1.812a4.16 4.16 0 0 1 2.265-.64c.719 0 1.344.148 1.875.437.54.293.957.672 1.25 1.14v-1.437h3.094v10.125h-3.094v-1.438c-.304.48-.726.868-1.265 1.157-.543.28-1.168.422-1.875.422-.825 0-1.575-.211-2.25-.641-.68-.426-1.215-1.035-1.61-1.828-.386-.79-.578-1.707-.578-2.75zm7.578.015c0-.77-.219-1.378-.656-1.828a2.092 2.092 0 0 0-1.563-.672 2.08 2.08 0 0 0-1.562.672c-.43.438-.64 1.043-.64 1.813 0 .773.21 1.387.64 1.844.426.449.945.671 1.562.671.614 0 1.133-.222 1.563-.671.437-.446.656-1.055.656-1.829zM620.325 441.014c-.886 0-1.68-.149-2.375-.454-.687-.3-1.23-.71-1.625-1.234a3.314 3.314 0 0 1-.672-1.766h3.063c.039.344.207.625.5.844.289.219.644.328 1.062.328.383 0 .68-.07.891-.218.219-.157.328-.352.328-.594 0-.29-.152-.504-.453-.64-.305-.145-.793-.302-1.469-.47a13.32 13.32 0 0 1-1.828-.53 3.151 3.151 0 0 1-1.25-.891c-.344-.407-.516-.954-.516-1.641 0-.582.16-1.113.485-1.594.32-.476.789-.851 1.406-1.125.625-.281 1.367-.422 2.234-.422 1.27 0 2.27.32 3 .953.727.625 1.145 1.454 1.25 2.485h-2.859a1.292 1.292 0 0 0-.469-.828c-.261-.207-.601-.313-1.015-.313-.367 0-.649.074-.844.219a.659.659 0 0 0-.281.562c0 .293.148.512.453.657.312.148.797.293 1.453.437.75.188 1.36.375 1.828.563.469.187.879.496 1.234.922.364.418.551.976.563 1.671 0 .594-.168 1.125-.5 1.594-.336.461-.813.824-1.438 1.094-.625.258-1.343.39-2.156.39zM427.883 576.78a4.08 4.08 0 0 1-.516 2.032c-.336.606-.855 1.094-1.562 1.469-.7.375-1.563.562-2.594.562h-1.922v4.578h-3.11v-12.734h5.032c1.008 0 1.863.18 2.563.531.707.344 1.234.828 1.578 1.453.351.618.531 1.32.531 2.11zm-4.922 1.61c.594 0 1.035-.14 1.328-.422.29-.28.438-.675.438-1.187 0-.5-.149-.89-.438-1.172-.293-.281-.734-.422-1.328-.422h-1.672v3.203zM432.605 576.984c.351-.55.8-.988 1.343-1.313.551-.32 1.16-.484 1.829-.484v3.281h-.86c-.773 0-1.351.168-1.734.5-.387.336-.578.918-.578 1.75v4.703h-3.11v-10.125h3.11zM441.866 585.562c-.992 0-1.883-.207-2.672-.625a4.727 4.727 0 0 1-1.875-1.812c-.45-.79-.672-1.711-.672-2.766 0-1.04.227-1.957.688-2.75a4.625 4.625 0 0 1 1.875-1.813c.8-.425 1.695-.64 2.687-.64.988 0 1.883.215 2.688.64a4.64 4.64 0 0 1 1.89 1.813c.457.793.688 1.71.688 2.75 0 1.043-.235 1.96-.703 2.75a4.792 4.792 0 0 1-1.907 1.828c-.804.418-1.699.625-2.687.625zm0-2.687c.594 0 1.097-.211 1.515-.641.415-.438.625-1.063.625-1.875 0-.813-.203-1.43-.609-1.86a1.967 1.967 0 0 0-1.5-.656c-.605 0-1.105.215-1.5.641-.398.43-.594 1.055-.594 1.875 0 .812.192 1.437.578 1.875.395.43.891.64 1.485.64zM451.917 576.734c.3-.469.719-.848 1.25-1.14.531-.29 1.148-.438 1.86-.438a4.18 4.18 0 0 1 2.265.64c.676.418 1.21 1.024 1.61 1.813.394.781.593 1.695.593 2.734 0 1.043-.2 1.961-.594 2.75-.398.793-.933 1.403-1.609 1.828-.68.43-1.434.641-2.266.641-.699 0-1.32-.14-1.859-.422a3.366 3.366 0 0 1-1.25-1.14v6.25h-3.11v-14.954h3.11zm4.422 3.61c0-.77-.219-1.376-.656-1.813a2.108 2.108 0 0 0-1.579-.672c-.617 0-1.14.227-1.578.672-.43.45-.64 1.058-.64 1.828 0 .773.21 1.383.64 1.828.438.45.961.672 1.578.672.614 0 1.141-.223 1.579-.672.437-.457.656-1.07.656-1.844zM460.511 580.343c0-1.039.191-1.953.578-2.734.395-.79.93-1.395 1.61-1.813a4.16 4.16 0 0 1 2.265-.64c.719 0 1.344.148 1.875.437.54.293.957.672 1.25 1.141v-1.438h3.094v10.125h-3.094v-1.437c-.305.48-.726.867-1.266 1.156-.543.281-1.168.422-1.875.422-.824 0-1.574-.21-2.25-.64-.68-.426-1.214-1.036-1.609-1.829-.387-.789-.578-1.707-.578-2.75zm7.578.016c0-.77-.219-1.379-.656-1.828a2.092 2.092 0 0 0-1.563-.672 2.08 2.08 0 0 0-1.562.672c-.43.437-.64 1.043-.64 1.812 0 .774.21 1.387.64 1.844.426.45.945.672 1.562.672.614 0 1.133-.223 1.563-.672.437-.445.656-1.055.656-1.828zM477.277 575.156c.719 0 1.344.148 1.875.437.539.293.957.672 1.25 1.141v-1.438h3.094v10.11c0 .926-.184 1.765-.547 2.515a4.212 4.212 0 0 1-1.688 1.813c-.762.445-1.703.672-2.828.672-1.5 0-2.715-.356-3.64-1.063-.93-.71-1.461-1.668-1.594-2.875h3.062c.094.383.32.688.688.907.363.226.812.343 1.343.343.645 0 1.157-.183 1.532-.547.383-.367.578-.953.578-1.765v-1.438a3.537 3.537 0 0 1-1.25 1.157c-.531.293-1.156.437-1.875.437-.836 0-1.59-.21-2.266-.64-.68-.426-1.215-1.036-1.61-1.829-.386-.789-.577-1.707-.577-2.75 0-1.039.191-1.953.578-2.734.394-.79.93-1.395 1.61-1.813a4.16 4.16 0 0 1 2.265-.64zm3.125 5.203c0-.77-.219-1.379-.656-1.828a2.092 2.092 0 0 0-1.563-.672 2.08 2.08 0 0 0-1.562.672c-.43.437-.641 1.043-.641 1.812 0 .774.21 1.387.64 1.844.426.45.946.672 1.563.672.613 0 1.133-.223 1.563-.672.437-.445.656-1.055.656-1.828zM485.136 580.343c0-1.039.192-1.953.579-2.734.394-.79.93-1.395 1.609-1.813a4.16 4.16 0 0 1 2.266-.64c.718 0 1.343.148 1.875.437.539.293.957.672 1.25 1.141v-1.438h3.093v10.125h-3.093v-1.437c-.305.48-.727.867-1.266 1.156-.543.281-1.168.422-1.875.422-.824 0-1.574-.21-2.25-.64-.68-.426-1.215-1.036-1.61-1.829-.386-.789-.578-1.707-.578-2.75zm7.579.016c0-.77-.22-1.379-.657-1.828a2.092 2.092 0 0 0-1.562-.672 2.08 2.08 0 0 0-1.563.672c-.43.437-.64 1.043-.64 1.812 0 .774.21 1.387.64 1.844.426.45.946.672 1.563.672.613 0 1.133-.223 1.562-.672.438-.445.657-1.055.657-1.828zM504.23 575.187c1.176 0 2.118.387 2.829 1.156.707.774 1.062 1.828 1.062 3.172v5.906h-3.078v-5.5c0-.675-.18-1.203-.531-1.578-.344-.375-.813-.562-1.407-.562-.593 0-1.07.187-1.421.562-.344.375-.516.903-.516 1.578v5.5h-3.11v-10.125h3.11v1.344c.312-.445.734-.8 1.266-1.062a4.06 4.06 0 0 1 1.796-.39zM509.671 580.343c0-1.039.192-1.953.578-2.734.395-.79.93-1.395 1.61-1.813a4.16 4.16 0 0 1 2.265-.64c.664 0 1.274.14 1.829.422.55.273.984.648 1.296 1.125V572h3.094v13.421h-3.094v-1.453a3.15 3.15 0 0 1-1.25 1.172c-.53.281-1.156.422-1.875.422-.836 0-1.59-.21-2.265-.64-.68-.426-1.215-1.036-1.61-1.829-.386-.789-.578-1.707-.578-2.75zm7.578.016c0-.77-.218-1.379-.656-1.828a2.092 2.092 0 0 0-1.562-.672 2.08 2.08 0 0 0-1.563.672c-.43.437-.64 1.043-.64 1.812 0 .774.21 1.387.64 1.844.426.45.945.672 1.563.672.613 0 1.132-.223 1.562-.672.438-.445.656-1.055.656-1.828zM521.984 580.343c0-1.039.191-1.953.578-2.734.395-.79.93-1.395 1.61-1.813a4.16 4.16 0 0 1 2.265-.64c.719 0 1.344.148 1.875.437.54.293.957.672 1.25 1.141v-1.438h3.094v10.125h-3.094v-1.437c-.305.48-.726.867-1.265 1.156-.543.281-1.168.422-1.875.422-.825 0-1.575-.21-2.25-.64-.68-.426-1.215-1.036-1.61-1.829-.387-.789-.578-1.707-.578-2.75zm7.578.016c0-.77-.219-1.379-.656-1.828a2.092 2.092 0 0 0-1.563-.672 2.08 2.08 0 0 0-1.562.672c-.43.437-.64 1.043-.64 1.812 0 .774.21 1.387.64 1.844.426.45.945.672 1.562.672.614 0 1.133-.223 1.563-.672.437-.445.656-1.055.656-1.828zM596.095 589.384l-2.657-4.812h-.734v4.812h-3.11V576.65h5.204c1.007 0 1.863.18 2.562.531.707.344 1.238.824 1.594 1.437.351.618.531 1.297.531 2.047 0 .844-.242 1.602-.719 2.266-.48.668-1.183 1.137-2.109 1.406l2.938 5.047zm-3.391-7h1.922c.562 0 .984-.14 1.265-.422.29-.281.438-.672.438-1.172 0-.488-.149-.867-.438-1.14-.28-.282-.703-.422-1.265-.422h-1.922zM612.449 576.65v12.734h-3.11v-5.25h-4.812v5.25h-3.11V576.65h3.11v4.984h4.813v-4.984zm0 0" fill="#3d3838"/><g clip-path="url(#X)"><path fill="#fff" d="M664.082 67.266a.406.406 0 0 1 0 .57.405.405 0 0 1-.57 0l-11.383-11.383-11.383 11.383a.405.405 0 0 1-.57 0 .406.406 0 0 1 0-.57l11.383-11.383L640.176 44.5a.406.406 0 0 1 0-.57.406.406 0 0 1 .57 0l11.383 11.383 11.383-11.383a.406.406 0 0 1 .57 0 .406.406 0 0 1 0 .57l-11.383 11.383zm0 0"/></g><g clip-path="url(#Y)"><path fill="#fff" d="M664.082 344.055a.406.406 0 0 1 0 .57.405.405 0 0 1-.57 0l-11.383-11.383-11.383 11.383a.405.405 0 0 1-.57 0 .406.406 0 0 1 0-.57l11.383-11.383-11.383-11.383a.406.406 0 0 1 0-.57.406.406 0 0 1 .57 0l11.383 11.383 11.383-11.383a.406.406 0 0 1 .57 0 .406.406 0 0 1 0 .57l-11.383 11.383zm0 0"/></g><g clip-path="url(#Z)"><path fill="#fff" d="M664.082 523.086a.406.406 0 0 1 0 .57.405.405 0 0 1-.57 0l-11.383-11.383-11.383 11.383a.405.405 0 0 1-.57 0 .406.406 0 0 1 0-.57l11.383-11.383-11.383-11.383a.406.406 0 0 1 0-.57.406.406 0 0 1 .57 0l11.383 11.383 11.383-11.383a.406.406 0 0 1 .57 0 .406.406 0 0 1 0 .57l-11.383 11.383zm0 0"/></g><path fill="none" d="M107.094 180.168h30.316M107.094 189.008h30.316" stroke="#fff" stroke-width="1.25729"/><path stroke-linecap="round" fill="none" d="M107.723 197.996h29.058" stroke="#fff" stroke-width="1.25729"/><path fill="none" d="M412.559 42.824h30.316M412.559 51.66h30.316" stroke="#fff" stroke-width="1.25729"/><path stroke-linecap="round" fill="none" d="M413.188 60.648h29.058" stroke="#fff" stroke-width="1.25729"/><path d="M136.939 257.026v.766h-3.985v-.766zM140.932 254.667v-.828h1.89v7.234h-.921v-6.406zM145.46 259.808l-1.109 2.703h-.61l.72-2.703zM147.675 257.308c-.375-.145-.664-.352-.86-.625-.199-.282-.296-.625-.296-1.032 0-.351.086-.675.265-.968.176-.29.442-.52.797-.688.364-.176.801-.265 1.313-.265.5 0 .926.09 1.281.265.363.168.633.399.813.688.187.293.28.617.28.968 0 .387-.105.727-.312 1.016a1.8 1.8 0 0 1-.843.64c.406.137.726.36.968.673.25.312.375.695.375 1.14 0 .438-.11.82-.328 1.14-.21.325-.512.575-.906.75a3.174 3.174 0 0 1-1.328.266c-.512 0-.961-.09-1.344-.265a2.123 2.123 0 0 1-.906-.75c-.211-.32-.313-.703-.313-1.14 0-.446.118-.829.36-1.141.238-.32.566-.547.984-.672zm2.719-1.547c0-.406-.137-.719-.406-.938-.274-.218-.637-.328-1.094-.328-.469 0-.84.11-1.11.328-.261.22-.39.54-.39.953 0 .375.133.68.406.907.281.218.645.328 1.094.328.437 0 .797-.113 1.078-.344.281-.226.422-.531.422-.906zm-1.5 1.953c-.5 0-.906.117-1.219.344-.312.23-.469.574-.469 1.03 0 .43.149.774.453 1.032.301.262.711.39 1.235.39.508 0 .91-.128 1.203-.39.3-.258.453-.601.453-1.031 0-.445-.152-.785-.453-1.016-.305-.238-.703-.36-1.203-.36zM155.14 255.48c0-.457.133-.82.407-1.094.27-.27.617-.406 1.047-.406.425 0 .773.136 1.046.406.282.273.422.637.422 1.094 0 .46-.14.824-.422 1.093-.273.274-.62.407-1.046.407-.43 0-.778-.133-1.047-.407-.274-.27-.407-.632-.407-1.093zm5.844-1.391-4.062 6.984h-.89l4.046-6.984zm-4.39.453a.666.666 0 0 0-.532.234c-.125.157-.187.391-.187.704 0 .304.062.539.187.703a.666.666 0 0 0 .532.234.67.67 0 0 0 .546-.25c.133-.164.204-.394.204-.687 0-.313-.07-.547-.204-.704a.692.692 0 0 0-.546-.234zm2.375 5.156c0-.457.132-.82.406-1.093.27-.27.617-.407 1.047-.407.425 0 .773.137 1.047.407.27.273.406.636.406 1.093 0 .45-.137.813-.406 1.094-.274.274-.622.406-1.047.406-.43 0-.778-.132-1.047-.406-.274-.27-.406-.633-.406-1.094zm1.453-.937a.681.681 0 0 0-.547.234c-.137.156-.203.39-.203.703 0 .293.066.524.203.688a.681.681 0 0 0 .547.234c.226 0 .406-.078.53-.234.134-.164.204-.395.204-.688 0-.312-.07-.547-.203-.703-.125-.156-.305-.234-.531-.234zM135.404 430.029v.765h-3.984v-.765zM144.257 427.638h-3.516v2.281c.156-.219.379-.394.672-.531.3-.133.629-.203.984-.203.551 0 1 .117 1.344.344.344.23.586.527.735.89.156.367.234.75.234 1.156 0 .48-.09.914-.266 1.297-.18.375-.453.672-.828.89-.367.22-.824.33-1.375.33-.7 0-1.265-.177-1.703-.532-.43-.363-.687-.844-.781-1.438h.89c.082.375.266.672.547.89.282.212.633.313 1.063.313.52 0 .91-.156 1.172-.468.27-.32.406-.743.406-1.266 0-.52-.137-.922-.406-1.203-.262-.281-.653-.422-1.172-.422a1.6 1.6 0 0 0-.922.266 1.507 1.507 0 0 0-.578.687h-.86v-4.078h4.36zM147.006 432.81l-1.11 2.703h-.609l.72-2.703zM147.69 432.466v-.687l3.5-4.86h1.093v4.75h1v.797h-1v1.61h-.906v-1.61zm3.734-4.594-2.688 3.797h2.688zM156.666 428.482c0-.457.133-.82.406-1.094.27-.27.618-.406 1.047-.406.426 0 .774.136 1.047.406.281.273.422.637.422 1.094 0 .46-.14.824-.422 1.093-.273.274-.621.407-1.047.407-.43 0-.777-.133-1.047-.407-.273-.27-.406-.632-.406-1.093zm5.844-1.39-4.063 6.983h-.89l4.047-6.984zm-4.39.452a.666.666 0 0 0-.532.235c-.125.156-.187.39-.187.703 0 .304.062.539.187.703a.666.666 0 0 0 .531.234.67.67 0 0 0 .547-.25c.133-.164.203-.394.203-.687 0-.313-.07-.547-.203-.703a.692.692 0 0 0-.547-.235zm2.374 5.156c0-.457.133-.82.407-1.093.269-.27.617-.407 1.046-.407.426 0 .774.137 1.047.407.27.273.407.636.407 1.093 0 .45-.137.813-.407 1.094-.273.274-.62.406-1.047.406-.43 0-.777-.132-1.046-.406-.274-.27-.407-.633-.407-1.094zm1.453-.937a.681.681 0 0 0-.546.234c-.137.157-.204.39-.204.703 0 .293.067.524.204.688a.681.681 0 0 0 .546.234c.227 0 .407-.078.532-.234.132-.164.203-.395.203-.688 0-.312-.07-.546-.203-.703-.125-.156-.305-.234-.532-.234zM439.477 365v.766h-3.985V365zM443.47 362.64v-.827h1.89v7.234h-.921v-6.406zM451.53 362.61h-3.516v2.28c.156-.218.379-.394.672-.53.3-.133.629-.204.984-.204.551 0 1 .118 1.344.344.344.23.586.527.734.89.157.368.235.75.235 1.157 0 .48-.09.914-.266 1.297-.18.375-.453.672-.828.89-.367.22-.824.329-1.375.329-.7 0-1.266-.176-1.703-.532-.43-.363-.688-.843-.781-1.437h.89c.082.375.266.672.547.89.281.211.633.313 1.063.313.52 0 .91-.156 1.171-.469.27-.32.407-.742.407-1.265 0-.52-.137-.922-.407-1.204-.261-.28-.652-.421-1.171-.421a1.6 1.6 0 0 0-.922.265 1.507 1.507 0 0 0-.578.688h-.86v-4.078h4.36zM454.28 367.781l-1.11 2.703h-.61l.72-2.703zM456.494 365.281c-.375-.144-.664-.351-.86-.625-.199-.28-.297-.625-.297-1.03 0-.352.086-.677.266-.97.176-.289.441-.52.797-.687.363-.176.8-.266 1.312-.266.5 0 .926.09 1.282.266.363.168.632.398.812.687.188.293.281.618.281.97 0 .386-.105.726-.312 1.015a1.8 1.8 0 0 1-.844.64c.406.137.727.36.969.672.25.313.375.696.375 1.14 0 .438-.11.821-.328 1.141-.211.325-.512.575-.906.75a3.174 3.174 0 0 1-1.329.266c-.511 0-.96-.09-1.343-.266a2.123 2.123 0 0 1-.907-.75c-.21-.32-.312-.703-.312-1.14 0-.445.117-.828.36-1.14.238-.321.566-.548.984-.673zm2.718-1.547c0-.406-.136-.718-.406-.937-.273-.219-.637-.328-1.094-.328-.468 0-.84.11-1.109.328-.262.219-.39.539-.39.953 0 .375.132.68.406.906.28.22.644.328 1.093.328.438 0 .797-.113 1.079-.343.28-.227.421-.532.421-.907zm-1.5 1.954c-.5 0-.906.117-1.218.343-.313.23-.47.575-.47 1.032 0 .43.15.773.454 1.03.3.263.711.391 1.234.391.508 0 .91-.128 1.204-.39.3-.258.453-.602.453-1.031 0-.446-.153-.786-.453-1.016-.305-.238-.704-.36-1.204-.36zM463.959 363.453c0-.457.133-.82.406-1.094.27-.27.617-.406 1.047-.406.426 0 .774.137 1.047.406.281.274.422.637.422 1.094 0 .461-.14.824-.422 1.094-.273.273-.621.406-1.047.406-.43 0-.777-.133-1.047-.406-.273-.27-.406-.633-.406-1.094zm5.844-1.39-4.063 6.984h-.89l4.047-6.984zm-4.39.453a.666.666 0 0 0-.532.234c-.125.156-.188.39-.188.703 0 .305.063.54.188.703a.666.666 0 0 0 .531.235.67.67 0 0 0 .547-.25c.133-.164.203-.395.203-.688 0-.312-.07-.547-.203-.703a.692.692 0 0 0-.547-.234zm2.374 5.156c0-.457.133-.82.406-1.094.27-.27.618-.406 1.047-.406.426 0 .774.137 1.047.406.27.274.406.637.406 1.094 0 .45-.136.812-.406 1.094-.273.273-.621.406-1.047.406-.43 0-.777-.133-1.047-.406-.273-.27-.406-.633-.406-1.094zm1.453-.938a.681.681 0 0 0-.547.235c-.136.156-.203.39-.203.703 0 .293.067.523.203.687a.681.681 0 0 0 .547.235c.227 0 .407-.078.532-.235.132-.164.203-.394.203-.687 0-.313-.07-.547-.203-.703-.125-.156-.305-.235-.532-.235zM441.356 214.31v.765h-3.985v-.766zM445.49 217.622a42.627 42.627 0 0 0 1.984-1.672c.477-.438.879-.89 1.203-1.36.332-.476.5-.953.5-1.421 0-.426-.105-.766-.312-1.016-.211-.25-.547-.375-1.016-.375-.45 0-.797.14-1.047.422-.25.281-.387.664-.406 1.14h-.875c.02-.75.242-1.328.672-1.734.426-.406.976-.61 1.656-.61.688 0 1.227.196 1.625.579.406.375.61.898.61 1.562 0 .555-.169 1.094-.5 1.625-.325.524-.7.98-1.126 1.375-.418.399-.953.856-1.609 1.375h3.438v.766h-4.797zM452.428 217.09l-1.11 2.704h-.609l.719-2.703zM457.94 211.919h-3.516v2.28c.156-.218.379-.394.672-.53.3-.133.628-.203.984-.203.55 0 1 .117 1.344.343.343.23.586.528.734.89.156.368.234.75.234 1.157 0 .48-.09.914-.265 1.297-.18.375-.453.672-.828.89-.368.22-.825.329-1.375.329-.7 0-1.266-.176-1.703-.531-.43-.364-.688-.844-.782-1.438h.89c.083.375.267.672.548.89.281.212.633.313 1.062.313.52 0 .91-.156 1.172-.469.27-.32.406-.742.406-1.265 0-.52-.136-.922-.406-1.203-.262-.282-.652-.422-1.172-.422a1.6 1.6 0 0 0-.922.265 1.507 1.507 0 0 0-.578.688h-.86v-4.078h4.36zM462.078 212.762c0-.457.133-.82.406-1.093.27-.27.617-.407 1.047-.407.426 0 .773.137 1.047.407.281.273.422.636.422 1.093 0 .461-.141.825-.422 1.094-.274.274-.621.406-1.047.406-.43 0-.777-.132-1.047-.406-.273-.27-.406-.633-.406-1.094zm5.843-1.39-4.062 6.984h-.89l4.046-6.984zm-4.39.453a.666.666 0 0 0-.531.234c-.125.157-.188.39-.188.703 0 .305.063.54.188.704a.666.666 0 0 0 .53.234.67.67 0 0 0 .548-.25c.133-.164.203-.395.203-.688 0-.312-.07-.546-.203-.703a.692.692 0 0 0-.547-.234zm2.375 5.156c0-.457.133-.82.406-1.094.27-.27.617-.406 1.047-.406.426 0 .773.137 1.047.406.27.274.406.637.406 1.094 0 .45-.137.813-.406 1.094-.274.273-.621.406-1.047.406-.43 0-.777-.133-1.047-.406-.273-.27-.406-.633-.406-1.094zm1.453-.937a.681.681 0 0 0-.547.234c-.137.156-.203.39-.203.703 0 .293.066.524.203.688a.681.681 0 0 0 .547.234c.227 0 .406-.078.531-.234.133-.164.203-.395.203-.688 0-.312-.07-.547-.203-.703-.125-.156-.304-.234-.531-.234zM563.923 556.532v.765h-3.985v-.765zM568.135 555.172c.05-.613.289-1.093.719-1.437.425-.352.976-.531 1.656-.531.457 0 .847.085 1.172.25.332.168.582.39.75.671.175.274.265.586.265.938 0 .418-.12.777-.359 1.078a1.571 1.571 0 0 1-.922.578v.047c.426.106.766.32 1.016.64.258.313.39.72.39 1.22 0 .386-.09.73-.265 1.03-.168.305-.43.544-.782.72-.343.167-.761.25-1.25.25-.699 0-1.277-.18-1.734-.547-.46-.375-.715-.899-.766-1.579h.891c.04.399.203.727.484.985.282.25.657.375 1.125.375.47 0 .82-.117 1.063-.36.238-.25.36-.566.36-.953 0-.5-.169-.86-.5-1.078-.337-.219-.837-.328-1.5-.328h-.235v-.766h.234c.614 0 1.078-.097 1.391-.296.312-.196.469-.504.469-.922 0-.352-.117-.633-.344-.844-.23-.219-.559-.328-.984-.328-.418 0-.75.11-1 .328-.25.21-.403.496-.454.86zM575.135 559.313l-1.11 2.703h-.609l.719-2.703zM577.35 556.813c-.376-.145-.665-.352-.86-.625-.2-.281-.297-.625-.297-1.031 0-.352.086-.676.266-.97.176-.288.441-.519.797-.687.363-.175.8-.265 1.312-.265.5 0 .926.09 1.281.265.364.168.633.399.813.688.187.293.281.617.281.969 0 .386-.105.726-.312 1.015a1.8 1.8 0 0 1-.844.64c.406.138.727.36.969.673.25.312.375.695.375 1.14 0 .438-.11.82-.328 1.141-.211.324-.512.574-.907.75a3.174 3.174 0 0 1-1.328.266c-.512 0-.96-.09-1.344-.266a2.123 2.123 0 0 1-.906-.75c-.21-.32-.312-.703-.312-1.14 0-.446.117-.829.36-1.141.237-.32.565-.547.983-.672zm2.718-1.547c0-.406-.137-.719-.406-.937-.273-.22-.637-.329-1.094-.329-.469 0-.84.11-1.11.329-.26.218-.39.539-.39.953 0 .375.133.68.406.906.282.219.645.328 1.094.328.438 0 .797-.113 1.078-.344.282-.226.422-.531.422-.906zm-1.5 1.953c-.5 0-.906.117-1.219.344-.312.23-.468.574-.468 1.031 0 .43.148.774.453 1.031.3.262.71.391 1.234.391.508 0 .91-.129 1.203-.39.301-.258.453-.602.453-1.032 0-.445-.152-.785-.453-1.015-.304-.239-.703-.36-1.203-.36zM584.815 554.985c0-.457.133-.82.406-1.094.27-.27.617-.406 1.047-.406.426 0 .773.137 1.047.406.281.273.422.637.422 1.094 0 .46-.14.824-.422 1.094-.274.273-.621.406-1.047.406-.43 0-.777-.133-1.047-.406-.273-.27-.406-.633-.406-1.094zm5.844-1.39-4.063 6.984h-.89l4.046-6.985zm-4.391.452a.666.666 0 0 0-.531.235c-.125.156-.188.39-.188.703 0 .304.063.539.188.703a.666.666 0 0 0 .53.234.67.67 0 0 0 .548-.25c.133-.164.203-.394.203-.687 0-.313-.07-.547-.203-.703a.692.692 0 0 0-.547-.235zm2.375 5.157c0-.457.133-.82.406-1.094.27-.27.617-.406 1.047-.406.426 0 .773.136 1.047.406.27.273.406.637.406 1.094 0 .449-.137.812-.406 1.093-.274.274-.621.407-1.047.407-.43 0-.777-.133-1.047-.407-.273-.27-.406-.633-.406-1.093zm1.453-.938a.681.681 0 0 0-.547.234c-.137.157-.203.391-.203.704 0 .293.066.523.203.687a.681.681 0 0 0 .547.234c.227 0 .406-.078.531-.234.133-.164.203-.394.203-.687 0-.313-.07-.547-.203-.704-.125-.156-.304-.234-.53-.234zm0 0" fill="#65ea08"/><path d="M278.89 432.552h-2.126v2.156h-.86v-2.156h-2.109v-.781h2.11v-2.156h.86v2.156h2.124zM282.937 435.083a42.627 42.627 0 0 0 1.984-1.672c.477-.437.88-.89 1.203-1.359.332-.476.5-.953.5-1.422 0-.426-.105-.765-.312-1.015-.211-.25-.547-.375-1.016-.375-.449 0-.797.14-1.047.421-.25.282-.386.665-.406 1.141h-.875c.02-.75.242-1.328.672-1.734.426-.407.977-.61 1.656-.61.688 0 1.227.196 1.625.578.407.375.61.899.61 1.563 0 .555-.168 1.094-.5 1.625-.325.523-.7.98-1.125 1.375-.418.398-.953.855-1.61 1.375h3.438v.766h-4.797zM289.875 434.552l-1.11 2.703h-.609l.72-2.703zM291.95 433.88c.062.375.21.668.452.875.25.211.578.313.985.313.55 0 .957-.211 1.218-.64.27-.438.399-1.173.39-2.204a1.621 1.621 0 0 1-.702.719c-.324.168-.688.25-1.094.25a2.52 2.52 0 0 1-1.203-.282 2.044 2.044 0 0 1-.813-.796c-.199-.352-.296-.782-.296-1.282 0-.718.203-1.297.609-1.734.414-.438 1.004-.656 1.766-.656.937 0 1.593.308 1.968.922.375.605.563 1.507.563 2.703 0 .843-.078 1.543-.235 2.093-.148.543-.398.961-.75 1.25-.355.282-.843.422-1.468.422-.68 0-1.211-.18-1.594-.547a2.205 2.205 0 0 1-.64-1.406zm1.405-1.469c.446 0 .813-.132 1.094-.406.29-.281.438-.656.438-1.125 0-.5-.141-.898-.422-1.203-.282-.312-.68-.469-1.188-.469-.46 0-.828.149-1.11.438-.28.293-.421.68-.421 1.156 0 .492.133.883.406 1.172.281.293.68.437 1.203.437zM299.545 430.224c0-.457.133-.82.406-1.094.27-.27.617-.406 1.047-.406.426 0 .774.137 1.047.406.281.274.422.637.422 1.094 0 .46-.14.824-.422 1.094-.273.273-.621.406-1.047.406-.43 0-.777-.133-1.047-.406-.273-.27-.406-.633-.406-1.094zm5.844-1.39-4.063 6.984h-.89l4.047-6.985zm-4.39.452a.666.666 0 0 0-.532.235c-.125.156-.188.39-.188.703 0 .305.063.539.188.703a.666.666 0 0 0 .531.234.67.67 0 0 0 .547-.25c.133-.164.203-.394.203-.687 0-.313-.07-.547-.203-.703a.692.692 0 0 0-.547-.235zm2.374 5.157c0-.457.133-.82.406-1.094.27-.27.618-.406 1.047-.406.426 0 .774.136 1.047.406.27.273.406.637.406 1.094 0 .449-.136.812-.406 1.093-.273.274-.62.407-1.047.407-.43 0-.777-.133-1.047-.407-.273-.27-.406-.632-.406-1.093zm1.453-.938a.681.681 0 0 0-.547.235c-.136.156-.203.39-.203.703 0 .293.067.523.203.687a.681.681 0 0 0 .547.235c.227 0 .407-.079.532-.235.132-.164.203-.394.203-.687 0-.313-.07-.547-.203-.703-.125-.157-.305-.235-.532-.235zM564.462 404.713h-2.125v2.156h-.859v-2.156h-2.11v-.781h2.11v-2.156h.86v2.156h2.124zM569.932 404.213c-.375-.144-.664-.351-.86-.625-.198-.281-.296-.625-.296-1.031 0-.352.086-.676.266-.969.175-.289.441-.52.796-.687.364-.176.801-.266 1.313-.266.5 0 .926.09 1.281.266.364.168.633.398.813.687.187.293.281.617.281.969 0 .387-.105.726-.313 1.016a1.8 1.8 0 0 1-.843.64c.406.137.726.36.968.672.25.313.375.695.375 1.14 0 .438-.109.821-.328 1.141-.21.325-.511.575-.906.75a3.174 3.174 0 0 1-1.328.266c-.512 0-.961-.09-1.344-.266a2.123 2.123 0 0 1-.906-.75c-.211-.32-.313-.703-.313-1.14 0-.446.118-.828.36-1.14.238-.321.566-.548.984-.673zm2.719-1.547c0-.406-.137-.718-.406-.937-.274-.219-.637-.328-1.094-.328-.469 0-.84.11-1.11.328-.261.219-.39.539-.39.953 0 .375.133.68.406.906.281.219.645.328 1.094.328.437 0 .797-.113 1.078-.343.281-.227.422-.532.422-.907zm-1.5 1.953c-.5 0-.906.118-1.219.344-.312.23-.469.574-.469 1.031 0 .43.149.774.454 1.032.3.261.71.39 1.234.39.508 0 .91-.129 1.203-.39.3-.258.453-.602.453-1.032 0-.445-.152-.785-.453-1.015-.305-.238-.703-.36-1.203-.36zM576.009 406.713l-1.11 2.703h-.61l.72-2.703zM578.083 406.041c.062.375.21.668.453.875.25.211.578.313.984.313.55 0 .957-.211 1.219-.64.27-.438.398-1.173.39-2.204a1.621 1.621 0 0 1-.703.719c-.324.168-.687.25-1.093.25a2.52 2.52 0 0 1-1.204-.281 2.044 2.044 0 0 1-.812-.797c-.2-.352-.297-.782-.297-1.282 0-.718.203-1.296.61-1.734.413-.437 1.003-.656 1.765-.656.938 0 1.594.308 1.969.922.375.605.562 1.507.562 2.703 0 .844-.078 1.543-.234 2.094-.149.543-.399.96-.75 1.25-.356.28-.844.421-1.469.421-.68 0-1.21-.18-1.594-.546a2.205 2.205 0 0 1-.64-1.407zm1.406-1.468c.445 0 .812-.133 1.094-.407.289-.28.437-.656.437-1.125 0-.5-.14-.898-.422-1.203-.281-.312-.68-.469-1.187-.469-.461 0-.828.149-1.11.438-.281.293-.422.68-.422 1.156 0 .492.133.883.407 1.172.28.293.68.438 1.203.438zM585.679 402.385c0-.457.132-.82.406-1.094.27-.27.617-.406 1.047-.406.425 0 .773.137 1.047.406.28.274.421.637.421 1.094 0 .461-.14.824-.421 1.094-.274.273-.622.406-1.047.406-.43 0-.778-.133-1.047-.406-.274-.27-.406-.633-.406-1.094zm5.843-1.39-4.062 6.984h-.89l4.046-6.985zm-4.39.453a.666.666 0 0 0-.532.234c-.125.156-.187.39-.187.703 0 .305.062.54.187.703a.666.666 0 0 0 .532.235.67.67 0 0 0 .547-.25c.132-.165.203-.395.203-.688 0-.312-.07-.547-.203-.703a.692.692 0 0 0-.547-.234zm2.375 5.156c0-.457.132-.82.406-1.094.27-.27.617-.406 1.047-.406.426 0 .773.137 1.047.406.27.273.406.637.406 1.094 0 .449-.137.812-.406 1.094-.274.273-.621.406-1.047.406-.43 0-.778-.133-1.047-.406-.274-.27-.406-.633-.406-1.094zm1.453-.938a.681.681 0 0 0-.547.235c-.137.156-.203.39-.203.703 0 .293.066.523.203.687a.681.681 0 0 0 .547.235c.226 0 .406-.078.531-.235.133-.164.203-.394.203-.687 0-.313-.07-.547-.203-.703-.125-.157-.305-.235-.531-.235zM441.561 108.444h-2.125v2.156h-.859v-2.156h-2.11v-.781h2.11v-2.156h.86v2.156h2.124zM445.469 105.304v-.829h1.89v7.235h-.922v-6.406zM448.919 108.022c0-1.144.18-2.039.547-2.687.375-.645 1.031-.969 1.969-.969.925 0 1.578.324 1.953.969.375.648.562 1.543.562 2.687 0 1.168-.187 2.075-.562 2.72-.375.648-1.028.968-1.953.968-.938 0-1.594-.32-1.97-.969-.366-.644-.546-1.55-.546-2.719zm4.125 0c0-.582-.043-1.07-.125-1.468-.074-.407-.23-.735-.469-.985-.23-.25-.57-.375-1.015-.375-.461 0-.809.125-1.047.375-.23.25-.387.578-.469.985-.074.398-.11.886-.11 1.468 0 .594.036 1.102.11 1.516.082.406.238.734.469.984.238.243.586.36 1.047.36.445 0 .785-.117 1.015-.36.239-.25.395-.578.469-.984.082-.414.125-.922.125-1.516zM456.278 110.444l-1.11 2.703h-.609l.719-2.703zM458.492 107.944c-.375-.144-.664-.351-.859-.625-.2-.281-.297-.625-.297-1.031 0-.352.086-.676.266-.969.176-.289.441-.52.797-.687.363-.176.8-.266 1.312-.266.5 0 .926.09 1.281.266.364.168.633.398.813.687.187.293.281.617.281.969 0 .387-.105.727-.312 1.016a1.8 1.8 0 0 1-.844.64c.406.137.726.36.969.672.25.313.375.695.375 1.14 0 .438-.11.821-.328 1.141-.211.325-.512.575-.907.75a3.174 3.174 0 0 1-1.328.266c-.512 0-.96-.09-1.344-.266a2.123 2.123 0 0 1-.906-.75c-.21-.32-.312-.703-.312-1.14 0-.446.117-.828.359-1.14.238-.321.566-.548.984-.673zm2.72-1.547c0-.406-.138-.718-.407-.937-.274-.219-.637-.328-1.094-.328-.469 0-.84.11-1.11.328-.261.219-.39.539-.39.953 0 .375.133.68.406.906.282.219.645.328 1.094.328.438 0 .797-.113 1.078-.343.282-.227.422-.532.422-.907zm-1.5 1.953c-.5 0-.907.118-1.22.344-.312.23-.468.574-.468 1.031 0 .43.148.774.453 1.032.3.261.71.39 1.234.39.508 0 .91-.129 1.203-.39.301-.258.453-.602.453-1.032 0-.445-.152-.785-.453-1.015-.304-.238-.703-.36-1.203-.36zM463.287 106.116c0-.457.133-.82.407-1.094.27-.27.617-.406 1.047-.406.425 0 .773.137 1.046.406.282.274.422.637.422 1.094 0 .461-.14.824-.422 1.094-.273.273-.62.406-1.046.406-.43 0-.778-.133-1.047-.406-.274-.27-.407-.633-.407-1.094zm5.844-1.39-4.062 6.984h-.89l4.046-6.985zm-4.39.453a.666.666 0 0 0-.532.234c-.125.156-.187.39-.187.703 0 .305.062.54.187.703a.666.666 0 0 0 .532.235.67.67 0 0 0 .546-.25c.133-.164.204-.395.204-.688 0-.312-.07-.547-.204-.703a.692.692 0 0 0-.546-.234zm2.375 5.156c0-.457.132-.82.406-1.094.27-.27.617-.406 1.047-.406.425 0 .773.137 1.047.406.27.274.406.637.406 1.094 0 .45-.137.812-.406 1.094-.274.273-.622.406-1.047.406-.43 0-.778-.133-1.047-.406-.274-.27-.406-.633-.406-1.094zm1.453-.938a.681.681 0 0 0-.547.235c-.137.156-.203.39-.203.703 0 .293.066.523.203.687a.681.681 0 0 0 .547.235c.226 0 .406-.078.53-.235.134-.164.204-.394.204-.687 0-.313-.07-.547-.203-.703-.125-.157-.305-.235-.531-.235zM438.721 545.95h-2.125v2.157h-.86v-2.156h-2.109v-.782h2.11v-2.156h.859v2.156h2.125zM447.316 542.7l-2.766 6.516h-.922l2.813-6.437h-3.86v-.766h4.735zM449.417 547.95l-1.11 2.704h-.609l.719-2.703zM450.21 548.482a42.627 42.627 0 0 0 1.984-1.672c.477-.437.879-.89 1.203-1.36.332-.476.5-.952.5-1.421 0-.426-.105-.766-.312-1.016-.211-.25-.547-.375-1.016-.375-.45 0-.797.14-1.047.422-.25.281-.387.664-.406 1.14h-.875c.02-.75.242-1.327.672-1.734.426-.406.976-.61 1.656-.61.688 0 1.227.196 1.625.579.406.375.61.898.61 1.563 0 .554-.169 1.093-.5 1.625-.325.523-.7.98-1.126 1.375-.418.398-.953.855-1.609 1.375h3.438v.765h-4.797zM458.537 543.623c0-.458.133-.82.406-1.094.27-.27.617-.406 1.047-.406.426 0 .773.136 1.047.406.281.273.422.636.422 1.094 0 .46-.14.824-.422 1.093-.274.274-.621.407-1.047.407-.43 0-.777-.133-1.047-.407-.273-.27-.406-.633-.406-1.093zm5.844-1.391-4.063 6.984h-.89l4.046-6.984zm-4.391.453a.666.666 0 0 0-.531.234c-.125.157-.188.391-.188.704 0 .304.063.539.188.703a.666.666 0 0 0 .531.234.67.67 0 0 0 .547-.25c.133-.164.203-.395.203-.687 0-.313-.07-.547-.203-.704a.692.692 0 0 0-.547-.234zm2.375 5.156c0-.457.133-.82.406-1.093.27-.27.617-.407 1.047-.407.426 0 .774.137 1.047.407.27.273.406.636.406 1.093 0 .45-.136.813-.406 1.094-.273.273-.621.406-1.047.406-.43 0-.777-.133-1.047-.406-.273-.27-.406-.633-.406-1.094zm1.453-.937a.681.681 0 0 0-.547.234c-.136.156-.203.39-.203.703 0 .293.067.524.203.688a.681.681 0 0 0 .547.234c.227 0 .406-.078.531-.234.133-.164.203-.395.203-.688 0-.312-.07-.547-.203-.703-.125-.156-.304-.234-.53-.234zm0 0" fill="red"/></svg>