<?xml version="1.0" standalone="no"?>
<!DOCTYPE svg PUBLIC "-//W3C//DTD SVG 20010904//EN"
 "http://www.w3.org/TR/2001/REC-SVG-20010904/DTD/svg10.dtd">
<svg version="1.0" xmlns="http://www.w3.org/2000/svg"
 width="534.000000pt" height="468.000000pt" viewBox="0 0 534.000000 468.000000"
 preserveAspectRatio="xMidYMid meet">

<g transform="translate(0.000000,468.000000) scale(0.100000,-0.100000)"
fill="#000000" stroke="none">
<path d="M4043 4078 c-9 -10 -22 -18 -29 -18 -7 0 -11 -6 -8 -14 3 -8 1 -17
-5 -21 -6 -3 -11 -10 -11 -16 0 -5 13 5 29 23 26 29 36 33 79 33 58 0 94 -26
112 -81 33 -98 -75 -178 -172 -128 -16 9 -27 11 -24 5 4 -6 0 -11 -8 -11 -9 0
-16 6 -16 13 0 8 -9 22 -20 32 -14 12 -17 25 -13 45 5 28 4 28 -33 24 -22 -3
-196 -16 -388 -29 -386 -28 -403 -31 -438 -95 -10 -19 -17 -51 -17 -70 l1 -35
8 30 c4 17 8 24 9 17 16 -174 31 -436 27 -465 -13 -78 41 -127 138 -127 67 0
106 -14 113 -40 3 -11 9 -17 14 -14 25 15 -7 -62 -35 -85 -21 -18 -20 -31 3
-31 36 0 129 49 186 99 32 28 78 57 104 65 25 9 136 27 246 41 218 27 236 34
267 96 17 34 17 48 2 258 -8 123 -13 230 -10 237 3 8 15 14 26 14 13 0 25 10
33 28 6 15 16 30 22 34 15 11 14 106 -2 119 -7 6 -13 20 -13 30 0 11 -6 19
-13 19 -7 0 -23 8 -37 17 -33 23 -106 24 -127 1z m-49 -283 c11 -8 14 -15 8
-15 -7 0 -12 -6 -12 -14 0 -11 -5 -12 -24 -3 -19 9 -22 14 -12 29 13 21 15 22
40 3z m109 -21 c11 -11 -3 -24 -18 -18 -8 4 -12 10 -9 15 6 11 18 12 27 3z
m-148 -84 c14 -21 28 -30 47 -30 35 0 43 -15 24 -45 -9 -13 -16 -42 -16 -64
l0 -39 -35 11 c-25 7 -42 7 -60 -1 -39 -18 -45 -15 -45 21 0 23 -8 41 -25 57
-32 30 -32 35 8 46 22 7 36 19 46 42 18 40 30 40 56 2z m-293 -20 c15 -21 30
-30 49 -30 36 0 44 -15 25 -45 -9 -13 -16 -42 -16 -64 l0 -39 -35 11 c-25 7
-42 7 -60 -1 -45 -21 -57 -16 -50 21 5 26 2 37 -19 56 -34 32 -33 39 9 47 28
5 36 12 45 40 14 42 23 42 52 4z m-289 -21 c15 -19 35 -33 52 -34 38 -5 40
-10 20 -42 -12 -17 -18 -43 -16 -67 2 -34 0 -38 -13 -26 -9 7 -16 10 -16 6 0
-3 -11 -1 -24 4 -18 6 -33 4 -61 -11 l-37 -20 3 35 c3 28 -3 42 -25 65 l-29
30 27 11 c15 5 34 10 42 10 8 0 14 4 14 9 0 20 20 61 29 61 5 0 21 -14 34 -31z"/>
<path d="M4117 3965 c-25 -39 -31 -43 -47 -33 -29 18 -38 -1 -11 -23 13 -10
26 -19 30 -19 6 0 71 103 71 114 0 17 -18 1 -43 -39z"/>
<path d="M3092 3620 c0 -19 2 -27 5 -17 2 9 2 25 0 35 -3 9 -5 1 -5 -18z"/>
<path d="M3102 3480 c0 -19 2 -27 5 -17 2 9 2 25 0 35 -3 9 -5 1 -5 -18z"/>
<path d="M3113 3355 c0 -22 2 -30 4 -17 2 12 2 30 0 40 -3 9 -5 -1 -4 -23z"/>
<path d="M2082 3268 c-9 -12 43 -21 317 -56 357 -47 368 -49 374 -65 2 -7 -2
-83 -11 -169 l-15 -156 22 -31 c26 -36 41 -39 66 -11 l18 20 27 -25 c34 -32
43 -32 72 8 21 27 27 51 36 148 7 63 12 133 12 156 0 37 -2 41 -31 47 -17 3
-54 6 -82 6 -41 0 -56 5 -77 25 -25 24 -47 28 -311 64 -394 54 -403 55 -417
39z m719 -188 l-8 -65 -4 77 c-3 61 -1 75 8 65 9 -9 10 -30 4 -77z m-14 -132
c-2 -13 -4 -3 -4 22 0 25 2 35 4 23 2 -13 2 -33 0 -45z m-10 -80 c-3 -7 -5 -2
-5 12 0 14 2 19 5 13 2 -7 2 -19 0 -25z"/>
<path d="M1372 2854 c-34 -31 -186 -305 -234 -419 -16 -39 -34 -105 -39 -149
-11 -85 -7 -96 37 -96 30 0 46 -23 42 -62 -3 -33 -3 -33 -50 -30 -44 3 -47 2
-50 -25 -3 -24 -7 -28 -30 -25 -18 2 -28 -3 -32 -15 -7 -23 -11 -122 -5 -127
2 -2 35 -7 73 -12 l70 -9 11 -50 c27 -118 77 -155 210 -158 90 -2 117 14 158
94 19 36 34 53 45 52 9 -1 63 -8 120 -14 l102 -13 0 -36 c0 -44 36 -118 70
-142 15 -10 59 -23 107 -29 80 -11 84 -10 125 14 39 23 48 24 102 16 40 -7 69
-6 92 1 37 13 84 61 103 108 12 30 17 32 61 32 26 0 81 -3 123 -6 l77 -7 0
-39 c0 -50 20 -96 58 -131 39 -37 149 -57 211 -39 52 16 97 69 116 137 l16 55
44 0 c24 0 46 3 49 8 11 17 27 245 18 254 -5 5 -27 16 -48 23 l-39 14 49 1
c27 0 47 3 43 6 -3 3 -189 17 -413 30 -225 14 -411 27 -413 30 -3 3 5 118 18
257 38 407 38 404 10 416 -42 17 -538 82 -699 91 -85 5 -183 12 -216 16 -58 6
-63 4 -92 -22z m-30 -75 c-16 -24 -62 -106 -101 -181 -65 -124 -93 -170 -73
-120 14 35 155 297 174 325 32 45 32 24 0 -24z m345 3 c161 -21 296 -41 299
-44 3 -4 -2 -21 -11 -38 -9 -18 -13 -30 -8 -27 5 4 18 25 28 47 16 35 23 41
42 37 13 -2 26 0 29 4 3 5 33 8 67 7 l62 -2 -52 -3 c-71 -5 -87 -23 -209 -239
-106 -189 -137 -263 -148 -355 l-6 -57 45 -6 45 -7 -6 -42 c-4 -23 -9 -44 -13
-48 -3 -3 -53 0 -111 5 l-105 11 2 29 c3 47 30 68 83 64 l45 -3 1 112 c0 100
2 115 19 127 19 13 18 14 -5 9 -21 -4 -500 57 -567 72 -13 3 -23 11 -23 19 0
19 176 348 192 357 7 5 13 9 13 9 0 0 132 -18 292 -38z m568 -88 c8 -4 16 -14
17 -23 0 -9 2 -22 2 -29 1 -7 8 -18 16 -23 13 -10 13 -10 0 -6 -11 3 -16 -5
-18 -32 -1 -20 -7 -37 -12 -39 -5 -2 -6 -10 -3 -19 4 -11 2 -14 -5 -9 -12 7
-16 -5 -13 -32 2 -15 -23 -42 -38 -42 -6 0 -10 -3 -9 -7 0 -5 -2 -16 -7 -26
-6 -14 -10 -15 -21 -6 -17 14 -18 -2 -1 -20 10 -11 10 -13 0 -7 -7 4 -13 2
-13 -3 0 -12 -111 -15 -172 -5 -39 7 -43 24 -15 68 8 11 20 39 27 61 7 22 22
56 34 75 11 19 20 35 18 35 -12 0 35 85 52 94 20 10 130 6 161 -5z m52 -36
c-3 -8 -6 -5 -6 6 -1 11 2 17 5 13 3 -3 4 -12 1 -19z m-120 -304 c-3 -3 -12
-4 -19 -1 -8 3 -5 6 6 6 11 1 17 -2 13 -5z m-417 -408 c0 -2 -7 -9 -15 -16
-12 -10 -15 -10 -15 4 0 9 7 16 15 16 8 0 15 -2 15 -4z m188 -61 c-6 -14 -13
-23 -15 -21 -5 5 15 46 22 46 3 0 -1 -11 -7 -25z m138 7 c45 -31 58 -123 25
-178 -10 -17 -33 -37 -50 -44 -29 -12 -35 -11 -59 7 -52 38 -54 135 -6 193 25
29 65 39 90 22z m855 -52 c31 -17 52 -68 46 -117 -8 -75 -56 -123 -111 -109
-70 18 -74 171 -5 220 27 19 43 20 70 6z"/>
<path d="M1905 2570 c-9 -16 -13 -30 -11 -30 3 0 12 14 21 30 9 17 13 30 11
30 -3 0 -12 -13 -21 -30z"/>
<path d="M1996 2382 c-3 -5 1 -9 9 -9 8 0 15 4 15 9 0 4 -4 8 -9 8 -6 0 -12
-4 -15 -8z"/>
<path d="M2068 2373 c6 -2 18 -2 25 0 6 3 1 5 -13 5 -14 0 -19 -2 -12 -5z"/>
<path d="M2926 2485 c-41 -62 -43 -70 -20 -79 14 -5 16 -20 13 -89 -4 -76 -3
-82 16 -85 35 -4 46 13 53 86 5 39 11 74 15 78 3 3 21 4 40 0 l34 -6 -1 -82
c-1 -74 1 -83 18 -86 27 -6 46 24 46 69 0 65 11 99 31 99 11 0 19 6 19 13 -1
19 -54 121 -65 124 -5 2 -26 -22 -45 -52 -19 -30 -37 -55 -40 -55 -3 1 -17 28
-32 60 -15 33 -31 60 -36 60 -5 0 -26 -25 -46 -55z"/>
<path d="M2868 2204 c-11 -10 -10 -62 1 -68 18 -12 266 -24 284 -15 10 6 17
21 17 38 0 28 -2 29 -62 35 -150 14 -234 17 -240 10z"/>
</g>
</svg>
