<?xml version="1.0" standalone="no"?>
<!DOCTYPE svg PUBLIC "-//W3C//DTD SVG 20010904//EN"
 "http://www.w3.org/TR/2001/REC-SVG-20010904/DTD/svg10.dtd">
<svg version="1.0" xmlns="http://www.w3.org/2000/svg"
 width="1026.000000pt" height="899.000000pt" viewBox="0 0 1026.000000 899.000000"
 preserveAspectRatio="xMidYMid meet">

<g transform="translate(0.000000,899.000000) scale(0.100000,-0.100000)"
fill="#000000" stroke="none">
<path d="M7210 8935 c10 -12 8 -13 -10 -10 -18 3 -20 2 -10 -10 10 -12 8 -13
-9 -10 -19 3 -26 -7 -23 -36 1 -3 -6 -6 -13 -6 -12 0 -12 3 -2 16 11 14 10 14
-5 2 -10 -7 -18 -19 -18 -27 0 -8 -8 -11 -21 -9 -17 3 -19 2 -9 -10 10 -12 8
-13 -10 -10 -18 3 -20 2 -10 -10 10 -12 8 -13 -10 -10 -18 3 -20 2 -10 -10 9
-11 7 -13 -7 -10 -26 4 -46 -14 -33 -30 8 -10 3 -12 -19 -10 -18 1 -29 -2 -28
-9 1 -6 -4 -10 -10 -9 -7 2 -12 -3 -10 -10 1 -6 -4 -11 -10 -10 -7 2 -12 -3
-10 -10 1 -6 -4 -11 -10 -10 -7 2 -12 -3 -10 -10 1 -6 -4 -11 -11 -9 -6 1 -11
-4 -10 -10 2 -7 -3 -12 -10 -10 -6 1 -11 -4 -10 -10 2 -7 -3 -12 -10 -10 -6 1
-11 -4 -10 -10 2 -7 -3 -12 -10 -10 -6 1 -11 -4 -10 -10 2 -7 -3 -12 -10 -10
-6 1 -11 -4 -10 -10 2 -7 -3 -12 -10 -10 -6 1 -11 -4 -10 -10 2 -7 -2 -12 -9
-11 -23 5 -5 -24 55 -83 172 -174 202 -458 69 -659 -102 -153 -263 -243 -438
-244 -160 -2 -283 50 -398 168 -41 41 -80 76 -88 77 -11 2 -12 -1 -3 -11 10
-11 8 -13 -8 -10 -12 2 -29 -6 -42 -20 -13 -14 -27 -22 -32 -19 -5 3 -7 0 -6
-8 2 -7 -3 -12 -10 -10 -6 1 -11 -4 -10 -10 2 -7 -3 -12 -10 -10 -6 1 -11 -4
-10 -10 2 -7 -3 -12 -10 -10 -6 1 -11 -4 -10 -10 2 -7 -3 -12 -10 -10 -6 1
-11 -4 -10 -10 2 -7 -3 -12 -10 -10 -6 1 -11 -4 -10 -10 2 -7 -3 -12 -10 -10
-6 1 -11 -4 -10 -10 2 -7 -3 -12 -10 -10 -8 1 -11 -2 -7 -9 5 -7 41 22 95 76
54 54 90 83 95 76 4 -7 1 -10 -7 -9 -7 2 -12 -4 -10 -12 2 -8 0 -12 -4 -7 -10
10 -45 -23 -37 -36 3 -5 1 -7 -4 -4 -13 8 -46 -27 -36 -38 5 -4 3 -5 -3 -2 -6
3 -30 -14 -54 -38 -28 -29 -49 -42 -62 -40 -15 3 -17 1 -9 -9 14 -17 -5 -35
-32 -31 -15 3 -16 1 -6 -11 10 -12 10 -15 -1 -12 -8 2 -15 -3 -16 -9 -1 -7 -2
-323 -3 -703 l-1 -690 -2613 0 c-2570 0 -2615 0 -2671 -20 -121 -41 -215 -135
-256 -253 -17 -49 -18 -193 -24 -2542 -4 -1574 -3 -2514 3 -2554 20 -134 115
-261 238 -319 l58 -27 2228 -3 2227 -2 0 -70 c0 -111 40 -182 125 -221 39 -18
129 -19 2561 -19 2772 0 2560 -5 2627 58 59 56 61 66 65 329 5 297 -2 337 -63
398 -25 25 -59 48 -81 54 -27 8 -651 11 -2041 11 l-2003 0 0 1920 0 1920 1908
2 1907 3 58 22 c79 30 141 77 192 145 88 117 80 -64 80 1923 0 1669 -1 1763
-18 1812 -38 109 -136 210 -250 257 l-52 21 -1329 2 c-1159 2 -1327 1 -1316
-12z m-176 -163 c3 -5 -1 -9 -9 -9 -8 0 -12 4 -9 9 3 4 7 8 9 8 2 0 6 -4 9 -8z
m-39 -42 c4 -6 1 -9 -7 -8 -7 2 -12 -3 -10 -9 1 -7 -4 -12 -10 -10 -7 1 -12
-4 -10 -11 1 -8 -2 -11 -6 -8 -13 8 -44 -29 -35 -40 5 -5 4 -5 -1 -1 -6 4 -42
-23 -80 -60 -39 -37 -22 -17 39 45 60 61 111 112 112 112 1 0 5 -5 8 -10z
m505 -317 c4 -35 8 -41 20 -33 26 17 68 11 97 -14 26 -23 28 -30 31 -115 l4
-91 -41 0 -40 0 -3 78 -3 77 -30 0 -30 0 -3 -77 -3 -78 -39 0 -40 0 0 151 0
150 38 -3 c35 -3 37 -5 42 -45z m560 -103 l0 -150 -40 0 -40 0 0 150 0 150 40
0 40 0 0 -150z m140 0 l0 -150 -40 0 -40 0 0 150 0 150 40 0 40 0 0 -150z
m-891 126 c22 -12 51 -52 51 -71 0 -13 -84 -3 -94 11 -13 17 -49 9 -43 -10 1
-6 26 -22 54 -36 69 -34 83 -48 83 -82 0 -43 -17 -68 -57 -85 -50 -21 -106 -9
-138 29 -36 43 -33 58 14 58 25 0 41 -5 45 -15 7 -20 56 -20 56 1 0 9 -23 25
-57 40 -64 28 -82 47 -83 84 -1 72 94 114 169 76z m588 -78 c15 -15 27 -41 30
-66 l6 -42 -78 0 c-57 0 -76 -3 -73 -12 6 -16 58 -23 58 -9 0 6 18 11 40 11
47 0 52 -15 15 -53 -33 -33 -84 -42 -129 -23 -42 17 -66 60 -66 117 0 34 6 47
35 76 33 33 39 35 86 31 36 -4 58 -12 76 -30z m483 -459 c0 -10 -5 -19 -12
-19 -9 0 -9 -3 0 -12 7 -7 12 -40 12 -80 0 -66 -1 -68 -25 -68 -24 0 -25 2
-25 68 0 40 5 73 12 80 9 9 9 12 0 12 -16 0 -15 37 1 43 20 7 37 -4 37 -24z
m-990 -19 c0 -27 2 -30 19 -20 29 15 39 13 66 -15 43 -42 22 -126 -30 -126
-11 1 -39 1 -62 1 l-43 0 0 95 c0 95 0 95 25 95 21 0 25 -5 25 -30z m-109 -64
c16 -44 29 -84 29 -88 0 -15 -48 -8 -54 7 -3 9 -18 15 -35 15 -16 0 -31 -6
-35 -15 -7 -18 -60 -21 -54 -2 64 177 59 168 91 165 27 -3 32 -10 58 -82z
m649 70 c0 -8 7 -16 15 -20 8 -3 15 -15 15 -26 0 -11 -7 -20 -15 -20 -10 0
-15 -10 -15 -30 0 -20 5 -30 15 -30 8 0 15 -9 15 -20 0 -15 -7 -20 -28 -20
-38 0 -52 17 -52 62 0 21 -4 38 -10 38 -14 0 -13 20 3 53 13 29 57 39 57 13z
m1190 -6 c0 -11 5 -20 10 -20 6 0 10 -9 10 -20 0 -11 -4 -20 -10 -20 -5 0 -10
-13 -10 -30 0 -16 5 -30 10 -30 6 0 10 -9 10 -20 0 -14 -7 -20 -23 -20 -33 0
-47 19 -47 62 0 21 -4 38 -10 38 -5 0 -10 9 -10 20 0 11 5 20 10 20 6 0 10 9
10 20 0 15 7 20 25 20 18 0 25 -5 25 -20z m-1509 -20 c13 -8 19 -7 19 0 0 6
10 10 23 8 20 -3 22 -9 25 -75 l3 -73 -43 0 c-24 0 -52 0 -62 -1 -27 0 -46 22
-53 63 -4 30 -1 41 20 62 29 29 39 31 68 16z m209 -10 c26 -26 25 -40 -2 -40
l-22 0 22 -16 c24 -17 29 -46 10 -62 -36 -29 -118 -9 -118 29 0 12 47 12 55
-1 7 -12 25 -13 25 -2 0 4 -16 14 -35 21 -29 10 -35 17 -35 41 0 49 62 68 100
30z m285 -5 c14 -13 25 -33 25 -45 0 -17 -6 -20 -51 -20 -31 0 -48 -4 -44 -10
4 -6 23 -7 46 -4 32 5 39 4 39 -9 0 -35 -85 -51 -114 -21 -38 37 -28 106 16
124 38 15 58 11 83 -15z m169 4 c39 -31 33 -43 -18 -36 -47 7 -57 -1 -48 -35
3 -14 12 -16 50 -11 l47 6 -16 -24 c-19 -28 -81 -38 -106 -18 -54 45 -22 135
48 138 9 1 28 -8 43 -20z m268 3 c8 -8 18 -6 35 5 49 32 93 -14 93 -98 0 -35
-3 -39 -24 -39 -23 0 -25 5 -28 48 -3 40 -6 47 -25 50 -21 3 -23 0 -23 -47 0
-47 -2 -51 -24 -51 -23 0 -25 5 -28 48 -3 39 -6 47 -23 47 -17 0 -20 -8 -23
-47 -3 -43 -5 -48 -28 -48 -23 0 -24 3 -24 68 0 38 3 71 6 74 9 10 105 1 116
-10z m272 -3 c15 -12 26 -30 26 -45 0 -22 -4 -24 -51 -24 -32 0 -48 -4 -44
-10 4 -7 24 -8 53 -4 l46 7 -15 -24 c-21 -32 -87 -39 -111 -12 -32 35 -24 102
14 121 34 16 53 14 82 -9z m194 -7 c6 -9 12 -40 12 -69 0 -50 -1 -53 -25 -53
-23 0 -25 3 -25 51 0 47 -2 50 -22 47 -20 -3 -23 -10 -26 -50 -3 -43 -5 -48
-28 -48 -23 0 -24 2 -24 70 l0 71 35 -3 c19 -1 38 1 41 5 11 10 47 -2 62 -21z
m295 -4 c41 -48 7 -118 -58 -118 -61 0 -94 57 -64 111 22 42 89 46 122 7z
m-3349 -66 c3 -5 -1 -9 -9 -9 -8 0 -12 4 -9 9 3 4 7 8 9 8 2 0 6 -4 9 -8z
m604 -905 c2 -91 0 -107 -13 -107 -13 0 -15 18 -15 111 0 84 3 110 13 107 8
-3 13 -37 15 -111z m-480 86 c2 -9 -8 -13 -32 -13 l-36 0 0 -90 c0 -73 -3 -90
-15 -90 -12 0 -15 17 -15 90 l0 90 -30 0 c-20 0 -30 5 -30 15 0 13 13 15 77
13 50 -2 78 -7 81 -15z m222 -18 c0 -8 9 -15 20 -15 11 0 20 -7 20 -15 0 -8
-9 -15 -20 -15 -17 0 -20 -7 -20 -51 0 -43 3 -52 20 -56 23 -6 22 -26 -2 -31
-29 -6 -48 26 -48 83 0 34 -5 55 -12 57 -9 3 -8 9 5 22 9 10 17 22 17 27 0 5
5 9 10 9 6 0 10 -7 10 -15z m-107 -24 c56 -22 55 -127 -2 -151 -78 -32 -138
74 -76 135 26 27 41 30 78 16z m272 -5 c14 -10 20 -30 23 -79 l4 -66 -29 1
c-17 1 -35 -2 -41 -6 -6 -3 -22 -2 -36 4 -20 7 -26 16 -26 39 0 35 22 51 69
51 32 0 37 6 22 29 -6 9 -19 12 -40 8 -23 -5 -31 -3 -31 8 0 24 57 32 85 11z
m3472 -92 c76 -62 83 -85 83 -293 0 -217 -9 -249 -88 -304 l-47 -32 -685 -3
c-480 -2 -696 0 -723 8 -52 15 -112 72 -132 124 -14 36 -16 75 -13 224 l3 180
30 44 c17 23 49 53 70 65 l40 23 712 -3 711 -2 39 -31z m-3677 -374 c0 -5 14
-13 31 -17 16 -5 30 -12 30 -16 -1 -4 -1 -14 -1 -23 0 -13 -7 -15 -30 -10 -26
5 -30 3 -30 -17 0 -15 10 -26 30 -35 52 -24 53 -90 0 -112 -16 -7 -30 -19 -30
-26 0 -8 -7 -14 -15 -14 -8 0 -15 6 -15 14 0 8 -15 17 -35 20 -29 6 -35 11
-35 32 0 23 3 24 35 18 31 -5 35 -4 35 14 0 13 -12 28 -30 39 -54 31 -52 84 3
111 15 7 27 17 27 23 0 5 7 9 15 9 8 0 15 -4 15 -10z m-160 -25 c26 -23 26
-73 0 -100 l-20 -21 35 -52 36 -52 -33 0 c-28 0 -37 7 -61 45 -16 25 -33 45
-38 45 -5 0 -9 -20 -9 -45 0 -43 -1 -45 -30 -45 l-30 0 0 126 0 127 65 -6 c43
-3 73 -11 85 -22z m398 5 c40 -37 22 -105 -40 -154 l-33 -26 53 0 c49 0 52 -2
52 -25 0 -25 -1 -25 -90 -25 -111 0 -115 9 -36 90 51 52 60 67 57 98 -1 15
-35 16 -61 0 -16 -11 -22 -9 -34 7 -13 18 -12 21 12 37 37 24 93 23 120 -2z
m202 -5 c0 -22 -4 -25 -40 -25 -22 0 -40 -2 -40 -4 0 -2 -3 -11 -6 -20 -5 -13
1 -16 25 -16 68 0 104 -79 61 -133 -36 -45 -142 -44 -148 2 -3 21 -1 22 40 16
51 -7 71 4 66 36 -3 21 -9 24 -50 27 l-48 3 0 63 c0 34 3 66 7 69 3 4 35 7 70
7 61 0 63 -1 63 -25z m177 10 c38 -27 52 -106 32 -178 -18 -66 -105 -83 -145
-29 -18 23 -28 94 -19 138 13 71 80 105 132 69z m2978 -589 c61 -29 117 -86
144 -146 19 -41 21 -66 21 -252 l0 -206 -33 -64 c-26 -50 -45 -71 -91 -103
l-58 -40 -246 -8 c-136 -4 -996 -6 -1912 -5 l-1665 3 -42 23 c-64 34 -111 80
-141 136 -26 51 -27 53 -27 266 0 204 1 217 23 257 35 66 82 114 137 139 l50
24 1895 0 1895 0 50 -24z m-9305 -121 c0 -19 -2 -35 -4 -35 -2 0 -29 -11 -60
-25 l-56 -25 0 33 c0 30 5 35 53 59 28 15 55 27 60 27 4 1 7 -15 7 -34z m540
-63 c28 -22 22 -67 -10 -77 -54 -17 -93 42 -50 77 12 10 26 18 30 18 4 0 18
-8 30 -18z m-320 -192 l0 -180 -45 0 -45 0 0 180 0 180 45 0 45 0 0 -180z
m3741 169 c15 -7 24 -7 34 1 8 6 23 10 34 8 18 -3 19 -6 8 -27 -20 -40 -40
-47 -88 -31 -33 11 -43 12 -47 2 -2 -7 -14 -12 -28 -12 -18 0 -22 4 -17 18 17
48 60 65 104 41z m-4081 -113 c0 -133 8 -156 54 -156 18 0 38 6 44 13 6 7 13
64 14 128 l3 114 43 3 44 3 -4 -136 -3 -137 -36 -33 c-49 -44 -103 -53 -163
-27 -64 29 -78 62 -84 194 -2 59 -2 114 1 122 4 11 19 16 47 16 l40 0 0 -104z
m2170 69 c0 -35 0 -35 -45 -35 l-45 0 0 -135 0 -135 -40 0 -40 0 0 135 0 135
-45 0 c-45 0 -45 0 -45 35 l0 35 130 0 130 0 0 -35z m-1680 -5 c0 -27 3 -30
30 -30 28 0 30 -3 30 -34 0 -30 -3 -35 -27 -38 -25 -3 -28 -8 -31 -42 -5 -61
4 -86 33 -86 22 0 25 -4 25 -35 0 -35 0 -35 -45 -35 -35 0 -52 6 -70 25 -22
21 -25 33 -25 100 0 68 -2 75 -20 75 -16 0 -20 7 -20 31 0 22 5 32 20 36 14 4
20 14 20 34 0 27 3 29 40 29 38 0 40 -2 40 -30z m180 -165 l0 -135 -40 0 -40
0 0 135 0 135 40 0 40 0 0 -135z m150 125 c0 -7 6 -7 19 0 38 20 113 7 132
-23 4 -6 19 -1 37 12 46 32 106 29 143 -8 28 -29 29 -32 29 -135 l0 -106 -40
0 -40 0 0 80 c0 67 -3 83 -21 101 -14 14 -27 18 -42 13 -33 -10 -37 -22 -37
-111 l0 -83 -45 0 -45 0 0 90 c0 85 -1 91 -24 101 -17 8 -29 8 -45 0 -19 -11
-21 -20 -21 -101 l0 -90 -45 0 -45 0 0 135 0 135 45 0 c25 0 45 -5 45 -10z
m578 -6 c20 -14 22 -14 22 0 0 12 10 16 40 16 l40 0 0 -135 0 -135 -40 0 c-31
0 -40 4 -40 17 0 14 -2 15 -17 1 -47 -41 -127 -24 -163 34 -38 63 -18 172 39
203 35 19 91 19 119 -1z m331 2 c22 -12 51 -52 51 -71 0 -13 -76 -3 -91 11
-20 18 -49 12 -49 -9 0 -9 19 -19 48 -27 82 -20 114 -74 77 -127 -21 -30 -85
-47 -132 -34 -43 12 -83 47 -83 73 0 14 8 18 39 18 23 0 44 -6 51 -15 15 -18
51 -16 57 2 3 7 -17 18 -51 28 -94 28 -120 89 -60 143 30 26 99 30 143 8z
m567 -1 c5 -13 8 -13 27 0 41 28 57 20 57 -30 0 -43 -1 -45 -28 -45 -44 0 -52
-16 -52 -102 l0 -78 -45 0 -45 0 0 135 0 135 40 0 c27 0 43 -5 46 -15z m282
-1 c20 -14 22 -14 22 0 0 12 10 16 40 16 l40 0 0 -135 0 -135 -40 0 c-31 0
-40 4 -40 17 0 14 -2 14 -20 -2 -25 -23 -91 -23 -126 -1 -72 48 -70 201 5 241
35 19 91 19 119 -1z m249 5 c8 -8 17 -8 31 0 27 14 65 14 96 0 40 -19 56 -66
56 -168 l0 -91 -45 0 -45 0 0 88 c0 93 -8 112 -45 112 -37 0 -45 -19 -45 -112
l0 -88 -45 0 -45 0 0 135 0 135 38 0 c21 0 43 -5 49 -11z m402 -3 c22 -12 51
-52 51 -71 0 -13 -76 -3 -91 11 -20 18 -49 12 -49 -9 0 -9 19 -19 48 -27 58
-14 92 -44 92 -81 0 -58 -70 -96 -146 -79 -42 10 -84 46 -84 72 0 14 8 18 39
18 23 0 44 -6 51 -15 15 -18 51 -16 57 2 3 7 -19 19 -52 29 -65 21 -88 43 -88
84 0 32 17 58 48 70 32 14 94 11 124 -4z m259 -2 c20 -14 22 -14 22 1 0 13 9
16 43 13 l42 -3 3 -132 3 -133 -46 0 c-35 0 -45 4 -45 17 0 14 -2 14 -20 -2
-25 -23 -88 -23 -122 -1 -28 19 -58 81 -58 122 0 38 25 88 55 112 33 26 91 29
123 6z m352 1 c25 -13 60 -60 60 -80 0 -12 -88 -4 -100 10 -41 50 -103 -34
-66 -90 18 -28 63 -34 72 -10 9 22 94 21 94 -1 0 -21 -63 -84 -84 -84 -9 0
-16 -4 -16 -10 0 -5 5 -10 12 -10 20 0 48 -32 48 -56 0 -33 -36 -54 -92 -54
-45 0 -48 2 -48 25 0 23 4 25 41 25 24 0 38 4 34 10 -3 6 -15 10 -26 10 -14 0
-19 7 -19 25 0 19 -10 29 -40 45 -49 25 -70 64 -70 129 0 39 6 56 27 81 14 18
36 36 47 40 34 14 95 11 126 -5z m327 -28 c28 -32 33 -44 33 -88 0 -59 -20
-99 -62 -123 -57 -34 -162 -14 -189 35 -36 69 -29 136 18 181 38 34 49 38 112
34 48 -3 58 -7 88 -39z m263 30 c35 -18 70 -74 70 -113 l0 -34 -95 0 c-81 0
-94 -2 -89 -15 11 -29 43 -38 69 -21 27 18 105 22 105 6 0 -22 -57 -72 -90
-79 -86 -18 -159 33 -167 116 -6 61 14 105 60 133 36 23 100 26 137 7z m279
-1 c22 -12 51 -52 51 -71 0 -13 -76 -3 -91 11 -20 18 -49 12 -49 -9 0 -9 18
-19 46 -26 86 -22 119 -87 69 -136 -20 -21 -34 -25 -85 -25 -55 0 -65 3 -91
29 -41 42 -38 61 10 61 26 0 41 -5 45 -16 4 -10 15 -14 33 -12 45 5 33 29 -22
45 -67 20 -85 38 -85 85 0 33 5 41 33 58 38 23 97 26 136 6z m-4329 -1038
c362 -167 340 -677 -35 -809 -49 -17 -77 -20 -155 -17 -81 3 -105 8 -160 35
-115 54 -187 133 -230 250 -19 53 -22 77 -18 165 3 97 6 108 42 176 56 106
145 180 261 219 26 8 76 12 140 10 82 -3 110 -8 155 -29z m970 -137 c0 -28 2
-29 33 -24 63 10 110 -58 86 -127 -15 -41 -33 -49 -112 -49 l-67 0 0 115 0
114 30 0 c27 0 30 -3 30 -29z m-360 -71 l0 -90 35 0 c28 0 35 -4 35 -20 0 -18
-7 -20 -65 -20 l-65 0 0 110 0 110 30 0 30 0 0 -90z m140 1 c0 -64 7 -81 35
-81 28 0 35 17 35 81 0 46 2 49 25 49 25 0 25 -1 25 -89 l0 -89 -67 0 c-93 -1
-103 10 -103 105 0 71 1 73 25 73 23 0 25 -3 25 -49z m425 39 c4 -7 12 -7 25
0 27 15 30 13 30 -19 0 -22 -6 -30 -25 -35 -23 -6 -25 -11 -25 -61 0 -54 0
-55 -30 -55 l-30 0 0 90 c0 89 0 90 24 90 14 0 28 -5 31 -10z m186 0 c13 -7
19 -7 19 0 0 5 11 10 25 10 25 0 25 -1 25 -89 l0 -89 -62 0 c-84 -1 -97 4
-114 43 -34 81 36 162 107 125z m166 -16 l19 -25 14 25 c9 19 22 26 42 26 15
0 28 -2 28 -5 0 -3 -12 -24 -27 -46 -29 -44 -29 -39 15 -106 14 -22 13 -23
-17 -23 -20 0 -35 7 -43 20 -7 11 -16 20 -20 20 -4 0 -10 -9 -13 -20 -5 -15
-15 -20 -41 -20 l-35 0 30 44 c26 37 28 46 17 62 -7 10 -21 31 -31 47 l-17 27
30 0 c21 0 36 -8 49 -26z m2633 -69 c0 -8 9 -15 20 -15 11 0 20 -4 20 -10 0
-5 -9 -10 -20 -10 -27 0 -28 -46 -1 -55 34 -10 37 -46 7 -70 -14 -11 -26 -27
-26 -35 -1 -12 -3 -12 -13 1 -7 9 -22 19 -35 23 -31 10 -28 30 3 22 22 -6 25
-3 25 21 0 17 -8 33 -20 41 -11 7 -20 23 -20 36 0 16 7 27 20 31 11 3 20 13
20 21 0 8 5 14 10 14 6 0 10 -7 10 -15z m-113 -17 c18 -15 16 -48 -4 -70 -15
-17 -15 -21 6 -58 16 -28 18 -40 9 -40 -7 0 -23 18 -36 40 -30 53 -52 53 -52
0 0 -29 -4 -40 -15 -40 -12 0 -15 16 -15 88 0 49 3 92 8 96 9 10 82 -2 99 -16z
m353 4 c30 -24 22 -59 -26 -112 l-36 -40 46 0 c25 0 46 -4 46 -10 0 -6 -28
-10 -65 -10 -36 0 -65 4 -65 8 0 4 18 26 41 47 47 46 60 73 47 98 -10 19 -43
23 -53 7 -4 -6 -11 -7 -17 -4 -14 9 19 34 43 34 9 0 27 -8 39 -18z m230 8 c0
-5 -10 -10 -22 -10 -27 0 -58 -27 -58 -52 0 -16 3 -17 21 -8 32 18 69 -11 69
-53 0 -41 -15 -57 -56 -57 -43 0 -59 23 -59 87 0 48 4 58 28 79 28 24 77 33
77 14z m145 -5 c0 -5 -17 -11 -37 -13 -33 -3 -38 -7 -38 -28 0 -19 5 -24 27
-24 30 0 63 -25 63 -49 0 -9 -7 -27 -16 -39 -13 -19 -24 -22 -57 -20 -22 2
-42 8 -44 14 -2 6 11 8 34 6 27 -3 40 0 49 13 21 28 0 55 -41 55 -35 0 -35 1
-35 43 0 24 3 47 7 51 11 10 88 3 88 -9z m136 5 c22 -12 25 -52 5 -69 -13 -11
-12 -15 5 -32 23 -23 24 -42 3 -63 -18 -19 -75 -21 -92 -4 -17 17 -15 65 4 76
14 8 14 10 0 21 -23 19 -20 47 6 65 26 19 42 20 69 6z m-1001 -110 c0 -5 -16
-10 -36 -10 -21 0 -33 4 -29 10 3 6 19 10 36 10 16 0 29 -4 29 -10z m580 -55
c0 -8 -7 -15 -15 -15 -8 0 -15 7 -15 15 0 8 7 15 15 15 8 0 15 -7 15 -15z
m-2830 -90 c-7 -8 -17 -15 -22 -15 -6 0 -5 7 2 15 7 8 17 15 22 15 6 0 5 -7
-2 -15z m-1060 -70 c0 -43 -4 -75 -10 -75 -6 0 -10 27 -10 60 0 49 -3 58 -15
54 -8 -4 -15 -3 -15 1 0 9 31 34 43 35 4 0 7 -34 7 -75z m150 65 c0 -5 -13
-10 -30 -10 -40 0 -44 -37 -4 -42 37 -4 51 -29 36 -62 -10 -22 -18 -26 -52
-26 -23 0 -40 5 -40 11 0 7 10 9 25 7 32 -6 60 14 52 36 -4 10 -18 16 -37 16
-28 0 -30 2 -30 40 l0 40 40 0 c22 0 40 -4 40 -10z m190 -10 c12 -12 20 -33
20 -55 0 -48 -29 -75 -80 -75 l-40 0 0 75 0 75 40 0 c27 0 47 -7 60 -20z m70
10 c0 -5 -4 -10 -10 -10 -5 0 -10 5 -10 10 0 6 5 10 10 10 6 0 10 -4 10 -10z
m392 -65 c32 -78 31 -75 18 -75 -6 0 -15 11 -20 25 -7 18 -17 25 -35 25 -17 0
-29 -8 -37 -25 -11 -25 -34 -36 -25 -12 2 6 15 40 27 75 13 34 28 61 33 59 6
-2 24 -34 39 -72z m68 50 c0 -8 8 -16 18 -16 16 -1 16 -2 0 -6 -13 -3 -18 -15
-18 -43 0 -26 6 -43 18 -50 15 -9 14 -10 -8 -8 -22 3 -25 8 -28 48 -2 24 -9
48 -15 52 -9 6 -9 8 1 8 6 0 12 7 12 15 0 8 5 15 10 15 6 0 10 -7 10 -15z
m-348 -29 c4 -6 8 -30 8 -52 l0 -42 -42 2 c-39 1 -43 3 -43 26 0 20 7 27 33
35 38 11 37 31 -2 28 -29 -2 -36 13 -8 19 21 5 45 -2 54 -16z m108 3 c0 -5
-11 -7 -24 -3 -36 9 -41 -13 -7 -31 38 -19 46 -32 31 -50 -15 -18 -66 -20 -76
-4 -5 8 0 10 17 6 13 -3 30 -2 38 2 10 7 7 13 -15 27 -36 23 -44 33 -37 50 8
22 73 24 73 3z m338 -3 c-18 -9 -24 -21 -26 -54 -5 -62 -22 -51 -22 14 0 43 3
55 13 51 8 -3 20 -1 27 3 8 5 18 6 23 3 5 -3 -2 -10 -15 -17z m-558 -41 c0
-30 -4 -55 -10 -55 -5 0 -10 25 -10 55 0 30 5 55 10 55 6 0 10 -25 10 -55z
m674 39 c3 -9 6 -33 6 -54 l0 -38 -42 2 c-39 1 -43 3 -43 26 0 20 7 27 33 35
38 11 37 31 -2 28 -14 -1 -26 2 -26 8 0 16 67 10 74 -7z m106 6 c0 -6 -10 -8
-24 -4 -36 9 -41 -13 -7 -31 38 -19 46 -32 31 -50 -15 -18 -66 -20 -76 -4 -5
8 0 10 17 6 13 -3 30 -2 38 2 10 7 7 13 -15 27 -36 23 -44 33 -37 51 6 15 73
18 73 3z m-1770 -754 c79 -41 137 -91 180 -158 142 -219 60 -508 -177 -625
-232 -114 -515 8 -599 259 -12 38 -15 74 -12 151 3 87 8 111 33 162 49 102
142 187 248 226 43 16 72 19 162 16 97 -3 117 -7 165 -31z m970 -162 c0 -31 3
-35 18 -29 40 17 61 16 81 -4 17 -17 21 -33 21 -91 0 -68 -1 -70 -25 -70 -22
0 -24 4 -27 56 -6 104 -68 96 -68 -8 0 -45 -2 -48 -25 -48 l-25 0 0 115 0 115
25 0 c22 0 25 -4 25 -36z m-290 -64 c0 -77 -3 -93 -20 -110 -40 -40 -130 -15
-130 36 0 19 5 24 24 24 13 0 26 -7 30 -15 3 -8 12 -15 21 -15 12 0 15 15 15
85 l0 85 30 0 30 0 0 -90z m898 57 c22 -23 27 -36 27 -77 0 -41 -5 -54 -27
-77 -24 -23 -38 -28 -98 -31 l-70 -4 0 112 0 112 70 -4 c60 -3 74 -8 98 -31z
m-735 -19 c34 -18 46 -39 47 -81 0 -53 -35 -87 -90 -87 -30 0 -47 6 -65 25
-71 70 20 190 108 143z m342 2 c3 -6 15 -5 30 2 33 15 72 -3 85 -38 6 -14 10
-50 10 -80 0 -53 0 -54 -30 -54 -29 0 -29 1 -32 63 -3 59 -4 62 -28 62 -24 0
-25 -3 -28 -62 -3 -62 -3 -63 -32 -63 l-30 0 0 90 c0 89 0 90 24 90 14 0 27
-4 31 -10z m574 -5 c31 -15 41 -33 41 -71 0 -23 -3 -24 -62 -24 -58 0 -61 -1
-45 -17 14 -14 20 -15 40 -4 13 7 35 11 48 9 l24 -3 -27 -27 c-57 -58 -148
-25 -148 54 0 48 14 76 43 88 32 13 55 12 86 -5z m186 5 c27 -10 61 -72 50
-90 -4 -6 -31 -10 -61 -10 -30 0 -54 -4 -54 -10 0 -16 30 -24 43 -11 12 12 67
16 67 4 0 -4 -10 -17 -22 -30 -15 -16 -33 -23 -60 -23 -53 0 -88 35 -88 87 1
72 57 109 125 83z m130 0 c4 -7 12 -7 25 0 27 15 30 13 30 -19 0 -22 -6 -30
-25 -35 -23 -6 -25 -11 -25 -61 0 -54 0 -55 -30 -55 l-30 0 0 90 c0 89 0 90
24 90 14 0 28 -5 31 -10z m216 -19 c17 -17 29 -40 29 -55 0 -25 -2 -26 -62
-26 -57 0 -61 -1 -46 -16 12 -12 20 -14 36 -5 29 15 62 14 62 -3 0 -38 -94
-61 -131 -33 -57 43 -45 136 21 160 34 13 63 6 91 -22z m1780 -101 c10 0 19
-4 19 -10 0 -5 -9 -10 -20 -10 -27 0 -28 -46 -1 -55 34 -10 37 -46 7 -70 -14
-11 -26 -27 -26 -35 -1 -12 -3 -12 -13 1 -7 9 -22 19 -35 23 -31 10 -28 30 3
22 22 -6 25 -3 25 21 0 17 -8 33 -20 41 -26 16 -26 59 -1 67 11 3 23 13 27 23
7 16 7 16 11 0 3 -10 13 -18 24 -18z m-133 -2 c17 -15 15 -48 -5 -70 -15 -17
-15 -21 6 -58 16 -28 18 -40 9 -40 -7 0 -23 18 -36 40 -28 49 -52 53 -53 8 -1
-18 -1 -36 0 -40 0 -5 -6 -8 -14 -8 -12 0 -15 16 -15 88 0 49 3 92 7 96 9 9
84 -3 101 -16z m353 12 c22 -12 25 -52 5 -69 -13 -11 -12 -15 5 -32 23 -23 24
-37 2 -61 -18 -20 -73 -24 -91 -6 -16 16 -15 53 2 67 12 10 12 16 -2 42 -16
29 -16 31 7 50 26 21 44 24 72 9z m357 -6 c34 -23 28 -58 -19 -109 l-42 -45
47 0 c25 0 46 -4 46 -10 0 -6 -27 -10 -60 -10 -38 0 -60 4 -60 11 0 7 20 34
45 60 48 51 54 69 30 89 -12 10 -21 10 -40 2 -15 -7 -26 -8 -30 -2 -4 6 4 14
17 19 33 14 41 13 66 -5z m153 6 c22 -12 25 -52 5 -69 -13 -11 -12 -15 5 -32
23 -23 24 -37 2 -61 -18 -20 -73 -24 -91 -6 -16 16 -15 53 2 67 12 10 12 16
-2 42 -16 29 -16 31 7 50 26 21 44 24 72 9z m149 -10 c28 -28 28 -108 -1 -144
-20 -26 -79 -38 -79 -16 0 6 13 10 30 10 19 0 33 7 40 19 17 33 12 40 -24 34
-29 -4 -37 -1 -50 20 -41 62 32 129 84 77z m-500 1 c0 -6 -17 -11 -37 -13 -31
-2 -39 -7 -41 -25 -3 -20 1 -23 30 -23 41 0 58 -15 58 -51 0 -39 -25 -59 -71
-59 -53 0 -50 18 4 22 39 3 42 5 42 33 0 27 -3 30 -35 33 -46 4 -54 14 -46 56
7 35 8 36 51 36 25 0 45 -4 45 -9z m-650 -101 c0 -5 -16 -10 -36 -10 -21 0
-33 4 -29 10 3 6 19 10 36 10 16 0 29 -4 29 -10z m728 -58 c2 -7 -3 -12 -12
-12 -9 0 -16 7 -16 16 0 17 22 14 28 -4z m-2988 -61 c0 -12 -20 -25 -27 -18
-7 7 6 27 18 27 5 0 9 -4 9 -9z m-922 -29 c2 -13 -1 -29 -7 -36 -9 -10 -8 -15
4 -20 19 -7 20 -40 1 -55 -20 -17 -67 -10 -80 11 -8 13 -8 23 2 38 8 14 9 26
3 38 -16 28 5 54 42 50 25 -2 33 -8 35 -26z m193 9 c17 -14 23 -28 22 -57 -1
-48 -30 -74 -84 -74 l-39 0 0 75 0 75 39 0 c23 0 48 -8 62 -19z m69 9 c0 -5
-4 -10 -10 -10 -5 0 -10 5 -10 10 0 6 5 10 10 10 6 0 10 -4 10 -10z m365 1
c17 -29 53 -141 45 -141 -6 0 -15 11 -20 25 -7 18 -17 25 -35 25 -17 0 -29 -8
-37 -25 -13 -28 -34 -35 -24 -7 49 131 57 145 71 123z m113 -32 c15 -1 15 -2
0 -6 -13 -3 -18 -15 -18 -43 0 -26 6 -43 18 -50 15 -9 14 -10 -8 -8 -22 3 -25
8 -28 51 -2 26 -7 47 -12 47 -6 0 -2 9 8 20 14 17 18 18 20 5 2 -8 11 -16 20
-16z m-478 -54 c0 -30 -4 -55 -10 -55 -5 0 -10 25 -10 55 0 30 5 55 10 55 6 0
10 -25 10 -55z m118 -1 l3 -52 -43 2 c-39 1 -43 3 -43 26 0 20 7 27 33 35 38
11 37 31 -2 28 -14 -1 -26 3 -26 8 0 6 17 9 38 7 l37 -3 3 -51z m102 46 c0 -6
-10 -8 -24 -4 -36 9 -41 -13 -7 -31 38 -19 46 -32 31 -50 -15 -18 -66 -20 -76
-4 -5 8 0 10 17 6 13 -3 30 -2 38 2 10 7 7 13 -15 27 -36 23 -44 33 -37 51 6
15 73 18 73 3z m340 -3 c-20 -10 -26 -21 -28 -55 -5 -61 -22 -52 -22 11 l0 54
38 1 c36 1 36 1 12 -11z m118 -43 l3 -52 -43 2 c-39 1 -43 3 -43 26 0 20 7 27
33 35 38 11 37 31 -2 28 -14 -1 -26 3 -26 8 0 6 17 9 38 7 l37 -3 3 -51z m102
46 c0 -6 -10 -8 -24 -4 -36 9 -41 -13 -7 -31 38 -19 46 -32 31 -50 -15 -18
-66 -20 -76 -3 -5 8 0 9 15 5 43 -11 71 15 31 28 -29 9 -50 33 -44 50 7 17 74
21 74 5z m-1731 -709 c82 -26 138 -60 194 -120 105 -112 143 -272 99 -418 -36
-118 -115 -207 -242 -274 -40 -22 -58 -24 -170 -24 -118 0 -128 2 -185 30 -78
38 -173 133 -211 210 -27 56 -29 68 -29 180 0 114 1 123 32 188 90 190 314
290 512 228z m849 -145 c5 -25 -12 -39 -37 -31 -20 6 -28 34 -14 49 13 13 48
1 51 -18z m607 0 c0 -30 -31 -44 -51 -24 -15 14 -15 20 -4 33 18 21 55 15 55
-9z m-185 -111 l0 -115 -30 0 -30 0 0 115 0 115 30 0 30 0 0 -115z m90 0 l0
-115 -25 0 -25 0 0 115 0 115 25 0 25 0 0 -115z m-615 80 c14 -13 25 -33 25
-43 0 -33 -33 -64 -76 -71 -37 -6 -39 -9 -42 -44 -3 -32 -7 -37 -28 -37 -24 0
-24 0 -24 110 l0 110 60 0 c51 0 65 -4 85 -25z m105 -105 l0 -90 -30 0 -30 0
0 83 c0 46 3 87 7 90 3 4 17 7 30 7 22 0 23 -2 23 -90z m90 75 c0 -14 2 -14
23 0 27 17 37 11 37 -22 0 -15 -6 -23 -18 -23 -30 0 -42 -21 -42 -72 0 -45 -2
-48 -25 -48 -25 0 -25 1 -25 90 0 89 0 90 25 90 16 0 25 -6 25 -15z m215 -7
c15 -14 27 -35 28 -53 2 -30 2 -30 -55 -33 -57 -3 -74 -14 -41 -26 9 -4 21 -2
27 4 13 13 66 13 66 0 0 -5 -9 -19 -20 -30 -29 -29 -94 -27 -125 5 -78 77 37
204 120 133z m295 -68 c0 -89 0 -90 -25 -90 -25 0 -25 1 -25 90 0 89 0 90 25
90 25 0 25 -1 25 -90z m2741 10 c10 0 19 -4 19 -10 0 -5 -9 -10 -20 -10 -30 0
-27 -44 5 -58 15 -7 25 -20 25 -32 0 -11 -11 -27 -25 -36 -14 -9 -26 -24 -26
-33 -1 -15 -2 -15 -6 1 -2 9 -15 19 -29 22 -30 8 -32 27 -2 23 32 -3 33 37 2
58 -31 20 -30 42 4 76 19 20 28 24 30 13 2 -8 12 -14 23 -14z m229 -45 c0 -51
3 -65 15 -65 8 0 15 -4 15 -10 0 -5 -7 -10 -15 -10 -8 0 -15 -9 -15 -20 0 -11
-4 -20 -10 -20 -5 0 -10 9 -10 20 0 17 -7 20 -45 20 -25 0 -45 5 -45 11 0 15
90 139 101 139 5 0 9 -29 9 -65z m208 49 c25 -17 29 -46 8 -63 -13 -11 -12
-15 4 -31 19 -19 18 -40 -3 -67 -11 -15 -93 -17 -102 -4 -3 6 16 11 42 13 43
3 48 5 48 27 0 19 -8 27 -35 37 l-35 12 32 7 c63 14 48 71 -16 61 -34 -6 -35
-5 -17 9 25 19 46 19 74 -1z m153 -3 c23 -19 23 -21 7 -50 -14 -26 -14 -32 -2
-42 17 -14 18 -51 2 -67 -17 -17 -74 -15 -92 4 -21 21 -20 40 3 63 17 17 18
21 5 32 -19 16 -18 56 4 68 26 16 47 13 73 -8z m149 -46 c0 -51 3 -65 15 -65
8 0 15 -4 15 -10 0 -5 -7 -10 -15 -10 -8 0 -15 -9 -15 -20 0 -11 -4 -20 -10
-20 -5 0 -10 9 -10 20 0 17 -7 20 -46 20 -38 0 -45 3 -40 16 10 27 88 134 97
134 5 0 9 -29 9 -65z m-872 43 c18 -18 15 -66 -5 -77 -15 -8 -15 -13 10 -50
20 -30 23 -41 13 -41 -8 0 -25 18 -37 40 -14 24 -30 40 -41 40 -14 0 -18 -8
-18 -40 0 -22 -4 -40 -10 -40 -6 0 -10 37 -10 90 l0 90 43 0 c24 0 48 -5 55
-12z m-138 -98 c0 -5 -13 -10 -30 -10 -16 0 -30 5 -30 10 0 6 14 10 30 10 17
0 30 -4 30 -10z m580 -55 c0 -8 -7 -15 -15 -15 -16 0 -20 12 -8 23 11 12 23 8
23 -8z m-2900 -124 c0 -12 -20 -25 -27 -18 -7 7 6 27 18 27 5 0 9 -4 9 -9z
m-930 -51 c0 -41 3 -50 18 -50 15 -1 15 -2 1 -13 -9 -7 -18 -19 -22 -27 -4
-12 -6 -11 -6 3 -1 13 -10 17 -35 17 -19 0 -37 4 -40 8 -6 9 64 112 76 112 4
0 8 -22 8 -50z m200 32 c16 -13 22 -29 22 -57 0 -49 -28 -75 -83 -75 l-39 0 0
75 0 75 39 0 c22 0 48 -8 61 -18z m70 8 c0 -5 -4 -10 -10 -10 -5 0 -10 5 -10
10 0 6 5 10 10 10 6 0 10 -4 10 -10z m364 2 c16 -27 53 -142 45 -142 -5 0 -14
11 -19 25 -7 18 -17 25 -35 25 -17 0 -29 -8 -37 -25 -13 -28 -34 -35 -24 -7
48 129 57 145 70 124z m114 -33 c15 -1 15 -2 0 -6 -13 -3 -18 -15 -18 -43 0
-26 6 -43 18 -50 15 -9 14 -10 -8 -8 -22 3 -25 8 -28 51 -2 26 -7 47 -12 47
-6 0 -2 9 8 20 14 17 18 18 20 5 2 -8 11 -16 20 -16z m-478 -54 c0 -30 -4 -55
-10 -55 -5 0 -10 25 -10 55 0 30 5 55 10 55 6 0 10 -25 10 -55z m118 -1 l3
-52 -43 2 c-39 1 -43 3 -43 26 0 20 7 27 33 35 38 11 37 31 -2 28 -14 -1 -26
3 -26 8 0 6 17 9 38 7 l37 -3 3 -51z m102 47 c0 -4 -11 -6 -24 -4 -36 7 -41
-14 -7 -32 38 -19 46 -32 31 -50 -14 -16 -70 -21 -70 -6 0 6 12 9 26 8 32 -2
43 19 15 28 -35 11 -54 35 -40 51 12 15 69 20 69 5z m340 -4 c-20 -10 -26 -21
-28 -55 -5 -61 -22 -52 -22 11 l0 54 38 1 c36 1 36 1 12 -11z m118 -43 l3 -52
-43 2 c-39 1 -43 3 -43 26 0 20 7 27 33 35 35 10 38 30 3 29 -11 0 -21 3 -21
8 0 5 15 8 33 6 31 -3 32 -4 35 -54z m102 47 c0 -4 -11 -6 -24 -4 -36 7 -41
-14 -8 -31 34 -18 45 -39 29 -55 -13 -13 -67 -15 -67 -2 0 6 12 9 26 8 38 -3
40 18 4 33 -28 12 -39 37 -23 53 9 10 63 8 63 -2z m7609 -420 c50 -26 98 -82
106 -123 3 -18 5 -148 3 -289 l-3 -256 -28 -40 c-15 -22 -45 -49 -66 -61 l-39
-22 -2534 0 c-2448 0 -2534 1 -2568 19 -19 10 -48 35 -65 55 l-30 38 -3 279
c-3 304 -2 312 56 367 59 55 -109 51 2610 52 2478 0 2523 0 2561 -19z"/>
<path d="M7793 8323 c-25 -10 -12 -23 22 -23 36 0 47 13 19 24 -18 7 -23 7
-41 -1z"/>
<path d="M7396 7805 c-8 -22 4 -45 24 -45 20 0 36 33 25 50 -9 15 -42 12 -49
-5z"/>
<path d="M7215 7817 c-8 -19 -2 -31 13 -26 5 2 6 13 2 24 -7 19 -8 19 -15 2z"/>
<path d="M7575 7810 c-11 -17 6 -50 25 -50 19 0 36 33 25 50 -3 5 -15 10 -25
10 -10 0 -22 -5 -25 -10z"/>
<path d="M7765 7820 c3 -5 10 -10 16 -10 5 0 9 5 9 10 0 6 -7 10 -16 10 -8 0
-12 -4 -9 -10z"/>
<path d="M8045 7820 c-4 -6 3 -10 14 -10 25 0 27 6 6 13 -8 4 -17 2 -20 -3z"/>
<path d="M8755 7820 c-3 -5 3 -10 15 -10 12 0 18 5 15 10 -3 6 -10 10 -15 10
-5 0 -12 -4 -15 -10z"/>
<path d="M9224 7805 c-9 -23 4 -47 23 -43 11 2 19 14 21 31 3 22 -1 27 -18 27
-11 0 -23 -7 -26 -15z"/>
<path d="M6128 6865 c-15 -34 0 -79 28 -83 30 -4 46 21 42 65 -3 33 -7 38 -30
41 -22 3 -30 -2 -40 -23z"/>
<path d="M6401 6821 c-8 -5 -11 -16 -8 -26 10 -23 48 -15 58 13 7 19 5 22 -14
22 -12 0 -28 -4 -36 -9z"/>
<path d="M8462 6803 c-44 -21 -79 -65 -93 -116 -7 -25 -10 -102 -7 -198 3
-151 4 -157 31 -198 18 -27 44 -50 70 -62 40 -18 75 -19 715 -19 731 0 710 -2
764 56 43 46 48 74 48 251 0 197 -12 236 -84 278 l-43 25 -684 0 c-609 0 -688
-2 -717 -17z m598 -263 l0 -101 -57 3 c-51 3 -59 6 -71 30 -23 49 24 103 73
84 12 -4 15 4 15 39 0 38 3 45 20 45 19 0 20 -7 20 -100z m-180 60 c0 -16 -7
-20 -30 -20 -20 0 -30 -5 -30 -15 0 -10 10 -15 30 -15 23 0 30 -4 30 -20 0
-16 -7 -20 -30 -20 -20 0 -30 -5 -30 -15 0 -10 10 -15 30 -15 23 0 30 -4 30
-20 0 -18 -7 -20 -55 -20 l-55 0 0 90 0 90 55 0 c48 0 55 -2 55 -20z m277 4
c3 -8 1 -20 -6 -27 -14 -14 -47 15 -37 32 10 16 36 13 43 -5z m103 -24 c0 -11
5 -20 10 -20 6 0 10 -9 10 -20 0 -11 -4 -20 -10 -20 -5 0 -10 -18 -10 -40 0
-33 -3 -40 -20 -40 -17 0 -20 7 -20 40 0 22 -4 40 -10 40 -5 0 -10 9 -10 20 0
11 5 20 10 20 6 0 10 9 10 20 0 13 7 20 20 20 13 0 20 -7 20 -20z m-100 -80
c0 -53 -2 -60 -20 -60 -18 0 -20 7 -20 60 0 53 2 60 20 60 18 0 20 -7 20 -60z
m300 0 l0 -58 -52 0 c-60 -1 -88 17 -88 56 0 43 26 61 86 61 l54 -1 0 -58z
m135 43 c0 -7 -3 -12 -6 -10 -16 6 -39 -29 -39 -59 0 -27 -4 -34 -20 -34 -18
0 -20 7 -20 60 l0 60 43 -3 c26 -1 42 -7 42 -14z"/>
<path d="M8981 6520 c-19 -11 -9 -45 14 -45 13 0 21 8 23 21 3 23 -17 37 -37
24z"/>
<path d="M9370 6514 c-11 -12 -10 -18 3 -32 16 -15 18 -15 34 0 13 14 14 20 3
32 -7 9 -16 16 -20 16 -4 0 -13 -7 -20 -16z"/>
<path d="M6221 6364 c0 -11 3 -14 6 -6 3 7 2 16 -1 19 -3 4 -6 -2 -5 -13z"/>
<path d="M6260 6264 c0 -8 5 -12 10 -9 6 4 8 11 5 16 -9 14 -15 11 -15 -7z"/>
<path d="M6010 6359 c0 -26 3 -30 22 -27 26 3 37 36 16 49 -25 17 -38 9 -38
-22z"/>
<path d="M6806 6374 c-12 -32 -6 -121 9 -134 26 -22 45 5 45 65 0 66 -7 85
-30 85 -10 0 -21 -7 -24 -16z"/>
<path d="M6460 5450 c0 -92 2 -100 19 -100 15 0 21 8 23 33 l3 32 20 -32 c14
-25 26 -33 48 -33 l28 0 -26 34 -26 35 20 20 c48 48 12 111 -64 111 l-45 0 0
-100z m80 55 c16 -20 5 -45 -20 -45 -16 0 -20 7 -20 30 0 33 19 40 40 15z"/>
<path d="M7054 5535 c-4 -9 -2 -21 4 -27 15 -15 44 -1 40 19 -4 23 -36 29 -44
8z"/>
<path d="M8060 5450 l0 -103 52 5 c65 7 98 39 98 98 0 59 -33 91 -98 98 l-52
5 0 -103z m92 43 c35 -31 12 -103 -34 -103 -15 0 -18 8 -18 60 0 65 14 77 52
43z"/>
<path d="M7350 5505 c0 -14 -4 -25 -10 -25 -5 0 -10 -7 -10 -15 0 -8 5 -15 10
-15 6 0 10 -22 10 -50 0 -43 3 -50 20 -50 17 0 20 7 20 45 0 31 5 47 15 51 8
4 15 12 15 20 0 8 -7 14 -15 14 -9 0 -15 9 -15 25 0 18 -5 25 -20 25 -15 0
-20 -7 -20 -25z"/>
<path d="M6660 5460 c-43 -43 -10 -110 53 -110 30 0 67 24 67 43 0 11 -38 8
-45 -3 -9 -15 -42 -12 -49 5 -4 12 4 15 44 15 43 0 50 3 50 19 0 46 -84 67
-120 31z m80 -20 c0 -5 -11 -10 -25 -10 -14 0 -25 5 -25 10 0 6 11 10 25 10
14 0 25 -4 25 -10z"/>
<path d="M6855 5460 c-41 -45 -7 -115 52 -108 27 3 33 0 33 -14 0 -24 -28 -34
-51 -20 -22 14 -49 16 -49 4 0 -19 38 -42 68 -42 55 0 72 28 72 119 l0 79 -54
1 c-41 0 -58 -4 -71 -19z m73 -22 c17 -17 15 -45 -4 -52 -18 -7 -44 10 -44 28
0 13 20 36 30 36 3 0 11 -5 18 -12z"/>
<path d="M7050 5415 c0 -58 2 -65 20 -65 18 0 20 7 20 65 0 58 -2 65 -20 65
-18 0 -20 -7 -20 -65z"/>
<path d="M7173 5473 c-20 -7 -16 -53 5 -59 9 -3 28 -11 42 -17 22 -9 23 -11 6
-15 -10 -2 -23 1 -29 7 -13 13 -47 15 -47 2 0 -35 90 -57 118 -29 29 29 13 52
-51 72 -10 3 -15 10 -12 16 4 7 13 7 26 -1 11 -5 27 -9 36 -7 15 3 15 5 -1 21
-16 16 -65 22 -93 10z"/>
<path d="M7470 5414 c0 -57 2 -64 20 -64 17 0 20 7 20 39 0 39 20 68 40 56 5
-3 10 2 10 13 0 16 -8 19 -45 20 l-45 0 0 -64z"/>
<path d="M7633 5472 c-14 -10 -33 -47 -33 -66 0 -34 36 -54 94 -54 l56 1 0 62
0 62 -53 1 c-30 0 -58 -3 -64 -6z m71 -45 c8 -12 7 -21 -6 -33 -22 -22 -48
-11 -48 20 0 37 34 45 54 13z"/>
<path d="M7820 5414 c0 -57 2 -64 20 -64 17 0 20 7 20 39 0 39 20 68 40 56 5
-3 10 2 10 13 0 16 -8 19 -45 20 l-45 0 0 -64z"/>
<path d="M8292 5464 c-15 -10 -22 -25 -22 -49 0 -61 77 -88 122 -43 26 26 9
37 -27 18 -25 -13 -55 -8 -55 10 0 5 22 10 50 10 43 0 50 3 50 19 0 25 -36 51
-70 51 -14 0 -36 -7 -48 -16z m73 -24 c4 -6 -7 -10 -25 -10 -18 0 -29 4 -25
10 3 6 15 10 25 10 10 0 22 -4 25 -10z"/>
<path d="M8483 5473 c-20 -7 -16 -53 5 -59 9 -3 28 -11 42 -17 22 -9 23 -11 6
-15 -10 -2 -23 1 -29 7 -13 13 -47 15 -47 2 0 -35 90 -57 118 -29 29 29 13 52
-51 72 -10 3 -15 10 -12 16 4 7 13 7 26 -1 11 -5 27 -9 36 -7 15 3 15 5 -1 21
-16 16 -65 22 -93 10z"/>
<path d="M8650 5379 c0 -92 1 -99 20 -99 16 0 20 7 20 38 0 37 1 38 33 34 58
-7 93 63 52 108 -12 14 -30 18 -71 18 l-54 -1 0 -98z m94 48 c16 -25 -16 -56
-38 -37 -19 15 -20 32 -4 48 15 15 28 11 42 -11z"/>
<path d="M8870 5460 c-43 -43 -10 -110 53 -110 30 0 67 24 67 43 0 11 -38 8
-45 -3 -9 -15 -42 -12 -49 5 -4 12 4 15 44 15 43 0 50 3 50 19 0 46 -84 67
-120 31z m80 -20 c0 -5 -11 -10 -25 -10 -14 0 -25 5 -25 10 0 6 11 10 25 10
14 0 25 -4 25 -10z"/>
<path d="M9063 5473 c-20 -7 -16 -53 5 -59 9 -3 28 -11 42 -17 22 -9 23 -11 6
-15 -10 -2 -23 1 -29 7 -13 13 -47 15 -47 2 0 -35 90 -57 118 -29 29 29 13 52
-51 72 -10 3 -15 10 -12 16 4 7 13 7 26 -1 11 -5 27 -9 36 -7 15 3 15 5 -1 21
-16 16 -65 22 -93 10z"/>
<path d="M9253 5472 c-14 -10 -33 -47 -33 -66 0 -34 36 -54 94 -54 l56 1 0 62
0 62 -53 1 c-30 0 -58 -3 -64 -6z m71 -45 c8 -12 7 -21 -6 -33 -22 -22 -48
-11 -48 20 0 37 34 45 54 13z"/>
<path d="M1762 5464 c-26 -18 -30 -74 -6 -98 35 -36 94 -4 94 51 0 25 -32 63
-53 63 -7 0 -23 -7 -35 -16z"/>
<path d="M2942 5464 c-26 -18 -30 -74 -6 -98 35 -36 94 -4 94 51 0 25 -32 63
-53 63 -7 0 -23 -7 -35 -16z"/>
<path d="M3852 5464 c-44 -31 -19 -114 35 -114 48 0 70 73 33 110 -24 24 -38
25 -68 4z"/>
<path d="M4460 5460 c-39 -39 -15 -110 38 -110 25 0 52 35 52 67 0 26 -32 63
-55 63 -8 0 -24 -9 -35 -20z"/>
<path d="M4763 5473 c-7 -2 -13 -11 -13 -19 0 -10 13 -14 45 -14 32 0 45 4 45
14 0 22 -44 33 -77 19z"/>
<path d="M290 4053 c1 -90 5 -145 13 -159 20 -34 50 -67 92 -102 l40 -32 205
0 206 0 56 50 c80 72 88 93 88 249 l0 131 -45 0 c-42 0 -45 -2 -35 -19 17 -33
11 -71 -15 -96 -16 -14 -22 -26 -15 -30 5 -3 10 -31 10 -61 l0 -54 -39 0 -40
0 -3 48 c-3 44 -5 47 -34 50 -28 3 -31 0 -45 -45 -13 -41 -19 -48 -43 -51 -51
-6 -57 1 -40 55 8 26 21 68 29 93 7 25 17 60 20 78 l7 32 -47 0 c-42 0 -45 -2
-35 -19 14 -28 12 -62 -5 -81 -12 -13 -13 -24 -6 -42 13 -36 2 -75 -27 -94
-26 -17 -194 -33 -225 -21 -12 5 -9 24 19 119 18 62 34 119 34 126 0 8 -19 12
-60 12 l-60 0 0 -137z"/>
<path d="M477 4119 c-5 -18 -1 -20 36 -17 30 2 43 8 45 21 3 14 -4 17 -36 17
-32 0 -41 -4 -45 -21z"/>
<path d="M770 4131 c0 -5 -3 -16 -6 -25 -5 -13 1 -16 28 -16 35 0 58 15 58 37
0 9 -14 13 -40 13 -22 0 -40 -4 -40 -9z"/>
<path d="M450 4031 c0 -5 -3 -16 -6 -25 -5 -12 0 -16 21 -16 34 0 65 17 65 35
0 11 -12 15 -40 15 -22 0 -40 -4 -40 -9z"/>
<path d="M1794 4282 c-29 -19 -18 -72 15 -72 30 0 46 26 33 55 -12 25 -28 31
-48 17z"/>
<path d="M2118 4265 c-13 -29 3 -55 33 -55 33 0 44 53 15 72 -20 14 -36 8 -48
-17z"/>
<path d="M4930 4196 c0 -8 5 -18 10 -21 6 -3 10 3 10 14 0 12 -4 21 -10 21 -5
0 -10 -6 -10 -14z"/>
<path d="M4970 4114 c0 -22 2 -25 15 -14 12 10 13 16 4 26 -16 20 -19 18 -19
-12z"/>
<path d="M4780 4190 c0 -26 3 -30 29 -30 30 0 45 19 35 45 -4 9 -19 15 -35 15
-26 0 -29 -4 -29 -30z"/>
<path d="M5372 4151 c-8 -5 -12 -21 -10 -37 3 -25 7 -29 33 -29 24 0 31 5 33
23 6 39 -25 63 -56 43z"/>
<path d="M5660 4214 c-11 -12 -10 -18 3 -31 18 -18 44 -12 54 13 11 30 -35 45
-57 18z"/>
<path d="M5665 4136 c-28 -20 -15 -50 23 -54 28 -3 32 0 32 22 0 32 -30 50
-55 32z"/>
<path d="M1670 3915 c0 -54 1 -55 28 -55 36 0 52 17 52 55 0 38 -16 55 -52 55
-27 0 -28 -1 -28 -55z"/>
<path d="M2167 3946 c-11 -29 -8 -46 8 -46 16 0 18 14 6 44 -7 18 -8 18 -14 2z"/>
<path d="M1870 3877 c0 -21 11 -27 31 -16 27 14 23 29 -6 29 -14 0 -25 -6 -25
-13z"/>
<path d="M2430 3876 c0 -22 19 -30 35 -16 22 18 18 30 -10 30 -15 0 -25 -6
-25 -14z"/>
<path d="M560 3090 c-36 -5 -94 -19 -130 -32 -61 -22 -65 -25 -82 -72 -43
-114 -44 -261 -2 -388 17 -54 40 -66 167 -92 102 -21 195 -20 295 4 126 30
137 38 156 113 33 132 28 273 -13 380 -24 62 -227 107 -391 87z m269 -41 c41
-11 80 -24 88 -30 46 -39 64 -270 29 -386 -18 -62 -19 -63 -74 -83 -91 -34
-151 -43 -257 -37 -96 5 -199 31 -232 58 -45 38 -61 259 -28 378 17 59 22 65
59 81 38 17 119 35 191 43 50 6 146 -5 224 -24z"/>
<path d="M515 3034 c-99 -22 -118 -33 -134 -79 -19 -54 -20 -255 -2 -318 12
-40 20 -50 50 -63 68 -29 182 -46 264 -39 75 5 207 40 207 55 0 16 -48 49 -86
59 -23 6 -52 19 -65 29 -18 14 -43 19 -99 20 -41 1 -97 9 -123 18 -56 19 -69
14 -32 -13 47 -32 70 -56 57 -61 -27 -9 -141 86 -128 107 4 5 27 13 51 17 31
4 45 11 47 23 2 30 -3 66 -13 76 -14 14 -11 21 16 33 37 17 30 31 -12 26 -36
-5 -37 -5 -18 11 16 13 17 17 6 24 -20 13 5 24 27 12 24 -13 36 -3 21 16 -17
20 10 17 34 -4 19 -18 20 -17 13 10 -8 32 7 36 31 7 10 -11 27 -20 38 -20 11
0 39 -9 62 -19 53 -25 81 -76 87 -163 6 -80 19 -113 48 -129 12 -7 30 -21 39
-33 16 -20 17 -19 29 36 18 79 9 243 -16 293 -17 35 -26 41 -84 57 -91 26
-228 31 -315 12z"/>
<path d="M2290 2940 c0 -60 0 -60 29 -60 37 0 61 23 61 60 0 37 -24 60 -61 60
-29 0 -29 0 -29 -60z"/>
<path d="M1612 2951 c-8 -5 -12 -21 -10 -37 2 -23 9 -30 30 -32 31 -4 46 25
28 58 -11 21 -27 25 -48 11z"/>
<path d="M2515 2950 c-4 -6 7 -10 24 -10 17 0 31 5 31 10 0 6 -11 10 -24 10
-14 0 -28 -4 -31 -10z"/>
<path d="M2710 2950 c0 -5 14 -10 31 -10 17 0 28 4 24 10 -3 6 -17 10 -31 10
-13 0 -24 -4 -24 -10z"/>
<path d="M3035 2950 c-4 -6 7 -10 25 -10 18 0 29 4 25 10 -3 6 -15 10 -25 10
-10 0 -22 -4 -25 -10z"/>
<path d="M4840 2846 c0 -8 5 -18 10 -21 6 -3 10 3 10 14 0 12 -4 21 -10 21 -5
0 -10 -6 -10 -14z"/>
<path d="M4880 2764 c0 -22 2 -25 15 -14 12 10 13 16 4 26 -16 20 -19 18 -19
-12z"/>
<path d="M4690 2840 c0 -26 3 -30 29 -30 16 0 31 6 35 15 10 26 -5 45 -35 45
-26 0 -29 -4 -29 -30z"/>
<path d="M5060 2864 c-11 -12 -10 -18 3 -31 18 -18 44 -12 54 13 11 30 -35 45
-57 18z"/>
<path d="M5065 2786 c-26 -19 -15 -50 19 -54 33 -4 49 14 36 39 -13 24 -35 30
-55 15z"/>
<path d="M5570 2864 c-11 -12 -10 -18 3 -31 18 -18 44 -12 54 13 11 30 -35 45
-57 18z"/>
<path d="M5575 2786 c-26 -19 -15 -50 19 -54 33 -4 49 14 36 39 -13 24 -35 30
-55 15z"/>
<path d="M5724 2872 c-35 -24 -15 -76 27 -70 16 2 25 10 27 26 6 38 -26 64
-54 44z"/>
<path d="M1386 2632 c-9 -14 12 -35 28 -29 23 9 20 37 -3 37 -11 0 -22 -4 -25
-8z"/>
<path d="M1392 2568 c-16 -16 -15 -35 3 -42 20 -7 45 3 45 18 0 13 -20 36 -30
36 -3 0 -11 -5 -18 -12z"/>
<path d="M1560 2585 c0 -54 1 -55 28 -55 36 0 52 17 52 55 0 38 -16 55 -52 55
-27 0 -28 -1 -28 -55z"/>
<path d="M2052 2602 c-10 -29 -9 -32 9 -32 20 0 23 12 10 44 -7 18 -9 16 -19
-12z"/>
<path d="M1764 2549 c-11 -18 13 -34 31 -19 8 7 15 16 15 21 0 13 -38 11 -46
-2z"/>
<path d="M2324 2549 c-11 -18 13 -34 31 -19 8 7 15 16 15 21 0 13 -38 11 -46
-2z"/>
<path d="M503 1841 c-97 -33 -186 -121 -225 -223 -30 -81 -23 -212 16 -292 99
-202 352 -274 538 -154 247 158 228 524 -34 652 -75 37 -214 45 -295 17z m247
-27 c39 -16 55 -44 25 -44 -8 0 -15 -9 -15 -21 0 -11 -5 -17 -10 -14 -6 4 -8
10 -5 15 10 17 -17 22 -116 24 -96 1 -99 0 -99 -21 0 -14 -6 -23 -15 -23 -22
0 -19 47 4 72 38 40 147 46 231 12z m-190 -69 c0 -8 -4 -15 -10 -15 -5 0 -10
7 -10 15 0 8 5 15 10 15 6 0 10 -7 10 -15z m50 1 c0 -9 -9 -14 -20 -13 -11 1
-20 7 -20 14 0 7 9 13 20 13 11 0 20 -6 20 -14z m32 -1 c0 -5 -5 -11 -11 -13
-6 -2 -11 4 -11 13 0 9 5 15 11 13 6 -2 11 -8 11 -13z m42 0 c3 -8 1 -15 -4
-15 -6 0 -10 7 -10 15 0 8 2 15 4 15 2 0 6 -7 10 -15z m33 -7 c-3 -8 -6 -5 -6
6 -1 11 2 17 5 13 3 -3 4 -12 1 -19z m-257 -9 c0 -6 -13 -21 -28 -34 -15 -13
-41 -47 -57 -77 -26 -46 -30 -63 -30 -128 1 -49 7 -89 18 -115 21 -47 21 -49
9 -53 -5 -1 -19 20 -31 47 -45 106 -21 243 59 334 31 36 60 48 60 26z m405
-31 c59 -67 79 -121 79 -208 0 -76 -29 -170 -53 -170 -15 0 -14 12 7 51 12 24
17 57 17 114 0 70 -4 87 -30 133 -16 30 -42 64 -58 78 -15 13 -25 28 -22 34
11 17 22 11 60 -32z m-157 -24 c54 -22 99 -71 118 -127 43 -128 -58 -266 -194
-267 -116 0 -201 87 -202 208 0 145 144 242 278 186z m134 -408 c-3 -5 -9 -1
-12 10 -4 10 -5 23 -2 28 3 5 9 1 12 -10 4 -10 5 -23 2 -28z m-379 -3 c3 -5
-8 -9 -24 -10 -17 -1 -27 2 -24 7 7 12 42 13 48 3z m358 -26 c-13 -13 -26 -3
-16 12 3 6 11 8 17 5 6 -4 6 -10 -1 -17z m-339 -10 c-17 -8 -26 -7 -35 3 -7 7
-7 10 -2 7 6 -3 17 -2 25 3 8 5 18 6 24 3 5 -4 0 -11 -12 -16z m58 -17 c0 -11
-31 -22 -39 -14 -3 4 0 9 7 11 6 3 10 9 7 14 -4 5 1 6 9 3 9 -3 16 -10 16 -14z
m188 -2 c-7 -13 -13 -24 -13 -24 0 -1 -11 -5 -25 -9 l-25 -8 20 23 c11 13 14
20 8 16 -7 -4 -13 -5 -13 -1 0 6 38 23 53 24 4 1 2 -9 -5 -21z m-158 -13 c-7
-8 -20 -15 -29 -15 -13 1 -13 3 3 15 26 19 42 19 26 0z m90 8 c-1 -26 -18 -34
-51 -25 l-34 10 35 2 c29 1 32 3 15 10 -18 8 -17 9 8 9 15 1 27 -2 27 -6z"/>
<path d="M543 1793 c9 -2 23 -2 30 0 6 3 -1 5 -18 5 -16 0 -22 -2 -12 -5z"/>
<path d="M598 1793 c7 -3 16 -2 19 1 4 3 -2 6 -13 5 -11 0 -14 -3 -6 -6z"/>
<path d="M655 1640 c-24 -4 -31 -11 -34 -35 -1 -16 -5 -34 -8 -38 -8 -14 -54
36 -48 51 5 13 3 13 -11 1 -14 -12 -14 -14 0 -24 9 -7 12 -15 8 -19 -4 -4 -1
-6 7 -4 7 2 16 -3 19 -11 3 -9 0 -11 -8 -6 -8 5 -11 4 -6 -3 3 -6 2 -13 -4
-17 -6 -4 -8 -10 -5 -15 3 -5 -4 -19 -16 -31 l-21 -21 21 7 c18 5 21 2 21 -22
0 -18 3 -24 9 -15 6 10 10 10 20 -2 10 -12 18 -13 33 -5 15 8 19 8 14 0 -4 -6
-3 -11 3 -11 5 0 11 6 14 13 3 9 8 9 21 -2 14 -12 16 -12 10 3 -3 9 -3 23 0
31 5 14 9 14 37 0 24 -13 30 -21 25 -38 -5 -21 -5 -21 9 -3 8 11 15 23 15 28
0 4 7 8 15 8 18 0 19 21 5 72 -21 75 -81 120 -145 108z m31 -55 c-25 -29 -46
-22 -46 15 0 22 5 29 23 32 35 5 47 -20 23 -47z m74 -36 c0 -5 -6 -9 -12 -9
-7 0 -23 -3 -35 -6 -28 -8 -30 11 -6 45 l16 24 19 -23 c10 -12 18 -26 18 -31z
m-92 -51 c6 -47 -59 -62 -73 -17 -9 27 13 51 44 47 20 -2 27 -9 29 -30z m112
-9 c0 -10 -4 -21 -10 -24 -9 -5 -70 20 -70 30 0 2 12 11 28 19 30 16 52 6 52
-25z"/>
<path d="M505 1586 c-20 -11 -23 -56 -4 -56 6 0 7 5 4 11 -4 6 1 16 10 23 24
17 16 35 -10 22z"/>
<path d="M500 1460 c-8 -5 -12 -12 -9 -15 4 -3 12 1 19 10 14 17 11 19 -10 5z"/>
<path d="M768 1406 c-10 -7 -18 -18 -18 -25 0 -20 16 -12 28 14 13 29 13 29
-10 11z"/>
<path d="M1417 1704 c-10 -11 -8 -42 3 -49 18 -11 50 6 50 26 0 10 -4 19 -9
19 -5 0 -16 2 -23 5 -8 3 -17 2 -21 -1z"/>
<path d="M1835 1650 c-4 -6 7 -10 25 -10 18 0 29 4 25 10 -3 6 -15 10 -25 10
-10 0 -22 -4 -25 -10z"/>
<path d="M4896 1601 c-5 -7 -3 -18 3 -24 14 -14 20 -6 11 17 -5 15 -9 16 -14
7z"/>
<path d="M4930 1515 c0 -18 4 -23 15 -19 8 4 15 12 15 19 0 7 -7 15 -15 19
-11 4 -15 -1 -15 -19z"/>
<path d="M5126 1570 c-14 -22 -26 -42 -26 -45 0 -3 14 -5 30 -5 29 0 30 2 30
45 0 25 -2 45 -4 45 -2 0 -15 -18 -30 -40z"/>
<path d="M5474 1615 c-7 -17 12 -45 31 -45 7 0 18 7 25 15 10 12 10 18 0 30
-16 19 -49 19 -56 0z"/>
<path d="M5476 1529 c-21 -31 -10 -51 28 -47 37 4 48 34 20 55 -24 18 -30 17
-48 -8z"/>
<path d="M5638 1571 c-16 -22 -28 -42 -28 -45 0 -3 14 -6 30 -6 29 0 30 2 30
45 0 25 -1 45 -2 45 -2 0 -15 -18 -30 -39z"/>
<path d="M4740 1590 c0 -29 2 -31 33 -28 27 2 32 7 32 28 0 21 -5 26 -32 28
-31 3 -33 1 -33 -28z"/>
<path d="M1391 1291 c-27 -37 -26 -41 4 -41 22 0 25 4 25 35 0 19 -2 35 -4 35
-3 0 -14 -13 -25 -29z"/>
<path d="M1550 1275 c0 -54 1 -55 28 -55 36 0 52 17 52 55 0 38 -16 55 -52 55
-27 0 -28 -1 -28 -55z"/>
<path d="M2042 1295 c-16 -34 -15 -35 8 -35 21 0 24 12 11 43 -6 17 -8 16 -19
-8z"/>
<path d="M1754 1239 c-11 -18 13 -34 31 -19 8 7 15 16 15 21 0 13 -38 11 -46
-2z"/>
<path d="M2310 1236 c0 -19 14 -28 34 -20 25 10 19 34 -9 34 -15 0 -25 -6 -25
-14z"/>
<path d="M7930 601 c0 -24 13 -33 35 -25 23 9 14 38 -13 42 -16 3 -22 -2 -22
-17z"/>
<path d="M8797 603 c-4 -3 -7 -19 -7 -34 0 -27 -2 -28 -25 -17 -39 18 -79 -16
-83 -70 -5 -60 19 -80 97 -80 l61 0 0 104 c0 94 -2 104 -18 104 -10 0 -22 -3
-25 -7z m-17 -97 c17 -21 8 -60 -14 -64 -18 -4 -46 21 -46 39 0 10 29 39 39
39 5 0 14 -7 21 -14z"/>
<path d="M5880 500 l0 -100 55 0 c71 0 116 35 118 92 2 68 -50 108 -140 108
l-33 0 0 -100z m118 33 c26 -35 -1 -93 -44 -93 -23 0 -24 3 -24 61 l0 61 28
-6 c15 -4 33 -14 40 -23z"/>
<path d="M7330 500 c0 -99 0 -100 24 -100 22 0 25 5 28 43 l3 42 23 -42 c17
-33 28 -43 47 -43 l25 0 -19 38 c-19 38 -19 39 0 55 19 17 25 52 11 74 -11 18
-58 33 -103 33 l-39 0 0 -100z m98 33 c3 -19 -1 -23 -22 -23 -21 0 -26 5 -26
26 0 21 4 25 23 22 14 -2 23 -11 25 -25z"/>
<path d="M9118 535 c3 -56 6 -65 23 -65 17 0 19 8 19 65 0 61 -1 65 -22 65
-22 0 -23 -3 -20 -65z"/>
<path d="M8220 575 c0 -8 -4 -15 -10 -15 -5 0 -10 -9 -10 -19 0 -11 5 -23 10
-26 6 -3 10 -25 10 -49 0 -47 13 -66 47 -66 27 0 33 34 8 44 -9 3 -15 19 -15
41 0 24 4 35 15 35 8 0 15 9 15 20 0 11 -7 20 -15 20 -8 0 -15 7 -15 15 0 8
-9 15 -20 15 -11 0 -20 -7 -20 -15z"/>
<path d="M6132 550 c-45 -18 -55 -88 -17 -125 28 -29 70 -32 103 -9 35 24 26
35 -24 32 -31 -2 -48 1 -51 10 -3 9 11 12 51 12 31 0 56 2 56 4 0 23 -26 66
-46 75 -29 13 -41 13 -72 1z m66 -47 c2 -9 -7 -13 -27 -13 -30 0 -39 9 -24 24
11 10 46 3 51 -11z"/>
<path d="M6312 544 c-40 -28 -25 -65 31 -79 15 -4 27 -13 27 -21 0 -16 -26
-19 -35 -4 -10 15 -45 12 -45 -5 0 -36 86 -48 114 -16 25 27 12 57 -29 71 -54
18 -54 33 -1 25 41 -7 46 -5 40 10 -7 16 -43 35 -67 35 -7 0 -23 -7 -35 -16z"/>
<path d="M6470 445 c0 -108 1 -115 20 -115 17 0 20 7 20 45 0 42 2 45 19 35
77 -41 139 62 76 125 -27 28 -37 30 -68 14 -16 -9 -22 -9 -25 0 -2 6 -12 11
-23 11 -18 0 -19 -8 -19 -115z m100 61 c17 -21 8 -60 -14 -64 -37 -8 -54 48
-22 70 16 11 22 10 36 -6z"/>
<path d="M6696 539 c-33 -26 -37 -88 -6 -119 29 -29 81 -26 111 6 l24 26 -50
-4 c-28 -1 -51 1 -53 7 -1 6 20 11 48 13 42 3 50 6 50 23 0 28 -44 69 -73 69
-13 0 -36 -9 -51 -21z m72 -36 c2 -8 -6 -13 -22 -13 -25 0 -33 10 -19 24 10
10 36 3 41 -11z"/>
<path d="M6893 550 c-17 -7 -23 -18 -23 -39 0 -25 6 -31 41 -45 32 -13 39 -20
30 -29 -8 -8 -14 -8 -23 1 -14 14 -58 16 -58 3 0 -16 42 -41 68 -41 37 0 62
18 62 46 0 21 -8 29 -40 41 -22 9 -40 20 -40 25 0 6 17 7 40 3 45 -8 53 5 18
29 -25 18 -42 19 -75 6z"/>
<path d="M7067 548 c-38 -30 -43 -92 -9 -130 17 -21 62 -24 80 -6 9 9 12 9 12
0 0 -7 11 -12 25 -12 26 0 26 0 23 78 -3 71 -5 77 -25 80 -13 2 -23 -2 -23 -8
0 -7 -6 -8 -19 0 -26 13 -44 13 -64 -2z m71 -40 c17 -17 15 -43 -4 -59 -31
-26 -70 25 -44 56 15 18 32 19 48 3z"/>
<path d="M7562 550 c-45 -18 -55 -88 -17 -125 28 -29 70 -32 103 -9 35 24 26
35 -24 32 -31 -2 -48 1 -51 10 -3 9 11 12 51 12 31 0 56 2 56 4 0 23 -26 66
-46 75 -29 13 -41 13 -72 1z m66 -47 c2 -9 -7 -13 -27 -13 -30 0 -39 9 -24 24
11 10 46 3 51 -11z"/>
<path d="M7747 548 c-38 -30 -43 -92 -9 -130 17 -21 62 -24 80 -6 9 9 12 7 12
-9 0 -30 -24 -47 -49 -34 -24 13 -61 14 -61 3 0 -13 32 -39 58 -47 33 -10 78
12 92 44 6 15 10 63 8 107 -3 73 -5 79 -25 82 -13 2 -23 -2 -23 -8 0 -7 -6 -8
-19 0 -26 13 -44 13 -64 -2z m71 -40 c17 -17 15 -43 -4 -59 -31 -26 -70 25
-44 56 15 18 32 19 48 3z"/>
<path d="M7930 481 c0 -80 0 -81 25 -81 26 0 26 0 23 78 -3 71 -5 77 -25 80
-22 3 -23 1 -23 -77z"/>
<path d="M8052 544 c-40 -28 -25 -65 31 -79 15 -4 27 -13 27 -21 0 -16 -26
-19 -35 -4 -10 15 -45 12 -45 -5 0 -36 86 -48 114 -16 25 27 12 57 -29 71 -54
18 -54 33 -1 25 41 -7 46 -5 40 10 -7 16 -43 35 -67 35 -7 0 -23 -7 -35 -16z"/>
<path d="M8340 480 c0 -73 2 -80 20 -80 16 0 20 7 20 36 0 42 15 74 35 74 9 0
15 10 15 25 0 23 -2 25 -22 14 -16 -9 -23 -9 -26 0 -2 6 -12 11 -23 11 -17 0
-19 -8 -19 -80z"/>
<path d="M8495 535 c-63 -62 0 -165 76 -125 13 7 19 7 19 0 0 -5 9 -10 20 -10
18 0 20 7 20 80 0 72 -2 80 -19 80 -11 0 -21 -5 -23 -11 -3 -9 -9 -9 -25 0
-31 16 -41 14 -68 -14z m71 -23 c32 -22 15 -78 -22 -70 -22 4 -31 43 -14 64
14 16 20 17 36 6z"/>
<path d="M8916 539 c-20 -16 -26 -29 -26 -60 0 -58 24 -77 99 -77 l61 0 0 79
c0 72 -2 79 -19 79 -11 0 -23 -5 -26 -10 -4 -7 -12 -7 -25 0 -26 14 -34 13
-64 -11z m74 -33 c17 -21 8 -60 -14 -64 -18 -4 -46 21 -46 39 0 10 29 39 39
39 5 0 14 -7 21 -14z"/>
<path d="M9120 435 c-15 -18 -5 -35 20 -35 10 0 22 5 25 10 7 11 -12 40 -25
40 -4 0 -13 -7 -20 -15z"/>
<path d="M6300 8489 c-166 -65 -272 -194 -302 -368 -8 -45 -8 -82 -2 -112 8
-38 17 -50 74 -92 75 -56 80 -62 80 -103 0 -57 12 -95 34 -107 18 -10 187 -27
266 -27 80 0 248 17 266 28 18 9 23 25 29 83 l7 70 75 56 75 55 -4 103 c-3 93
-6 108 -40 176 -48 97 -121 169 -217 217 -70 34 -81 37 -180 39 -89 3 -115 0
-161 -18z m134 -151 c3 -50 7 -137 7 -192 2 -135 16 -79 18 69 1 61 4 134 7
163 6 48 9 52 34 52 47 0 91 -20 86 -39 -9 -28 -75 -365 -73 -368 3 -2 63 201
98 330 l10 38 40 -23 c22 -12 45 -28 50 -34 12 -14 9 -21 -85 -216 -36 -76
-64 -138 -61 -138 2 0 25 37 50 83 26 45 66 113 88 151 l40 70 23 -28 c48 -55
45 -64 -66 -203 l-103 -128 104 103 c57 56 107 102 111 102 10 0 20 -70 13
-98 -4 -19 -27 -42 -75 -76 l-69 -48 -7 -69 -7 -69 -80 0 c-44 0 -96 -5 -114
-12 -27 -10 -38 -10 -53 0 -12 7 -55 12 -104 12 l-84 0 -7 66 c-8 73 -9 74
-89 129 -33 22 -59 49 -62 62 -7 25 1 91 11 101 3 3 53 -41 112 -99 l105 -104
-105 129 c-94 114 -105 131 -96 153 11 28 41 72 50 73 4 0 42 -61 84 -135 43
-74 79 -135 82 -135 2 0 3 3 0 8 -2 4 -34 74 -72 156 l-70 149 34 27 c65 55
63 57 122 -151 29 -104 54 -187 55 -186 2 2 -15 90 -36 197 -22 106 -39 195
-37 195 21 16 49 24 78 25 l36 0 7 -92z"/>
<path d="M5726 7578 c3 -5 10 -6 15 -3 13 9 11 12 -6 12 -8 0 -12 -4 -9 -9z"/>
<path d="M5686 7538 c3 -5 10 -6 15 -3 13 9 11 12 -6 12 -8 0 -12 -4 -9 -9z"/>
</g>
</svg>
