<?xml version="1.0" standalone="no"?>
<!DOCTYPE svg PUBLIC "-//W3C//DTD SVG 20010904//EN"
 "http://www.w3.org/TR/2001/REC-SVG-20010904/DTD/svg10.dtd">
<svg version="1.0" xmlns="http://www.w3.org/2000/svg"
 width="256.000000pt" height="87.000000pt" viewBox="0 0 256.000000 87.000000"
 preserveAspectRatio="xMidYMid meet">

<g transform="translate(0.000000,87.000000) scale(0.100000,-0.100000)"
fill="#000000" stroke="none">
<path d="M907 820 c-31 -10 -57 -28 -57 -41 0 -15 58 -39 95 -39 38 0 95 24
95 40 0 28 -87 54 -133 40z m63 -22 c16 -18 20 -19 14 -5 -6 16 -4 16 21 5
l27 -12 -23 -19 c-15 -12 -25 -15 -27 -7 -3 8 -7 8 -17 0 -20 -17 -105 1 -105
21 0 7 32 29 43 29 3 0 3 -10 1 -22 -2 -13 -1 -16 2 -8 5 13 33 40 41 40 1 0
12 -10 23 -22z"/>
<path d="M936 793 c-11 -11 -6 -23 9 -23 8 0 15 4 15 9 0 13 -16 22 -24 14z"/>
<path d="M342 724 c-43 -30 -17 -104 36 -104 25 0 62 33 62 55 0 19 -44 65
-62 65 -8 0 -24 -7 -36 -16z"/>
<path d="M119 696 c-72 -49 -87 -142 -40 -235 12 -22 18 -47 15 -55 -7 -19
-36 -29 -58 -20 -14 5 -16 -2 -16 -55 0 -58 2 -62 27 -72 34 -13 88 -4 128 21
67 41 86 130 46 213 -28 58 -25 91 9 95 24 3 25 6 24 65 l-2 62 -48 3 c-39 2
-57 -3 -85 -22z"/>
<path d="M890 485 l0 -225 60 0 60 0 0 225 0 225 -60 0 -60 0 0 -225z"/>
<path d="M605 585 c-110 -40 -145 -174 -69 -265 36 -43 75 -60 132 -60 76 0
144 55 158 129 l7 34 -59 -8 c-32 -4 -66 -13 -75 -21 -35 -31 -79 -10 -79 38
0 36 36 56 68 39 11 -6 48 -11 82 -11 59 0 61 1 54 23 -27 87 -130 135 -219
102z"/>
<path d="M1177 586 c-42 -15 -73 -40 -89 -71 -64 -118 18 -255 152 -255 51 0
88 19 127 63 72 82 41 211 -61 258 -48 22 -77 23 -129 5z m84 -116 c22 -12 26
-59 7 -78 -7 -7 -21 -12 -33 -12 -29 0 -45 19 -45 52 0 39 34 57 71 38z"/>
<path d="M1567 586 c-46 -17 -73 -40 -95 -81 -14 -24 -17 -62 -17 -195 l0
-165 57 -3 56 -3 4 156 c3 141 5 158 22 171 25 18 41 18 60 -2 34 -34 3 -96
-40 -80 -11 4 -14 -8 -14 -59 l0 -65 39 0 c45 0 96 31 128 79 31 45 32 130 2
177 -40 66 -129 97 -202 70z"/>
<path d="M1945 585 c-50 -18 -91 -62 -105 -115 -37 -137 101 -252 235 -196 19
8 35 17 35 20 0 3 -14 21 -31 40 -25 29 -35 34 -58 30 -18 -4 -33 0 -44 11
-19 18 -22 76 -7 106 13 24 65 26 74 3 9 -23 9 -22 -26 -26 -25 -2 -33 -8 -33
-23 0 -18 8 -20 94 -23 l94 -3 -5 45 c-7 57 -40 103 -92 127 -49 22 -77 23
-131 4z"/>
<path d="M320 425 l0 -166 58 3 57 3 3 163 2 162 -60 0 -60 0 0 -165z"/>
</g>
</svg>
