<?xml version="1.0" standalone="no"?>
<!DOCTYPE svg PUBLIC "-//W3C//DTD SVG 20010904//EN"
 "http://www.w3.org/TR/2001/REC-SVG-20010904/DTD/svg10.dtd">
<svg version="1.0" xmlns="http://www.w3.org/2000/svg"
 width="1024.000000pt" height="300.000000pt" viewBox="0 0 1024.000000 300.000000"
 preserveAspectRatio="xMidYMid meet">

<g transform="translate(0.000000,300.000000) scale(0.100000,-0.100000)"
fill="#000000" stroke="none">
<path d="M4469 2695 c-103 -26 -277 -119 -319 -170 -13 -16 -11 -21 27 -55 54
-47 155 -101 258 -136 146 -49 335 -35 479 38 68 34 165 98 184 121 28 33
-159 154 -299 193 -79 22 -261 27 -330 9z m38 -27 c-58 -47 -80 -98 -75 -173
4 -70 32 -121 81 -150 15 -9 26 -19 23 -22 -9 -9 -148 38 -221 74 -71 35 -165
99 -165 111 0 12 102 83 165 115 53 27 193 76 220 76 6 0 -7 -14 -28 -31z
m228 -12 c75 -58 96 -174 45 -249 -79 -115 -237 -114 -312 2 -26 41 -29 53
-26 108 3 51 9 69 34 100 45 56 87 75 160 71 49 -3 69 -10 99 -32z m114 2 c96
-32 242 -124 241 -151 -1 -7 -20 -26 -43 -43 -95 -70 -207 -121 -302 -138
l-40 -8 41 36 c51 44 74 90 74 150 0 61 -22 111 -67 153 l-36 34 39 -7 c21 -4
63 -15 93 -26z"/>
<path d="M4596 2583 c7 -36 -15 -57 -52 -50 -26 5 -26 4 -21 -37 10 -70 85
-109 148 -76 24 13 49 61 49 94 0 38 -48 86 -93 93 -37 6 -37 5 -31 -24z"/>
<path d="M1658 2173 c18 -2 45 -2 60 0 15 2 0 4 -33 4 -33 0 -45 -2 -27 -4z"/>
<path d="M1574 2154 c-19 -15 -19 -15 1 -6 11 5 27 12 35 15 13 5 13 6 -1 6
-8 1 -24 -6 -35 -15z"/>
<path d="M1775 2153 c43 -22 92 -71 106 -105 6 -16 14 -27 16 -24 8 8 -25 61
-59 92 -33 32 -69 54 -85 54 -4 -1 6 -8 22 -17z"/>
<path d="M523 2146 c-138 -34 -268 -134 -346 -266 -56 -96 -71 -157 -71 -285
0 -135 20 -212 100 -386 60 -132 75 -195 54 -234 -29 -53 -129 -71 -206 -36
l-41 19 -7 -97 c-3 -53 -6 -160 -6 -238 l0 -142 33 -17 c86 -45 247 -58 361
-28 258 67 446 303 446 560 0 109 -17 165 -102 332 -87 171 -96 217 -58 280
34 55 88 69 173 46 16 -5 17 9 15 238 l-3 243 -55 12 c-73 15 -222 14 -287 -1z
m268 -7 l69 -12 0 -228 0 -227 -58 1 c-96 3 -142 -37 -150 -130 -5 -62 3 -84
74 -213 29 -53 65 -131 79 -175 66 -197 -5 -440 -172 -584 -59 -52 -167 -106
-253 -127 -88 -22 -233 -15 -313 16 l-59 22 7 227 c4 124 9 227 10 229 1 1 18
-5 38 -13 73 -30 169 -12 202 39 27 41 15 107 -40 226 -97 213 -124 334 -105
484 12 97 32 151 88 234 87 127 214 212 352 235 52 9 164 7 231 -4z"/>
<path d="M1514 2108 l-29 -33 33 29 c30 28 37 36 29 36 -2 0 -16 -15 -33 -32z"/>
<path d="M4400 1250 l0 -830 230 0 230 0 0 830 0 830 -230 0 -230 0 0 -830z
m450 0 l0 -820 -220 0 -220 0 0 820 0 820 220 0 220 0 0 -820z"/>
<path d="M1470 2049 c-6 -11 -10 -25 -8 -30 2 -5 8 4 15 21 13 34 9 40 -7 9z"/>
<path d="M1902 1990 c0 -14 2 -19 5 -12 2 6 2 18 0 25 -3 6 -5 1 -5 -13z"/>
<path d="M1451 1952 c-1 -63 19 -115 62 -160 33 -35 85 -67 94 -59 2 3 -5 8
-17 12 -31 10 -88 63 -107 99 -9 17 -20 60 -23 96 l-7 65 -2 -53z"/>
<path d="M1902 1910 c0 -14 2 -19 5 -12 2 6 2 18 0 25 -3 6 -5 1 -5 -13z"/>
<path d="M1881 1852 c-14 -34 -63 -83 -106 -105 -16 -9 -25 -16 -19 -17 14 0
85 47 102 69 20 25 44 72 39 77 -2 3 -10 -8 -16 -24z"/>
<path d="M1628 1723 c6 -2 18 -2 25 0 6 3 1 5 -13 5 -14 0 -19 -2 -12 -5z"/>
<path d="M1708 1723 c6 -2 18 -2 25 0 6 3 1 5 -13 5 -14 0 -19 -2 -12 -5z"/>
<path d="M2945 1681 c-108 -31 -184 -78 -271 -165 -65 -65 -89 -98 -122 -166
-53 -112 -67 -174 -66 -295 0 -149 34 -247 128 -372 80 -106 230 -202 365
-233 69 -16 204 -16 273 0 255 60 466 285 494 528 l7 62 -110 0 c-60 0 -164
-3 -231 -7 l-122 -6 -21 -45 c-51 -105 -182 -121 -263 -32 -42 47 -50 73 -44
146 5 61 26 96 79 132 50 35 132 28 193 -16 51 -36 58 -37 340 -25 l158 6 -5
45 c-3 24 -23 81 -46 127 -73 149 -230 270 -407 315 -98 25 -244 26 -329 1z
m373 -24 c103 -36 175 -81 253 -158 72 -71 134 -180 145 -255 l6 -41 -222 -8
c-213 -7 -222 -6 -243 13 -64 58 -171 69 -234 24 -68 -48 -94 -171 -53 -251
67 -132 243 -132 310 -1 l19 37 137 6 c75 4 175 7 221 7 95 0 91 6 68 -103
-44 -210 -239 -406 -460 -462 -76 -19 -224 -19 -300 0 -217 55 -404 242 -456
455 -8 30 -13 100 -13 155 1 81 7 116 30 185 68 204 230 359 434 415 88 24
266 15 358 -18z"/>
<path d="M5948 1690 c-206 -37 -380 -165 -467 -341 -53 -108 -71 -183 -71
-289 0 -175 58 -310 189 -441 67 -67 103 -94 163 -123 107 -51 200 -69 318
-63 175 11 312 69 425 182 118 118 185 279 185 446 0 108 -15 169 -66 277 -77
159 -226 284 -404 336 -66 20 -207 28 -272 16z m250 -21 c26 -6 85 -29 132
-52 112 -53 229 -166 283 -274 165 -333 8 -741 -329 -858 -332 -115 -653 9
-803 311 -114 230 -69 502 115 694 102 107 223 169 379 193 43 7 167 -1 223
-14z"/>
<path d="M5997 1245 c-85 -30 -131 -105 -125 -200 7 -106 68 -165 173 -165 87
0 150 45 179 127 33 94 -32 215 -132 243 -46 12 -48 12 -95 -5z m148 -31 c66
-43 94 -158 56 -231 -30 -60 -73 -87 -146 -91 -45 -2 -69 2 -95 16 -129 70
-93 301 51 331 40 9 100 -3 134 -25z"/>
<path d="M9475 1686 c-303 -60 -483 -273 -501 -590 -15 -269 102 -480 331
-594 173 -87 319 -100 485 -45 70 23 202 92 215 112 3 5 -52 76 -122 158 -69
81 -127 149 -128 151 -1 1 -29 -12 -63 -29 -80 -41 -119 -36 -179 27 -119 123
-88 391 50 443 69 26 155 2 188 -53 33 -54 29 -56 -85 -56 -137 0 -138 -1
-134 -129 l3 -96 346 -3 346 -2 7 31 c9 48 -12 205 -39 282 -85 245 -283 388
-554 402 -60 3 -122 -1 -166 -9z m310 -21 c104 -27 183 -72 260 -149 113 -114
175 -270 175 -443 l0 -83 -337 2 -338 3 -3 85 c-1 47 2 91 7 99 6 9 42 15 120
19 125 5 130 10 88 73 -28 43 -80 69 -135 69 -50 0 -86 -17 -123 -57 -53 -56
-64 -90 -64 -198 0 -90 3 -106 28 -158 53 -108 156 -143 245 -84 l39 26 104
-122 c159 -185 147 -166 118 -190 -40 -32 -152 -84 -220 -103 -198 -53 -438
15 -594 170 -123 121 -169 239 -169 431 0 197 46 324 162 446 148 158 405 224
637 164z"/>
<path d="M7695 1675 c-113 -29 -202 -82 -296 -175 -128 -128 -185 -252 -191
-420 -2 -41 -2 -301 0 -577 l2 -503 228 0 229 0 6 551 c7 547 7 552 30 593 12
22 38 51 57 64 68 47 190 10 230 -69 40 -77 18 -170 -50 -215 -58 -38 -100
-41 -156 -10 -25 14 -48 26 -50 26 -2 0 -4 -114 -4 -254 l0 -253 31 -7 c57
-11 172 -6 238 10 390 96 598 533 421 884 -123 244 -477 417 -725 355z m219
-9 c152 -30 275 -95 386 -206 122 -122 173 -244 172 -415 -1 -107 -19 -179
-68 -277 -46 -92 -171 -219 -261 -266 -110 -58 -270 -86 -372 -66 l-31 6 0
239 c0 132 1 239 3 239 1 0 20 -9 42 -20 48 -25 78 -25 130 -1 70 32 105 86
105 161 0 75 -35 129 -105 161 -81 38 -163 17 -211 -53 -25 -36 -29 -52 -35
-151 -4 -62 -8 -313 -8 -559 l-1 -448 -220 0 -220 0 0 568 c0 631 -1 625 67
762 69 139 219 263 378 313 91 29 148 32 249 13z"/>
<path d="M1447 1633 c-4 -3 -7 -278 -7 -610 l0 -603 228 0 229 0 6 182 c4 99
7 374 7 610 l0 428 -228 0 c-126 0 -232 -3 -235 -7z m453 -331 c0 -181 -3
-451 -7 -600 l-6 -272 -219 0 -218 0 0 593 c0 327 3 597 7 600 3 4 105 7 225
7 l218 0 0 -328z"/>
</g>
</svg>
